<?xml version="1.0" encoding="utf-8"?>
<!-- Generator: Adobe Illustrator 18.1.1, SVG Export Plug-In . SVG Version: 6.00 Build 0)  -->
<svg version="1.0" id="Seected" xmlns="http://www.w3.org/2000/svg" xmlns:xlink="http://www.w3.org/1999/xlink" x="0px" y="0px"
	 viewBox="0 0 24 24" enable-background="new 0 0 24 24" xml:space="preserve">
<g>
	<path fill="#6B6B6B" stroke="#6B6B6B" stroke-width="0.6" stroke-miterlimit="10" d="M19.6,7.3c-5.1,0-10.2,0-15.2,0
		c0,3.2,0,6.4,0,9.7c1.1,0,1.4,0,2.6,0c0,0.2,0,0.5,0,0.7c-1.4,0-1.9,0-3.3,0c0-3.7,0-7.4,0-11.1c5.5,0,11.1,0,16.6,0
		c0,3.7,0,7.4,0,11.1c-1.4,0-1.9,0-3.2,0c0-0.2,0-0.4,0-0.7c1.1,0,1.4,0,2.6,0C19.6,13.7,19.6,10.5,19.6,7.3z"/>
	<path fill="#6B6B6B" stroke="#6B6B6B" stroke-width="0.6" stroke-miterlimit="10" d="M16.8,20.4c-3.2,0-6.4,0-9.5,0
		c1.6-1.6,3.2-3.2,4.8-4.8C13.6,17.2,15.2,18.8,16.8,20.4z M12,16.6c-1.1,1.1-2.1,2.1-3.1,3.1c2,0,4.1,0,6.2,0
		C14.1,18.7,13.1,17.6,12,16.6z"/>
</g>
</svg>
