<?xml version="1.0" encoding="utf-8"?>
<!-- Generator: Adobe Illustrator 18.1.1, SVG Export Plug-In . SVG Version: 6.00 Build 0)  -->
<svg version="1.1" id="Seected" xmlns="http://www.w3.org/2000/svg" xmlns:xlink="http://www.w3.org/1999/xlink" x="0px" y="0px"
	 viewBox="0 0 24 24" enable-background="new 0 0 24 24" xml:space="preserve">
<g>
	<g>
		<g>
			<path fill="#6B6B6B" d="M3,12c0-5,4.1-9,9-9c5,0,9,4.1,9,9c0,4.8-3.7,8.9-8.7,9C6.9,21.1,3,16.9,3,12z M12.4,12.4
				c0,1.4,0,2.9,0,4.3c0,0,0.1,0,0.1,0c1.2,0,2.3-0.1,3.4-0.3c0.2,0,0.2-0.1,0.3-0.2c0.4-1.1,0.7-2.3,0.7-3.5c0-0.1,0-0.2,0-0.3
				C15.4,12.4,13.9,12.4,12.4,12.4z M17,11.7c0-0.4-0.1-0.8-0.1-1.2c-0.1-0.9-0.3-1.8-0.7-2.7c0-0.1-0.1-0.1-0.2-0.1
				c-1.2-0.1-2.3-0.2-3.5-0.3c0,0-0.1,0-0.1,0c0,1.4,0,2.8,0,4.3C13.9,11.7,15.4,11.7,17,11.7z M11.7,12.4c-1.5,0-3,0-4.5,0
				c0,0.4,0.1,0.7,0.1,1.1c0.1,1,0.3,1.9,0.7,2.8c0,0.1,0.1,0.1,0.2,0.1c0.9,0.1,1.8,0.2,2.7,0.2c0.2,0,0.5,0,0.8,0
				C11.7,15.2,11.7,13.8,11.7,12.4z M7.2,11.7c1.5,0,3,0,4.5,0c0-1.4,0-2.8,0-4.3c0,0-0.1,0-0.1,0c-1.1,0.1-2.3,0.2-3.4,0.2
				C8.1,7.7,8,7.8,7.9,7.9c-0.4,0.9-0.6,1.9-0.7,2.9C7.3,11.1,7.2,11.4,7.2,11.7z M6.5,12.4c-1,0-1.9,0-2.8,0c0,0.1,0,0.2,0,0.3
				c0.1,1,0.3,2,0.8,3c0.1,0.1,0.1,0.2,0.3,0.2c0.5,0.1,1,0.2,1.5,0.3c0.3,0.1,0.6,0.1,0.9,0.2C6.8,15,6.6,13.7,6.5,12.4z M6.5,11.7
				c0-1.3,0.2-2.6,0.7-3.9c-0.1,0-0.1,0-0.2,0C6.3,8,5.4,8.2,4.6,8.4c-0.1,0-0.1,0.1-0.1,0.1c-0.3,0.6-0.5,1.3-0.6,2
				c-0.1,0.4-0.1,0.8-0.1,1.1C4.7,11.7,5.6,11.7,6.5,11.7z M20.3,11.7c0-0.2,0-0.4,0-0.5c-0.1-1-0.3-1.9-0.8-2.7
				c0-0.1-0.1-0.1-0.2-0.2c-0.6-0.1-1.1-0.2-1.7-0.4c-0.2,0-0.5-0.1-0.7-0.1c0.5,1.3,0.7,2.6,0.7,3.9C18.5,11.7,19.4,11.7,20.3,11.7
				z M17.6,12.4c0,1.3-0.2,2.6-0.7,3.9c0.1,0,0.1,0,0.1,0c0.7-0.2,1.5-0.3,2.2-0.5c0.1,0,0.2-0.1,0.2-0.2c0.3-0.7,0.6-1.5,0.7-2.3
				c0-0.3,0.1-0.6,0.1-0.9C19.4,12.4,18.5,12.4,17.6,12.4z M12.4,6.7c1.1,0.1,2.2,0.2,3.4,0.2c-0.8-1.4-1.9-2.4-3.4-3.1
				C12.4,4.8,12.4,5.8,12.4,6.7z M12.4,20.3c1.5-0.7,2.6-1.7,3.3-3.1c-1.1,0.1-2.2,0.2-3.3,0.2C12.4,18.3,12.4,19.3,12.4,20.3z
				 M11.7,3.9c-1.5,0.7-2.5,1.7-3.3,3c1.1-0.1,2.2-0.1,3.3-0.2C11.7,5.8,11.7,4.9,11.7,3.9z M8.4,17.2c0.8,1.3,1.8,2.4,3.3,3.1
				c0-1,0-1.9,0-2.8C10.6,17.3,9.5,17.3,8.4,17.2z M5,7.5C5,7.5,5.1,7.5,5,7.5c0.8-0.1,1.6-0.3,2.4-0.5c0.1,0,0.2-0.1,0.2-0.2
				c0.5-1,1.2-1.9,2.1-2.6c0.2-0.1,0.4-0.3,0.6-0.4C7.9,4.3,5.9,6,5,7.5z M5.1,16.6c0.6,0.9,1.3,1.6,2.2,2.2c0.9,0.6,1.8,1,2.8,1.3
				c0,0,0-0.1,0-0.1c-1-0.8-1.8-1.8-2.4-2.9c0-0.1-0.1-0.1-0.2-0.1c-0.4-0.1-0.8-0.1-1.2-0.2C5.9,16.8,5.5,16.7,5.1,16.6z M19,7.5
				C18.3,6.1,15.4,4,14,4c0,0,0,0,0,0c1.1,0.8,2,1.8,2.6,3c0,0.1,0.1,0.1,0.2,0.1c0.5,0.1,0.9,0.2,1.4,0.2C18.4,7.4,18.7,7.4,19,7.5
				z M14.2,20c2-0.5,3.6-1.7,4.8-3.4c0,0-0.1,0-0.1,0c-0.7,0.1-1.4,0.3-2.1,0.4c-0.2,0-0.2,0.1-0.3,0.2c-0.5,0.9-1.1,1.7-1.8,2.4
				C14.5,19.7,14.3,19.9,14.2,20z"/>
		</g>
	</g>
</g>
</svg>
