<?xml version="1.0" encoding="utf-8"?>
<!-- Generator: Adobe Illustrator 18.1.1, SVG Export Plug-In . SVG Version: 6.00 Build 0)  -->
<svg version="1.0" id="Seected" xmlns="http://www.w3.org/2000/svg" xmlns:xlink="http://www.w3.org/1999/xlink" x="0px" y="0px"
	 viewBox="0 0 24 24" enable-background="new 0 0 24 24" xml:space="preserve">
<g>
	<g>
		<path fill="#2B579A" d="M12.9,4.5c0,5,0,10,0,15c-0.4-0.1-0.9-0.1-1.3-0.2c-1.7-0.3-3.3-0.6-5-0.8c-0.7-0.1-1.3-0.2-2-0.3
			c-0.2,0-0.2-0.1-0.2-0.3c0-2.1,0-4.2,0-6.2c0-1.8,0-3.6,0-5.5c0-0.2,0.1-0.3,0.3-0.3c2-0.3,4-0.7,6.1-1c0.7-0.1,1.3-0.2,2-0.3
			C12.8,4.5,12.9,4.5,12.9,4.5z M5.7,9.5C5.7,9.6,5.7,9.6,5.7,9.5c0.4,1.7,0.9,3.4,1.3,5c0,0,0.1,0.1,0.1,0.1c0.2,0,0.4,0,0.6,0.1
			c0.1,0,0.2,0,0.2-0.2c0.2-0.9,0.3-1.8,0.5-2.7c0.1-0.4,0.1-0.8,0.2-1.2c0,0,0,0,0.1,0C9,12,9.2,13.4,9.5,14.8c0.3,0,0.6,0,0.9,0.1
			c0.5-1.9,0.9-3.8,1.4-5.8c-0.3,0-0.5,0.1-0.8,0.1c-0.2,0-0.2,0.1-0.2,0.2c-0.2,1.1-0.4,2.2-0.6,3.3c0,0.2-0.1,0.4-0.1,0.7
			c0-0.1-0.1-0.1-0.1-0.1C9.7,12,9.5,10.7,9.3,9.5c0-0.1-0.1-0.2-0.2-0.2c-0.2,0-0.5,0-0.7,0c-0.1,0-0.2,0.1-0.2,0.2
			c-0.2,1-0.3,2-0.5,3c0,0.2-0.1,0.5-0.1,0.8c0-0.1,0-0.1-0.1-0.1C7.2,12,7,10.8,6.7,9.6c0-0.1-0.1-0.2-0.2-0.2
			C6.3,9.5,6,9.5,5.7,9.5z"/>
		<path fill="#2B579A" d="M18.1,16.3c0-0.2,0-0.4,0-0.6c-0.1,0-0.2,0-0.3,0c-1.4,0-2.7,0-4.1,0c-0.2,0-0.3,0-0.3-0.3
			c0-0.1,0-0.3,0-0.4c0-0.2,0.1-0.3,0.3-0.3c1.4,0,2.7,0,4.1,0c0.1,0,0.2,0,0.3,0c0-0.2,0-0.4,0-0.6c-0.1,0-0.2,0-0.3,0
			c-1.4,0-2.7,0-4.1,0c-0.3,0-0.3,0-0.3-0.3c0-0.1,0-0.3,0-0.4c0-0.2,0-0.3,0.3-0.3c1.4,0,2.7,0,4.1,0c0.1,0,0.2,0,0.3,0
			c0-0.2,0-0.4,0-0.6c-0.1,0-0.3,0-0.4,0c-1.3,0-2.6,0-4,0c-0.2,0-0.3-0.1-0.3-0.3c0-0.2-0.1-0.5,0.1-0.6c0.1-0.1,0.4,0,0.6,0
			c1.2,0,2.3,0,3.5,0c0.2,0,0.3,0,0.5,0c0-0.2,0-0.4,0-0.6c-0.1,0-0.2,0-0.3,0c-1.4,0-2.8,0-4.1,0c-0.2,0-0.3,0-0.3-0.2
			c0-0.2,0-0.3,0-0.5c0-0.2,0.1-0.2,0.2-0.2c1.2,0,2.5,0,3.7,0c0.2,0,0.5,0,0.7,0c0-0.2,0-0.4,0-0.6c-0.1,0-0.2,0-0.3,0
			c-1.4,0-2.7,0-4.1,0c-0.2,0-0.3-0.1-0.3-0.3c0-0.1,0-0.2,0-0.3c0-0.4-0.1-0.4,0.4-0.4c1.3,0,2.7,0,4,0c0.1,0,0.2,0,0.3,0
			c0-0.2,0-0.4,0-0.6c-0.1,0-0.2,0-0.3,0c-1.4,0-2.7,0-4.1,0c-0.2,0-0.3-0.1-0.3-0.3c0-0.2-0.1-0.5,0.1-0.7c0.1-0.1,0.4,0,0.6,0
			c1.6,0,3.3,0,4.9,0c0.4,0,0.5,0,0.5,0.5c0,3.4,0,6.8,0,10.2c0,0.3-0.1,0.4-0.4,0.4c-1.8,0-3.7,0-5.5,0c-0.2,0-0.3-0.1-0.2-0.3
			c0-0.2,0-0.5,0-0.7c0-0.2,0-0.3,0.3-0.3c1.4,0,2.7,0,4.1,0C17.9,16.3,18,16.3,18.1,16.3z"/>
	</g>
</g>
</svg>
