<?xml version="1.0" encoding="utf-8"?>
<!-- Generator: Adobe Illustrator 18.1.1, SVG Export Plug-In . SVG Version: 6.00 Build 0)  -->
<svg version="1.0" id="Seected" xmlns="http://www.w3.org/2000/svg" xmlns:xlink="http://www.w3.org/1999/xlink" x="0px" y="0px"
	 viewBox="0 0 24 24" enable-background="new 0 0 24 24" xml:space="preserve">
<g>
	<g>
		<g>
			<g>
				<path fill="#6B6B6B" d="M4.3,16.1c0.1,0,0.2,0.1,0.5-0.1c1.5-1.3,3.3-2,5.6-2.2c1-0.1,1.9-0.1,2.8,0c0.1,0,0.1,0,0.2,0l0.3,0
					l0,2.2c0,0.1,0,0.2,0,0.3c0,0.2,0.1,0.3,0.2,0.4c0.2,0.1,0.3,0,0.5-0.1c0.3-0.2,0.6-0.5,1-0.7l4.4-3.5c0.1-0.1,0.2-0.2,0.2-0.3
					c0-0.1-0.1-0.2-0.2-0.3l-1.5-1.2c-1.3-1-2.5-2-3.8-3c-0.2-0.1-0.3-0.2-0.4-0.2c-0.1,0-0.1,0-0.2,0c-0.2,0.1-0.3,0.2-0.3,0.4
					c0,0.5,0,1,0,1.5l0,0.9l-0.4,0l-0.1,0c-0.2,0-0.3,0-0.5,0c-1.9,0-3.5,0.2-4.9,0.6c-2.1,0.6-3.2,1.8-3.6,3.6
					C4.1,14.7,4,15.1,4,15.5l0,0.2C4,15.9,4.1,16,4.3,16.1z M5,14.4L5,14.4c0.2-0.8,0.5-1.9,1.8-2.5c1.2-0.7,2.6-0.9,3.7-1
					c1.1-0.1,2.2-0.1,3.5,0l0.1,0c0.2,0,0.4,0,0.4-0.4l0-1.4c0,0,0-0.1,0-0.1l0.1-0.5L19,12l-4.6,3.6v-1.9c0-0.4-0.1-0.4-0.5-0.5
					c-1.1-0.2-2.3-0.3-3.6-0.1c-1.7,0.2-3,0.5-4.1,1.1c-0.2,0.1-0.4,0.2-0.6,0.3l-0.3,0.2l-0.2,0.1L5,14.4z"/>
			</g>
			<g>
				<path fill="none" stroke="#6B6B6B" stroke-width="0.6" stroke-miterlimit="10" d="M4.3,16.1c0.1,0,0.2,0.1,0.5-0.1
					c1.5-1.3,3.3-2,5.6-2.2c1-0.1,1.9-0.1,2.8,0c0.1,0,0.1,0,0.2,0l0.3,0l0,2.2c0,0.1,0,0.2,0,0.3c0,0.2,0.1,0.3,0.2,0.4
					c0.2,0.1,0.3,0,0.5-0.1c0.3-0.2,0.6-0.5,1-0.7l4.4-3.5c0.1-0.1,0.2-0.2,0.2-0.3c0-0.1-0.1-0.2-0.2-0.3l-1.5-1.2
					c-1.3-1-2.5-2-3.8-3c-0.2-0.1-0.3-0.2-0.4-0.2c-0.1,0-0.1,0-0.2,0c-0.2,0.1-0.3,0.2-0.3,0.4c0,0.5,0,1,0,1.5l0,0.9l-0.4,0
					l-0.1,0c-0.2,0-0.3,0-0.5,0c-1.9,0-3.5,0.2-4.9,0.6c-2.1,0.6-3.2,1.8-3.6,3.6C4.1,14.7,4,15.1,4,15.5l0,0.2
					C4,15.9,4.1,16,4.3,16.1z M5,14.4L5,14.4c0.2-0.8,0.5-1.9,1.8-2.5c1.2-0.7,2.6-0.9,3.7-1c1.1-0.1,2.2-0.1,3.5,0l0.1,0
					c0.2,0,0.4,0,0.4-0.4l0-1.4c0,0,0-0.1,0-0.1l0.1-0.5L19,12l-4.6,3.6v-1.9c0-0.4-0.1-0.4-0.5-0.5c-1.1-0.2-2.3-0.3-3.6-0.1
					c-1.7,0.2-3,0.5-4.1,1.1c-0.2,0.1-0.4,0.2-0.6,0.3l-0.3,0.2l-0.2,0.1L5,14.4z"/>
			</g>
		</g>
	</g>
</g>
</svg>
