<?xml version="1.0" encoding="utf-8"?>
<!-- Generator: Adobe Illustrator 18.1.1, SVG Export Plug-In . SVG Version: 6.00 Build 0)  -->
<svg version="1.0" id="Seected" xmlns="http://www.w3.org/2000/svg" xmlns:xlink="http://www.w3.org/1999/xlink" x="0px" y="0px"
	 viewBox="0 0 24 24" enable-background="new 0 0 24 24" xml:space="preserve">
<g>
	<path fill="#6B6B6B" stroke="#6B6B6B" stroke-width="0.6" stroke-miterlimit="10" d="M17.9,8.7c0,0-0.1,0-0.1-0.1
		C14.9,7.4,12.1,6.2,9.2,5C8.8,4.8,8.5,4.7,8.6,4.1c0.1-0.3-0.2-0.5-0.5-0.5c-0.3,0-0.5,0.2-0.5,0.6c0,2,0,4,0,6c0,1.9,0,3.7,0,5.6
		h0v2.6c0,1.5,0,0.1,0,1.7c0,0.1,0,0.1,0,0.2v1.2c0,0,0,0,0,0c0.3,0.1,0.6,0.1,0.9,0v-1h0c0-2.1,0-4.3,0-6.4c0-0.2,0.1-0.3,0.3-0.4
		c2.3-1,4.6-1.9,6.9-2.9c0.7-0.3,1.4-0.6,2.1-0.9c0.2-0.1,0.4-0.2,0.4-0.5C18.3,8.9,18.1,8.7,17.9,8.7z M8.6,12.5c0-2.2,0-4.4,0-6.7
		c2.6,1.1,5.2,2.2,7.9,3.3C13.8,10.3,11.3,11.4,8.6,12.5z"/>
</g>
</svg>
