<?xml version="1.0" encoding="utf-8"?>
<!-- Generator: Adobe Illustrator 18.1.1, SVG Export Plug-In . SVG Version: 6.00 Build 0)  -->
<svg version="1.0" id="Seected" xmlns="http://www.w3.org/2000/svg" xmlns:xlink="http://www.w3.org/1999/xlink" x="0px" y="0px"
	 viewBox="0 0 24 24" enable-background="new 0 0 24 24" xml:space="preserve">
<g>
	<g>
		<polygon fill="#C3DCE9" points="14,4.5 17.7,8.2 17.7,15 6.3,15 6.3,4.5 		"/>
		<g>
			<path fill="#FFFFFF" d="M6.3,15c0,0.1,0,0.1,0,0.2c0,1,0,2,0,3c0,0.8,0.5,1.4,1.4,1.4c2.9,0,5.8,0,8.7,0c0.8,0,1.3-0.6,1.3-1.3
				c0-1,0-2,0-3c0-0.1,0-0.1,0-0.2C13.9,15,10.1,15,6.3,15z M14,4.5c0,0.8,0,1.7,0,2.5c0,0,0,0.1,0,0.1c0.1,0.6,0.6,1.1,1.3,1.1
				c0.7,0,1.5,0,2.2,0c0.1,0,0.1,0,0.2,0C16.4,7,15.2,5.7,14,4.5z M10.7,9.4c-0.1,0-0.1,0.1-0.2,0.1c-0.6,0.3-1.3,0.7-1.9,1
				c-0.1,0.1-0.1,0.1-0.1,0.2c0,0.1,0,0.3,0.1,0.3c0.7,0.3,1.3,0.7,1.9,1c0,0,0.1,0,0.2,0.1c0-0.1,0-0.2,0-0.2c0-0.2,0-0.2-0.2-0.3
				c-0.5-0.2-1-0.5-1.4-0.7c0,0-0.1-0.1-0.2-0.1c0.1,0,0.1-0.1,0.2-0.1c0.5-0.2,1-0.5,1.5-0.7c0,0,0.1-0.1,0.1-0.1
				C10.7,9.7,10.7,9.6,10.7,9.4z M12.7,9.4c0,0.1,0,0.2,0,0.2c0,0.2,0,0.2,0.2,0.3c0.4,0.2,0.7,0.4,1.1,0.6c0.1,0.1,0.3,0.2,0.5,0.2
				c-0.1,0-0.1,0.1-0.2,0.1c-0.5,0.2-1,0.5-1.5,0.7c-0.1,0-0.1,0.1-0.1,0.1c0,0.1,0,0.2,0,0.4c0,0,0,0,0.1,0
				c0.7-0.4,1.4-0.7,2.1-1.1c0.1-0.1,0.1-0.4,0-0.5c-0.2-0.1-0.4-0.2-0.6-0.3C13.8,10,13.3,9.7,12.7,9.4z M11,13.1
				c0.3,0.1,0.4,0.1,0.4-0.2c0.3-1.1,0.6-2.1,0.8-3.2c0.1-0.3,0.2-0.7,0.3-1c-0.3-0.1-0.4-0.1-0.4,0.2c-0.3,1.2-0.6,2.3-0.9,3.5
				C11.1,12.6,11.1,12.9,11,13.1z"/>
			<path fill="#B2B2B2" d="M6.3,15c3.8,0,7.6,0,11.5,0c0,0.1,0,0.1,0,0.2c0,1,0,2,0,3c0,0.8-0.6,1.3-1.3,1.3c-2.9,0-5.8,0-8.7,0
				c-0.8,0-1.4-0.5-1.4-1.4c0-1,0-2,0-3C6.3,15.1,6.3,15,6.3,15z"/>
			<path fill="#B2B2B2" d="M14,4.5c1.2,1.2,2.4,2.4,3.7,3.7c0,0-0.1,0-0.2,0c-0.7,0-1.5,0-2.2,0c-0.7,0-1.2-0.4-1.3-1.1
				c0,0,0-0.1,0-0.1C14,6.2,14,5.4,14,4.5z"/>
			<path fill="#1A1A1A" d="M10.7,9.4c0,0.1,0,0.3,0,0.4c0,0-0.1,0.1-0.1,0.1c-0.5,0.3-1,0.5-1.5,0.7c-0.1,0-0.1,0.1-0.2,0.1
				c0.1,0,0.1,0.1,0.2,0.1c0.5,0.2,1,0.5,1.4,0.7c0.1,0.1,0.2,0.1,0.2,0.3c0,0.1,0,0.1,0,0.2c-0.1,0-0.1,0-0.2-0.1
				c-0.6-0.3-1.3-0.7-1.9-1c-0.2-0.1-0.1-0.2-0.1-0.3c0-0.1,0-0.2,0.1-0.2c0.6-0.3,1.3-0.7,1.9-1C10.6,9.5,10.6,9.5,10.7,9.4z"/>
			<path fill="#1A1A1A" d="M12.7,9.4c0.5,0.3,1,0.5,1.5,0.8c0.2,0.1,0.4,0.2,0.6,0.3c0.1,0.1,0.1,0.4,0,0.5
				c-0.7,0.4-1.4,0.7-2.1,1.1c0,0,0,0-0.1,0c0-0.1,0-0.2,0-0.4c0,0,0.1-0.1,0.1-0.1c0.5-0.2,1-0.5,1.5-0.7c0.1,0,0.1-0.1,0.2-0.1
				c-0.2-0.1-0.3-0.2-0.5-0.2c-0.4-0.2-0.7-0.4-1.1-0.6c-0.1-0.1-0.2-0.2-0.2-0.3C12.7,9.6,12.7,9.5,12.7,9.4z"/>
			<path fill="#1A1A1A" d="M11,13.1c0.1-0.2,0.1-0.5,0.2-0.7c0.3-1.2,0.6-2.3,0.9-3.5c0.1-0.3,0.1-0.3,0.4-0.2
				c-0.1,0.3-0.2,0.7-0.3,1c-0.3,1.1-0.6,2.1-0.8,3.2C11.4,13.2,11.3,13.2,11,13.1z"/>
		</g>
	</g>
	<g>
		<path fill="#1A1A1A" d="M8.2,16.3v0.7h1v-0.7c0-0.1,0-0.2,0.1-0.2c0,0,0.1-0.1,0.2-0.1c0.1,0,0.1,0,0.2,0.1c0,0,0.1,0.1,0.1,0.2
			v1.8c0,0.1,0,0.2-0.1,0.2c0,0-0.1,0.1-0.2,0.1c-0.1,0-0.1,0-0.2-0.1c0,0-0.1-0.1-0.1-0.2v-0.8h-1v0.8c0,0.1,0,0.2-0.1,0.2
			c0,0-0.1,0.1-0.2,0.1c-0.1,0-0.1,0-0.2-0.1c0,0-0.1-0.1-0.1-0.2v-1.8c0-0.1,0-0.2,0.1-0.2C7.8,16,7.9,16,8,16c0.1,0,0.1,0,0.2,0.1
			C8.2,16.1,8.2,16.2,8.2,16.3z"/>
		<path fill="#1A1A1A" d="M11.6,16.4h-0.5v1.7c0,0.1,0,0.2-0.1,0.2c0,0-0.1,0.1-0.2,0.1c-0.1,0-0.1,0-0.2-0.1c0,0-0.1-0.1-0.1-0.2
			v-1.7h-0.5c-0.1,0-0.1,0-0.2-0.1c0,0-0.1-0.1-0.1-0.1c0-0.1,0-0.1,0.1-0.1c0,0,0.1-0.1,0.2-0.1h1.5c0.1,0,0.1,0,0.2,0.1
			s0.1,0.1,0.1,0.1c0,0.1,0,0.1-0.1,0.1C11.8,16.4,11.7,16.4,11.6,16.4z"/>
		<path fill="#1A1A1A" d="M12.9,18l-0.4-1.4v1.6c0,0.1,0,0.2-0.1,0.2c0,0-0.1,0.1-0.2,0.1c-0.1,0-0.1,0-0.2-0.1c0,0-0.1-0.1-0.1-0.2
			v-1.8c0-0.1,0-0.2,0.1-0.2c0.1,0,0.1-0.1,0.2-0.1h0.1c0.1,0,0.1,0,0.2,0c0,0,0.1,0,0.1,0.1c0,0,0,0.1,0.1,0.2l0.3,1.2l0.3-1.2
			c0-0.1,0-0.2,0.1-0.2c0,0,0-0.1,0.1-0.1c0,0,0.1,0,0.2,0H14c0.1,0,0.2,0,0.2,0.1c0.1,0,0.1,0.1,0.1,0.2v1.8c0,0.1,0,0.2-0.1,0.2
			c0,0-0.1,0.1-0.2,0.1c-0.1,0-0.1,0-0.2-0.1c0,0-0.1-0.1-0.1-0.2v-1.6L13.5,18c0,0.1,0,0.2-0.1,0.2c0,0,0,0.1-0.1,0.1
			c0,0-0.1,0.1-0.2,0.1c-0.1,0-0.1,0-0.1,0c0,0-0.1-0.1-0.1-0.1c0,0,0-0.1,0-0.1C12.9,18.1,12.9,18,12.9,18z"/>
		<path fill="#1A1A1A" d="M15.2,16.3v1.7h0.9c0.1,0,0.1,0,0.2,0.1s0.1,0.1,0.1,0.1c0,0.1,0,0.1-0.1,0.1c0,0-0.1,0.1-0.2,0.1h-1.1
			c-0.1,0-0.2,0-0.2-0.1c0,0-0.1-0.1-0.1-0.2v-1.8c0-0.1,0-0.2,0.1-0.2c0,0,0.1-0.1,0.2-0.1c0.1,0,0.1,0,0.2,0.1
			C15.2,16.1,15.2,16.2,15.2,16.3z"/>
	</g>
</g>
</svg>
