<?xml version="1.0" encoding="utf-8"?>
<!-- Generator: Adobe Illustrator 18.1.1, SVG Export Plug-In . SVG Version: 6.00 Build 0)  -->
<svg version="1.0" id="Seected" xmlns="http://www.w3.org/2000/svg" xmlns:xlink="http://www.w3.org/1999/xlink" x="0px" y="0px"
	 viewBox="0 0 24 24" enable-background="new 0 0 24 24" xml:space="preserve">
<path fill="#F2C40F" d="M18,6.2c0,3,0,10.3,0,13.3c-3.6,0-8.4,0-12,0C6,15.9,6,8.1,6,4.5c0,0,0.1,0,0.1,0c1.3,0,2.5,0,3.8,0
	c0.1,0,0.2,0,0.2,0.1C10.4,5.1,10.7,5.6,11,6c0.1,0.1,0.1,0.1,0.2,0.1c1.8,0,4.8,0,6.6,0C17.9,6.2,17.9,6.2,18,6.2z"/>
<path fill="#FFFFFF" d="M12.3,10.5c0.4,0,0.7,0,1.1,0c0-0.4,0-0.7,0-1c0,0-0.1-0.1-0.1-0.1c-0.2,0-0.4,0-0.6,0c-0.1,0-0.3,0-0.4,0
	C12.3,9.8,12.3,10.1,12.3,10.5c-0.4,0-0.7,0-1.1,0c0,0.4,0,0.7,0,1c0.4,0,0.7,0,1.1,0C12.3,11.2,12.3,10.8,12.3,10.5z M14.4,10.5
	c0.4,0,0.7,0,1.1,0c0-0.4,0-0.7,0-1.1c-0.4,0-0.7,0-1.1,0C14.4,9.8,14.4,10.1,14.4,10.5c-0.4,0-0.7,0-1.1,0c0,0.4,0,0.7,0,1
	c0.4,0,0.7,0,1.1,0C14.4,11.2,14.4,10.8,14.4,10.5z M10.1,10.5c0.4,0,0.7,0,1.1,0c0-0.4,0-0.7,0-1.1c-0.4,0-0.7,0-1,0
	C10.1,9.8,10.1,10.1,10.1,10.5c-0.4,0-0.7,0-1.1,0c0,0.3,0,0.7,0,1c0.4,0,0.7,0,1.1,0C10.1,11.2,10.1,10.8,10.1,10.5z M16,11
	c-0.4,0-0.7,0-1.1,0c0,0.5,0,1.1,0,1.6c0.4,0,0.7,0,1.1,0C16,12.1,16,11.5,16,11z M8,9.4c0,0.4,0,0.7,0,1.1c0.4,0,0.7,0,1.1,0
	c0-0.4,0-0.7,0-1.1C8.7,9.4,8.3,9.4,8,9.4z"/>
<g>
	<path fill="#1A1A1A" d="M8.5,16.6H8.3v1c0,0.1,0,0.2-0.1,0.3C8.2,17.9,8.1,18,8,18c-0.1,0-0.2,0-0.2-0.1s-0.1-0.2-0.1-0.3v-2.4
		c0-0.1,0-0.2,0.1-0.3c0.1-0.1,0.2-0.1,0.3-0.1h1c0.1,0,0.3,0,0.4,0c0.1,0,0.2,0,0.3,0.1c0.1,0,0.2,0.1,0.3,0.2
		c0.1,0.1,0.1,0.2,0.2,0.3c0,0.1,0.1,0.2,0.1,0.3c0,0.2-0.1,0.4-0.2,0.6s-0.3,0.2-0.6,0.3c0.1,0.1,0.2,0.1,0.3,0.3
		c0.1,0.1,0.2,0.2,0.3,0.4s0.1,0.2,0.2,0.4c0,0.1,0.1,0.2,0.1,0.2s0,0.1,0,0.1c0,0-0.1,0.1-0.1,0.1c0,0-0.1,0-0.2,0
		c-0.1,0-0.1,0-0.2,0c0,0-0.1-0.1-0.1-0.1c0-0.1-0.1-0.1-0.1-0.2l-0.3-0.4C9.2,17,9.1,16.9,9,16.8c-0.1-0.1-0.1-0.1-0.2-0.2
		C8.7,16.6,8.6,16.6,8.5,16.6z M8.9,15.3H8.3v0.8h0.6c0.1,0,0.3,0,0.4,0c0.1,0,0.2-0.1,0.2-0.1c0.1-0.1,0.1-0.1,0.1-0.3
		c0-0.1,0-0.2-0.1-0.2c0-0.1-0.1-0.1-0.2-0.1C9.2,15.3,9.1,15.3,8.9,15.3z"/>
	<path fill="#1A1A1A" d="M12.8,17.6l-0.1-0.4h-1.3l-0.1,0.4c-0.1,0.2-0.1,0.3-0.1,0.3c0,0.1-0.1,0.1-0.2,0.1c-0.1,0-0.1,0-0.2-0.1
		c-0.1-0.1-0.1-0.1-0.1-0.2c0,0,0-0.1,0-0.1s0-0.1,0.1-0.2l0.8-2c0-0.1,0-0.1,0.1-0.2c0-0.1,0.1-0.1,0.1-0.2c0-0.1,0.1-0.1,0.1-0.1
		c0.1,0,0.1,0,0.2,0c0.1,0,0.2,0,0.2,0c0.1,0,0.1,0.1,0.1,0.1s0.1,0.1,0.1,0.2c0,0.1,0.1,0.1,0.1,0.2l0.8,2c0.1,0.2,0.1,0.3,0.1,0.3
		c0,0.1,0,0.1-0.1,0.2S13.2,18,13.1,18c0,0-0.1,0-0.1,0s-0.1,0-0.1-0.1c0,0,0-0.1-0.1-0.1C12.8,17.7,12.8,17.6,12.8,17.6z
		 M11.5,16.7h0.9L12,15.4L11.5,16.7z"/>
	<path fill="#1A1A1A" d="M14.7,16.6h-0.2v1c0,0.1,0,0.2-0.1,0.3c-0.1,0.1-0.1,0.1-0.2,0.1c-0.1,0-0.2,0-0.2-0.1s-0.1-0.2-0.1-0.3
		v-2.4c0-0.1,0-0.2,0.1-0.3c0.1-0.1,0.2-0.1,0.3-0.1h1c0.1,0,0.3,0,0.4,0c0.1,0,0.2,0,0.3,0.1c0.1,0,0.2,0.1,0.3,0.2
		c0.1,0.1,0.1,0.2,0.2,0.3c0,0.1,0.1,0.2,0.1,0.3c0,0.2-0.1,0.4-0.2,0.6s-0.3,0.2-0.6,0.3c0.1,0.1,0.2,0.1,0.3,0.3
		c0.1,0.1,0.2,0.2,0.3,0.4s0.1,0.2,0.2,0.4c0,0.1,0.1,0.2,0.1,0.2s0,0.1,0,0.1c0,0-0.1,0.1-0.1,0.1c0,0-0.1,0-0.2,0
		c-0.1,0-0.1,0-0.2,0c0,0-0.1-0.1-0.1-0.1c0-0.1-0.1-0.1-0.1-0.2l-0.3-0.4c-0.1-0.2-0.2-0.3-0.2-0.3c-0.1-0.1-0.1-0.1-0.2-0.2
		C14.9,16.6,14.8,16.6,14.7,16.6z M15.1,15.3h-0.6v0.8h0.6c0.1,0,0.3,0,0.4,0c0.1,0,0.2-0.1,0.2-0.1c0.1-0.1,0.1-0.1,0.1-0.3
		c0-0.1,0-0.2-0.1-0.2c0-0.1-0.1-0.1-0.2-0.1C15.4,15.3,15.3,15.3,15.1,15.3z"/>
</g>
</svg>
