<?xml version="1.0" encoding="utf-8"?>
<!-- Generator: Adobe Illustrator 18.0.0, SVG Export Plug-In . SVG Version: 6.00 Build 0)  -->
<!DOCTYPE svg PUBLIC "-//W3C//DTD SVG 1.1//EN" "http://www.w3.org/Graphics/SVG/1.1/DTD/svg11.dtd">
<svg version="1.1" id="Layer_1" xmlns="http://www.w3.org/2000/svg" xmlns:xlink="http://www.w3.org/1999/xlink" x="0px" y="0px"
	width="182px" height="44px" viewBox="0 0 182 44" style="enable-background:new 0 0 182 44;" xml:space="preserve">
<style type="text/css">
	.st0{fill:#002F87;}
	.st1{fill-rule:evenodd;clip-rule:evenodd;fill:#FFFFFF;}
	.st2{fill:#FFFFFF;}
</style>
<g>
	<rect class="st0" width="182" height="44"/>
</g>
<g>
	<path class="st1" d="M36.1,30.5l1.4-4.6h5.5l1.3,4.6h5.1l-5-17.7c-0.3-1-0.9-1.5-2-1.5h-7.2v1.7h0.6c0.8,0,1.2,0.3,1.2,0.9
		c0,0.4-0.1,0.7-0.4,1.6l-5,15.1H36.1L36.1,30.5z M42.3,22.7h-4.1l2.2-7.1L42.3,22.7L42.3,22.7z"/>
	<path class="st2" d="M55.2,30.5V12.7c0-0.9-0.5-1.5-1.4-1.5h-4.4v1.7h0.3c0.8,0,1.1,0.3,1.1,1.1v16.5H55.2L55.2,30.5z"/>
	<path class="st2" d="M62.9,30.5V12.7c0-0.9-0.5-1.5-1.4-1.5H57v1.7h0.3c0.7,0,1.1,0.3,1.1,1.1v16.5H62.9L62.9,30.5z"/>
	<path class="st1" d="M70.7,30.5V17.6c0-0.9-0.5-1.5-1.4-1.5h-4.4v1.6h0.3c0.8,0,1.1,0.3,1.1,1.1v11.7H70.7L70.7,30.5z M70.8,13
		c0-1.3-1-2.1-2.6-2.1c-1.6,0-2.6,0.8-2.6,2.1c0,1.3,1,2.1,2.6,2.1C69.8,15.1,70.8,14.3,70.8,13L70.8,13z"/>
	<path class="st1" d="M74.5,20.2c1.5-0.7,3.1-1.1,4.4-1.1c1.2,0,1.6,0.4,1.6,1.7v0.3c-1.8,0.3-2.4,0.4-3.5,0.6
		c-0.6,0.1-1.2,0.3-1.7,0.5c-1.8,0.7-2.7,2.1-2.7,4.3c0,2.7,1.2,4.1,3.6,4.1c0.9,0,1.7-0.2,2.4-0.5c0.6-0.3,1-0.5,1.9-1.2v0.2
		c0,0.9,0.5,1.4,1.4,1.4h4.1V29H86c-0.8,0-1.1-0.3-1.1-1.3v-6.9c0-3.7-1.3-4.9-4.9-4.9c-1.2,0-2.3,0.1-3.5,0.4
		c-1.1,0.3-1.7,0.5-3.1,1.2L74.5,20.2L74.5,20.2z M80.6,23.6v2.8c-0.8,0.8-1.7,1.2-2.5,1.2c-0.8,0-1.1-0.4-1.1-1.5s0.2-1.6,1-1.9
		C78.7,24,79.5,23.8,80.6,23.6L80.6,23.6z"/>
	<path class="st1" d="M92.8,30.5v-9.7c0.8-0.8,1.5-1.2,2.4-1.2c1,0,1.2,0.4,1.2,1.8v9.1h4.5v-9.8c0-2.3-0.2-3-0.9-3.8
		c-0.6-0.7-1.5-1-2.7-1c-1.8,0-3,0.5-4.7,2.1v-0.6c0-0.9-0.5-1.4-1.4-1.4H87v1.6h0.3c0.8,0,1.1,0.3,1.1,1.1v11.7H92.8L92.8,30.5z"/>
	<path class="st2" d="M114.2,27.5h-6.3l6-8.4v-3h-9.4c-1.1,0-1.6,0.5-1.6,1.6v2.6h1.7V20c0-0.7,0.3-1,1.1-1h3.2l-6.1,8.5v3h11.3
		V27.5L114.2,27.5z"/>
	<path class="st1" d="M150.5,21.9c0-8.5-6.3-14.8-14.8-14.8c-8.4,0-14.8,6.3-14.8,14.8s6.3,14.8,14.8,14.8
		C144.2,36.6,150.5,30.3,150.5,21.9L150.5,21.9z M148,21.9c0,7.2-5.2,12.4-12.3,12.4c-7.1,0-12.3-5.2-12.3-12.4
		c0-7.2,5.2-12.4,12.3-12.4C142.8,9.5,148,14.7,148,21.9L148,21.9z M131.7,30.1V15.7h-2.5c-1.2,0-1.7,0.5-1.7,1.7v12.7H131.7
		L131.7,30.1z M139.7,30.1h4.2V17.4c0-1.3-0.5-1.7-1.7-1.7h-2.5V30.1L139.7,30.1z M137.8,30.1V13.8c0-1.3-0.5-1.7-1.7-1.7h-3.8v1.8
		h0.2c0.9,0,1,0.2,1,1.2v15H137.8L137.8,30.1z"/>
</g>
<g>
</g>
<g>
</g>
<g>
</g>
<g>
</g>
<g>
</g>
<g>
</g>
</svg>
