<?xml version="1.0" encoding="utf-8"?>
<!-- Generator: Adobe Illustrator 18.0.0, SVG Export Plug-In . SVG Version: 6.00 Build 0)  -->
<!DOCTYPE svg PUBLIC "-//W3C//DTD SVG 1.1//EN" "http://www.w3.org/Graphics/SVG/1.1/DTD/svg11.dtd">
<svg version="1.1" id="Layer_1" xmlns="http://www.w3.org/2000/svg" xmlns:xlink="http://www.w3.org/1999/xlink" x="0px" y="0px"
	width="19.5px" height="24.5px" viewBox="0 0 19.5 24.5" style="enable-background:new 0 0 19.5 24.5;" xml:space="preserve">
<style type="text/css">
	.st0{fill:#D8D9D8;}
</style>
<path class="st0" d="M17.2,5.4c-0.7,0-1.3,0.6-1.3,1.3v5.5c0,0.2-0.2,0.4-0.4,0.4c-0.2,0-0.4-0.2-0.4-0.4v-8c0-0.7-0.6-1.3-1.3-1.3
	c-0.7,0-1.3,0.6-1.3,1.3v7.2c0,0.2-0.2,0.4-0.4,0.4c-0.2,0-0.4-0.2-0.4-0.4v-8c0-0.7-0.6-1.3-1.3-1.3C9.7,2,9.2,2.5,9.2,3.2v8
	c0,0.2-0.2,0.4-0.4,0.4c-0.2,0-0.4-0.2-0.4-0.4V4.9c0-0.7-0.6-1.3-1.3-1.3c-0.7,0-1.3,0.6-1.3,1.3v10.6l-1.7-2.3
	c-0.5-0.8-1.5-1-2.2-0.6C1.1,13,0.9,14,1.4,14.8c0,0,2.8,4.2,3.9,6C6.6,22.6,8.5,24,12,24c5.9,0,6.4-4.6,6.4-5.9
	c0-1.4,0-11.4,0-11.4C18.5,5.9,17.9,5.4,17.2,5.4z"/>
<g>
</g>
<g>
</g>
<g>
</g>
<g>
</g>
<g>
</g>
<g>
</g>
</svg>
