<?xml version="1.0" encoding="utf-8"?>
<!-- Generator: Adobe Illustrator 18.1.1, SVG Export Plug-In . SVG Version: 6.00 Build 0)  -->
<svg version="1.1" id="Layer_1" xmlns="http://www.w3.org/2000/svg" xmlns:xlink="http://www.w3.org/1999/xlink" x="0px" y="0px"
	 viewBox="0 0 26 26" enable-background="new 0 0 26 26" xml:space="preserve">
<g>
	<path fill="#FFFFFF" stroke="#D2D8D5" stroke-linecap="round" stroke-linejoin="round" stroke-miterlimit="10" d="M21.6,21.9
		c0,1.3-1.1,2.4-2.4,2.4l-12.2,0c-1.3,0-2.4-1.1-2.4-2.4L4.4,4.1c0-1.3,1.1-2.4,2.4-2.4l12.3,0c1.3,0,2.4,1.1,2.4,2.4V21.9z"/>
	<g>
		<g>
			<path fill="#AEAEAE" d="M13.2,12c0.3,0,0.5,0,0.8,0c0.2,0,0.3-0.1,0.3-0.3c0-0.4,0-0.7,0-1.1c0-0.2-0.1-0.3-0.3-0.3
				c-0.5,0-1.1,0-1.6,0c-0.2,0-0.3,0.1-0.3,0.3c0,0.4,0,0.7,0,1.1c0,0.2,0.1,0.3,0.3,0.3C12.6,12,12.9,12,13.2,12z"/>
			<path fill="#AEAEAE" d="M13.2,13.7c-0.3,0-0.5,0-0.8,0c-0.2,0-0.3,0.1-0.3,0.3c0,0.4,0,0.7,0,1.1c0,0.2,0.1,0.3,0.3,0.3
				c0.5,0,1.1,0,1.6,0c0.2,0,0.3-0.1,0.3-0.3c0-0.4,0-0.7,0-1.1c0-0.2-0.1-0.3-0.3-0.3C13.7,13.7,13.5,13.7,13.2,13.7z"/>
			<path fill="#AEAEAE" d="M17.2,12c0.3,0,0.5,0,0.8,0c0.2,0,0.3-0.1,0.3-0.3c0-0.4,0-0.7,0-1.1c0-0.2-0.1-0.3-0.3-0.3
				c-0.5,0-1.1,0-1.6,0c-0.2,0-0.3,0.1-0.3,0.3c0,0.4,0,0.7,0,1.1c0,0.2,0.1,0.3,0.3,0.3C16.6,12,16.9,12,17.2,12z"/>
			<path fill="#AEAEAE" d="M13.2,17.1c-0.3,0-0.5,0-0.8,0c-0.2,0-0.3,0.1-0.3,0.3c0,0.4,0,0.7,0,1.1c0,0.2,0.1,0.3,0.3,0.3
				c0.5,0,1.1,0,1.6,0c0.2,0,0.3-0.1,0.3-0.3c0-0.4,0-0.7,0-1.1c0-0.2-0.1-0.3-0.3-0.3C13.7,17.1,13.4,17.1,13.2,17.1z"/>
			<path fill="#AEAEAE" d="M17.2,13.7c-0.3,0-0.5,0-0.8,0c-0.3,0-0.3,0.1-0.3,0.3c0,0.3,0,0.7,0,1c0,0.2,0.1,0.3,0.3,0.3
				c0.5,0,1.1,0,1.6,0c0.2,0,0.3-0.1,0.3-0.3c0-0.4,0-0.7,0-1.1c0-0.2-0.1-0.3-0.3-0.3C17.7,13.7,17.4,13.7,17.2,13.7z"/>
			<path fill="#AEAEAE" d="M17.2,8.5c0.3,0,0.5,0,0.8,0c0.2,0,0.3-0.1,0.3-0.3c0-0.4,0-0.7,0-1.1c0-0.2-0.1-0.3-0.3-0.3
				c-0.5,0-1.1,0-1.6,0c-0.2,0-0.3,0.1-0.3,0.3c0,0.4,0,0.7,0,1.1c0,0.2,0.1,0.3,0.3,0.3C16.6,8.6,16.9,8.5,17.2,8.5z"/>
			<path fill="#AEAEAE" d="M9.2,15.4c0.3,0,0.6,0,0.8,0c0.2,0,0.3-0.1,0.3-0.3c0-0.4,0-0.7,0-1.1c0-0.2-0.1-0.3-0.3-0.3
				c-0.5,0-1.1,0-1.6,0C8.1,13.7,8,13.8,8,14c0,0.4,0,0.7,0,1.1c0,0.2,0.1,0.3,0.3,0.3C8.6,15.4,8.9,15.4,9.2,15.4z"/>
			<path fill="#AEAEAE" d="M13.2,8.5c0.3,0,0.5,0,0.8,0c0.2,0,0.3-0.1,0.3-0.3c0-0.4,0-0.7,0-1.1c0-0.2-0.1-0.3-0.3-0.3
				c-0.5,0-1.1,0-1.6,0c-0.2,0-0.3,0.1-0.3,0.3c0,0.4,0,0.7,0,1.1c0,0.2,0.1,0.3,0.3,0.3C12.6,8.6,12.9,8.5,13.2,8.5z"/>
			<path fill="#AEAEAE" d="M9.2,12c0.3,0,0.5,0,0.8,0c0.2,0,0.3-0.1,0.3-0.3c0-0.4,0-0.7,0-1.1c0-0.2-0.1-0.3-0.3-0.3
				c-0.5,0-1.1,0-1.6,0c-0.2,0-0.3,0.1-0.3,0.3c0,0.4,0,0.7,0,1.1C8,11.9,8.1,12,8.4,12C8.6,12,8.9,12,9.2,12z"/>
			<path fill="#AEAEAE" d="M9.2,8.5c0.3,0,0.5,0,0.8,0c0.2,0,0.3-0.1,0.4-0.3c0-0.3,0-0.7,0-1c0-0.2-0.1-0.4-0.3-0.4
				c-0.5,0-1.1,0-1.6,0C8.1,6.8,8,6.9,8,7.2c0,0.3,0,0.7,0,1c0,0.2,0.1,0.3,0.3,0.3C8.6,8.6,8.9,8.5,9.2,8.5z"/>
		</g>
	</g>
</g>
</svg>
