<?xml version="1.0" encoding="utf-8"?>
<!-- Generator: Adobe Illustrator 18.1.1, SVG Export Plug-In . SVG Version: 6.00 Build 0)  -->
<svg version="1.1" id="Layer_1" xmlns="http://www.w3.org/2000/svg" xmlns:xlink="http://www.w3.org/1999/xlink" x="0px" y="0px"
	 viewBox="0 0 20 20" enable-background="new 0 0 20 20" xml:space="preserve">
<path fill="#CFCFCE" d="M16.4,13.6c-0.5-0.9-1-1.8-1.5-2.7c-0.1-0.2-0.2-0.2-0.4-0.1c-0.6,0.3-1.2,0.7-1.8,1
	c-0.3,0.1-0.5,0.3-0.8,0.4c-0.1,0-0.1,0.1-0.1,0.2c0,0.1,0.1,0.2,0.2,0.2c0.1,0,0.1,0,0.2,0.1c0.3,0.1,0.7,0.2,1,0.3
	c-0.4,1.1-1.6,2.1-2.3,2c0-1.4,0-2.8,0-4.2c0.1,0,0.1,0,0.1,0c0.2,0,0.4,0,0.6,0c0.2,0,0.3-0.1,0.3-0.3c0-0.4,0-0.8,0-1.2
	c0-0.2-0.1-0.3-0.3-0.3c-0.2,0-0.4,0-0.7,0c0,0-0.1,0-0.1,0c-0.1-0.1,0-0.3,0.1-0.3c1.2-0.4,1.9-1.3,2-2.6c0.2-1.9-1.5-3.4-3.4-3.2
	C8.2,3.2,7.2,4.4,7.1,5.6c-0.1,1.2,0.5,2.5,1.7,3C9.1,8.8,9.1,8.8,9,9.1c0,0,0,0,0,0c-0.3,0-0.6,0-0.9,0c-0.2,0-0.3,0.1-0.3,0.2
	c0,0.4,0,0.8,0,1.3c0,0.1,0.1,0.2,0.2,0.2c0.1,0,0.1,0,0.2,0c0.2,0,0.5,0,0.8,0c0,1.4,0,2.8,0,4.2c-0.9-0.1-2-1.1-2.1-1.8
	c0.3-0.1,0.7-0.2,1-0.3c0.1,0,0.2-0.1,0.2-0.2c0-0.1-0.1-0.2-0.1-0.2c-0.9-0.5-1.7-0.9-2.6-1.4C5.2,11,5.1,11,5,11.2
	c-0.1,0.3-0.3,0.5-0.4,0.8c-0.3,0.6-0.6,1.2-1,1.8c-0.1,0.1-0.1,0.3,0,0.3c0.1,0,0.2,0,0.3,0c0.4-0.1,0.8-0.2,1.2-0.3
	c0.1,0.1,0.1,0.2,0.2,0.4c0.4,0.8,1,1.5,1.7,2c0.8,0.5,1.7,0.8,2.6,0.9c1.1,0.1,2.1-0.1,3-0.7c1-0.6,1.7-1.4,2.1-2.5
	c0-0.1,0.1-0.1,0.1-0.2c0.1,0,0.1,0,0.1,0c0.4,0.1,0.7,0.2,1.1,0.3c0.1,0,0.2,0,0.3-0.1C16.5,13.8,16.4,13.7,16.4,13.6z M10,7.4
	C9.2,7.4,8.5,6.7,8.5,6c0-0.8,0.7-1.5,1.5-1.5c0.8,0,1.4,0.7,1.4,1.5C11.5,6.7,10.8,7.4,10,7.4z"/>
</svg>
