<?xml version="1.0" encoding="utf-8"?>
<!-- Generator: Adobe Illustrator 18.1.1, SVG Export Plug-In . SVG Version: 6.00 Build 0)  -->
<svg version="1.1" id="Layer_1" xmlns="http://www.w3.org/2000/svg" xmlns:xlink="http://www.w3.org/1999/xlink" x="0px" y="0px"
	 viewBox="0 0 20 20" enable-background="new 0 0 20 20" xml:space="preserve">
<g>
	<g>
		<g>
			<g>
				<g>
					<g>
						<path fill="#4C5455" d="M10.1,17.2c-0.1,0-0.3,0-0.4,0c-1-0.1-1.9-0.4-2.7-0.9c-0.7-0.5-1.3-1.2-1.8-2.1L5,14l-0.1,0
							c-0.3,0.1-0.6,0.2-0.9,0.3c-0.1,0-0.3,0-0.4,0c-0.1,0-0.2-0.1-0.2-0.2c0-0.1,0-0.3,0.1-0.4l1.4-2.6c0.2-0.3,0.4-0.4,0.7-0.2
							l2.6,1.4c0.3,0.1,0.3,0.3,0.3,0.5c0,0.1-0.1,0.3-0.4,0.4l-0.8,0.3c0.2,0.5,0.9,1.1,1.6,1.4v-3.6H8.3l-0.1-0.2l0-0.3l1.1,0v4.7
							l-0.3,0c-1-0.2-2.2-1.2-2.3-2.1l0-0.2l1.2-0.4l-2.6-1.4l-1.4,2.5c0.3-0.1,0.6-0.2,0.9-0.2l0.5-0.1L5.6,14
							c0.4,0.8,1,1.4,1.6,1.9c0.7,0.5,1.5,0.8,2.5,0.8c1.1,0.1,2-0.1,2.9-0.7c0.9-0.5,1.5-1.3,2-2.4l0.2-0.4l0.5,0.2l0.9,0.3
							l-1.5-2.7l-2.6,1.4c0,0,0.1,0,0.1,0l1.3,0.4l-0.1,0.2c-0.4,1.2-1.7,2.2-2.5,2.2l-0.3,0v-4.7l1,0c0,0,0,0,0,0
							c0-0.4,0-0.8,0-1.2l-0.3,0l-0.2,0l-0.3,0c0,0-0.2,0-0.3-0.1c-0.1-0.1-0.1-0.2-0.1-0.4c0-0.2,0.1-0.3,0.3-0.3
							c1.1-0.4,1.7-1.2,1.8-2.4c0.1-0.7-0.2-1.5-0.7-2c-0.6-0.7-1.5-1-2.4-0.9C8.4,3.5,7.4,4.4,7.3,5.7C7.2,6.8,7.8,7.9,8.9,8.4
							c0.4,0.2,0.5,0.3,0.4,0.7l0,0.1L9.1,9.4L9,9.4l-0.5,0l-0.4,0c0,0.4,0,0.8,0,1.3l0,0.2v0.3c0,0-0.1,0-0.1,0
							c-0.3,0-0.4-0.2-0.4-0.5c0-0.4,0-0.8,0-1.3c0-0.3,0.2-0.5,0.5-0.5l0.6,0c0,0,0,0-0.1,0C7.4,8.3,6.7,7,6.8,5.6
							C7,4.2,8.1,3,9.5,2.8c1.1-0.2,2.1,0.2,2.9,1c0.6,0.7,0.9,1.5,0.8,2.4c-0.1,1.2-0.8,2.2-1.9,2.7h0.3c0.3,0,0.5,0.2,0.5,0.5
							c0,0.4,0,0.8,0,1.2c0,0.3-0.2,0.5-0.5,0.5l-0.3,0l-0.3,0v3.7c0.6-0.1,1.4-0.8,1.8-1.6L12.1,13C12,13,12,13,12,13
							c-0.2-0.1-0.3-0.2-0.4-0.4c0-0.2,0.1-0.4,0.3-0.5l2.6-1.4c0.3-0.2,0.5-0.1,0.7,0.2l1.5,2.7c0.1,0.3,0.1,0.4,0,0.6
							c-0.1,0.2-0.3,0.2-0.6,0.1l-1-0.3c-0.5,1.1-1.3,2-2.2,2.6C12,17,11.1,17.2,10.1,17.2z"/>
					</g>
				</g>
			</g>
		</g>
	</g>
	<g>
		<path fill="#4C5455" d="M10,7.7L10,7.7C9.1,7.7,8.3,6.9,8.3,6S9.1,4.3,10,4.3c0.9,0,1.7,0.8,1.7,1.7C11.7,6.9,10.9,7.7,10,7.7z
			 M10,4.8C9.4,4.8,8.8,5.3,8.8,6c0,0.6,0.6,1.2,1.2,1.2l0,0.3V7.2c0.6,0,1.2-0.6,1.2-1.2C11.2,5.3,10.6,4.8,10,4.8z"/>
	</g>
</g>
</svg>
