<?xml version="1.0" encoding="utf-8"?>
<!-- Generator: Adobe Illustrator 18.1.1, SVG Export Plug-In . SVG Version: 6.00 Build 0)  -->
<svg version="1.1" id="Layer_1" xmlns="http://www.w3.org/2000/svg" xmlns:xlink="http://www.w3.org/1999/xlink" x="0px" y="0px"
	 viewBox="0 0 20 20" enable-background="new 0 0 20 20" xml:space="preserve">
<g>
	<path fill="#50BA6F" d="M8.3,13c0.1,0,0.2,0,0.3,0c0.9,0,1.8,0,2.7,0c0.4,0,0.8,0.3,0.9,0.7c0.1,0.4-0.1,0.9-0.5,1
		c-0.1,0.1-0.3,0.1-0.4,0.1c-1.7,0-3.5,0-5.2,0c-0.5,0-0.9-0.4-0.9-0.9c0-1.8,0-3.5,0-5.3c0-0.5,0.4-0.9,0.9-0.9
		C6.6,7.8,7,8.2,7,8.7c0,0.9,0,1.8,0,2.7c0,0.1,0,0.1,0,0.3c0.1-0.1,0.1-0.1,0.2-0.2c2-2,4-4,6-6c0.2-0.2,0.5-0.3,0.8-0.3
		c0.4,0,0.7,0.2,0.8,0.6c0.1,0.4,0.1,0.7-0.2,1c0,0.1-0.1,0.1-0.1,0.1c-2,2-4,4-6,6C8.5,12.9,8.4,12.9,8.3,13z"/>
</g>
</svg>
