<?xml version="1.0" encoding="utf-8"?>
<!-- Generator: Adobe Illustrator 18.1.1, SVG Export Plug-In . SVG Version: 6.00 Build 0)  -->
<svg version="1.1" id="Layer_1" xmlns="http://www.w3.org/2000/svg" xmlns:xlink="http://www.w3.org/1999/xlink" x="0px" y="0px"
	 viewBox="0 0 67 40" enable-background="new 0 0 67 40" xml:space="preserve">
<rect x="-0.5" y="39" fill="#6B6B6B" width="67.4" height="1"/>
<rect x="-0.3" y="0" fill="#F1F1F2" width="66.9" height="40"/>
<rect x="-0.3" y="39" fill="#F1F1F2" width="67.9" height="1"/>
<g>
	<path fill="#4B5354" d="M37.5,30c-1.5,0-2.7-0.4-3.8-0.9c-4-1.9-7.1-4.8-9.1-8.7c-0.4-0.8-0.7-1.6-0.8-2.4
		c-0.3-1.9,0.5-3.3,1.8-4.6c0.4-0.4,1.9-0.5,2.4-0.3c0.2,0.1,0.2,0.3,0.3,0.4c0.5,1.2,0.9,2.4,1.4,3.6c0.2,0.4,0.1,0.7-0.2,1.1
		c-0.3,0.3-0.5,0.6-0.8,0.9c-0.5,0.5-0.5,1-0.1,1.5c0.8,1.4,1.9,2.6,3.2,3.6c0.8,0.6,1.6,1.1,2.5,1.4c0.5,0.2,0.9,0.1,1.3-0.4
		c0.3-0.5,0.7-0.9,1.1-1.3c0.3-0.4,0.7-0.6,1.2-0.3c1,0.5,2,1,3.1,1.4c0.3,0.1,0.5,0.3,0.5,0.7c0.3,1.1,0.1,2.1-0.8,2.8
		C39.6,29.4,38.6,30.1,37.5,30z"/>
	<path fill="#4B5354" d="M43.2,18.8c0,0.2,0,0.4,0,0.5c-0.1,0.5-0.5,0.8-1,0.8c-0.4,0-0.8-0.4-0.9-0.8c0-0.4,0-0.7-0.1-1.1
		c-0.2-1.4-0.7-2.6-1.7-3.7c-1.2-1.4-2.6-2.2-4.4-2.5c-0.4-0.1-0.8-0.1-1.2-0.1c-0.4,0-0.7-0.3-0.8-0.7c-0.1-0.4,0-0.8,0.4-1
		c0.2-0.1,0.4-0.2,0.6-0.2c2.7,0.1,4.9,1.1,6.7,3c1.2,1.3,2,2.9,2.3,4.8c0,0.2,0,0.3,0.1,0.5C43.2,18.5,43.2,18.6,43.2,18.8
		L43.2,18.8z"/>
	<path fill="#4B5354" d="M34.2,14.1c2.3,0,4.4,1.8,4.8,4.1c0.1,0.3,0.1,0.6,0.1,0.9c0,0.6-0.4,1-0.9,1c-0.5,0-1-0.4-1-0.9
		c0-1-0.4-1.8-1.2-2.4C35.5,16.2,34.8,16,34,16c-0.4,0-0.6-0.2-0.8-0.5c-0.2-0.3-0.1-0.6,0.1-1C33.5,14.2,33.8,14.1,34.2,14.1z"/>
</g>
</svg>
