<?xml version="1.0" encoding="utf-8"?>
<!-- Generator: Adobe Illustrator 18.0.0, SVG Export Plug-In . SVG Version: 6.00 Build 0)  -->
<!DOCTYPE svg PUBLIC "-//W3C//DTD SVG 1.1//EN" "http://www.w3.org/Graphics/SVG/1.1/DTD/svg11.dtd">
<svg version="1.1" id="Layer_1" xmlns="http://www.w3.org/2000/svg" xmlns:xlink="http://www.w3.org/1999/xlink" x="0px" y="0px"
	 width="24.8px" height="25px"  viewBox="0 0 24.8 25" style="enable-background:new 0 0 24.8 25;" xml:space="preserve">
<style type="text/css">
	.st0{fill:#A5A5A5;}
</style>
<path class="st0" d="M23.1,5.8L23.1,5.8L12.5,1.5l-5,1.9l0,0l0,0l-6,2.3l0,0v0l0,0l0,0v13.6l10.5,4.1v0h0.8v0l10.5-4.1L23.1,5.8
	L23.1,5.8z M22.3,12.9l-4.4,1.6V8.7l4.4-1.7V12.9z M11.8,10.8v5.7l-4.5-1.6V9L11.8,10.8z M7.9,8.4l4.5-1.9l4.2,1.9l-4.3,1.7L7.9,8.4
	z M12.6,10.8L17.1,9v5.8l-4.5,1.7V10.8z M17.6,8l-4.2-1.9l4.1-1.7l4.6,1.8L17.6,8z M12.5,2.4l4,1.6l-4.1,1.7L8.5,3.9L12.5,2.4z
	 M7.5,4.3l3.9,1.8L6.9,8L2.5,6.2L7.5,4.3z M6.6,8.7v5.8l-4.4-1.6v-6L6.6,8.7z M2.2,13.7l4.4,1.6v5.3l-4.4-1.7V13.7z M7.4,20.9v-5.3
	l4.5,1.6v5.5L7.4,20.9z M12.6,17.2l4.5-1.7v5.3l-4.5,1.8V17.2z M17.9,20.6v-5.3l4.4-1.6v5.2L17.9,20.6z"/>
<g>
</g>
<g>
</g>
<g>
</g>
<g>
</g>
<g>
</g>
<g>
</g>
</svg>
