<?xml version="1.0" encoding="utf-8"?>
<!-- Generator: Adobe Illustrator 18.1.1, SVG Export Plug-In . SVG Version: 6.00 Build 0)  -->
<svg version="1.1" id="Layer_1" xmlns="http://www.w3.org/2000/svg" xmlns:xlink="http://www.w3.org/1999/xlink" x="0px" y="0px"
	 viewBox="0 0 13 13" enable-background="new 0 0 13 13" xml:space="preserve">
<g>
	<rect x="0" y="0" fill-rule="evenodd" clip-rule="evenodd" fill="#EEF0F1" width="13" height="13"/>
	<path fill-rule="evenodd" clip-rule="evenodd" fill="#EEF0F1" d="M3.7,5.6c0.1,0,0.1,0.1,0.2,0.1C4.3,6.1,4.7,6.5,5,6.9
		C5.1,7,5.2,7.1,5.4,7.2c0.1,0.1,0.2,0.1,0.4,0C6.8,6.1,8,5,9.1,3.9c0,0,0,0,0.1,0c0.1-0.1,0.2-0.1,0.3,0C9.7,4,9.9,4.2,10.1,4.5
		c0.1,0.1,0.1,0.2,0,0.4C9.7,5.2,9.3,5.6,8.9,6c-1,1-2.1,2.1-3.1,3.1c-0.1,0.1-0.3,0.1-0.4,0C4.5,8.3,3.7,7.5,2.9,6.7c0,0,0,0,0-0.1
		c-0.1-0.1-0.1-0.2,0-0.3c0.2-0.2,0.5-0.4,0.7-0.6C3.6,5.6,3.7,5.6,3.7,5.6z"/>
</g>
</svg>
