<?xml version="1.0" encoding="utf-8"?>
<!-- Generator: Adobe Illustrator 18.1.1, SVG Export Plug-In . SVG Version: 6.00 Build 0)  -->
<svg version="1.1" id="Layer_1" xmlns="http://www.w3.org/2000/svg" xmlns:xlink="http://www.w3.org/1999/xlink" x="0px" y="0px"
	 viewBox="0 0 67 40" enable-background="new 0 0 67 40" xml:space="preserve">
<g>
	<rect x="-0.2" y="0" fill="#F1F1F2" width="67.4" height="40"/>
	<rect x="-0.5" y="39" fill="#4B5354" width="68" height="1"/>
	<g>
		<path fill="#3497DB" d="M21.4,15.1c0-0.2,0.2-0.4,0.4-0.5c1.6-0.6,3.1-1.2,4.7-1.7c2.1-0.8,4.2-1.6,6.3-2.3c0.4-0.2,0.8-0.2,1.3,0
			c3.7,1.4,7.3,2.7,11,4.1c0.3,0.1,0.5,0.2,0.5,0.5c0,0.2-0.2,0.4-0.5,0.5c-3.7,1.4-7.3,2.7-11,4.1c-0.4,0.2-0.8,0.2-1.2,0
			c-3.7-1.4-7.4-2.7-11.1-4.1C21.6,15.4,21.4,15.3,21.4,15.1z"/>
		<path fill="#3497DB" d="M21.4,19.9c0-0.2,0.1-0.4,0.4-0.4c0.7-0.2,1.3-0.5,2-0.7c0.2-0.1,0.4-0.1,0.6,0c2.6,1,5.1,1.9,7.7,2.9
			c0.9,0.3,1.8,0.4,2.7,0c2.5-1,5.1-1.9,7.7-2.9c0.3-0.1,0.5-0.1,0.8,0c0.6,0.2,1.2,0.4,1.8,0.7c0.3,0.1,0.5,0.3,0.5,0.5
			c0,0.2-0.2,0.4-0.5,0.5c-3.6,1.3-7.3,2.7-10.9,4c-0.5,0.2-0.9,0.2-1.4,0c-3.6-1.4-7.3-2.7-10.9-4C21.6,20.3,21.4,20.2,21.4,19.9z"
			/>
		<path fill="#3497DB" d="M33.5,29.6c-0.2-0.1-0.4-0.1-0.6-0.2c-3.6-1.3-7.2-2.7-10.8-4c-0.1,0-0.2-0.1-0.3-0.1
			c-0.5-0.2-0.5-0.7,0-0.9c0.7-0.3,1.4-0.5,2-0.7c0.2-0.1,0.4,0,0.6,0c2.6,1,5.2,1.9,7.8,2.9c0.9,0.3,1.7,0.3,2.6,0
			c2.5-1,5.1-1.9,7.7-2.9c0.3-0.1,0.6-0.1,0.9,0c0.6,0.2,1.2,0.4,1.8,0.7c0.3,0.1,0.5,0.3,0.5,0.5c0,0.2-0.2,0.4-0.5,0.5
			c-3.7,1.4-7.4,2.7-11,4.1C33.9,29.5,33.7,29.6,33.5,29.6z"/>
	</g>
</g>
</svg>
