<?xml version="1.0" encoding="utf-8"?>
<!-- Generator: Adobe Illustrator 18.1.1, SVG Export Plug-In . SVG Version: 6.00 Build 0)  -->
<svg version="1.1" id="Layer_1" xmlns="http://www.w3.org/2000/svg" xmlns:xlink="http://www.w3.org/1999/xlink" x="0px" y="0px"
	 viewBox="0 0 64 67" enable-background="new 0 0 64 67" xml:space="preserve">
<g>
	<g>
			<rect x="1" y="0" fill="#FFFFFF" width="62" height="64"/>
	</g>
	<g>
		<text transform="matrix(1 0 0 1 8.1647 52.6736)" fill="#333333" font-family="'Helvetica'" font-size="8">CORPORATE</text>
	</g>
	<g>
		<g>
			<path fill="#69B2E2" d="M39.3,32.6c2.3,0,4.4-0.7,5.1-1.3c0-0.1,0-0.1,0-0.2c-0.1-0.7-0.2-1.4-0.4-2c-0.2-0.6-0.5-1-1.1-1.1
				c-0.5-0.2-0.9-0.3-1.4-0.5c0,0,0,0,0,0c-0.2,0.6-0.4,1.3-0.6,1.9c-0.2,0.6-0.4,1.3-0.7,1.9c-0.1-0.6-0.2-1.2-0.3-1.8
				c-0.1-0.3-0.1-0.7,0-1c0.1-0.1,0-0.2-0.1-0.3c-0.2-0.2-0.4-0.2-0.7,0c-0.1,0.1-0.2,0.2-0.1,0.3C39,28.7,39,28.9,39,29
				c-0.1,0.6-0.2,1.1-0.2,1.7c0,0.2-0.1,0.4-0.1,0.6c-0.3-0.6-0.5-1.2-0.7-1.8c-0.2-0.6-0.4-1.3-0.6-1.9c-0.1,0-0.2,0.1-0.3,0.1
				c-0.4,0.1-0.9,0.3-1.3,0.4c-0.4,0.2-0.7,0.5-0.9,1c-0.1,0.2-0.1,0.3-0.1,0.5c-0.1,0.6-0.2,1.2-0.3,1.8C35,32,36.9,32.6,39.3,32.6
				z"/>
			<path fill="#69B2E2" d="M41.8,23.8c0.1,0.1,0.2,0.1,0.3,0.2c0.1,0.2,0.1,0.4,0,0.6c-0.1,0.2-0.3,0.4-0.5,0.4c0,0-0.1,0.1-0.1,0.1
				c-0.2,0.4-0.4,0.8-0.7,1.1c-0.1,0.1-0.2,0.2-0.3,0.3c-0.7,0.6-1.5,0.6-2.1,0c-0.4-0.4-0.7-0.9-0.9-1.4c0-0.1-0.1-0.1-0.2-0.2
				c-0.4-0.1-0.6-0.6-0.5-1c0-0.2,0.2-0.1,0.3-0.1c0-0.3-0.1-0.5-0.1-0.8c-0.1-0.6,0.1-1.2,0.7-1.6c0.3-0.2,0.6-0.5,1-0.6
				c0.8-0.3,1.6-0.2,2.3,0.3c0.2,0.2,0.4,0.3,0.6,0.5c0.3,0.3,0.4,0.6,0.5,1C41.9,22.9,41.8,23.3,41.8,23.8
				C41.8,23.8,41.8,23.8,41.8,23.8z"/>
		</g>
		<path fill="#69B2E2" d="M28,31.4c0-1.5,0-3.9,0-5.4c1.5,0,3.9,0,5.4,0c0,0,0,0,0,0c0.2-0.2,0.4-0.3,0.6-0.4
			c-0.2-0.5-0.3-1.1-0.3-1.7c-3,0-6.6,0-9,0c0-0.8,0-1.6,0-2.4c2.5,0,6.3,0,9.4,0c0.3-1,0.9-1.9,1.7-2.5c-3.3,0-8.1,0-11.1,0
			c0-0.8,0-1.6,0-2.4c3.3,0,8.7,0,12,0c0,0.6,0,1.2,0,1.8c0.2-0.1,0.5-0.3,0.8-0.4c0.6-0.2,1.2-0.3,1.8-0.3c0-2.5,0-5.2,0-8.7
			c-5,0-12.1,0-17.1,0c0,8.3,0,11.7,0,20.1c-0.8,0-1.7,0-2.5,0c0,0.9,0,1.7,0,2.5L28,31.4z M24.7,11.6c3.3,0,8.7,0,12.1,0
			c0,0.8,0,1.6,0,2.4c-3.3,0-8.7,0-12.1,0C24.7,13.2,24.7,12.4,24.7,11.6z"/>
	</g>
</g>
</svg>
