<?xml version="1.0" encoding="utf-8"?>
<!-- Generator: Adobe Illustrator 18.1.1, SVG Export Plug-In . SVG Version: 6.00 Build 0)  -->
<svg version="1.1" id="Layer_1" xmlns="http://www.w3.org/2000/svg" xmlns:xlink="http://www.w3.org/1999/xlink" x="0px" y="0px"
	 viewBox="0 0 270 32" enable-background="new 0 0 270 32" xml:space="preserve">
<g>
	<path fill="#FFFFFF" stroke="#D2D8D5" stroke-miterlimit="10" d="M268.1,24.4c0,3.3-2.7,6-6,6H7.9c-3.3,0-6-2.7-6-6V7.6
		c0-3.3,2.7-6,6-6h254.2c3.3,0,6,2.7,6,6V24.4z"/>
	<g>
		<path fill="#FFFFFF" stroke="#D2D8D5" stroke-miterlimit="10" d="M240.4,30.4h21.7c3.3,0,6-2.7,6-6V7.6c0-3.3-2.7-6-6-6h-21.7
			V30.4z"/>
		<path fill="#5D5D5D" d="M254.5,18.3l2.7-4.3c0.2-0.3,0.1-0.6-0.3-0.6h-5.1c-0.4,0-0.5,0.3-0.3,0.6l2.7,4.3c0,0,0.1,0.2,0.3,0.2
			C254.4,18.5,254.5,18.3,254.5,18.3"/>
	</g>
</g>
</svg>
