<?xml version="1.0" encoding="utf-8"?>
<!-- Generator: Adobe Illustrator 18.1.1, SVG Export Plug-In . SVG Version: 6.00 Build 0)  -->
<svg version="1.1" id="Layer_1" xmlns="http://www.w3.org/2000/svg" xmlns:xlink="http://www.w3.org/1999/xlink" x="0px" y="0px"
	 viewBox="0 0 67 40" enable-background="new 0 0 67 40" xml:space="preserve">
<rect x="0" y="0" fill="#F1F1F2" width="67.4" height="40"/>
<rect x="-0.7" y="39" fill="#4B5354" width="68.4" height="1"/>
<g>
	<path fill="#3497DB" d="M31.2,12.1c-0.2,0-0.3,0-0.5,0c0,0.2,0,0.3,0,0.5c0.3,0,0.7,0,1,0c0-0.3,0-0.7,0-1c0.7,0,3.2,0,3.9,0
		c0,0.3,0,0.7,0,1c0.4,0,0.7,0,1,0c0-0.2,0-0.3,0-0.5c-0.2,0-0.3,0-0.5,0c0-1,0-2.1,0-3.1c1.4,0,2.8,0,4.2,0c0,1,0,2.1,0,3.1
		c-0.2,0-0.3,0-0.5,0c0,0.2,0,0.3,0,0.5c0.2,0,0.3,0,0.5,0c0,0.2,0,0.3,0,0.5c0.4,0,0.7,0,1.1,0c0.3,2.3,0.7,4.5,1,6.8
		c-2.3,0-4.5,0-6.8,0c0,0.2,0,0.3,0,0.5c-0.7,0-3.2,0-3.9,0c0-0.2,0-0.3,0-0.5c-2.3,0-4.5,0-6.8,0c0.4-2.3,0.7-4.5,1-6.8
		c0.3,0,0.7,0,1,0c0-0.2,0-0.3,0-0.5c0.2,0,0.3,0,0.5,0c0-0.2,0-0.3,0-0.5c-0.2,0-0.3,0-0.5,0c0-1.1,0-2.1,0-3.1c1.4,0,2.8,0,4.2,0
		C31.2,10,31.2,11.1,31.2,12.1z"/>
	<path fill="#3497DB" d="M31.7,25.4c-2.6,0-5.2,0-7.8,0c0.1-0.2,0.1-0.5,0.2-0.7c0.3-1.1,0.6-2.2,0.8-3.3c0-0.2,0.1-0.2,0.3-0.2
		c1.8,0,3.6,0,5.4,0c0.1,0,0.2,0,0.2,0.2C31.1,22.7,31.4,24,31.7,25.4C31.8,25.3,31.8,25.3,31.7,25.4z"/>
	<path fill="#3497DB" d="M35.7,25.4c0.1-0.6,0.3-1.2,0.4-1.7c0.2-0.8,0.4-1.5,0.6-2.3c0-0.2,0.1-0.2,0.3-0.2c1.8,0,3.6,0,5.3,0
		c0.1,0,0.2,0,0.2,0.2c0.3,1.3,0.7,2.6,1,4c0,0,0,0,0,0.1C40.9,25.4,38.3,25.4,35.7,25.4z"/>
	<path fill="#3497DB" d="M43.5,27.5c0,0.5,0,1,0,1.5c-2.6,0-5.2,0-7.8,0c0-0.5,0-1,0-1.5C38.3,27.5,40.9,27.5,43.5,27.5z"/>
	<path fill="#3497DB" d="M31.8,27.5c0,0.5,0,1,0,1.5c-2.6,0-5.2,0-7.8,0c0-0.5,0-1,0-1.5C26.5,27.5,29.1,27.5,31.8,27.5z"/>
</g>
</svg>
