<?xml version="1.0" encoding="utf-8"?>
<!-- Generator: Adobe Illustrator 18.0.0, SVG Export Plug-In . SVG Version: 6.00 Build 0)  -->
<!DOCTYPE svg PUBLIC "-//W3C//DTD SVG 1.1//EN" "http://www.w3.org/Graphics/SVG/1.1/DTD/svg11.dtd">
<svg version="1.1" id="Layer_1" xmlns="http://www.w3.org/2000/svg" xmlns:xlink="http://www.w3.org/1999/xlink" x="0px" y="0px"
	 width="27px" height="32.1px" viewBox="0 0 27 32.1" style="enable-background:new 0 0 27 32.1;" xml:space="preserve">
<style type="text/css">
	.st0{fill:#A5A5A5;}
</style>
<g>
	<g>
		<path class="st0" d="M22.5,11.9c0-0.2-0.1-0.4-0.2-0.5l-2.4-2.4c-0.1-0.1-0.3-0.2-0.5-0.2c-0.2,0-0.4,0.1-0.5,0.2L3,24.6
			c-0.1,0.1-0.2,0.3-0.2,0.6c0,0.2,0.1,0.4,0.2,0.5l2.4,2.4c0.1,0.1,0.3,0.2,0.5,0.2c0.2,0,0.4-0.1,0.5-0.2l15.7-15.7
			C22.4,12.3,22.5,12.1,22.5,11.9z M17,15.5l-1.3-1.3l3.6-3.6l1.3,1.3L17,15.5z"/>
		<polygon class="st0" points="5.6,11.5 6,10.3 7.2,9.9 6,9.6 5.6,8.4 5.2,9.6 4,9.9 5.2,10.3 		"/>
		<polygon class="st0" points="8.8,13 9.5,15.4 10.2,13 12.6,12.3 10.2,11.6 9.5,9.2 8.8,11.6 6.4,12.3 		"/>
		<polygon class="st0" points="21.6,17.4 21.2,16.2 20.9,17.4 19.7,17.8 20.9,18.1 21.2,19.3 21.6,18.1 22.8,17.8 		"/>
		<polygon class="st0" points="13.4,11.5 13.8,10.3 15,9.9 13.8,9.6 13.4,8.4 13,9.6 11.8,9.9 13,10.3 		"/>
	</g>
</g>
<g>
</g>
<g>
</g>
<g>
</g>
<g>
</g>
<g>
</g>
<g>
</g>
</svg>
