<?xml version="1.0" encoding="utf-8"?>
<!-- Generator: Adobe Illustrator 18.1.1, SVG Export Plug-In . SVG Version: 6.00 Build 0)  -->
<svg version="1.0" id="Seected" xmlns="http://www.w3.org/2000/svg" xmlns:xlink="http://www.w3.org/1999/xlink" x="0px" y="0px"
	 viewBox="0 0 24 24" enable-background="new 0 0 24 24" xml:space="preserve">
<g>
	<g>
		<path fill="#6B6B6B" d="M6.5,7.7l5.5,0l5.4,0c0.4,0,0.4,0,0.4-0.4l0-0.7c0-0.3-0.1-0.4-0.4-0.4l-3.4,0l-7.3,0
			c-0.4,0-0.4,0-0.4,0.4v0.1c0,0.2,0,0.4,0,0.6C6.2,7.6,6.3,7.7,6.5,7.7z"/>
		<path fill="#6B6B6B" d="M17.8,10.6l0-0.7c0-0.3-0.1-0.4-0.4-0.4l-3.4,0c-1,0-1.2,0-1.2,0v0h0v0l-0.2,0c-0.2,0-0.5,0-1,0
			c-0.4,0-0.4,0-0.4,0.4l0,0.2c0,0.2,0,0.3,0,0.5c0,0.2,0.1,0.3,0.3,0.3c0.2,0,0.3,0,0.5,0v0h0.1l5.3,0C17.8,11,17.8,11,17.8,10.6z"
			/>
		<path fill="#6B6B6B" d="M17.8,14l0-0.7c0-0.3-0.1-0.4-0.4-0.4l-1.1,0L14,13c-1,0-1.2,0-1.2,0v0c0,0,0,0,0,0l0,0l-0.2,0
			c-0.2,0-0.5,0-1,0c-0.4,0-0.4,0-0.4,0.4l0,0.2c0,0.2,0,0.3,0,0.5c0,0.2,0.1,0.3,0.3,0.3c0.1,0,0.2,0,0.3,0c0.1,0,0.3,0,0.3,0h5.3
			C17.8,14.4,17.8,14.4,17.8,14z"/>
		<path fill="#6B6B6B" d="M6.5,17.8l5.5,0l5.4,0c0.4,0,0.4,0,0.4-0.4l0-0.7c0-0.3-0.1-0.4-0.4-0.4l-3.4,0l-7.3,0
			c-0.4,0-0.4,0-0.4,0.4v0.1c0,0.2,0,0.4,0,0.6C6.2,17.7,6.3,17.8,6.5,17.8z"/>
	</g>
	<path fill="#6B6B6B" d="M6.5,14.4c0.2,0.1,0.4,0,0.5-0.1l0.8-0.8c0.5-0.5,1-1,1.5-1.5c-0.1-0.1-0.2-0.2-0.3-0.3L7.1,9.7
		C7,9.6,6.9,9.6,6.7,9.6c-0.1,0-0.2,0-0.2,0.1C6.4,9.7,6.3,9.8,6.3,10c0,0.2,0,0.3,0.2,0.4C6.7,10.7,7,11,7.2,11.3l0.5,0.5
		c0.2,0.2,0.2,0.3,0,0.5l-1.3,1.3c-0.1,0.1-0.2,0.2-0.2,0.3C6.3,14.1,6.4,14.3,6.5,14.4z"/>
</g>
</svg>
