<?xml version="1.0" encoding="utf-8"?>
<!-- Generator: Adobe Illustrator 18.1.1, SVG Export Plug-In . SVG Version: 6.00 Build 0)  -->
<svg version="1.0" id="ActionArea" xmlns="http://www.w3.org/2000/svg" xmlns:xlink="http://www.w3.org/1999/xlink" x="0px" y="0px"
	 viewBox="0 0 24 24" enable-background="new 0 0 24 24" xml:space="preserve">
<rect x="0" fill="#3D97D3" width="24" height="24"/>
<g>
	<path fill="#FFFFFF" d="M16.7,12.3c-0.2,2.4-2,4.2-4.3,4.3c-1.1,0.1-2.1-0.2-3-0.9c-1.2-0.8-1.8-2-2-3.5H6.5
		c0.1,0.9,0.3,1.7,0.8,2.5c0.9,1.5,2.3,2.4,4.1,2.7l0.3,0v1.3H8.7v0.8h6.7v-0.8h-2.9l0-1.3l0.2-0.1c1.4-0.2,2.5-0.8,3.4-1.8
		c0.8-0.9,1.3-2.1,1.4-3.3H16.7z"/>
	<g>
		<path fill="#FFFFFF" d="M9.4,6.9v3.3c0,0.6,0,1.2,0,1.8c0,0.2,0,0.4,0,0.5c0.3,1.3,1.5,2.2,2.8,2.1c1.4-0.2,2.4-1.2,2.4-2.6
			c0-1.7,0-3.4,0-5.1c0-0.2,0-0.4-0.1-0.5c-0.2-1.2-1.3-2.1-2.5-2.1c-0.1,0-0.2,0-0.3,0C10.4,4.5,9.4,5.6,9.4,6.9z M10.2,7
			c0-1,0.8-1.8,1.8-1.8h0c1,0,1.8,0.8,1.8,1.8v5c0,1-0.8,1.8-1.8,1.8c-1,0-1.8-0.8-1.8-1.8C10.2,10.3,10.2,8.6,10.2,7z"/>
		<polygon fill="#FFFFFF" points="12,5.5 12,5.5 12,5.5 		"/>
	</g>
</g>
</svg>
