<?xml version="1.0" encoding="utf-8"?>
<!-- Generator: Adobe Illustrator 18.1.1, SVG Export Plug-In . SVG Version: 6.00 Build 0)  -->
<svg version="1.0" id="Seected" xmlns="http://www.w3.org/2000/svg" xmlns:xlink="http://www.w3.org/1999/xlink" x="0px" y="0px"
	 viewBox="0 0 24 24" enable-background="new 0 0 24 24" xml:space="preserve">
<path fill="#3497DB" d="M10.9,21c-0.9,0-1.8,0-2.7,0c-1.2,0-2.1-0.9-2.1-2.1c0-4.9,0-9.5,0-13.8C6.1,3.8,7,3,8.3,3
	c0.9,0,1.9,0,2.8,0c0.9,0,1.8,0,2.7,0c1.2,0,2.1,0.9,2.1,2.1c0,0.6,0,1.5,0,2.2c0,0.3,0,0.6,0,0.9v0.3l0.6,0c0.1,0,0.1,0,0.2,0
	c0.8,0,1.3,0.5,1.3,1.3c0,0.4,0,0.7,0,1.1c0,0.7,0,1.4,0,2.1c0,0.8-0.5,1.2-1.2,1.2c-0.1,0-0.1,0-0.2,0c-0.1,0-0.1,0-0.2,0
	c-0.1,0-0.1,0-0.2,0h-0.3v2.6c0,0.2,0,0.5,0,0.7c0,0.5,0,1,0,1.5c0,1.2-0.9,2-2,2C12.8,21,11.9,21,10.9,21z M6.9,18.5
	c-0.1,0.5,0,1,0.3,1.3c0.3,0.3,0.7,0.5,1.2,0.5c0.9,0,1.8,0,2.8,0c0.9,0,1.7,0,2.6,0h0c0.5,0,0.9-0.2,1.2-0.5
	c0.3-0.3,0.3-0.8,0.2-1.3l0-0.2H6.9L6.9,18.5z M6.9,17.6h8.2v-3.4h-0.3c-0.2,0-0.4,0-0.5,0c-0.2,0-0.3,0-0.5,0c-0.4,0-0.7,0-1,0
	c-0.2,0-0.4,0.1-0.5,0.2c-0.6,0.6-1.1,1.1-1.5,1.6c-0.2,0.2-0.3,0.2-0.4,0.2c0,0-0.1,0-0.1,0C10.1,16.1,10,16,10,15.7
	c0-0.3,0-0.6,0-0.9c0-0.1,0-0.2,0-0.4v-0.2l-0.2,0c-0.9-0.2-1.2-0.5-1.2-1.5c0-1,0-1.9,0-2.9C8.6,9,9,8.5,9.9,8.5c1.1,0,2.2,0,3.3,0
	l1.9,0V6.4H6.9V17.6z M10.1,13.4c0.1,0,0.1,0,0.2,0c0.3,0,0.4,0.2,0.4,0.4c0,0.1,0,0.2,0,0.3c0,0,0,0.1,0,0.1v0.6l0.4-0.4
	c0.1-0.1,0.2-0.1,0.2-0.2c0.2-0.2,0.4-0.3,0.6-0.5c0.1-0.2,0.3-0.2,0.5-0.2l0,0c0.6,0,1.2,0,1.9,0c0.4,0,0.8,0,1.2,0l0.9,0
	c0.5,0,0.7-0.2,0.7-0.7c0-1,0-2,0-2.9c0-0.4-0.2-0.6-0.6-0.6c-0.2,0-0.3,0-0.5,0l-0.9,0l-3.5,0l-1.7,0c-0.2,0-0.6,0-0.6,0.6
	c0,0.6,0,1.2,0,1.8c0,0.4,0,0.8,0,1.2c0,0.2,0.1,0.3,0.1,0.4c0.1,0.1,0.2,0.1,0.4,0.1l0,0C10,13.4,10,13.4,10.1,13.4z M11.4,3.7
	c-1.1,0-2.3,0-3.2,0C7.6,3.7,7.2,4,7,4.5C6.9,4.7,6.9,4.9,6.9,5.1c0,0.1,0,0.2,0,0.3L6.8,5.7h8.3V5.4l0-0.1c0-0.1,0-0.2,0-0.2
	c0-0.8-0.5-1.3-1.3-1.3C13.1,3.7,12.3,3.7,11.4,3.7z"/>
</svg>
