<?xml version="1.0" encoding="utf-8"?>
<!-- Generator: Adobe Illustrator 18.1.1, SVG Export Plug-In . SVG Version: 6.00 Build 0)  -->
<svg version="1.0" id="Seected" xmlns="http://www.w3.org/2000/svg" xmlns:xlink="http://www.w3.org/1999/xlink" x="0px" y="0px"
	 viewBox="0 0 24 24" enable-background="new 0 0 24 24" xml:space="preserve">
<g>
	<g>
		<path fill="#6B6B6B" d="M18.2,20.5H5.8c-0.7,0-1.3-0.6-1.3-1.3v-9c0-0.1,0-0.2,0.1-0.3l7.1-6.1c0.1-0.1,0.3-0.1,0.4,0l0.6,0.5
			c0.1,0.1,0.2,0.3,0,0.5c-0.1,0.1-0.3,0.2-0.5,0L12,4.6l-6.8,5.8v8.8c0,0.3,0.3,0.6,0.6,0.6h12.4c0.3,0,0.6-0.3,0.6-0.6v-8.9
			l-0.3-0.3c-0.1-0.1-0.2-0.3,0-0.5c0.1-0.1,0.3-0.2,0.5,0l0.4,0.4c0.1,0.1,0.1,0.2,0.1,0.3v9C19.4,19.9,18.9,20.5,18.2,20.5
			L18.2,20.5z"/>
	</g>
	<g>
		<path fill="#6B6B6B" d="M18.2,20.5H5.8c-0.5,0-1-0.3-1.2-0.8c0-0.1,0-0.3,0.1-0.4l7-6.3c0.1-0.1,0.3-0.1,0.5,0l7,6.3
			c0.1,0.1,0.1,0.2,0.1,0.4C19.2,20.2,18.7,20.5,18.2,20.5L18.2,20.5z M5.4,19.6c0.1,0.1,0.3,0.2,0.4,0.2h12.4
			c0.2,0,0.3-0.1,0.4-0.2L12,13.7L5.4,19.6L5.4,19.6z"/>
	</g>
	<g>
		<path fill="#6B6B6B" d="M14.1,15.5c-0.1,0-0.2,0-0.3-0.1c-0.1-0.1-0.1-0.4,0-0.5l4.9-4.3c0.1-0.1,0.4-0.1,0.5,0
			c0.1,0.1,0.1,0.4,0,0.5l-4.9,4.3C14.3,15.5,14.2,15.5,14.1,15.5L14.1,15.5z"/>
	</g>
	<g>
		<path fill="#6B6B6B" d="M9.8,15.5c-0.1,0-0.2,0-0.2-0.1l-4.9-4.4c-0.1-0.1-0.2-0.3,0-0.5c0.1-0.1,0.3-0.2,0.5,0l4.9,4.4
			c0.1,0.1,0.2,0.3,0,0.5C10,15.5,9.9,15.5,9.8,15.5L9.8,15.5z"/>
	</g>
	<g>
		<g>
			<path fill="#6B6B6B" d="M15.2,11.9c-1.1,0-2.2-0.4-3-1.2c-0.8-0.8-1.2-1.9-1.2-3s0.4-2.2,1.2-3c0.8-0.8,1.9-1.2,3-1.2
				s2.2,0.4,3,1.2c1.6,1.6,1.6,4.3,0,6C17.4,11.5,16.4,11.9,15.2,11.9L15.2,11.9z M15.2,4.2c-0.9,0-1.8,0.4-2.5,1
				c-0.7,0.7-1,1.6-1,2.5s0.4,1.8,1,2.5c0.7,0.7,1.6,1,2.5,1c0.9,0,1.8-0.4,2.5-1c1.4-1.4,1.4-3.6,0-5C17.1,4.5,16.2,4.2,15.2,4.2
				L15.2,4.2z"/>
		</g>
		<g>
			<path fill="#6B6B6B" d="M13.9,9.4c-0.1,0-0.2,0-0.2-0.1c-0.1-0.1-0.1-0.3,0-0.5l2.7-2.7c0.1-0.1,0.3-0.1,0.5,0
				c0.1,0.1,0.1,0.3,0,0.5l-2.7,2.7C14.1,9.4,14,9.4,13.9,9.4L13.9,9.4z"/>
		</g>
		<g>
			<path fill="#6B6B6B" d="M16.6,9.4c-0.1,0-0.2,0-0.2-0.1l-2.7-2.7c-0.1-0.1-0.1-0.3,0-0.5C13.8,6,14,6,14.2,6.2l2.7,2.7
				c0.1,0.1,0.1,0.3,0,0.5C16.7,9.4,16.7,9.4,16.6,9.4L16.6,9.4z"/>
		</g>
	</g>
</g>
</svg>
