<?xml version="1.0" encoding="utf-8"?>
<!-- Generator: Adobe Illustrator 18.1.1, SVG Export Plug-In . SVG Version: 6.00 Build 0)  -->
<svg version="1.0" id="Seected" xmlns="http://www.w3.org/2000/svg" xmlns:xlink="http://www.w3.org/1999/xlink" x="0px" y="0px"
	 viewBox="0 0 24 24" enable-background="new 0 0 24 24" xml:space="preserve">
<g>
	<path fill="#6B6B6B" d="M6.2,13.3c0,0.2,0,0.5,0,0.7c0,0.3,0.1,0.4,0.4,0.4h8.7h2.1c0.3,0,0.4-0.1,0.4-0.4c0-0.2,0-0.5,0-0.7
		c0-0.3-0.1-0.4-0.4-0.4l-1.8,0l-5.4,0l-1.8,0l-1.8,0C6.3,13,6.2,13,6.2,13.3z"/>
	<path fill="#6B6B6B" d="M17.5,11c0.2,0,0.3-0.1,0.3-0.3c0-0.2,0-0.4,0-0.6V10c0-0.4,0-0.4-0.4-0.4l-9.1,0l-1.7,0
		c-0.3,0-0.4,0.1-0.4,0.4v0.7c0,0.4,0,0.4,0.4,0.4L17.5,11z"/>
	<path fill="#6B6B6B" d="M6.5,17.8l5.9,0l2,0c0.3,0,0.3-0.1,0.3-0.3c0-0.2,0-0.4,0-0.6l0-0.1c0-0.4,0-0.4-0.4-0.4l-5.6,0
		c-0.7,0-1.4,0-2.1,0c-0.4,0-0.4,0-0.4,0.4c0,0.2,0,0.5,0,0.7C6.2,17.7,6.3,17.8,6.5,17.8z"/>
	<path fill="#6B6B6B" d="M8.8,6.2l-2.3,0c-0.2,0-0.3,0.1-0.3,0.3c0,0.2,0,0.4,0,0.6l0,0.2c0,0.4,0.1,0.4,0.4,0.4l3.7,0
		c0.4,0,0.7,0,1.1,0c0.3,0,0.3-0.1,0.3-0.3c0-0.3,0-0.6,0-0.9c0-0.2-0.1-0.3-0.3-0.3C10.6,6.2,9.7,6.2,8.8,6.2z"/>
</g>
</svg>
