<?xml version="1.0" encoding="utf-8"?>
<!-- Generator: Adobe Illustrator 18.1.1, SVG Export Plug-In . SVG Version: 6.00 Build 0)  -->
<svg version="1.0" id="Seected" xmlns="http://www.w3.org/2000/svg" xmlns:xlink="http://www.w3.org/1999/xlink" x="0px" y="0px"
	 viewBox="0 0 24 24" enable-background="new 0 0 24 24" xml:space="preserve">
<g>
	<path fill="#6B6B6B" d="M12.3,21.3c-0.3-0.4-0.6-0.7-0.9-1.1c-1.7-2-3.3-4-4.5-6.3c-0.6-1-1-2-1.3-3C5.2,9.5,5.4,8.1,6.1,6.8
		C7.2,4.7,8.9,3.4,11.3,3c3.5-0.6,6.9,1.8,7.7,5.3c0.4,1.5,0.1,2.9-0.6,4.3c-0.8,1.6-1.7,3.1-2.8,4.6c-1,1.3-2.1,2.6-3.1,3.8
		C12.5,21.1,12.4,21.2,12.3,21.3z M12.3,20.3c0.1-0.1,0.1-0.1,0.1-0.2c1-1.3,2-2.5,3-3.8c1-1.3,1.8-2.6,2.4-4.1c0.4-1,0.7-2,0.6-3.1
		c-0.4-3-2.8-5.3-5.8-5.5c-2.6-0.1-4.6,1-5.9,3.2c-0.7,1.1-0.9,2.4-0.7,3.7c0.2,0.9,0.6,1.8,1,2.6c1,1.8,2.2,3.5,3.5,5.1
		C11.2,18.9,11.7,19.6,12.3,20.3z"/>
	<path fill="#6B6B6B" d="M11.8,12.8c0-0.8,0-1.6,0-2.4c0-0.1-0.1-0.2-0.2-0.2c-0.2-0.1-0.5-0.1-0.7-0.2c-0.7-0.3-1.2-0.8-1.2-1.7
		c0-0.8,0.4-1.4,1.2-1.8c0.2-0.1,0.4-0.1,0.6-0.2c0.2,0,0.3-0.1,0.3-0.3c0-0.3,0.2-0.5,0.4-0.5c0.3,0,0.4,0.2,0.4,0.5
		c0,0.2,0.1,0.3,0.3,0.3C13.8,6.6,14.5,7,14.7,8c0,0.1,0,0.3,0,0.4c0,0.3-0.1,0.4-0.4,0.4c-0.3,0-0.4-0.1-0.5-0.4
		c-0.1-0.7-0.4-1-1.1-1.1c0,0.1,0,0.2,0,0.3c0,0.6,0,1.2,0,1.8c0,0.2,0.1,0.3,0.3,0.4c0.2,0.1,0.5,0.2,0.7,0.3
		c0.8,0.4,1.2,1.1,1.1,2.1c-0.1,0.8-0.7,1.4-1.5,1.6c-0.1,0-0.1,0-0.2,0c-0.3,0-0.4,0.1-0.4,0.4c0,0.3-0.2,0.4-0.4,0.4
		c-0.2,0-0.4-0.2-0.4-0.4c0-0.3-0.1-0.3-0.3-0.3c-1-0.2-1.7-0.9-1.7-1.8c0-0.4,0.1-0.6,0.4-0.6c0.3,0,0.5,0.1,0.5,0.5
		C10.7,12.4,11.2,12.8,11.8,12.8z M12.7,12.8c0.8-0.1,1.1-0.4,1.1-1.1c0-0.6-0.4-1.1-1.1-1.1C12.7,11.3,12.7,12.1,12.7,12.8z
		 M11.8,7.3c-0.6,0-1.1,0.5-1.2,1.1c0,0.5,0.5,1,1.2,1C11.8,8.7,11.8,8,11.8,7.3z"/>
</g>
</svg>
