<?xml version="1.0" encoding="utf-8"?>
<!-- Generator: Adobe Illustrator 18.1.1, SVG Export Plug-In . SVG Version: 6.00 Build 0)  -->
<svg version="1.0" id="Seected" xmlns="http://www.w3.org/2000/svg" xmlns:xlink="http://www.w3.org/1999/xlink" x="0px" y="0px"
	 viewBox="0 0 24 24" enable-background="new 0 0 24 24" xml:space="preserve">
<path fill="#50B96F" d="M18.4,11.4c-0.1-0.1-0.2-0.1-0.3-0.2L8.4,5.8L8.1,5.6C7.8,5.5,7.6,5.4,7.3,5.2C7.2,5.1,7,5.1,6.9,5.1
	c-0.4,0-0.7,0.3-0.8,0.8c0,0.1,0,0.1,0,0.2l0,10.5c0,0.5,0,1,0,1.5c0,0.5,0.3,0.9,0.7,0.9c0.2,0,0.3,0,0.5-0.1c0,0,0.1-0.1,0.1-0.1
	l0.1,0c3.5-2,7.1-3.9,10.6-5.9c0.1,0,0.2-0.1,0.2-0.2c0.2-0.2,0.3-0.4,0.3-0.6C18.7,11.8,18.6,11.6,18.4,11.4z M17.1,12l-9.6,5.4
	V6.7L17.1,12z"/>
</svg>
