<?xml version="1.0" encoding="utf-8"?>
<!-- Generator: Adobe Illustrator 18.1.1, SVG Export Plug-In . SVG Version: 6.00 Build 0)  -->
<svg version="1.1" id="Seected" xmlns="http://www.w3.org/2000/svg" xmlns:xlink="http://www.w3.org/1999/xlink" x="0px" y="0px"
	 viewBox="0 0 24 24" enable-background="new 0 0 24 24" xml:space="preserve">
<g>
	<path fill="#4B5354" stroke="#4B5354" stroke-width="0.4" stroke-miterlimit="10" d="M13.7,13.2c0.2,0.2,0.4,0.4,0.6,0.6
		c0.2-0.2,0.3-0.4,0.5-0.6c0.2-0.2,0.4-0.2,0.6,0c1.4,1.4,2.8,2.8,4.2,4.2c0.6,0.6,0.5,1.5-0.1,2.1c-0.6,0.6-1.5,0.7-2.1,0.1
		c-1.4-1.4-2.8-2.8-4.2-4.2c-0.2-0.2-0.2-0.4,0-0.6c0.2-0.2,0.4-0.3,0.6-0.5c-0.2-0.2-0.4-0.4-0.6-0.6c-2.7,2.3-6.3,1.4-8-0.8
		c-1.7-2.3-1.5-5.5,0.6-7.4c2-1.9,5.3-2,7.4-0.1C15.3,7.2,15.8,10.6,13.7,13.2z M9.5,4.7c-2.6,0-4.8,2.1-4.8,4.7
		c0,2.7,2.1,4.8,4.7,4.8c2.7,0,4.8-2.1,4.8-4.8C14.3,6.9,12.2,4.8,9.5,4.7z M16,17.2c0.7,0.7,1.3,1.3,1.9,1.9c0.3,0.3,0.7,0.3,1,0
		c0.4-0.4,0.5-0.8,0-1.3c-1.2-1.2-2.5-2.5-3.7-3.7c0,0-0.1-0.1-0.1-0.1c-0.4,0.4-0.8,0.8-1.1,1.1c0.5,0.5,1,1,1.5,1.5L16,17.2z"/>
	<path fill="#4B5354" stroke="#4B5354" stroke-width="0.4" stroke-miterlimit="10" d="M7.6,9.4c0.3,0.3,0.6,0.5,0.9,0.8
		c0.6-0.5,1.1-1,1.6-1.5c0,0,0,0,0-0.1c-0.2,0-0.4,0-0.7,0c0-0.3,0-0.5,0-0.7c0.7,0,1.4,0,2.1,0c0,0.6,0,1.3,0,1.9
		c-0.2,0-0.5,0-0.7,0c0-0.2,0-0.4,0-0.7c-0.8,0.7-1.5,1.4-2.3,2.1c-0.3-0.3-0.6-0.5-0.9-0.8c-0.2,0.2-0.4,0.4-0.6,0.6
		c-0.1-0.2-0.3-0.3-0.5-0.5C6.9,10.1,7.3,9.8,7.6,9.4z"/>
</g>
</svg>
