<?xml version="1.0" encoding="utf-8"?>
<!-- Generator: Adobe Illustrator 18.1.1, SVG Export Plug-In . SVG Version: 6.00 Build 0)  -->
<svg version="1.0" id="Seected" xmlns="http://www.w3.org/2000/svg" xmlns:xlink="http://www.w3.org/1999/xlink" x="0px" y="0px"
	 viewBox="0 0 24 24" enable-background="new 0 0 24 24" xml:space="preserve">
<g>
	<path fill="#F49C11" d="M18.4,12c0,1.7,0,3.4,0,5c0,1.2-0.9,2.3-2.2,2.2c-0.4,0-0.8,0-1.2,0c-1.3,0-2.2-0.9-2.2-2.2
		c0-3.4,0-6.8,0-10.2c0-1.1,0.8-2,1.9-2.1c0.6,0,1.2,0,1.7,0c1.1,0.1,1.9,1,1.9,2.1C18.5,8.6,18.4,10.3,18.4,12z M17.4,12
		c0-1.7,0-3.4,0-5.1c0-0.7-0.4-1.1-1.1-1.1c-0.4,0-0.9,0-1.3,0c-0.7,0-1.1,0.4-1.1,1.1c0,0.3,0,0.7,0,1c0,3.1,0,6.2,0,9.2
		c0,0.7,0.4,1.1,1.1,1.1c0.4,0,0.8,0,1.2,0c0.8,0,1.2-0.4,1.2-1.2C17.4,15.4,17.4,13.7,17.4,12z"/>
	<path fill="#F49C11" d="M5.5,12c0-1.7,0-3.4,0-5.1c0-1,0.6-1.9,1.6-2.1c0.8-0.1,1.6-0.1,2.4,0c0.9,0.1,1.6,1,1.6,2
		c0,3.5,0,6.9,0,10.4c0,1.1-0.8,2-1.9,2.1c-0.6,0-1.2,0-1.7,0c-1.1-0.1-1.9-1-1.9-2.1C5.5,15.5,5.5,13.7,5.5,12z M6.6,12
		c0,1.7,0,3.4,0,5.1c0,0.8,0.4,1.2,1.2,1.2c0.4,0,0.8,0,1.2,0c0.8,0,1.2-0.4,1.2-1.2c0-2.7,0-5.4,0-8.1c0-0.7,0-1.4,0-2.1
		c0-0.7-0.4-1.1-1.1-1.1c-0.4,0-0.8,0-1.2,0C7,5.8,6.6,6.2,6.6,7C6.6,8.6,6.6,10.3,6.6,12z"/>
</g>
</svg>
