<?xml version="1.0" encoding="utf-8"?>
<!-- Generator: Adobe Illustrator 18.1.1, SVG Export Plug-In . SVG Version: 6.00 Build 0)  -->
<svg version="1.0" id="Seected" xmlns="http://www.w3.org/2000/svg" xmlns:xlink="http://www.w3.org/1999/xlink" x="0px" y="0px"
	 viewBox="0 0 24 24" enable-background="new 0 0 24 24" xml:space="preserve">
<g>
	<g>
		<path fill="#6B6B6B" d="M19.8,20.5H4.2c-0.7,0-1.3-0.4-1.5-1c-0.1-0.2,0-0.4,0.1-0.5l6.1-5.4c0.2-0.2,0.4-0.1,0.6,0
			c0.2,0.2,0.1,0.4,0,0.6l-5.8,5.2c0.1,0.1,0.3,0.2,0.5,0.2h15.6c0.2,0,0.4-0.1,0.5-0.2l-5.9-5.3c-0.2-0.2-0.2-0.4,0-0.6
			c0.2-0.2,0.4-0.2,0.6,0l6.2,5.5c0.1,0.1,0.2,0.3,0.1,0.5C21.1,20.1,20.5,20.5,19.8,20.5L19.8,20.5z"/>
	</g>
	<g>
		<g>
			<path fill="#6B6B6B" d="M12,13.3c-0.1,0-0.2,0-0.3-0.1l-2.6-2.6C9,10.5,9,10.2,9.1,10c0.2-0.2,0.4-0.2,0.6,0l2.3,2.3l2.3-2.3
				c0.2-0.2,0.4-0.2,0.6,0c0.2,0.2,0.2,0.4,0,0.6l-2.6,2.6C12.2,13.3,12.1,13.3,12,13.3L12,13.3z"/>
		</g>
		<g>
			<path fill="#6B6B6B" d="M12,12.6c-0.2,0-0.4-0.2-0.4-0.4V3.9c0-0.2,0.2-0.4,0.4-0.4c0.2,0,0.4,0.2,0.4,0.4v8.3
				C12.4,12.4,12.2,12.6,12,12.6L12,12.6z"/>
		</g>
	</g>
	<g>
		<path fill="#6B6B6B" d="M19.8,20.5H4.2c-0.9,0-1.6-0.7-1.6-1.6V8.7c0-0.9,0.7-1.6,1.6-1.6h5.5c0.2,0,0.4,0.2,0.4,0.4
			C10.1,7.8,9.9,8,9.7,8H4.2C3.8,8,3.5,8.3,3.5,8.7v10.2c0,0.4,0.3,0.7,0.7,0.7h15.6c0.4,0,0.7-0.3,0.7-0.7V8.7
			c0-0.4-0.3-0.7-0.7-0.7h-5.5c-0.2,0-0.4-0.2-0.4-0.4c0-0.2,0.2-0.4,0.4-0.4h5.5c0.9,0,1.6,0.7,1.6,1.6v10.2
			C21.4,19.8,20.7,20.5,19.8,20.5L19.8,20.5z"/>
	</g>
	<g>
		<path fill="#6B6B6B" d="M12,16.6c-0.1,0-0.2,0-0.3-0.1L2.8,8.6C2.7,8.5,2.6,8.2,2.8,8C3,7.8,3.2,7.8,3.4,8l8.6,7.7L20.6,8
			c0.2-0.2,0.4-0.1,0.6,0c0.2,0.2,0.1,0.4,0,0.6l-8.9,7.9C12.2,16.6,12.1,16.6,12,16.6L12,16.6z"/>
	</g>
</g>
</svg>
