<?xml version="1.0" encoding="utf-8"?>
<!-- Generator: Adobe Illustrator 18.1.1, SVG Export Plug-In . SVG Version: 6.00 Build 0)  -->
<svg version="1.1" id="Seected" xmlns="http://www.w3.org/2000/svg" xmlns:xlink="http://www.w3.org/1999/xlink" x="0px" y="0px"
	 viewBox="0 0 24 24" enable-background="new 0 0 24 24" xml:space="preserve">
<path fill="#6B6B6B" d="M18.9,18.9c0-0.2,0-0.2,0-0.2c0-0.3,0-0.8,0-1.3l0-0.2v-5.5c0-0.6-0.1-0.7-0.8-0.7h-3.4V2.9
	c0-0.6-0.1-0.7-0.7-0.7l-8.3,0c-0.6,0-0.7,0.1-0.7,0.7l0,12.9l0,0l0,5.2c0,0.6,0.1,0.7,0.7,0.7c1.6,0,4.7,0,7.6,0h4.8
	c0.6,0,0.7-0.1,0.7-0.7c0-0.7,0-1.1,0-1.5h0v-0.4C18.9,19.1,18.9,19,18.9,18.9z M9.3,3.2h1.3v2.1H9.3V3.2z M6.1,3.1h2.3v2.3
	c0,0.4,0,0.6,0.1,0.6c0.1,0.1,0.3,0.1,0.6,0.1l0.9,0c0.3,0,0.6,0,0.8,0c0.6,0,0.7-0.1,0.7-0.7c0-0.5,0-1,0-1.6l0-0.9h2.3v7.8H6.1
	V3.1z M12.6,11.9v2.1h-1.3v-2.1H12.6z M17.9,17.3L17.9,17.3l0,3.6h-6.2l0-0.1l0,0.1l-0.1,0c-0.6,0-3.5,0-3.5,0H6V12h4.3v2.4
	c0,0.6,0.1,0.7,0.7,0.7c0.6,0,1.3,0,1.9,0c0.5,0,0.6-0.2,0.6-0.6c0-0.5,0-1.1,0-1.6l0-0.9h4.3V17.3z"/>
</svg>
