<?xml version="1.0" encoding="utf-8"?>
<!-- Generator: Adobe Illustrator 18.1.1, SVG Export Plug-In . SVG Version: 6.00 Build 0)  -->
<svg version="1.1" id="Selected" xmlns="http://www.w3.org/2000/svg" xmlns:xlink="http://www.w3.org/1999/xlink" x="0px" y="0px"
	 viewBox="0 0 20 20" enable-background="new 0 0 20 20" xml:space="preserve">
<g>
	<g>
		<g>
			<g>
				<circle fill="#EBECEE" cx="10" cy="10" r="10"/>
			</g>
		</g>
	</g>
	<g>
		<g>
			<path fill="#ADADAD" d="M9.3,11.4c-1.5,0-2.9,0-4.3,0C5,10,5,8.5,5,7c0.3,0,0.6,0,0.9,0C5.9,7,6,7.2,6,7.3c0,0.6,0,1.2,0,1.9
				c0,0.1,0,0.3,0,0.4c1.1-1.1,2.1-2.2,3.2-3.3c0.3,0.3,0.6,0.6,0.8,0.8C9,8.2,7.9,9.2,6.8,10.3c0,0,0,0.1,0.1,0.1
				c0.8,0,1.6,0,2.4,0C9.3,10.7,9.3,11.1,9.3,11.4z"/>
			<path fill="#ADADAD" d="M13.9,10.5c-1.1,1.1-2.1,2.1-3.2,3.2c-0.3-0.3-0.5-0.5-0.8-0.8c1.1-1,2.1-2.1,3.2-3.1c0,0,0-0.1,0-0.1
				c-0.1,0-0.3,0-0.4,0c-0.6,0-1.2,0-1.8,0c-0.2,0-0.3-0.1-0.3-0.3c0-0.2,0-0.5,0-0.7c1.5,0,2.9,0,4.4,0c0,1.5,0,2.9,0,4.4
				c-0.3,0-0.7,0-1,0C14,12.2,14,11.4,13.9,10.5C13.9,10.5,13.9,10.5,13.9,10.5z"/>
		</g>
	</g>
</g>
</svg>
