<?xml version="1.0" encoding="utf-8"?>
<!-- Generator: Adobe Illustrator 18.1.1, SVG Export Plug-In . SVG Version: 6.00 Build 0)  -->
<svg version="1.0" id="Seected" xmlns="http://www.w3.org/2000/svg" xmlns:xlink="http://www.w3.org/1999/xlink" x="0px" y="0px"
	 viewBox="0 0 24 24" enable-background="new 0 0 24 24" xml:space="preserve">
<path fill="#6B6B6B" d="M12.9,17.2c0,0.1-0.1,0.2-0.1,0.3c-1.5,0-2.9,0-4.4,0c0-0.1,0.1-0.2,0.1-0.2c0,0,0.1,0,0.1,0
	c0.2,0,0.4,0,0.5,0c0.4-0.1,0.7-0.3,0.9-0.6c0.2-0.4,0.4-0.9,0.5-1.4c0.6-2.2,1.2-4.4,1.9-6.6c0.1-0.3,0.1-0.6,0.2-0.9
	c0.1-0.5-0.2-0.8-0.6-0.8c-0.2,0-0.4,0-0.6,0c0-0.1,0-0.2,0.1-0.2c0,0,0,0,0.1,0c0,0,0.1,0,0.1,0c1.3,0,2.6,0,3.9,0c0,0,0.1,0,0.1,0
	c0,0.1,0,0.2-0.1,0.3c0,0-0.1,0-0.1,0c-0.1,0-0.2,0-0.4,0c-0.4,0.1-0.8,0.3-0.9,0.7c-0.2,0.5-0.4,1-0.5,1.5
	c-0.6,2.2-1.2,4.3-1.8,6.5c-0.1,0.3-0.1,0.6-0.2,0.8c-0.1,0.4,0.1,0.6,0.4,0.7c0.2,0.1,0.5,0.1,0.8,0.1
	C12.8,17.2,12.9,17.2,12.9,17.2z"/>
</svg>
