<?xml version="1.0" encoding="utf-8"?>
<!-- Generator: Adobe Illustrator 18.1.1, SVG Export Plug-In . SVG Version: 6.00 Build 0)  -->
<svg version="1.0" id="Seected" xmlns="http://www.w3.org/2000/svg" xmlns:xlink="http://www.w3.org/1999/xlink" x="0px" y="0px"
	 viewBox="0 0 24 24" enable-background="new 0 0 24 24" xml:space="preserve">
<g>
	<g>
		<g>
			<path fill="#3497DB" d="M19.5,12.2c-0.1,2.6-1.4,4.8-4.1,6.2c-2,1-4.2,1-6.3,0.1c-0.1,0-0.2-0.1-0.3,0c-1,0.3-2,0.6-3,1
				c-0.6,0.2-1.1-0.1-1.2-0.7c-0.1-0.2,0-0.4,0-0.6c0.3-1,0.6-2,0.9-3c0-0.1,0-0.2,0-0.3c-1.6-3.6-0.2-7.8,3.4-9.6
				c3.1-1.6,6.9-0.7,9,2C19,8.6,19.5,10.1,19.5,12.2z M6.2,17.8c0.7-0.2,1.4-0.4,2-0.6c0.4-0.1,0.7-0.1,1,0.1
				c1.2,0.7,2.6,0.9,3.9,0.7c3.4-0.5,5.7-3.9,5-7.3c-0.7-3.3-3.8-5.4-7.1-4.9c-2.9,0.5-5.1,3-5.2,5.9c0,1.1,0.2,2.2,0.8,3.2
				c0.2,0.3,0.2,0.6,0.1,1c-0.1,0.2-0.1,0.4-0.2,0.6C6.5,16.9,6.4,17.3,6.2,17.8z"/>
		</g>
		<path fill-rule="evenodd" clip-rule="evenodd" fill="#3497DB" d="M11.8,9.1c0-0.1,0.1-0.3,0.3-0.3l0.4,0c0.1,0,0.3,0.1,0.3,0.3
			l0,1.9l1.9,0c0.1,0,0.3,0.1,0.3,0.3l0,0.4c0,0.1-0.1,0.3-0.3,0.3l-1.9,0l0,1.9c0,0.1-0.1,0.3-0.3,0.3l-0.4,0
			c-0.1,0-0.3-0.1-0.3-0.3l0-1.9l-1.9,0c-0.1,0-0.3-0.1-0.3-0.3l0-0.4c0-0.1,0.1-0.3,0.3-0.3l1.9,0V9.1z"/>
	</g>
</g>
</svg>
