<?xml version="1.0" encoding="utf-8"?>
<!-- Generator: Adobe Illustrator 18.1.1, SVG Export Plug-In . SVG Version: 6.00 Build 0)  -->
<svg version="1.0" id="Seected" xmlns="http://www.w3.org/2000/svg" xmlns:xlink="http://www.w3.org/1999/xlink" x="0px" y="0px"
	 viewBox="0 0 24 24" enable-background="new 0 0 24 24" xml:space="preserve">
<g>
	<path fill="#6B6B6B" d="M12,16c-1.1,0-1.9,0.9-1.9,1.9c0,0.5,0.2,1,0.6,1.4c0.4,0.4,0.8,0.6,1.4,0.6h0c1.1,0,1.9-0.9,1.9-1.9
		C13.9,16.9,13.1,16,12,16z M12,16.9l0-0.2l0,0L12,16.9c0.3,0,0.5,0.1,0.7,0.3c0.2,0.2,0.3,0.4,0.3,0.7c0,0.5-0.4,1-1,1
		c-0.5,0-1-0.4-1-1S11.5,16.9,12,16.9z M12,19.6L12,19.6L12,19.6L12,19.6z"/>
	<path fill="#6B6B6B" d="M14.4,6.9l0-1.9c0-0.5-0.3-0.8-0.8-0.8h-3.1C9.9,4.2,9.6,4.5,9.6,5l0,0.6c0,0.5,0,1,0,1.4
		c0,0.7,0,1.4,0.1,2.1c0.1,0.8,0.2,1.7,0.4,2.5l0.2,1.5c0,0.3,0.1,0.6,0.1,0.9c0.1,0.4,0.4,0.7,0.7,0.7c0.3,0,0.5,0,0.8,0
		c0.3,0,0.5,0,0.8,0c0.4,0,0.7-0.3,0.7-0.7c0.1-0.4,0.1-0.7,0.2-1.1l0.2-1.4c0.1-0.8,0.2-1.5,0.3-2.3c0-0.1,0-0.3,0.1-0.4
		c0.1-0.4,0.1-0.9,0.1-1.3C14.4,7.5,14.4,7.2,14.4,6.9z M13.4,7.9l0,0.2c0,0.4-0.1,0.7-0.1,1l-0.7,4.7h-1.2l-0.6-4.3l0-0.2h0
		c0-0.2-0.1-0.7-0.1-1.2l0-0.1c0-0.2,0-0.5,0-0.7V5.2h2.8v2.4C13.4,7.6,13.4,7.8,13.4,7.9z"/>
</g>
</svg>
