<?xml version="1.0" encoding="utf-8"?>
<!-- Generator: Adobe Illustrator 18.1.1, SVG Export Plug-In . SVG Version: 6.00 Build 0)  -->
<svg version="1.0" id="Seected" xmlns="http://www.w3.org/2000/svg" xmlns:xlink="http://www.w3.org/1999/xlink" x="0px" y="0px"
	 viewBox="0 0 24 24" enable-background="new 0 0 24 24" xml:space="preserve">
<g>
	<path fill="#6B6B6B" d="M16.4,11.4c0.4,0.4,0.8,0.7,1.2,1.1c0.5,0.6,0.8,1.4,0.8,2.2c0,1.2,0,2.4,0,3.6c-0.4,0-0.8,0-1.2,0
		c0-0.1,0-0.2,0-0.3c0-1.1,0-2.2,0-3.3c0-1.1-0.6-1.8-1.5-2.4c-0.1,0-0.2,0-0.2,0c-0.7,0.6-1.4,1-2.3,1.2c0.2,0.8,0.3,1.6,0.5,2.4
		c0.2,0.9,0.4,1.8,0.6,2.7c0,0.1,0,0.3-0.1,0.3c-0.7,0.6-1.4,1.2-2.2,1.7c-0.7-0.6-1.5-1.2-2.2-1.7c-0.1-0.1-0.1-0.2-0.1-0.3
		c0.3-1.6,0.6-3.2,1-4.8c0-0.1,0-0.2,0-0.3C9.9,13.5,9,13,8.3,12.4c-0.9,0.6-1.5,1.2-1.6,2.4c0,1.1,0,2.2,0,3.3c0,0.1,0,0.2,0,0.4
		c-0.4,0-0.8,0-1.2,0c0-0.1,0-0.2,0-0.3c0-1,0-2,0-3c-0.1-1.5,0.6-2.5,1.7-3.4c0.1-0.1,0.1-0.1,0.2-0.2C6.7,10.1,6.4,8.6,6.9,7
		c0.3-1.2,1-2.2,2-2.9c2-1.4,4.7-1.3,6.5,0.3C17.2,6,18,8.9,16.4,11.4z M7.8,8.5c0,2.3,1.9,4.2,4.1,4.2c2.3,0,4.1-1.9,4.1-4.2
		c0-2.3-1.9-4.2-4.1-4.2C9.7,4.3,7.8,6.2,7.8,8.5z M12,19.3c0.3-0.3,0.6-0.5,0.9-0.7c0.1-0.1,0.1-0.2,0.1-0.3
		c-0.3-1.3-0.5-2.6-0.8-3.9c0-0.1-0.1-0.1-0.2-0.2c-0.1,0.1-0.1,0.1-0.2,0.2c-0.3,1.3-0.5,2.6-0.8,3.9c0,0.1,0,0.2,0.1,0.3
		C11.4,18.9,11.7,19.1,12,19.3z"/>
</g>
</svg>
