<?xml version="1.0" encoding="utf-8"?>
<!-- Generator: Adobe Illustrator 18.1.1, SVG Export Plug-In . SVG Version: 6.00 Build 0)  -->
<svg version="1.0" id="Seected" xmlns="http://www.w3.org/2000/svg" xmlns:xlink="http://www.w3.org/1999/xlink" x="0px" y="0px"
	 viewBox="0 0 24 24" enable-background="new 0 0 24 24" xml:space="preserve">
<path fill-rule="evenodd" clip-rule="evenodd" fill="#6B6B6B" d="M9.2,11.1c0.1,0,0.1,0.1,0.2,0.1c0.4,0.4,0.7,0.8,1.1,1.1
	c0.1,0.1,0.2,0.2,0.3,0.3c0.1,0.1,0.2,0.1,0.4,0c1.1-1.1,2.2-2.2,3.4-3.3c0,0,0,0,0.1,0c0.1-0.1,0.2-0.1,0.3,0
	c0.2,0.2,0.4,0.4,0.6,0.7c0.1,0.1,0.1,0.2,0,0.4c-0.4,0.4-0.8,0.8-1.2,1.2c-1,1-2.1,2.1-3.1,3.1c-0.1,0.1-0.3,0.1-0.4,0
	C10,13.8,9.2,13,8.4,12.2c0,0,0,0,0-0.1c-0.1-0.1-0.1-0.2,0-0.3c0.2-0.2,0.5-0.4,0.7-0.6C9.1,11.1,9.2,11.1,9.2,11.1z"/>
<g>
	<path fill="#6B6B6B" stroke="#6B6B6B" stroke-width="0.5" stroke-miterlimit="10" d="M5.8,18.2h12.5V5.8H5.8V18.2z M6.3,6.3h11.5
		v11.3H6.3V6.3z"/>
</g>
</svg>
