<?xml version="1.0" encoding="utf-8"?>
<!-- Generator: Adobe Illustrator 18.1.1, SVG Export Plug-In . SVG Version: 6.00 Build 0)  -->
<svg version="1.0" id="Seected" xmlns="http://www.w3.org/2000/svg" xmlns:xlink="http://www.w3.org/1999/xlink" x="0px" y="0px"
	 viewBox="0 0 120 120" enable-background="new 0 0 120 120" xml:space="preserve">
<g>
	<path fill="#6B6B6B" d="M64.9,102.5h-9.7c-2.5,0-4.5-2-4.5-4.5v-6.3c0-0.6-0.6-1.5-1.2-1.7l-3-1.2c-0.9-0.4-1.8-0.2-2.2,0.3
		l-4.4,4.4c-1.7,1.7-4.7,1.7-6.4,0l-6.9-6.9c-0.9-0.8-1.3-2-1.3-3.2c0-1.2,0.5-2.4,1.3-3.2l4.4-4.4c0.4-0.4,0.6-1.5,0.3-2.1l-1.2-3
		c-0.3-0.7-1.1-1.3-1.7-1.3H22c-2.5,0-4.5-2-4.5-4.5v-9.7c0-2.5,2-4.5,4.5-4.5h6.3c0.6,0,1.5-0.6,1.7-1.2l1.2-3
		c0.3-0.7,0.2-1.7-0.3-2.2l-4.4-4.4c-0.9-0.8-1.3-2-1.3-3.2s0.5-2.4,1.3-3.2l6.9-6.9c1.7-1.7,4.7-1.7,6.4,0l4.4,4.4
		c0.4,0.4,1.5,0.6,2.1,0.3l3-1.2c0.7-0.3,1.3-1.1,1.3-1.7V22c0-2.5,2-4.5,4.5-4.5h9.7c2.5,0,4.5,2,4.5,4.5v6.3
		c0,0.6,0.6,1.5,1.2,1.7l3,1.2c0.9,0.4,1.8,0.2,2.2-0.3l4.4-4.4c1.7-1.7,4.7-1.7,6.4,0l6.9,6.9c0.9,0.8,1.3,2,1.3,3.2
		s-0.5,2.4-1.3,3.2L89,44.2c-0.5,0.5-0.6,1.5-0.3,2.1l1.2,3c0.3,0.7,1.1,1.3,1.7,1.3H98c2.5,0,4.5,2,4.5,4.5v9.7
		c0,2.5-2,4.5-4.5,4.5h-6.3c-0.7,0-1.5,0.6-1.7,1.2l-1.2,3c-0.3,0.7-0.2,1.7,0.3,2.2l4.4,4.4c0.9,0.8,1.3,2,1.3,3.2
		c0,1.2-0.5,2.4-1.3,3.2l-6.9,6.9c-1.7,1.7-4.7,1.7-6.4,0L75.8,89c-0.4-0.4-1.5-0.6-2.1-0.3l-3,1.2c-0.7,0.3-1.3,1.1-1.3,1.7V98
		C69.4,100.5,67.4,102.5,64.9,102.5L64.9,102.5z M45.6,84.8c0.9,0,1.7,0.2,2.4,0.5l2.7,1.1c2,0.7,3.7,3,3.7,5.2V98
		c0,0.4,0.3,0.8,0.8,0.8h9.7c0.4,0,0.8-0.3,0.8-0.8v-6.3c0-2.3,1.6-4.6,3.8-5.3l2.7-1.1c1.6-0.8,4.7-0.5,6.3,1.1l4.4,4.4
		c0.4,0.4,0.7,0.4,1.1,0l6.9-6.9c0.2-0.2,0.2-0.4,0.2-0.5c0-0.1,0-0.3-0.2-0.5l-4.4-4.4c-1.6-1.6-2.1-4.4-1-6.4l1.1-2.7
		c0.7-2,2.9-3.7,5.2-3.7H98c0.4,0,0.8-0.3,0.8-0.8v-9.7c0-0.4-0.3-0.8-0.8-0.8h-6.3c-2.3,0-4.6-1.6-5.3-3.8l-1.1-2.7
		c-1-1.9-0.5-4.7,1.1-6.3l4.4-4.4c0.2-0.2,0.2-0.4,0.2-0.5c0-0.1,0-0.3-0.2-0.5l-6.9-6.9c-0.4-0.4-0.7-0.4-1.1,0l-4.4,4.4
		c-1.6,1.6-4.5,2-6.4,1l-2.7-1.1c-2-0.7-3.7-2.9-3.7-5.2V22c0-0.4-0.4-0.8-0.8-0.8h-9.7c-0.4,0-0.8,0.3-0.8,0.8v6.3
		c0,2.3-1.6,4.6-3.8,5.3l-2.7,1.1c-1.6,0.8-4.8,0.4-6.3-1.1l-4.4-4.4c-0.4-0.4-0.7-0.4-1.1,0l-6.9,6.9C29,36.3,29,36.5,29,36.6
		c0,0.1,0,0.3,0.2,0.5l4.4,4.4c1.6,1.6,2.1,4.4,1,6.4l-1.1,2.7c-0.7,2-3,3.7-5.2,3.7H22c-0.4,0-0.8,0.3-0.8,0.8v9.7
		c0,0.4,0.3,0.8,0.8,0.8h6.3c2.3,0,4.6,1.6,5.3,3.8l1.1,2.7c1,1.9,0.5,4.7-1.1,6.3l-4.4,4.4C29,83.1,29,83.3,29,83.4
		c0,0.1,0,0.3,0.2,0.5l6.9,6.9c0.4,0.4,0.7,0.4,1.1,0l4.4-4.4C42.6,85.4,44.1,84.8,45.6,84.8L45.6,84.8z M60,74.7
		c-8.1,0-14.7-6.6-14.7-14.7c0-8.1,6.6-14.7,14.7-14.7c8.1,0,14.7,6.6,14.7,14.7C74.7,68.1,68.1,74.7,60,74.7L60,74.7z M60,49.1
		c-6,0-10.9,4.9-10.9,10.9S54,70.9,60,70.9c6,0,10.9-4.9,10.9-10.9S66,49.1,60,49.1L60,49.1z"/>
</g>
</svg>
