<?xml version="1.0" encoding="utf-8"?>
<!-- Generator: Adobe Illustrator 18.1.1, SVG Export Plug-In . SVG Version: 6.00 Build 0)  -->
<svg version="1.0" id="ActionArea" xmlns="http://www.w3.org/2000/svg" xmlns:xlink="http://www.w3.org/1999/xlink" x="0px" y="0px"
	 viewBox="0 0 24 24" enable-background="new 0 0 24 24" xml:space="preserve">
<g>
	<rect x="0" fill="#FFFFFF" width="24" height="24"/>
	<rect x="0" y="23" fill="#26292A" width="24" height="1"/>
</g>
<g>
	<g>
		<path fill="#F1C418" d="M13.3,17.5c-0.1,0-0.3,0-0.4-0.1c-0.2-0.2-0.2-0.5,0-0.8l3.2-3.7l-3.2-3.7c-0.2-0.2-0.2-0.6,0-0.8
			c0.2-0.2,0.6-0.2,0.8,0l3.5,4c0.2,0.2,0.2,0.5,0,0.7l-3.5,4C13.6,17.5,13.4,17.5,13.3,17.5L13.3,17.5z"/>
	</g>
	<g>
		<path fill="#F1C418" d="M15.9,13.3h-5.4c-2.1,0-3.8-1.7-3.8-3.8V4.1c0-0.3,0.2-0.5,0.5-0.5c0.3,0,0.5,0.2,0.5,0.5v5.4
			c0,1.5,1.2,2.7,2.7,2.7h5.4c0.3,0,0.5,0.2,0.5,0.5S16.2,13.3,15.9,13.3L15.9,13.3z"/>
	</g>
</g>
</svg>
