<?xml version="1.0" encoding="utf-8"?>
<!-- Generator: Adobe Illustrator 18.1.1, SVG Export Plug-In . SVG Version: 6.00 Build 0)  -->
<svg version="1.1" id="Seected" xmlns="http://www.w3.org/2000/svg" xmlns:xlink="http://www.w3.org/1999/xlink" x="0px" y="0px"
	 viewBox="0 0 24 24" enable-background="new 0 0 24 24" xml:space="preserve">
<path fill="#4B5354" stroke="#4B5354" stroke-width="0.4" stroke-miterlimit="10" d="M16.8,11.5c-0.1-0.1-0.3-0.2-0.5-0.2v0l-0.1,0
	l0,0l-0.6,0l-7.9,0c0,0,0,0-0.1,0h0v0c0,0-0.1,0-0.1,0c-0.3,0-0.5,0.2-0.5,0.4c0,0.1,0,0.2,0,0.2c0,0.2,0.1,0.3,0.2,0.5
	c0.1,0.1,0.3,0.2,0.5,0.2v0l0.1,0l0,0l0.6,0l7.9,0c0,0,0,0,0.1,0h0v0c0,0,0.1,0,0.1,0c0.3,0,0.5-0.2,0.5-0.4c0-0.1,0-0.2,0-0.2
	C17,11.8,17,11.7,16.8,11.5z"/>
</svg>
