<?xml version="1.0" encoding="utf-8"?>
<!-- Generator: Adobe Illustrator 18.1.1, SVG Export Plug-In . SVG Version: 6.00 Build 0)  -->
<svg version="1.1" id="Seected" xmlns="http://www.w3.org/2000/svg" xmlns:xlink="http://www.w3.org/1999/xlink" x="0px" y="0px"
	 viewBox="0 0 24 24" enable-background="new 0 0 24 24" xml:space="preserve">
<g>
	<g>
		<g>
			<g>
				<path fill="#6B6B6B" d="M12.7,18.3c0,0.9,0,1.7,0,2.5c1.6,0,3.1,0,4.7,0c0,0.5,0,0.9,0,1.4c-3.6,0-7.3,0-10.9,0
					c0-0.4,0-0.9,0-1.4c1.6,0,3.1,0,4.7,0c0-0.9,0-1.7,0-2.5c-0.1,0-0.2,0-0.2,0c-3.1,0-6.2,0-9.3,0c-0.1,0-0.2,0-0.3,0
					c-0.5,0-0.8-0.3-0.8-0.8c0-3.2,0-6.4,0-9.6c0-1.8,0-3.5,0-5.3C0.7,2,1,1.8,1.5,1.8c7,0,13.9,0,20.9,0c0.6,0,0.8,0.3,0.8,0.9
					c0,4.9,0,9.9,0,14.8c0,0.6-0.3,0.8-0.9,0.8c-3.2,0-6.3,0-9.5,0C12.9,18.3,12.8,18.3,12.7,18.3z M2.1,16.9c6.6,0,13.2,0,19.8,0
					c0-4.6,0-9.1,0-13.7c-6.6,0-13.2,0-19.8,0C2.1,7.8,2.1,12.3,2.1,16.9z"/>
			</g>
			<path fill-rule="evenodd" clip-rule="evenodd" fill="#6B6B6B" d="M17.4,10.1c0-1.2,0-2.4,0-3.7c0-0.6,0-0.6,0.5-0.6
				c0.2,0,0.3,0,0.5,0c0.3,0,0.3,0,0.3,0.4c0,1.8,0,3.6,0,5.4c0,0.8,0,1.5,0,2.3c0,0.4,0,0.4-0.3,0.4c-0.2,0-0.4,0-0.6,0
				c-0.3,0-0.3,0-0.3-0.4C17.4,12.6,17.4,11.3,17.4,10.1z"/>
			<path fill-rule="evenodd" clip-rule="evenodd" fill="#6B6B6B" d="M7.1,11.3c0,0.9,0,1.8,0,2.7c0,0.3,0,0.3-0.3,0.3
				c-0.2,0-0.5,0-0.7,0c-0.3,0-0.3,0-0.3-0.4c0-1.4,0-2.9,0-4.3c0-0.4,0-0.8,0-1.2c0-0.2,0.1-0.3,0.3-0.3c0.2,0,0.5,0,0.7,0
				c0.3,0,0.3,0,0.3,0.4C7.1,9.5,7.1,10.4,7.1,11.3z"/>
			<path fill-rule="evenodd" clip-rule="evenodd" fill="#6B6B6B" d="M14.8,12c0,0.7,0,1.3,0,2c0,0.3,0,0.3-0.3,0.3
				c-0.3,0-0.5,0-0.8,0c-0.2,0-0.2-0.1-0.2-0.3c0-1.4,0-2.8,0-4.2c0-0.2,0.1-0.3,0.2-0.3c0.3,0,0.6,0,0.8,0c0.2,0,0.2,0.1,0.2,0.3
				C14.8,10.6,14.8,11.3,14.8,12z"/>
			<path fill-rule="evenodd" clip-rule="evenodd" fill="#6B6B6B" d="M9.6,10.1c0-1.2,0-2.4,0-3.7c0-0.6,0-0.6,0.5-0.6
				c0.2,0,0.3,0,0.5,0c0.3,0,0.3,0,0.3,0.4c0,1.8,0,3.6,0,5.4c0,0.8,0,1.5,0,2.3c0,0.4,0,0.4-0.3,0.4c-0.2,0-0.4,0-0.6,0
				c-0.3,0-0.3,0-0.3-0.4C9.6,12.6,9.6,11.3,9.6,10.1z"/>
		</g>
	</g>
</g>
</svg>
