<?xml version="1.0" encoding="utf-8"?>
<!-- Generator: Adobe Illustrator 18.1.1, SVG Export Plug-In . SVG Version: 6.00 Build 0)  -->
<svg version="1.1" id="Seected" xmlns="http://www.w3.org/2000/svg" xmlns:xlink="http://www.w3.org/1999/xlink" x="0px" y="0px"
	 viewBox="0 0 24 24" enable-background="new 0 0 24 24" xml:space="preserve">
<g>
	<path fill="#6B6B6B" d="M18.3,4.4c0,5,0,10.1,0,15.1c-1.8,0-3.6,0-5.5,0c0-1.1,0-2.1,0-3.2c-0.5,0-1.1,0-1.6,0c0,1.1,0,2.1,0,3.2
		c-1.8,0-3.7,0-5.5,0c0-5,0-10.1,0-15.1C9.9,4.4,14.1,4.4,18.3,4.4z M17.2,5.2c-3.5,0-7,0-10.5,0c0,4.6,0,9.1,0,13.6
		c1.1,0,2.2,0,3.4,0c0-1.1,0-2.1,0-3.2c1.3,0,2.5,0,3.7,0c0,1.1,0,2.1,0,3.2c1.1,0,2.3,0,3.4,0C17.2,14.3,17.2,9.7,17.2,5.2z"/>
	<path fill="#6B6B6B" d="M15.4,8c-0.7,0-1.3,0-2,0c0-0.2,0-0.5,0-0.7c0.6,0,1.3,0,2,0C15.4,7.5,15.4,7.8,15.4,8z"/>
	<path fill="#6B6B6B" d="M8.6,8.1c0-0.2,0-0.5,0-0.7c0.7,0,1.3,0,2,0c0,0.2,0,0.5,0,0.7C9.9,8.1,9.3,8.1,8.6,8.1z"/>
	<path fill="#6B6B6B" d="M13.4,12.3c0.7,0,1.3,0,2,0c0,0.2,0,0.5,0,0.7c-0.6,0-1.3,0-2,0C13.4,12.8,13.4,12.5,13.4,12.3z"/>
	<path fill="#6B6B6B" d="M8.6,12.3c0.7,0,1.3,0,2,0c0,0.2,0,0.5,0,0.7c-0.6,0-1.3,0-2,0C8.6,12.8,8.6,12.5,8.6,12.3z"/>
	<path fill="#6B6B6B" d="M15.4,9.8c0,0.2,0,0.5,0,0.7c-0.6,0-1.3,0-2,0c0-0.2,0-0.5,0-0.7C14.1,9.8,14.7,9.8,15.4,9.8z"/>
	<path fill="#6B6B6B" d="M8.6,10.5c0-0.2,0-0.5,0-0.7c0.7,0,1.3,0,2,0c0,0.2,0,0.5,0,0.7C9.9,10.5,9.3,10.5,8.6,10.5z"/>
</g>
</svg>
