<?xml version="1.0" encoding="utf-8"?>
<!-- Generator: Adobe Illustrator 18.1.1, SVG Export Plug-In . SVG Version: 6.00 Build 0)  -->
<svg version="1.0" id="Seected" xmlns="http://www.w3.org/2000/svg" xmlns:xlink="http://www.w3.org/1999/xlink" x="0px" y="0px"
	 viewBox="0 0 24 24" enable-background="new 0 0 24 24" xml:space="preserve">
<g>
	<path fill="#6B6B6B" d="M12,20c-2.6,0-5.1,0-7.7,0C4,20,4,20,4,19.7c0-3.1,0-6.3,0-9.4c0-2,0-4,0-6C4,4.1,4,4,4.3,4
		c1.4,0,2.9,0,4.3,0c1.9,0,3.7,0,5.6,0c1.9,0,3.7,0,5.6,0C19.9,4,20,4.1,20,4.2c0,4.2,0,8.4,0,12.6c0,1,0,1.9,0,2.9
		c0,0.2,0,0.2-0.2,0.2C17.2,20,14.6,20,12,20L12,20z"/>
</g>
<path fill="#FFFFFF" d="M4.8,7L4.8,7c0,0.6,0,1.3,0,1.9c0,0.2,0.2,0.2,0.7,0.2c4.3,0,8.6,0,13,0c0.6,0,0.7-0.1,0.7-0.2
	c0-1.3,0-2.6,0-3.8c0-0.2-0.2-0.3-0.8-0.3c-4.3,0-8.5,0-12.8,0C4.9,4.8,4.8,4.9,4.8,5C4.8,5.7,4.8,6.3,4.8,7z"/>
<path fill="#FFFFFF" d="M9.1,12L9.1,12c0-0.6,0-1.3,0-1.9c0-0.2-0.1-0.2-0.2-0.2c-1.3,0-2.6,0-3.9,0c-0.2,0-0.2,0-0.2,0.2
	c0,1.3,0,2.6,0,3.9c0,0.2,0.1,0.2,0.2,0.2c1.3,0,2.6,0,3.9,0c0.1,0,0.2,0,0.2-0.2C9.1,13.3,9.1,12.7,9.1,12z"/>
<path fill="#FFFFFF" d="M9,17.1L9,17.1c0-0.6,0-1.3,0-1.9C9,15,9,15,8.8,15c-1.3,0-2.6,0-3.8,0c-0.2,0-0.2,0.1-0.2,0.2
	c0,1.3,0,2.6,0,3.8c0,0.2,0,0.2,0.2,0.2c1.3,0,2.6,0,3.8,0C9,19.2,9,19.1,9,19C9,18.3,9,17.7,9,17.1z"/>
<path fill="#FFFFFF" d="M14.2,12L14.2,12c0-0.6,0-1.3,0-1.9c0-0.2-0.1-0.2-0.2-0.2c-1.3,0-2.6,0-3.9,0c-0.2,0-0.2,0-0.2,0.2
	c0,1.3,0,2.6,0,3.9c0,0.2,0.1,0.2,0.2,0.2c1.3,0,2.6,0,3.9,0c0.1,0,0.2,0,0.2-0.2C14.2,13.3,14.2,12.7,14.2,12z"/>
<path fill="#FFFFFF" d="M14.1,17.1L14.1,17.1c0-0.6,0-1.3,0-1.9c0-0.1,0-0.2-0.2-0.2c-1.3,0-2.6,0-3.8,0c-0.2,0-0.2,0.1-0.2,0.2
	c0,1.3,0,2.6,0,3.8c0,0.2,0,0.2,0.2,0.2c1.3,0,2.6,0,3.8,0c0.2,0,0.2-0.1,0.2-0.2C14.1,18.3,14.1,17.7,14.1,17.1z"/>
<path fill="#FFFFFF" d="M19.2,12L19.2,12c0-0.6,0-1.3,0-1.9c0-0.2-0.1-0.2-0.2-0.2c-1.3,0-2.6,0-3.9,0c-0.2,0-0.2,0-0.2,0.2
	c0,1.3,0,2.6,0,3.9c0,0.2,0.1,0.2,0.2,0.2c1.3,0,2.6,0,3.9,0c0.1,0,0.2,0,0.2-0.2C19.2,13.3,19.2,12.7,19.2,12z"/>
<path fill="#FFFFFF" d="M19.2,17.1L19.2,17.1c0-0.6,0-1.3,0-1.9c0-0.1,0-0.2-0.2-0.2c-1.3,0-2.6,0-3.8,0c-0.2,0-0.2,0.1-0.2,0.2
	c0,1.3,0,2.6,0,3.8c0,0.2,0,0.2,0.2,0.2c1.3,0,2.6,0,3.8,0c0.2,0,0.2-0.1,0.2-0.2C19.2,18.3,19.2,17.7,19.2,17.1z"/>
</svg>
