<?xml version="1.0" encoding="utf-8"?>
<!-- Generator: Adobe Illustrator 18.1.1, SVG Export Plug-In . SVG Version: 6.00 Build 0)  -->
<svg version="1.0" id="Seected" xmlns="http://www.w3.org/2000/svg" xmlns:xlink="http://www.w3.org/1999/xlink" x="0px" y="0px"
	 viewBox="0 0 24 24" enable-background="new 0 0 24 24" xml:space="preserve">
<g>
	<g>
		<g>
			<g>
				<g>
					<path fill="#6B6B6B" d="M21.5,15.7l0-0.2c0-0.4,0-0.8-0.1-1.1c-0.8-1.9-1.6-2.7-3.6-3.6c-1.4-0.6-2-0.6-3.9-0.6
						c-0.2,0-0.3,0-0.5,0l-0.1,0l-0.4,0l0-0.9c0-0.5,0-1,0-1.5c0-0.3-0.1-0.4-0.3-0.4c-0.1,0-0.1,0-0.2,0c-0.1,0-0.2,0.1-0.4,0.2
						c-1.3,1-2.5,2-3.8,3l-1.5,1.2c-0.1,0.1-0.2,0.2-0.2,0.3c0,0.1,0.1,0.2,0.2,0.3l4.4,3.5c0.3,0.2,0.6,0.5,1,0.7
						c0.2,0.1,0.3,0.2,0.5,0.1c0.1,0,0.3-0.1,0.2-0.4c0-0.1,0-0.2,0-0.3l0-2.2l0.3,0c0.1,0,0.1,0,0.2,0c0.8-0.1,1.7-0.1,2.8,0
						c2.2,0.2,3.1,1,4.6,2.2c0.3,0.3,0.4,0.2,0.5,0.1C21.3,16,21.5,15.9,21.5,15.7z M20.4,14.7l-0.2-0.1l-0.3-0.2
						c-0.2-0.1-0.4-0.2-0.6-0.3c-1.1-0.6-2.1-1-3.1-1.1c-1.3-0.1-2.5-0.1-3.6,0.1c-0.4,0.1-0.5,0.1-0.5,0.5v1.9L7.5,12L12,8.5
						L12,8.9c0,0.1,0,0.1,0,0.1l0,1.4c0,0.3,0.2,0.4,0.4,0.4l0.1,0c1.3-0.1,2.5-0.1,3.5,0c1.1,0.1,2,0.4,2.7,1
						c1.1,0.9,1.6,1.7,1.7,2.5l0,0.3L20.4,14.7z"/>
				</g>
				<g>
					<path fill="none" stroke="#6B6B6B" stroke-width="0.6" stroke-miterlimit="10" d="M21.5,15.7l0-0.2c0-0.4,0-0.8-0.1-1.1
						c-0.8-1.9-1.6-2.7-3.6-3.6c-1.4-0.6-2-0.6-3.9-0.6c-0.2,0-0.3,0-0.5,0l-0.1,0l-0.4,0l0-0.9c0-0.5,0-1,0-1.5
						c0-0.3-0.1-0.4-0.3-0.4c-0.1,0-0.1,0-0.2,0c-0.1,0-0.2,0.1-0.4,0.2c-1.3,1-2.5,2-3.8,3l-1.5,1.2c-0.1,0.1-0.2,0.2-0.2,0.3
						c0,0.1,0.1,0.2,0.2,0.3l4.4,3.5c0.3,0.2,0.6,0.5,1,0.7c0.2,0.1,0.3,0.2,0.5,0.1c0.1,0,0.3-0.1,0.2-0.4c0-0.1,0-0.2,0-0.3l0-2.2
						l0.3,0c0.1,0,0.1,0,0.2,0c0.8-0.1,1.7-0.1,2.8,0c2.2,0.2,3.1,1,4.6,2.2c0.3,0.3,0.4,0.2,0.5,0.1C21.3,16,21.5,15.9,21.5,15.7z
						 M20.4,14.7l-0.2-0.1l-0.3-0.2c-0.2-0.1-0.4-0.2-0.6-0.3c-1.1-0.6-2.1-1-3.1-1.1c-1.3-0.1-2.5-0.1-3.6,0.1
						c-0.4,0.1-0.5,0.1-0.5,0.5v1.9L7.5,12L12,8.5L12,8.9c0,0.1,0,0.1,0,0.1l0,1.4c0,0.3,0.2,0.4,0.4,0.4l0.1,0
						c1.3-0.1,2.5-0.1,3.5,0c1.1,0.1,2,0.4,2.7,1c1.1,0.9,1.6,1.7,1.7,2.5l0,0.3L20.4,14.7z"/>
				</g>
			</g>
		</g>
		<g>
			<g>
				<g>
					<path fill="#6B6B6B" d="M8.9,7.8c0-0.3-0.1-0.4-0.3-0.4c-0.1,0-0.1,0-0.2,0c-0.1,0-0.2,0.1-0.4,0.2c-1.3,1-2.5,2-3.8,3
						l-1.5,1.2c-0.1,0.1-0.2,0.2-0.2,0.3c0,0.1,0.1,0.2,0.2,0.3l4.4,3.5c0.3,0.2,0.6,0.5,1,0.7c0.2,0.1,0.3,0.2,0.5,0.1
						c0.1,0,0.3-0.1,0.2-0.4l-0.8-0.7L3.5,12L8,8.5L8.9,7.8z"/>
				</g>
				<g>
					<path fill="none" stroke="#6B6B6B" stroke-width="0.6" stroke-miterlimit="10" d="M8.9,7.8c0-0.3-0.1-0.4-0.3-0.4
						c-0.1,0-0.1,0-0.2,0c-0.1,0-0.2,0.1-0.4,0.2c-1.3,1-2.5,2-3.8,3l-1.5,1.2c-0.1,0.1-0.2,0.2-0.2,0.3c0,0.1,0.1,0.2,0.2,0.3
						l4.4,3.5c0.3,0.2,0.6,0.5,1,0.7c0.2,0.1,0.3,0.2,0.5,0.1c0.1,0,0.3-0.1,0.2-0.4l-0.8-0.7L3.5,12L8,8.5L8.9,7.8z"/>
				</g>
			</g>
		</g>
	</g>
</g>
</svg>
