<?xml version="1.0" encoding="utf-8"?>
<!-- Generator: Adobe Illustrator 18.1.1, SVG Export Plug-In . SVG Version: 6.00 Build 0)  -->
<svg version="1.0" id="Seected" xmlns="http://www.w3.org/2000/svg" xmlns:xlink="http://www.w3.org/1999/xlink" x="0px" y="0px"
	 viewBox="0 0 24 24" enable-background="new 0 0 24 24" xml:space="preserve">
<g>
	<path fill="#6B6B6B" d="M17.8,17.4l0-0.3c0-0.2,0-0.3,0-0.5c0-0.3-0.1-0.3-0.3-0.3l-5.5,0l-5.4,0c-0.3,0-0.4,0.1-0.4,0.4
		c0,0.2,0,0.5,0,0.7c0,0.3,0.1,0.4,0.4,0.4l1.7,0l3.6,0l2.8,0l2.8,0C17.7,17.8,17.8,17.7,17.8,17.4z"/>
	<path fill="#6B6B6B" d="M12,11l5.4,0c0.4,0,0.4,0,0.4-0.4l0-0.7c0-0.3-0.1-0.4-0.4-0.4l-3.4,0l-7.3,0c-0.4,0-0.4,0-0.4,0.4l0,0.2
		c0,0.2,0,0.3,0,0.5C6.2,11,6.3,11,6.5,11L12,11z"/>
	<path fill="#6B6B6B" d="M14.5,6.2l-2.3,0c-0.9,0-1.8,0-2.7,0c-0.2,0-0.3,0.1-0.3,0.3c0,0.3,0,0.6,0,0.9c0,0.2,0.1,0.3,0.3,0.3
		c0.4,0,0.7,0,1.1,0l3.7,0c0.4,0,0.4,0,0.4-0.4l0-0.2c0-0.2,0-0.4,0-0.6C14.8,6.3,14.7,6.2,14.5,6.2z"/>
	<path fill="#6B6B6B" d="M14.5,13l-2.7,0c-0.8,0-1.6,0-2.3,0c-0.2,0-0.3,0.1-0.3,0.3c0,0.3,0,0.6,0,0.9c0,0.2,0.1,0.3,0.3,0.3l1.7,0
		l1.9,0l1.2,0c0.4,0,0.4-0.1,0.4-0.4l0-0.2c0-0.2,0-0.4,0-0.6C14.8,13,14.7,13,14.5,13z"/>
</g>
</svg>
