<?xml version="1.0" encoding="utf-8"?>
<!-- Generator: Adobe Illustrator 18.1.1, SVG Export Plug-In . SVG Version: 6.00 Build 0)  -->
<svg version="1.0" id="Seected" xmlns="http://www.w3.org/2000/svg" xmlns:xlink="http://www.w3.org/1999/xlink" x="0px" y="0px"
	 viewBox="0 0 24 24" enable-background="new 0 0 24 24" xml:space="preserve">
<g>
	<g>
		<path fill="#6B6B6B" d="M18.2,20.5H5.8c-0.7,0-1.3-0.6-1.3-1.3v-9c0-0.1,0-0.2,0.1-0.3l7.1-6.1c0.1-0.1,0.3-0.1,0.4,0l0.7,0.5
			c0.1,0.1,0.2,0.3,0.1,0.5c-0.1,0.1-0.3,0.2-0.5,0.1L12,4.6l-6.8,5.8v8.8c0,0.3,0.3,0.6,0.6,0.6h12.4c0.3,0,0.6-0.3,0.6-0.6v-8.9
			L18.3,10c-0.1-0.1-0.2-0.3,0-0.5c0.1-0.1,0.3-0.2,0.5,0l0.5,0.4c0.1,0.1,0.1,0.2,0.1,0.3v9C19.4,19.9,18.9,20.5,18.2,20.5
			L18.2,20.5z"/>
	</g>
	<g>
		<path fill="#6B6B6B" d="M18.2,20.5H5.8c-0.5,0-1-0.3-1.2-0.8c-0.1-0.1,0-0.3,0.1-0.4l7-6.3c0.1-0.1,0.3-0.1,0.5,0l7,6.3
			c0.1,0.1,0.1,0.2,0.1,0.4C19.1,20.2,18.7,20.5,18.2,20.5L18.2,20.5z M5.4,19.6c0.1,0.1,0.3,0.2,0.4,0.2h12.4
			c0.2,0,0.3-0.1,0.4-0.2L12,13.7L5.4,19.6L5.4,19.6z"/>
	</g>
	<g>
		<path fill="#6B6B6B" d="M14.1,15.5c-0.1,0-0.2,0-0.3-0.1c-0.1-0.1-0.1-0.4,0-0.5l4.9-4.3c0.1-0.1,0.4-0.1,0.5,0
			c0.1,0.1,0.1,0.4,0,0.5l-4.9,4.3C14.3,15.5,14.2,15.5,14.1,15.5L14.1,15.5z"/>
	</g>
	<g>
		<path fill="#6B6B6B" d="M9.8,15.5c-0.1,0-0.2,0-0.2-0.1l-4.9-4.4c-0.1-0.1-0.2-0.3,0-0.5c0.1-0.1,0.3-0.2,0.5,0l4.9,4.4
			c0.1,0.1,0.2,0.3,0,0.5C10,15.5,9.9,15.5,9.8,15.5L9.8,15.5z"/>
	</g>
	<g>
		<g>
			<path fill="#6B6B6B" d="M15.2,11.9c-2.3,0-4.2-1.9-4.2-4.2c0-2.3,1.9-4.2,4.2-4.2c2.3,0,4.2,1.9,4.2,4.2
				C19.5,10.1,17.6,11.9,15.2,11.9L15.2,11.9z M15.2,4.2c-2,0-3.5,1.6-3.5,3.5s1.6,3.5,3.5,3.5c2,0,3.5-1.6,3.5-3.5
				S17.2,4.2,15.2,4.2L15.2,4.2z"/>
		</g>
		<g>
			<path fill="#6B6B6B" d="M15.2,9.9c-0.2,0-0.3-0.2-0.3-0.3V5.8c0-0.2,0.2-0.3,0.3-0.3c0.2,0,0.3,0.2,0.3,0.3v3.8
				C15.6,9.8,15.4,9.9,15.2,9.9L15.2,9.9z"/>
		</g>
		<g>
			<path fill="#6B6B6B" d="M17.1,8.1h-3.8c-0.2,0-0.3-0.2-0.3-0.3c0-0.2,0.2-0.3,0.3-0.3h3.8c0.2,0,0.3,0.2,0.3,0.3
				C17.5,7.9,17.3,8.1,17.1,8.1L17.1,8.1z"/>
		</g>
	</g>
</g>
</svg>
