<?xml version="1.0" encoding="utf-8"?>
<!-- Generator: Adobe Illustrator 18.1.1, SVG Export Plug-In . SVG Version: 6.00 Build 0)  -->
<svg version="1.0" id="Seected" xmlns="http://www.w3.org/2000/svg" xmlns:xlink="http://www.w3.org/1999/xlink" x="0px" y="0px"
	 viewBox="0 0 24 24" enable-background="new 0 0 24 24" xml:space="preserve">
<g>
	<path fill="#6B6B6B" d="M14,12.3c-1.5,0-2.9,0-4.4,0c-0.1,0-0.2,0-0.3,0c-0.1-0.1-0.3-0.2-0.3-0.3c0-0.2,0.1-0.3,0.3-0.3
		c0.1,0,0.2,0,0.2,0c2.9,0,5.9,0,8.8,0c0.4,0,0.6,0.1,0.6,0.3c0,0.3-0.1,0.4-0.6,0.4C16.9,12.3,15.5,12.3,14,12.3L14,12.3z"/>
	<path fill="#6B6B6B" d="M14,7.9c-1.5,0-2.9,0-4.4,0c-0.1,0-0.2,0-0.3,0C9.2,7.8,9.1,7.7,9.1,7.6c0-0.1,0.1-0.2,0.3-0.3
		c0.1,0,0.2,0,0.3,0c3,0,5.9,0,8.9,0c0.1,0,0.3,0,0.4,0.1C19,7.4,19,7.6,19,7.7c0,0.1-0.2,0.2-0.3,0.2c-0.2,0-0.5,0-0.7,0
		C16.7,7.9,15.3,7.9,14,7.9z"/>
	<path fill="#6B6B6B" d="M14,16.8c-1.5,0-2.9,0-4.4,0c0,0-0.1,0-0.1,0c-0.2,0-0.4-0.1-0.4-0.3c0-0.3,0.2-0.3,0.4-0.3
		c0.5,0,1,0,1.4,0c2.5,0,5,0,7.5,0c0.1,0,0.3,0,0.4,0c0.1,0.1,0.2,0.2,0.3,0.3c0,0.1-0.1,0.2-0.2,0.3c-0.1,0-0.2,0-0.3,0
		C17,16.8,15.5,16.8,14,16.8z"/>
	<path fill="#6B6B6B" d="M5,7.6c0-0.2,0-0.5,0-0.7c0-0.3,0.1-0.4,0.4-0.4c0.5,0,1,0,1.5,0c0.2,0,0.4,0.1,0.4,0.4c0,0.5,0,1,0,1.5
		c0,0.2-0.1,0.4-0.4,0.4c-0.5,0-1,0-1.5,0C5.1,8.7,5,8.6,5,8.3C5,8.1,5,7.8,5,7.6z"/>
	<path fill="#6B6B6B" d="M5,16.4c0-0.2,0-0.5,0-0.7c0-0.3,0.1-0.4,0.4-0.4c0.5,0,1,0,1.5,0c0.3,0,0.4,0.1,0.4,0.4c0,0.5,0,1,0,1.5
		c0,0.2-0.1,0.4-0.4,0.4c-0.5,0-1,0-1.5,0c-0.2,0-0.4-0.1-0.4-0.4C5,16.9,5,16.7,5,16.4L5,16.4z"/>
	<path fill="#6B6B6B" d="M5,12c0-0.2,0-0.5,0-0.7c0-0.2,0.1-0.4,0.4-0.4c0.5,0,1,0,1.5,0c0.2,0,0.4,0.1,0.4,0.4c0,0.5,0,1,0,1.5
		c0,0.3-0.1,0.4-0.4,0.4c-0.5,0-1,0-1.5,0C5.1,13.1,5,13,5,12.7C5,12.5,5,12.2,5,12L5,12z"/>
</g>
</svg>
