<?xml version="1.0" encoding="utf-8"?>
<!-- Generator: Adobe Illustrator 18.1.1, SVG Export Plug-In . SVG Version: 6.00 Build 0)  -->
<svg version="1.0" id="Seected" xmlns="http://www.w3.org/2000/svg" xmlns:xlink="http://www.w3.org/1999/xlink" x="0px" y="0px"
	 viewBox="0 0 24 24" enable-background="new 0 0 24 24" xml:space="preserve">
<path fill="#6B6B6B" d="M17.8,18.1c-0.7-0.6-1.6-1-2.5-1.3c-0.3-0.1-0.7-0.3-1-0.4c-0.4-0.2-0.6-0.5-0.6-0.9c0-0.3,0-0.6,0-0.9
	c0-0.1,0-0.2,0.1-0.3c0.3-0.4,0.5-0.8,0.6-1.3c0-0.3,0.1-0.5,0.1-0.8c0-0.1,0-0.2,0.1-0.2c0.4-0.3,0.5-0.7,0.6-1.1
	c0-0.1,0-0.3,0-0.4c0-0.3-0.1-0.4-0.4-0.4c0-0.1,0-0.2,0-0.3c0-0.5,0-0.9-0.1-1.4c-0.3-1.1-1-1.8-2.2-1.9c-0.2,0-0.4,0-0.6,0
	c-0.3,0-0.6,0-0.9,0.1c-1,0.3-1.6,1-1.8,2c0,0.2,0,0.5,0,0.8c0,0.2,0,0.4,0,0.7c-0.4,0.1-0.4,0.1-0.4,0.5c0,0.3,0.1,0.6,0.1,0.8
	C9,11.7,9.2,11.8,9.3,12c0,0.1,0.1,0.1,0.1,0.2c0,0.8,0.3,1.5,0.8,2.1c0,0,0.1,0.1,0.1,0.2c0,0.4,0,0.8,0,1.2c0,0.3-0.2,0.5-0.4,0.7
	c-0.2,0.1-0.5,0.3-0.7,0.4c-0.3,0.1-0.6,0.2-0.9,0.3c-0.7,0.3-1.4,0.6-2,1.1c1.6,1.3,3.6,2.1,5.8,2.1C14.2,20.2,16.2,19.4,17.8,18.1
	z"/>
<g>
	<path fill="#6B6B6B" d="M9.4,12.3c0,0.3,0.1,0.5,0.1,0.8c0.2-0.1,0.4-0.2,0.5-0.4C9.9,12.5,9.7,12.4,9.4,12.3z"/>
	<path fill="#6B6B6B" d="M8.2,13.7c-0.1-0.3-0.2-0.7-0.2-1c-0.1-0.2-0.3-0.4-0.4-0.7c-0.2-0.4-0.2-0.9-0.2-1.3
		c0-0.6,0.1-1.1,0.4-1.4v0c0-0.2,0-0.5,0.1-0.8C7.8,8,8,7.6,8.2,7.3c0-0.2,0-0.5-0.1-0.7C7.9,5.9,7.4,5.4,6.7,5.3
		c-0.3,0-0.7,0-1,0.1C5,5.6,4.7,6,4.5,6.7c0,0.2,0,0.3,0,0.5c0,0.1,0,0.3,0,0.4c-0.2,0-0.3,0.1-0.3,0.3c0,0.2,0,0.4,0.1,0.5
		c0,0.1,0.2,0.2,0.3,0.3c0,0,0.1,0.1,0.1,0.1c0,0.5,0.2,0.9,0.5,1.3c0,0,0,0.1,0,0.1c0,0.2,0,0.5,0,0.7c0,0.2-0.1,0.3-0.3,0.4
		c-0.2,0.1-0.3,0.2-0.5,0.2c-0.2,0.1-0.4,0.1-0.6,0.2c-0.5,0.2-0.9,0.4-1.3,0.7c1,0.8,2.3,1.3,3.7,1.3C7,14.1,7.6,13.9,8.2,13.7z"/>
</g>
<g>
	<path fill="#6B6B6B" d="M16.2,8.2c0.1,0.4,0.1,0.8,0.1,1.2c0.2,0.3,0.4,0.7,0.4,1.2c0,0.2,0,0.4,0,0.6c0,0.3-0.1,1.1-0.7,1.7
		c0,0.1,0,0.3-0.1,0.4c0,0.2-0.1,0.3-0.1,0.5c0.6,0.2,1.2,0.3,1.8,0.3c1.4,0,2.7-0.5,3.7-1.3c-0.5-0.4-1-0.6-1.6-0.8
		c-0.2-0.1-0.4-0.2-0.6-0.3c-0.2-0.1-0.4-0.3-0.4-0.6c0-0.2,0-0.4,0-0.6c0-0.1,0-0.1,0.1-0.2c0.2-0.3,0.4-0.5,0.4-0.8
		c0-0.2,0-0.3,0.1-0.5c0,0,0-0.1,0.1-0.1c0.3-0.2,0.3-0.4,0.4-0.7c0-0.1,0-0.2,0-0.2c0-0.2-0.1-0.2-0.3-0.3c0-0.1,0-0.1,0-0.2
		c0-0.3,0-0.6-0.1-0.9c-0.2-0.7-0.7-1.1-1.4-1.2c-0.3,0-0.7,0-1,0.1c-0.7,0.2-1,0.6-1.2,1.3c0,0.2,0,0.3,0,0.5c0,0,0,0.1,0,0.1
		C16,7.6,16.1,7.8,16.2,8.2z"/>
	<path fill="#6B6B6B" d="M14.6,12.3c-0.2,0.1-0.4,0.3-0.6,0.4c0.2,0.1,0.4,0.2,0.5,0.4c0,0,0,0,0-0.1C14.5,12.8,14.5,12.5,14.6,12.3
		z"/>
</g>
</svg>
