<?xml version="1.0" encoding="utf-8"?>
<!-- Generator: Adobe Illustrator 18.1.1, SVG Export Plug-In . SVG Version: 6.00 Build 0)  -->
<svg version="1.0" id="Seected" xmlns="http://www.w3.org/2000/svg" xmlns:xlink="http://www.w3.org/1999/xlink" x="0px" y="0px"
	 viewBox="0 0 24 24" enable-background="new 0 0 24 24" xml:space="preserve">
<g>
	<path fill="#6B6B6B" d="M8.3,14.4l9.1,0c0.3,0,0.4-0.1,0.4-0.4c0-0.3,0-0.5,0-0.7c0-0.3-0.1-0.3-0.3-0.3l-1.8,0l-5.5,0l-1.8,0
		l-1.8,0c-0.3,0-0.4,0.1-0.4,0.4c0,0.2,0,0.5,0,0.7c0,0.3,0.1,0.4,0.4,0.4L8.3,14.4z"/>
	<path fill="#6B6B6B" d="M6.5,11l5.5,0l5.4,0c0.4,0,0.4,0,0.4-0.4V10c0-0.3-0.1-0.4-0.4-0.4l-1.4,0l-9.3,0c-0.4,0-0.4,0-0.4,0.4v0.1
		c0,0.2,0,0.4,0,0.6C6.2,11,6.3,11,6.5,11z"/>
	<path fill="#6B6B6B" d="M17.4,16.3c-0.7,0-1.4,0-2.1,0h-3.5l-2.1,0c-0.4,0-0.4,0-0.4,0.4l0,0.1c0,0.2,0,0.4,0,0.6
		c0,0.3,0.1,0.3,0.3,0.3l5.9,0l2,0c0.3,0,0.3-0.1,0.3-0.3c0-0.2,0-0.4,0-0.6l0-0.1C17.8,16.4,17.8,16.3,17.4,16.3z"/>
	<path fill="#6B6B6B" d="M12.2,6.5c0,0.3,0,0.6,0,0.9c0,0.2,0.1,0.3,0.3,0.3c0.4,0,0.7,0,1.1,0l3.7,0c0.4,0,0.4,0,0.4-0.4l0-0.2
		c0-0.2,0-0.4,0-0.6c0-0.2-0.1-0.3-0.3-0.3c-0.8,0-1.7,0-2.5,0c-0.8,0-1.7,0-2.5,0C12.3,6.2,12.2,6.3,12.2,6.5z"/>
</g>
</svg>
