<?xml version="1.0" encoding="utf-8"?>
<!-- Generator: Adobe Illustrator 18.1.1, SVG Export Plug-In . SVG Version: 6.00 Build 0)  -->
<svg version="1.1" id="Seected" xmlns="http://www.w3.org/2000/svg" xmlns:xlink="http://www.w3.org/1999/xlink" x="0px" y="0px"
	 viewBox="0 0 24 24" enable-background="new 0 0 24 24" xml:space="preserve">
<g>
	<g>
		<g>
			<g>
				<path fill="#6B6B6B" d="M5.2,3.1c0-0.4,0-0.8,0-1.2C5.2,1.4,5.5,1,6,1c0.8,0,1.5,0,2.3,0c0.5,0,0.8,0.4,0.8,0.9
					c0,0.4,0,0.8,0,1.1c0,0,0,0,0,0.1c1.9,0,3.9,0,5.8,0c0-0.4,0-0.8,0-1.2c0-0.5,0.4-0.8,0.8-0.9c0.8,0,1.5,0,2.3,0
					c0.5,0,0.8,0.4,0.8,0.8c0,0.4,0,0.8,0,1.2c0.1,0,0.2,0,0.2,0c1,0,2,0,3,0c0.2,0,0.4,0.1,0.6,0.2C22.9,3.4,23,3.6,23,3.8
					c0,6.1,0,12.3,0,18.4c0,0.4-0.3,0.8-0.7,0.8c-0.1,0-0.1,0-0.2,0c-6.7,0-13.4,0-20.2,0c-0.2,0-0.4-0.1-0.6-0.1
					C1.1,22.7,1,22.5,1,22.2C1,16.1,1,10,1,3.9c0-0.5,0.3-0.8,0.8-0.8c1,0,2,0,3,0C4.9,3.1,5,3.1,5.2,3.1z M22.2,9.9
					c-6.8,0-13.6,0-20.3,0c0,4.1,0,8.1,0,12.2c6.8,0,13.5,0,20.3,0C22.2,18,22.2,13.9,22.2,9.9z M1.8,8.9c6.8,0,13.6,0,20.3,0
					c0-1.6,0-3.3,0-4.9c-1.1,0-2.2,0-3.3,0c0,0.3,0,0.7,0,1c0,0.5-0.4,0.9-0.8,0.9c-0.8,0-1.5,0-2.3,0c-0.4,0-0.9-0.4-0.8-0.9
					c0-0.3,0-0.6,0-1C13,4,11,4,9.1,4c0,0.3,0,0.7,0,1c0,0.5-0.4,0.9-0.9,0.9c-0.7,0-1.5,0-2.2,0c-0.1,0-0.3,0-0.4-0.1
					C5.3,5.6,5.1,5.4,5.1,5c0-0.3,0-0.7,0-1C4,4,2.9,4,1.8,4C1.8,5.6,1.8,7.3,1.8,8.9z M6.1,4.9c0.7,0,1.3,0,1.9,0
					c0.1,0,0.1-0.1,0.1-0.2c0-0.9,0-1.8,0-2.7c0-0.2-0.1-0.2-0.2-0.2c-0.6,0-1.1,0-1.7,0c-0.1,0-0.1,0-0.2,0
					C6.1,2.9,6.1,3.9,6.1,4.9z M17.9,1.9c-0.6,0-1.2,0-1.9,0c-0.2,0-0.2,0.1-0.2,0.2c0,0.9,0,1.7,0,2.6c0,0.1,0,0.1,0,0.2
					c0.7,0,1.4,0,2.1,0C17.9,3.9,17.9,2.9,17.9,1.9z"/>
				<path fill="#6B6B6B" d="M7.9,16.1c0.2-0.2,0.4-0.4,0.6-0.7c0.7,0.7,1.5,1.4,2.2,2.1c1.5-1.5,2.9-2.9,4.3-4.3
					c0.2,0.2,0.4,0.4,0.6,0.7c0,0-0.1,0.1-0.1,0.1c-1.5,1.5-3.1,3.1-4.6,4.6c-0.2,0.2-0.2,0.2-0.4,0c-0.8-0.8-1.7-1.6-2.5-2.3
					C8,16.2,8,16.2,7.9,16.1z"/>
			</g>
		</g>
	</g>
</g>
</svg>
