<?xml version="1.0" encoding="utf-8"?>
<!-- Generator: Adobe Illustrator 18.1.1, SVG Export Plug-In . SVG Version: 6.00 Build 0)  -->
<svg version="1.0" id="Seected" xmlns="http://www.w3.org/2000/svg" xmlns:xlink="http://www.w3.org/1999/xlink" x="0px" y="0px"
	 viewBox="0 0 24 24" enable-background="new 0 0 24 24" xml:space="preserve">
<g>
	<path fill="#DDAB97" d="M6.4,17.6c-0.5,0-0.9,0-1.4,0c-0.3,0-0.4-0.1-0.4-0.4c0-1.9,0-3.7,0-5.6c0-0.1,0-0.2,0-0.4
		c0-0.1,0.1-0.1,0.1-0.1c0,0,0,0,0,0c0,0,0,0,0,0c0.6,0,1.1,0,1.7,0c0.1,0,0.2,0,0.2,0c2,0,4,0,5.9,0c1.7,0,3.4,0,5.1,0
		c0.6,0,1.1,0,1.7,0c0.1,0.1,0.2,0.2,0.2,0.3c0,2,0,4,0,6c-0.1,0.1-0.1,0.2-0.2,0.2c-0.5,0-1.1,0-1.6,0c-0.1,0-0.1,0-0.2,0
		c-2.1,0-4.2,0-6.4,0C9.5,17.6,7.9,17.6,6.4,17.6z M12,13.8C12,13.8,12,13.8,12,13.8c-0.2-0.3-0.3-0.5-0.4-0.8
		c-0.2-0.4-0.2-0.4-0.7-0.4c-0.1,0-0.2,0-0.1,0.2c0.2,0.5,0.5,1,0.7,1.4c0.1,0.1,0.1,0.2,0,0.3c-0.3,0.6-0.5,1.1-0.8,1.7
		c-0.1,0.1-0.1,0.2,0.1,0.2c0.5,0,0.5,0,0.7-0.5c0.1-0.3,0.3-0.6,0.4-1c0.2,0.4,0.3,0.7,0.4,1c0.1,0.4,0.3,0.5,0.7,0.4
		c0.2,0,0.2-0.1,0.1-0.2c-0.3-0.5-0.5-1.1-0.8-1.6c0-0.1-0.1-0.2,0-0.3c0.2-0.4,0.4-0.9,0.6-1.3c0.1-0.3,0.1-0.3-0.2-0.3
		c0,0-0.1,0-0.1,0c-0.2,0-0.2,0-0.3,0.2C12.3,13.1,12.2,13.5,12,13.8z M10,14.8c0-0.4,0-0.9,0-1.3c0-0.3,0-0.3,0.3-0.3
		c0.4,0,0.4,0,0.4-0.4c0-0.1,0-0.2-0.2-0.2c-0.5,0-1,0-1.5,0c-0.4,0-0.3,0-0.3,0.3c0,0.2,0,0.2,0.2,0.2c0.1,0,0.2,0,0.3,0
		c0.1,0,0.2,0,0.2,0.2c0,0.4,0,0.8,0,1.2c0,0.5,0,0.9,0,1.4c0,0.4,0,0.4,0.4,0.4c0,0,0,0,0.1,0c0.2,0,0.2,0,0.2-0.2
		C10,15.7,10,15.2,10,14.8z M14,14.7c0,0.4,0,0.8,0,1.2c0,0.5,0,0.5,0.5,0.5c0.1,0,0.2,0,0.2-0.2c0-0.3,0-0.6,0-0.9
		c0-0.4,0-0.7,0-1.1c0-0.3,0-0.7,0-1c0-0.1,0-0.1,0.1-0.1c0.2,0,0.3,0,0.5,0c0.1,0,0.1,0,0.1-0.1c0-0.1,0-0.2,0-0.3
		c0-0.1,0-0.1-0.1-0.1c-0.2,0-0.4,0-0.5,0c-0.3,0-0.7,0-1,0c-0.4,0-0.4,0-0.4,0.4c0,0.1,0,0.2,0.2,0.2c0.1,0,0.3,0,0.4,0
		c0.1,0,0.2,0,0.2,0.2C14,13.8,14,14.3,14,14.7z"/>
	<path fill="#C3DCE9" d="M17.6,11.1c-1.7,0-3.4,0-5.1,0c-2,0-4,0-5.9,0c-0.1,0-0.2,0-0.2,0c0,0,0-0.1,0-0.1c0-0.5,0-1,0-1.4
		c0,0,0-0.1-0.1-0.1c0.1-0.1,0-0.2,0-0.2c0-1.4,0-2.7,0-4.1c0-0.1,0-0.1,0-0.2c0-0.2,0.1-0.4,0.4-0.4c0,0,0.1,0,0.1,0
		c0.1,0,0.1,0,0.2,0c0.2,0,0.4,0,0.5,0c0.1,0,0.1,0,0.2,0c0.2,0,0.4,0,0.5,0c0.1,0,0.1,0,0.2,0c0.2,0,0.4,0,0.5,0c0.1,0,0.1,0,0.2,0
		c0.2,0,0.4,0,0.5,0c0.1,0,0.1,0,0.2,0c0.2,0,0.4,0,0.5,0c0.1,0,0.1,0,0.2,0c0.2,0,0.4,0,0.5,0c0.1,0,0.1,0,0.2,0c0.2,0,0.4,0,0.5,0
		c0.1,0,0.1,0,0.2,0c0.2,0,0.4,0,0.5,0c0.1,0,0.1,0,0.2,0c0.2,0,0.4,0,0.5,0c0.1,0,0.1,0,0.2,0c0.2,0,0.4,0,0.5,0c0,0,0.1,0,0.1,0
		c-0.1,0.2-0.1,0.3-0.1,0.5c0,0.2,0,0.4,0,0.7c0,0.1-0.1,0.2,0,0.4c0.1,0.4,0,0.8,0,1.2c0,0.1,0,0.3,0,0.4c0,0.2,0.2,0.3,0.3,0.2
		c0.1,0,0.2,0,0.3,0c0.4,0.1,0.7,0,1.1,0c0.4,0,0.8,0,1.2,0c0.2,0,0.3,0,0.5-0.1c0,0.5,0,1.1,0,1.6C17.6,9.9,17.6,10.5,17.6,11.1z"
		/>
	<path fill="#C3DCE9" d="M6.4,17.6c1.6,0,3.2,0,4.7,0c2.1,0,4.2,0,6.4,0c0.1,0,0.1,0,0.2,0c0,0.6,0,1.1,0,1.7
		c-0.1,0-0.1,0.1-0.2,0.1c-0.4,0-0.7,0-1.1,0c-0.3,0-0.7,0-1,0c-0.4,0-0.8,0-1.1,0c-0.3,0-0.7,0-1,0c-0.4,0-0.8,0-1.2,0
		c-0.3,0-0.7,0-1,0c-0.4,0-0.8,0-1.1,0c-0.3,0-0.7,0-1,0c-0.4,0-0.7,0-1.1,0c-0.3,0-0.6,0-0.9,0c-0.3,0-0.4-0.1-0.4-0.4
		C6.4,18.6,6.4,18.1,6.4,17.6z"/>
	<path fill="#B2B2B2" d="M17.6,7.8c-0.1,0.1-0.3,0.1-0.5,0.1c-0.4,0-0.8,0-1.2,0c-0.4,0-0.7,0-1.1,0c-0.1,0-0.2,0-0.3,0
		c-0.1,0-0.3-0.1-0.3-0.2c0-0.1,0-0.3,0-0.4c0-0.4,0-0.8,0-1.2c0-0.1,0-0.2,0-0.4c0-0.2,0-0.4,0-0.7c0-0.2,0-0.4,0.1-0.5
		c0,0,0,0,0.1,0c0.2,0,0.3,0.1,0.5,0.2c0.9,0.9,1.7,1.7,2.6,2.6C17.6,7.5,17.7,7.6,17.6,7.8z"/>
	<path fill="#4C8E9C" d="M6.3,9.4c0.1,0,0.1,0.1,0.1,0.1c0,0.5,0,1,0,1.4c0,0,0,0.1,0,0.1c-0.6,0-1.1,0-1.7,0
		C5.2,10.5,5.8,10,6.3,9.4z"/>
	<path fill="#4C8E9C" d="M17.6,11.1c0-0.6,0-1.1,0-1.7c0.6,0.5,1.1,1.1,1.7,1.7C18.8,11.1,18.2,11.1,17.6,11.1z"/>
	<path fill="#4C8E9C" d="M4.7,11.1C4.7,11.1,4.7,11.1,4.7,11.1C4.7,11.1,4.7,11.1,4.7,11.1z"/>
	<path fill="#1A1A1A" d="M12,13.8c0.2-0.4,0.3-0.7,0.5-1.1c0.1-0.2,0.2-0.2,0.3-0.2c0,0,0.1,0,0.1,0c0.3,0,0.3,0,0.2,0.3
		c-0.2,0.4-0.4,0.9-0.6,1.3c0,0.1,0,0.2,0,0.3c0.3,0.5,0.5,1.1,0.8,1.6c0.1,0.1,0.1,0.2-0.1,0.2c-0.4,0-0.6-0.1-0.7-0.4
		c-0.1-0.3-0.3-0.6-0.4-1c-0.2,0.4-0.3,0.7-0.4,1c-0.2,0.5-0.2,0.5-0.7,0.5c-0.2,0-0.2-0.1-0.1-0.2c0.3-0.6,0.5-1.1,0.8-1.7
		c0.1-0.1,0-0.2,0-0.3c-0.2-0.5-0.5-1-0.7-1.4c-0.1-0.1,0-0.2,0.1-0.2c0.5,0,0.5,0,0.7,0.4C11.8,13.3,11.9,13.6,12,13.8
		C12,13.8,12,13.8,12,13.8z"/>
	<path fill="#1A1A1A" d="M10,14.8c0,0.5,0,0.9,0,1.4c0,0.2-0.1,0.2-0.2,0.2c0,0,0,0-0.1,0c-0.4,0-0.4,0-0.4-0.4c0-0.5,0-0.9,0-1.4
		c0-0.4,0-0.8,0-1.2c0-0.1,0-0.2-0.2-0.2c-0.1,0-0.2,0-0.3,0c-0.2,0-0.2-0.1-0.2-0.2c0-0.4,0-0.3,0.3-0.3c0.5,0,1,0,1.5,0
		c0.1,0,0.2,0,0.2,0.2c0,0.4,0,0.4-0.4,0.4c-0.3,0-0.3,0-0.3,0.3C10,13.9,10,14.3,10,14.8z"/>
	<path fill="#1A1A1A" d="M14,14.7c0-0.5,0-1,0-1.4c0-0.1,0-0.2-0.2-0.2c-0.1,0-0.3,0-0.4,0c-0.1,0-0.2,0-0.2-0.2
		c0-0.4,0-0.4,0.4-0.4c0.3,0,0.7,0,1,0c0.2,0,0.4,0,0.5,0c0.1,0,0.1,0,0.1,0.1c0,0.1,0,0.2,0,0.3c0,0.1-0.1,0.1-0.1,0.1
		c-0.2,0-0.3,0-0.5,0c-0.1,0-0.1,0-0.1,0.1c0,0.3,0,0.7,0,1c0,0.4,0,0.7,0,1.1c0,0.3,0,0.6,0,0.9c0,0.1,0,0.2-0.2,0.2
		c-0.5,0-0.5,0-0.5-0.5C14,15.5,14,15.1,14,14.7z"/>
</g>
</svg>
