<?xml version="1.0" encoding="utf-8"?>
<!-- Generator: Adobe Illustrator 18.1.1, SVG Export Plug-In . SVG Version: 6.00 Build 0)  -->
<svg version="1.0" id="ActionArea" xmlns="http://www.w3.org/2000/svg" xmlns:xlink="http://www.w3.org/1999/xlink" x="0px" y="0px"
	 viewBox="0 0 24 24" enable-background="new 0 0 24 24" xml:space="preserve">
<rect x="0" fill="#F1C418" width="24" height="24"/>
<g>
	<g>
		<path fill="#FFFFFF" d="M13.5,20c-0.1,0-0.3-0.1-0.4-0.2c-0.3-0.2-0.3-0.6-0.1-0.9l3.7-4.2L13,10.6c-0.2-0.3-0.2-0.7,0.1-0.9
			c0.3-0.2,0.6-0.2,0.9,0.1l4,4.6c0.2,0.2,0.2,0.6,0,0.8l-4,4.6C13.8,19.9,13.6,20,13.5,20L13.5,20z"/>
	</g>
	<g>
		<path fill="#FFFFFF" d="M16.4,15.2h-6.2c-2.4,0-4.4-2-4.4-4.4V4.6C5.9,4.3,6.1,4,6.5,4c0.3,0,0.6,0.3,0.6,0.6v6.2
			c0,1.7,1.4,3.1,3.1,3.1h6.2c0.3,0,0.6,0.3,0.6,0.6C17,14.9,16.8,15.2,16.4,15.2L16.4,15.2z"/>
	</g>
</g>
</svg>
