<?xml version="1.0" encoding="utf-8"?>
<!-- Generator: Adobe Illustrator 18.1.1, SVG Export Plug-In . SVG Version: 6.00 Build 0)  -->
<svg version="1.1" id="Seected" xmlns="http://www.w3.org/2000/svg" xmlns:xlink="http://www.w3.org/1999/xlink" x="0px" y="0px"
	 viewBox="0 0 120 120" enable-background="new 0 0 120 120" xml:space="preserve">
<g>
	<path fill="#6B6B6B" d="M60,95.4L47.5,81H43l0.6,1.4c0.1,0.2,0.1,0.3,0.2,0.5L57,98.5c0.3,0.5,1.3,1.9,3,1.9c1.7,0,2.7-1.4,3-1.9
		l13-15.4l0.1-0.2c0.1-0.2,0.2-0.3,0.2-0.5L77,81h-4.5L60,95.4z"/>
	<path fill="#6B6B6B" d="M60,24.6L72.5,39H77l-0.6-1.4c-0.1-0.2-0.1-0.3-0.2-0.5L63,21.5c-0.3-0.5-1.3-1.9-3-1.9
		c-1.7,0-2.7,1.4-3,1.9L44,36.9l-0.1,0.2c-0.1,0.2-0.2,0.3-0.2,0.5L43,39h4.5L60,24.6z"/>
	<path fill="#6B6B6B" d="M86.8,58h-54c-1.1,0-2,0.9-2,2s0.9,2,2,2h54c1.1,0,2-0.9,2-2S87.9,58,86.8,58z"/>
</g>
</svg>
