<?xml version="1.0" encoding="utf-8"?>
<!-- Generator: Adobe Illustrator 18.1.1, SVG Export Plug-In . SVG Version: 6.00 Build 0)  -->
<svg version="1.0" id="Seected" xmlns="http://www.w3.org/2000/svg" xmlns:xlink="http://www.w3.org/1999/xlink" x="0px" y="0px"
	 viewBox="0 0 24 24" enable-background="new 0 0 24 24" xml:space="preserve">
<g>
	<g>
		<g>
			<path fill="#6B6B6B" d="M12,19.8c-2.4,0-4.7-0.8-6.6-2.4c-0.1-0.1-0.2-0.2-0.2-0.4s0.1-0.3,0.2-0.4c0.7-0.6,1.5-1,2.3-1.3
				c0.1-0.1,0.3-0.1,0.4-0.2c0.2-0.1,0.3-0.1,0.5-0.2c0.3-0.1,0.5-0.2,0.7-0.4c0.2-0.1,0.2-0.2,0.2-0.3c0-0.4,0-0.7,0-1.1
				c-0.5-0.7-0.8-1.5-0.9-2.4c-0.1-0.1-0.1-0.1-0.2-0.2c-0.1-0.1-0.3-0.3-0.4-0.5C8.1,9.8,8,9.4,8,9.1c0-0.5,0.1-0.8,0.4-0.9
				c0-0.1,0-0.2,0-0.3l0-0.2c0-0.2,0-0.5,0.1-0.7c0.3-1.4,1.1-2.3,2.3-2.6c0.6-0.2,1.2-0.2,1.9-0.1c1.4,0.2,2.4,1.1,2.8,2.4
				c0.1,0.5,0.1,1,0.1,1.4l0,0.1C15.8,8.3,16,8.5,16,9c0,0.2,0,0.3,0,0.5c-0.1,0.5-0.2,1-0.7,1.5c0,0.1,0,0.2,0,0.3
				c0,0.2,0,0.3-0.1,0.5c-0.1,0.5-0.4,1-0.6,1.4l-0.1,0.2c0,0.2,0,0.4,0,0.6l0,0.4c0,0.2,0,0.4,0.4,0.5c0.3,0.2,0.7,0.3,1,0.4
				c1,0.4,2,0.7,2.8,1.5c0.1,0.1,0.2,0.2,0.2,0.4c0,0.1-0.1,0.3-0.2,0.4C16.7,19,14.4,19.8,12,19.8z M6.6,17.1
				c1.6,1.1,3.5,1.7,5.4,1.7c1.9,0,3.9-0.6,5.4-1.7c-0.6-0.4-1.3-0.7-2-0.9c-0.4-0.1-0.7-0.3-1.1-0.5c-0.8-0.4-0.9-1-0.9-1.4l0-0.4
				c0-0.2,0-0.4,0-0.6c0-0.2,0.1-0.4,0.2-0.5l0.1-0.2c0.2-0.3,0.4-0.6,0.5-1c0-0.1,0-0.3,0.1-0.4c0-0.1,0-0.2,0-0.4
				c0-0.3,0.1-0.4,0.3-0.5c0.2-0.2,0.3-0.4,0.4-0.9c0-0.1,0-0.2,0-0.3c-0.2,0-0.4-0.2-0.4-0.5l0-0.5c0-0.4,0-0.8-0.1-1.1
				c-0.3-1-0.9-1.6-1.9-1.7c-0.5-0.1-1,0-1.5,0.1c-0.9,0.2-1.4,0.8-1.6,1.8c0,0.2,0,0.4,0,0.6l0,0.2c0,0.2,0,0.3,0,0.5l0,0.2
				C9.4,8.8,9.3,9,9,9c0,0.3,0,0.5,0.1,0.8c0,0.1,0.1,0.1,0.2,0.2c0.1,0.1,0.1,0.1,0.2,0.2c0.1,0.1,0.2,0.3,0.2,0.5
				c0,0.7,0.2,1.3,0.7,1.9c0,0.1,0.2,0.2,0.2,0.5c0,0.4,0,0.8,0,1.3c0,0.5-0.3,0.9-0.7,1.1C9.6,15.7,9.3,15.9,9,16
				c-0.2,0.1-0.4,0.1-0.6,0.2c-0.1,0-0.3,0.1-0.4,0.1C7.5,16.6,7,16.8,6.6,17.1z"/>
		</g>
	</g>
</g>
</svg>
