<?xml version="1.0" encoding="utf-8"?>
<!-- Generator: Adobe Illustrator 18.1.1, SVG Export Plug-In . SVG Version: 6.00 Build 0)  -->
<svg version="1.0" id="Seected" xmlns="http://www.w3.org/2000/svg" xmlns:xlink="http://www.w3.org/1999/xlink" x="0px" y="0px"
	 viewBox="0 0 24 24" enable-background="new 0 0 24 24" xml:space="preserve">
<g>
	<g>
		<g>
			<path fill="#4B5354" d="M11.1,12.8c-2.1,0-4.1,0-6.1,0c0-2.1,0-4.1,0-6.2c0.4,0,0.8,0,1.2,0c0.1,0,0.2,0.2,0.2,0.3
				c0,0.9,0,1.7,0,2.6c0,0.2,0,0.4,0,0.6c1.5-1.6,3-3.1,4.5-4.6c0.5,0.4,0.8,0.8,1.2,1.2c-1.5,1.5-3,3-4.6,4.4c0,0,0.1,0.1,0.1,0.1
				c1.1,0,2.3,0,3.4,0C11.1,11.8,11.1,12.3,11.1,12.8z"/>
			<path fill="#4B5354" d="M17.5,13.9c-1.5,1.5-3,3-4.5,4.5c-0.4-0.4-0.7-0.7-1.1-1.1c1.5-1.4,3-2.9,4.5-4.4c0,0,0-0.1-0.1-0.1
				c-0.2,0-0.4,0-0.6,0c-0.8,0-1.6,0-2.5,0c-0.3,0-0.4-0.1-0.4-0.4c0-0.3,0-0.7,0-1c2.1,0,4.1,0,6.2,0c0,2,0,4.1,0,6.1
				c-0.5,0-0.9,0-1.4,0c0-1.2,0-2.3,0-3.5C17.5,13.9,17.5,13.9,17.5,13.9z"/>
		</g>
	</g>
</g>
<rect x="6.4" y="4.8" fill="#25A8DC" width="9.9" height="6.5"/>
</svg>
