<?xml version="1.0" encoding="utf-8"?>
<!-- Generator: Adobe Illustrator 18.1.1, SVG Export Plug-In . SVG Version: 6.00 Build 0)  -->
<svg version="1.0" id="Seected" xmlns="http://www.w3.org/2000/svg" xmlns:xlink="http://www.w3.org/1999/xlink" x="0px" y="0px"
	 viewBox="0 0 24 24" enable-background="new 0 0 24 24" xml:space="preserve">
<g>
	<g>
		<path fill="#25A8DC" d="M19.3,20.5H4.7c-0.6,0-1.2-0.4-1.4-1c-0.1-0.2,0-0.3,0.1-0.4L9.1,14c0.2-0.1,0.4-0.1,0.6,0
			c0.1,0.2,0.1,0.4,0,0.6l-5.4,4.9c0.1,0.1,0.3,0.2,0.5,0.2h14.6c0.2,0,0.4-0.1,0.5-0.2l-5.5-4.9c-0.2-0.1-0.2-0.4,0-0.6
			c0.1-0.2,0.4-0.2,0.6,0l5.8,5.1c0.1,0.1,0.2,0.3,0.1,0.4C20.5,20.1,19.9,20.5,19.3,20.5L19.3,20.5z"/>
	</g>
	<g>
		<g>
			<path fill="#25A8DC" d="M14.4,6.7c-0.1,0-0.2,0-0.3-0.1L12,4.5L9.9,6.6c-0.2,0.2-0.4,0.2-0.6,0C9.2,6.4,9.2,6.2,9.3,6l2.4-2.4
				c0.2-0.2,0.4-0.2,0.6,0L14.7,6c0.2,0.2,0.2,0.4,0,0.6C14.6,6.7,14.5,6.7,14.4,6.7L14.4,6.7z"/>
		</g>
		<g>
			<path fill="#25A8DC" d="M12,12.7c-0.2,0-0.4-0.2-0.4-0.4V4.6c0-0.2,0.2-0.4,0.4-0.4c0.2,0,0.4,0.2,0.4,0.4v7.7
				C12.4,12.5,12.2,12.7,12,12.7L12,12.7z"/>
		</g>
	</g>
	<g>
		<path fill="#25A8DC" d="M19.3,20.5H4.7c-0.8,0-1.5-0.7-1.5-1.5V9.5C3.2,8.6,3.9,8,4.7,8h5.1c0.2,0,0.4,0.2,0.4,0.4
			c0,0.2-0.2,0.4-0.4,0.4H4.7C4.3,8.8,4,9.1,4,9.5V19c0,0.4,0.3,0.7,0.7,0.7h14.6c0.4,0,0.7-0.3,0.7-0.7V9.5c0-0.4-0.3-0.7-0.7-0.7
			h-5.1c-0.2,0-0.4-0.2-0.4-0.4c0-0.2,0.2-0.4,0.4-0.4h5.1c0.8,0,1.5,0.7,1.5,1.5V19C20.8,19.8,20.1,20.5,19.3,20.5L19.3,20.5z"/>
	</g>
	<g>
		<path fill="#25A8DC" d="M12,16.9c-0.1,0-0.2,0-0.3-0.1L3.4,9.4C3.3,9.2,3.2,9,3.4,8.8c0.1-0.2,0.4-0.2,0.6,0l8,7.2l8-7.2
			c0.2-0.1,0.4-0.1,0.6,0c0.1,0.2,0.1,0.4,0,0.6l-8.3,7.4C12.2,16.9,12.1,16.9,12,16.9L12,16.9z"/>
	</g>
</g>
</svg>
