<?xml version="1.0" encoding="utf-8"?>
<!-- Generator: Adobe Illustrator 18.1.1, SVG Export Plug-In . SVG Version: 6.00 Build 0)  -->
<svg version="1.0" id="Seected" xmlns="http://www.w3.org/2000/svg" xmlns:xlink="http://www.w3.org/1999/xlink" x="0px" y="0px"
	 viewBox="0 0 24 24" enable-background="new 0 0 24 24" xml:space="preserve">
<g>
	<path fill="#6B6B6B" d="M12,20c-2.6,0-5.1,0-7.7,0C4,20,4,20,4,19.7c0-3.1,0-6.3,0-9.4c0-2,0-4,0-6C4,4.1,4,4,4.3,4
		c1.4,0,2.9,0,4.3,0c1.9,0,3.7,0,5.6,0c1.9,0,3.7,0,5.6,0C19.9,4,20,4.1,20,4.2c0,4.2,0,8.4,0,12.6c0,1,0,1.9,0,2.9
		c0,0.2,0,0.2-0.2,0.2C17.2,20,14.6,20,12,20L12,20z M14.9,12c0,2.3,0,4.6,0,7c0,0.2,0.1,0.3,0.3,0.3c1.3,0,2.5,0,3.8,0
		c0.2,0,0.2,0,0.2-0.2c0-4.7,0-9.3,0-14c0-0.2-0.1-0.2-0.2-0.2c-1.3,0-2.5,0-3.8,0c-0.2,0-0.3,0.1-0.3,0.3
		C14.9,7.4,14.9,9.7,14.9,12z M9.9,12L9.9,12c0,2.3,0,4.7,0,7c0,0.2,0.1,0.3,0.3,0.3c1.2,0,2.5,0,3.7,0c0.2,0,0.3-0.1,0.3-0.3
		c0-2.3,0-4.7,0-7c0-2.2,0-4.5,0-6.7c0-0.4,0-0.3-0.4-0.3c-1.2,0-2.4,0-3.6,0c-0.2,0-0.3,0-0.3,0.3C9.9,7.4,9.9,9.7,9.9,12z M9.1,12
		L9.1,12c0-0.6,0-1.3,0-1.9c0-0.2-0.1-0.2-0.2-0.2c-1.3,0-2.6,0-3.9,0c-0.2,0-0.2,0-0.2,0.2c0,1.3,0,2.6,0,3.9
		c0,0.2,0.1,0.2,0.2,0.2c1.3,0,2.6,0,3.9,0c0.1,0,0.2,0,0.2-0.2C9.1,13.3,9.1,12.7,9.1,12z M4.8,7L4.8,7c0,0.6,0,1.3,0,1.9
		c0,0.2,0,0.2,0.2,0.2c1.3,0,2.6,0,3.8,0C9,9.1,9,9,9,8.9C9,7.6,9,6.3,9,5C9,4.9,9,4.8,8.8,4.8c-1.3,0-2.5,0-3.8,0
		C4.8,4.8,4.8,4.9,4.8,5C4.8,5.7,4.8,6.3,4.8,7z M9,17.1L9,17.1c0-0.6,0-1.3,0-1.9C9,15,9,15,8.8,15c-1.3,0-2.6,0-3.8,0
		c-0.2,0-0.2,0.1-0.2,0.2c0,1.3,0,2.6,0,3.8c0,0.2,0,0.2,0.2,0.2c1.3,0,2.6,0,3.8,0C9,19.2,9,19.1,9,19C9,18.3,9,17.7,9,17.1z"/>
</g>
</svg>
