<?xml version="1.0" encoding="utf-8"?>
<!-- Generator: Adobe Illustrator 18.1.1, SVG Export Plug-In . SVG Version: 6.00 Build 0)  -->
<svg version="1.1" id="Seected" xmlns="http://www.w3.org/2000/svg" xmlns:xlink="http://www.w3.org/1999/xlink" x="0px" y="0px"
	 viewBox="0 0 120 120" enable-background="new 0 0 120 120" xml:space="preserve">
<g>
	<path fill="#6B6B6B" d="M23.3,45.3l8.3,3.7c9.1,4.1,18.1,8.2,27.2,12.3c0.4,0.2,0.8,0.3,1.2,0.3c0.4,0,0.8-0.1,1.2-0.3
		c7.6-3.4,15.1-6.8,22.7-10.3L99.6,44l-2.3-1.1c-0.2-0.1-0.3-0.2-0.5-0.2l-2.7-1.2c-11.1-5-22.1-10-33.2-15c-0.6-0.3-1.4-0.2-2,0
		c-11.5,5.2-23.1,10.4-34.6,15.6l-1.2,0.5c-0.2,0.1-0.3,0.2-0.5,0.3l-2.1,1l2.1,1.1C22.9,45.2,23.1,45.3,23.3,45.3z M33.2,44
		l0.7-0.3c8.6-3.9,17.2-7.8,25.9-11.7c0,0,0.3,0,0.3,0c8.6,3.9,17.1,7.7,25.7,11.6l0.9,0.4l-13.7,6.2c-4.3,1.9-8.6,3.9-12.9,5.8
		c-0.1,0-0.2,0-0.3,0c-0.1,0-0.1,0-0.1,0c-8.5-3.8-17.1-7.7-25.6-11.5L33.2,44z"/>
	<path fill="#6B6B6B" d="M99.8,70l-1.2,0.5c-0.2,0.1-0.4,0.2-0.6,0.2l-5.8,2.6c-10.7,4.8-21.3,9.7-32,14.5c0,0-0.1,0-0.3,0
		c0,0,0,0,0,0c-0.1,0-0.1,0-0.2,0c-9-4.1-18-8.2-27-12.2l-5.9-2.7c-1.3-0.6-2.5-1.2-3.8-1.7l-2.8-1.3l-2.1,4.9l1.1,0.5
		c0.2,0.1,0.4,0.2,0.6,0.3l7.4,3.4c10.5,4.8,21,9.6,31.5,14.4c0.4,0.2,0.8,0.3,1.2,0.3c0.4,0,0.8-0.1,1.2-0.3
		c9.7-4.4,19.3-8.8,29-13.2l11.7-5.3L99.8,70z"/>
	<path fill="#6B6B6B" d="M19.7,60.4l8.1,3.7c10.4,4.7,20.7,9.4,31.1,14.1c0.4,0.2,0.8,0.3,1.1,0.3c0.4,0,0.7-0.1,1.1-0.3
		c10.7-4.9,21.4-9.7,32.1-14.6l7.1-3.2c0.2-0.1,0.3-0.2,0.5-0.3l1.1-0.6l-2.1-4.6L93,58c-10.9,4.9-21.7,9.8-32.6,14.7
		c-0.4,0.2-0.3,0.2-0.7,0c-11.7-5.3-23.4-10.5-35-15.8l-2.7-1.2c-0.2-0.1-0.4-0.1-0.6-0.2L20.2,55l-2.1,4.6l1.1,0.6
		C19.4,60.3,19.5,60.3,19.7,60.4z"/>
</g>
</svg>
