<?xml version="1.0" encoding="utf-8"?>
<!-- Generator: Adobe Illustrator 18.1.1, SVG Export Plug-In . SVG Version: 6.00 Build 0)  -->
<svg version="1.0" id="Seected" xmlns="http://www.w3.org/2000/svg" xmlns:xlink="http://www.w3.org/1999/xlink" x="0px" y="0px"
	 viewBox="0 0 24 24" enable-background="new 0 0 24 24" xml:space="preserve">
<g>
	<g>
		<path fill="#6B6B6B" d="M17.8,6.6c0-0.4,0-0.4-0.4-0.4l-9.1,0l-1.7,0c-0.3,0-0.4,0.1-0.4,0.4v0.7c0,0.4,0,0.4,0.4,0.4l10.8,0
			c0.2,0,0.3-0.1,0.3-0.3c0-0.2,0-0.3,0-0.5L17.8,6.6z"/>
		<path fill="#6B6B6B" d="M11.4,9.6L11.4,9.6l-0.2,0l0,0h0l0,0c0,0-0.2,0-1.2,0H8.3l-1.7,0c-0.3,0-0.4,0.1-0.4,0.4v0.7
			c0,0.4,0,0.4,0.4,0.4l5.3,0v0H12h0h0.2c0.1,0,0.2,0,0.3,0c0.2,0,0.3-0.1,0.3-0.3c0-0.2,0-0.4,0-0.6V10c0-0.4,0-0.4-0.4-0.4
			C11.9,9.6,11.6,9.6,11.4,9.6z"/>
		<path fill="#6B6B6B" d="M11.2,12.9L11.2,12.9c0,0-0.2,0-1.2,0l-2.3,0l-1.1,0c-0.3,0-0.4,0.1-0.4,0.4V14c0,0.4,0,0.4,0.4,0.4l1.8,0
			l3.5,0c0,0,0.1,0,0.3,0c0.1,0,0.2,0,0.3,0c0.2,0,0.3-0.1,0.3-0.3c0-0.2,0-0.4,0-0.6v-0.1c0-0.4,0-0.4-0.4-0.4c-0.5,0-0.8,0-1,0v0
			L11.2,12.9L11.2,12.9C11.2,12.9,11.2,12.9,11.2,12.9z"/>
		<path fill="#6B6B6B" d="M17.8,16.8c0-0.4,0-0.4-0.4-0.4l-9.1,0l-1.7,0c-0.3,0-0.4,0.1-0.4,0.4v0.7c0,0.4,0,0.4,0.4,0.4l10.8,0
			c0.2,0,0.3-0.1,0.3-0.3c0-0.2,0-0.3,0-0.5L17.8,16.8z"/>
	</g>
	<path fill="#6B6B6B" d="M17.5,9.6c-0.2-0.1-0.4-0.1-0.6,0.1L15,11.7c-0.1,0.1-0.2,0.2-0.3,0.3l2.3,2.3c0.1,0.1,0.4,0.2,0.5,0.1
		c0.2-0.1,0.3-0.3,0.3-0.5c0-0.1,0-0.2-0.2-0.3l-1.3-1.3c-0.1-0.1-0.1-0.1-0.1-0.2c0-0.1,0.1-0.2,0.1-0.2l0.5-0.5
		c0.3-0.3,0.6-0.6,0.9-0.9c0.1-0.1,0.2-0.3,0.2-0.4C17.7,9.8,17.6,9.7,17.5,9.6z"/>
</g>
</svg>
