<?xml version="1.0" encoding="utf-8"?>
<!-- Generator: Adobe Illustrator 18.1.1, SVG Export Plug-In . SVG Version: 6.00 Build 0)  -->
<svg version="1.0" id="Seected" xmlns="http://www.w3.org/2000/svg" xmlns:xlink="http://www.w3.org/1999/xlink" x="0px" y="0px"
	 viewBox="0 0 24 24" enable-background="new 0 0 24 24" xml:space="preserve">
<g>
	<path fill="#6B6B6B" d="M6.4,6.2c0-0.1,0-0.2,0-0.2c1.5,0,3,0,4.5,0c0,0.1,0,0.2,0,0.3c-0.1,0-0.2,0-0.4,0c-0.7,0-1.1,0.3-1.1,1
		c0,0.7,0,1.5,0,2.2c0,0.8,0,1.6,0,2.3c0,0.6,0.1,1.2,0.2,1.8c0.2,0.9,0.8,1.4,1.8,1.6c0.9,0.2,1.7,0.1,2.5-0.3
		c0.8-0.4,1.2-1,1.3-1.9c0.1-0.9,0.1-1.9,0.1-2.8c0-0.8,0-1.6,0-2.4c0-0.3,0-0.5-0.1-0.8c0-0.4-0.3-0.6-0.8-0.7c-0.2,0-0.3,0-0.5,0
		c-0.1,0-0.1,0-0.2,0c0-0.1,0-0.2,0-0.3c1.2,0,2.4,0,3.7,0c0,0.1,0,0.2,0,0.2c-0.2,0-0.4,0-0.6,0c-0.5,0.1-0.8,0.4-0.9,0.8
		c0,0.2,0,0.4,0,0.6c0,1.4,0,2.9,0,4.3c0,0.5-0.1,1-0.2,1.6c-0.3,1.1-1.1,1.7-2.2,2.1c-0.7,0.2-1.5,0.2-2.3,0.2
		c-0.4,0-0.8-0.1-1.2-0.2c-1.2-0.4-1.9-1.2-2.1-2.4c-0.1-1-0.1-1.9-0.1-2.9c0-0.9,0-1.8,0-2.7c0-0.2,0-0.5-0.1-0.7
		C7.7,6.5,7.5,6.3,7.1,6.3C6.9,6.3,6.6,6.3,6.4,6.2z"/>
	<path fill="#6B6B6B" d="M6.3,18c0-0.3,0-0.6,0-0.8c3.8,0,7.6,0,11.4,0c0,0.3,0,0.6,0,0.8C13.9,18,10.1,18,6.3,18z"/>
</g>
</svg>
