<?xml version="1.0" encoding="utf-8"?>
<!-- Generator: Adobe Illustrator 18.1.1, SVG Export Plug-In . SVG Version: 6.00 Build 0)  -->
<svg version="1.0" id="Seected" xmlns="http://www.w3.org/2000/svg" xmlns:xlink="http://www.w3.org/1999/xlink" x="0px" y="0px"
	 viewBox="0 0 24 24" enable-background="new 0 0 24 24" xml:space="preserve">
<g>
	<path fill="#6B6B6B" stroke="#6B6B6B" stroke-width="0.6" stroke-miterlimit="10" d="M4,20C4,14.7,4,9.3,4,4c5.3,0,10.7,0,16,0
		c0,5.3,0,10.7,0,16C14.7,20,9.3,20,4,20z"/>
</g>
<g>
	<path fill="#FFFFFF" d="M12.5,19.5c2.3,0,4.7,0,7,0c0-2.3,0-4.7,0-7c-2.3,0-4.7,0-7,0C12.5,14.8,12.5,17.2,12.5,19.5z"/>
	<path fill="#FFFFFF" d="M12.5,11.5c2.3,0,4.7,0,7,0c0-2.3,0-4.7,0-7c-2.3,0-4.7,0-7,0C12.5,6.8,12.5,9.2,12.5,11.5z"/>
	<path fill="#FFFFFF" d="M4.5,11.5c2.3,0,4.7,0,7,0c0-2.3,0-4.7,0-7c-2.3,0-4.7,0-7,0C4.5,6.8,4.5,9.2,4.5,11.5z"/>
	<path fill="#FFFFFF" d="M4.5,19.5c2.3,0,4.7,0,7,0c0-2.3,0-4.7,0-7c-2.3,0-4.7,0-7,0C4.5,14.8,4.5,17.2,4.5,19.5z"/>
</g>
</svg>
