<?xml version="1.0" encoding="utf-8"?>
<!-- Generator: Adobe Illustrator 18.1.1, SVG Export Plug-In . SVG Version: 6.00 Build 0)  -->
<svg version="1.0" id="Seected" xmlns="http://www.w3.org/2000/svg" xmlns:xlink="http://www.w3.org/1999/xlink" x="0px" y="0px"
	 viewBox="0 0 24 24" enable-background="new 0 0 24 24" xml:space="preserve">
<g>
	<g>
		<path fill="#6B6B6B" d="M18.3,20.5H5.7c-0.7,0-1.3-0.6-1.3-1.3V10c0-0.1,0-0.2,0.1-0.3l7.3-6.2c0.1-0.1,0.3-0.1,0.5,0l7.2,6.2
			c0.1,0.1,0.1,0.2,0.1,0.3v9.2C19.6,19.9,19,20.5,18.3,20.5L18.3,20.5z M5.1,10.2v9c0,0.3,0.3,0.6,0.6,0.6h12.6
			c0.3,0,0.6-0.3,0.6-0.6v-9L12,4.3L5.1,10.2L5.1,10.2z"/>
	</g>
	<g>
		<path fill="#6B6B6B" d="M18.3,20.5H5.7c-0.5,0-1-0.3-1.2-0.8c-0.1-0.1,0-0.3,0.1-0.4l7.2-6.4c0.1-0.1,0.3-0.1,0.5,0l7.2,6.4
			c0.1,0.1,0.1,0.2,0.1,0.4C19.3,20.2,18.8,20.5,18.3,20.5L18.3,20.5z M5.3,19.6c0.1,0.1,0.3,0.2,0.4,0.2h12.6
			c0.2,0,0.3-0.1,0.4-0.2l-6.7-6L5.3,19.6L5.3,19.6z"/>
	</g>
	<g>
		<g>
			<path fill="#6B6B6B" d="M14.2,15.4c-0.1,0-0.2,0-0.3-0.1c-0.1-0.1-0.1-0.4,0-0.5l5-4.4c0.1-0.1,0.4-0.1,0.5,0
				c0.1,0.1,0.1,0.4,0,0.5l-5,4.4C14.4,15.4,14.3,15.4,14.2,15.4L14.2,15.4z"/>
		</g>
		<g>
			<path fill="#6B6B6B" d="M9.8,15.4c-0.1,0-0.2,0-0.2-0.1l-5-4.5c-0.1-0.1-0.2-0.3,0-0.5c0.1-0.1,0.3-0.2,0.5,0l5,4.5
				c0.1,0.1,0.2,0.3,0,0.5C10,15.4,9.9,15.4,9.8,15.4L9.8,15.4z"/>
		</g>
	</g>
	<g>
		<g>
			<path fill="#6B6B6B" d="M13.9,9.7c-0.1,0-0.2,0-0.2-0.1L12,7.9l-1.7,1.7c-0.1,0.1-0.4,0.1-0.5,0c-0.1-0.1-0.1-0.4,0-0.5l1.9-1.9
				c0.1-0.1,0.4-0.1,0.5,0l1.9,1.9c0.1,0.1,0.1,0.4,0,0.5C14.1,9.6,14,9.7,13.9,9.7L13.9,9.7z"/>
		</g>
		<g>
			<path fill="#6B6B6B" d="M12,11.7c-0.2,0-0.3-0.2-0.3-0.3V7.9c0-0.2,0.2-0.3,0.3-0.3c0.2,0,0.3,0.2,0.3,0.3v3.4
				C12.3,11.5,12.2,11.7,12,11.7L12,11.7z"/>
		</g>
	</g>
</g>
</svg>
