<?xml version="1.0" encoding="utf-8"?>
<!-- Generator: Adobe Illustrator 18.1.1, SVG Export Plug-In . SVG Version: 6.00 Build 0)  -->
<svg version="1.0" id="Seected" xmlns="http://www.w3.org/2000/svg" xmlns:xlink="http://www.w3.org/1999/xlink" x="0px" y="0px"
	 viewBox="0 0 24 24" enable-background="new 0 0 24 24" xml:space="preserve">
<g>
	<path fill="#50B96F" d="M13.7,9c-0.1,0-0.2,0-0.3,0c-0.9,0-1.8,0-2.7,0c-0.4,0-0.8-0.3-0.9-0.7c-0.1-0.4,0.1-0.9,0.5-1
		c0.1-0.1,0.3-0.1,0.4-0.1c1.7,0,3.5,0,5.2,0c0.5,0,0.9,0.4,0.9,0.9c0,1.8,0,3.5,0,5.3c0,0.5-0.4,0.9-0.9,0.9
		c-0.5,0-0.9-0.4-0.9-0.9c0-0.9,0-1.8,0-2.7c0-0.1,0-0.1,0-0.3c-0.1,0.1-0.1,0.1-0.2,0.2c-2,2-4,4-6,6c-0.2,0.2-0.5,0.3-0.8,0.3
		c-0.4,0-0.7-0.2-0.8-0.6c-0.1-0.4-0.1-0.7,0.2-1c0-0.1,0.1-0.1,0.1-0.1c2-2,4-4,6-6C13.5,9.2,13.6,9.1,13.7,9z"/>
</g>
</svg>
