<?xml version="1.0" encoding="utf-8"?>
<!-- Generator: Adobe Illustrator 18.1.1, SVG Export Plug-In . SVG Version: 6.00 Build 0)  -->
<svg version="1.1" id="Seected" xmlns="http://www.w3.org/2000/svg" xmlns:xlink="http://www.w3.org/1999/xlink" x="0px" y="0px"
	 viewBox="0 0 24 24" enable-background="new 0 0 24 24" xml:space="preserve">
<g>
	<path fill="#6B6B6B" d="M14.6,14.6c-0.1,0.1-0.2,0.1-0.4,0.1s-0.3-0.1-0.4-0.1l-4.4-4.4c-0.2-0.2-0.2-0.5,0-0.7
		c0.2-0.2,0.5-0.2,0.7,0l4.4,4.4C14.8,14.1,14.8,14.4,14.6,14.6z"/>
	<path fill="#6B6B6B" d="M6.8,6.9l0.1-0.1C7.4,6.3,8.1,6,8.8,6c0.7,0,1.4,0.3,1.9,0.8L12,8c0.6,0.6,0.8,1.3,0.8,2.1
		c0,0.3-0.2,0.5-0.5,0.5c0,0,0,0,0,0c-0.1,0-0.3-0.1-0.3-0.2c-0.1-0.1-0.1-0.2-0.1-0.4c0-0.5-0.1-1-0.5-1.3L10,7.5
		c-0.6-0.6-1.8-0.6-2.4,0L7.5,7.6c-0.7,0.7-0.7,1.7,0,2.4l1.3,1.3c0.3,0.3,0.7,0.5,1.2,0.5c0.1,0,0.1,0,0.2,0c0.3,0,0.5,0.2,0.5,0.5
		c0,0.3-0.2,0.5-0.5,0.5c-0.1,0-0.2,0-0.2,0c-0.7,0-1.4-0.3-1.9-0.8l-1.3-1.3C6.3,10.2,6,9.6,6,8.8C6,8.1,6.3,7.4,6.8,6.9z"/>
	<path fill="#6B6B6B" d="M11.8,13.4L11.8,13.4c0.3,0,0.5,0.3,0.5,0.5c0,0.5,0.1,1,0.5,1.3l1.3,1.3c0.6,0.6,1.8,0.6,2.4,0l0.1-0.1
		c0.3-0.3,0.5-0.7,0.5-1.2s-0.2-0.9-0.5-1.2l-1.3-1.3c-0.3-0.3-0.7-0.5-1.2-0.5c-0.1,0-0.1,0-0.2,0c-0.3,0-0.5-0.2-0.5-0.5
		c0-0.3,0.2-0.5,0.5-0.5c0.8-0.1,1.6,0.2,2.1,0.8l1.3,1.3c0.5,0.5,0.8,1.2,0.8,1.9c0,0.7-0.3,1.4-0.8,1.9l-0.1,0.1
		c-0.5,0.5-1.2,0.8-1.9,0.8c-0.7,0-1.4-0.3-1.9-0.8L12,16c-0.6-0.6-0.8-1.3-0.8-2.1C11.3,13.6,11.5,13.4,11.8,13.4z"/>
</g>
</svg>
