<?xml version="1.0" encoding="utf-8"?>
<!-- Generator: Adobe Illustrator 18.1.1, SVG Export Plug-In . SVG Version: 6.00 Build 0)  -->
<svg version="1.0" id="Seected" xmlns="http://www.w3.org/2000/svg" xmlns:xlink="http://www.w3.org/1999/xlink" x="0px" y="0px"
	 viewBox="0 0 24 24" enable-background="new 0 0 24 24" xml:space="preserve">
<g>
	<path fill="#6B6B6B" d="M8.6,17.1c0.8,0,1.3-0.3,1.8-0.8c2.2-2.2,4.4-4.4,6.6-6.6c0.1-0.1,0.2-0.2,0.3-0.2c0.2,0,0.3,0.1,0.4,0.2
		c0.1,0.1,0.1,0.3,0,0.4c0,0-0.1,0.1-0.1,0.1c-2.2,2.2-4.4,4.4-6.6,6.6c-0.6,0.6-1.4,1-2.3,1c-1.6,0-3-1.2-3.2-2.8
		c-0.1-1,0.1-1.9,0.8-2.6c0-0.1,0.1-0.1,0.2-0.2c2.2-2.2,4.5-4.5,6.7-6.7c0.5-0.5,1.1-0.7,1.8-0.7C16,5,17,5.9,17.1,7
		c0.1,0.8-0.2,1.4-0.7,1.9c-2.2,2.2-4.4,4.4-6.6,6.6C9.4,15.9,9,16,8.4,15.9c-0.5-0.1-0.8-0.5-1-1c-0.1-0.5,0-0.9,0.4-1.3
		c1.3-1.3,2.5-2.5,3.8-3.8c0.3-0.3,0.6-0.6,0.8-0.8c0.2-0.2,0.4-0.2,0.6,0c0.2,0.2,0.2,0.4,0,0.6c-1.5,1.5-3.1,3.1-4.6,4.6
		c-0.2,0.2-0.3,0.5-0.2,0.7c0.2,0.3,0.6,0.4,0.9,0.2c0,0,0.1-0.1,0.1-0.1c2.2-2.2,4.4-4.4,6.6-6.6c0.5-0.5,0.6-1.2,0.3-1.8
		c-0.5-0.8-1.5-1-2.3-0.4c-0.1,0.1-0.1,0.1-0.2,0.2C11.4,8.5,9.2,10.7,7,13c-0.6,0.6-0.8,1.2-0.7,2c0.1,1,0.9,2,1.9,2.1
		C8.3,17.1,8.5,17.1,8.6,17.1z"/>
</g>
</svg>
