<?xml version="1.0" encoding="utf-8"?>
<!-- Generator: Adobe Illustrator 18.1.1, SVG Export Plug-In . SVG Version: 6.00 Build 0)  -->
<svg version="1.0" id="Seected" xmlns="http://www.w3.org/2000/svg" xmlns:xlink="http://www.w3.org/1999/xlink" x="0px" y="0px"
	 viewBox="0 0 24 24" enable-background="new 0 0 24 24" xml:space="preserve">
<g>
	<path fill-rule="evenodd" clip-rule="evenodd" fill="#6B6B6B" d="M4.8,4.5h2.4v0.9H4.8V4.5L4.8,4.5z M17.4,4.5v5.1l1.2-1.2L19.2,9
		l-1.9,1.9L17,11.2l-0.3-0.3L14.8,9l0.6-0.6l1.2,1.2V4.5H17.4L17.4,4.5z M4.8,18.7h14.2v0.9H4.8V18.7L4.8,18.7z M4.8,15.1H16V16H4.8
		V15.1L4.8,15.1z M4.8,11.6h8.3v0.9H4.8V11.6L4.8,11.6z M4.8,8h5.4v0.9H4.8V8z"/>
</g>
</svg>
