<?xml version="1.0" encoding="utf-8"?>
<!-- Generator: Adobe Illustrator 18.1.1, SVG Export Plug-In . SVG Version: 6.00 Build 0)  -->
<svg version="1.0" id="Seected" xmlns="http://www.w3.org/2000/svg" xmlns:xlink="http://www.w3.org/1999/xlink" x="0px" y="0px"
	 viewBox="0 0 24 24" enable-background="new 0 0 24 24" xml:space="preserve">
<g>
	<path fill="#E54C3C" d="M10.3,15c0.1,0,0.2,0,0.3,0c0.9,0,1.8,0,2.7,0c0.4,0,0.8,0.3,0.9,0.7c0.1,0.4-0.1,0.9-0.5,1
		c-0.1,0.1-0.3,0.1-0.4,0.1c-1.7,0-3.5,0-5.2,0c-0.5,0-0.9-0.4-0.9-0.9c0-1.8,0-3.5,0-5.3c0-0.5,0.4-0.9,0.9-0.9
		c0.5,0,0.9,0.4,0.9,0.9c0,0.9,0,1.8,0,2.7c0,0.1,0,0.1,0,0.3c0.1-0.1,0.1-0.1,0.2-0.2c2-2,4-4,6-6c0.2-0.2,0.5-0.3,0.8-0.3
		c0.4,0,0.7,0.2,0.8,0.6c0.1,0.4,0.1,0.7-0.2,1c0,0.1-0.1,0.1-0.1,0.1c-2,2-4,4-6,6C10.5,14.9,10.4,14.9,10.3,15z"/>
</g>
</svg>
