<?xml version="1.0" encoding="utf-8"?>
<!-- Generator: Adobe Illustrator 18.1.1, SVG Export Plug-In . SVG Version: 6.00 Build 0)  -->
<svg version="1.0" id="ActionArea" xmlns="http://www.w3.org/2000/svg" xmlns:xlink="http://www.w3.org/1999/xlink" x="0px" y="0px"
	 viewBox="0 0 24 24" enable-background="new 0 0 24 24" xml:space="preserve">
<g>
	<rect x="0" fill="#FFFFFF" width="24" height="24"/>
	<rect x="0" y="23" fill="#26292A" width="24" height="1"/>
</g>
<polygon points="12,5.5 12,5.5 12,5.5 "/>
<g>
	<path fill="#3D97D3" d="M17.1,4l-2.9,2.3c0-0.1,0-0.2,0-0.4c0-0.2,0-0.3,0-0.5C14,4.4,13,3.5,11.9,3.5c-0.1,0-0.2,0-0.2,0
		c-1.3,0.1-2.2,1.1-2.2,2.4v3c0,0.4,0,0.8,0,1.2l-1.7,1.4c-0.1-0.2-0.1-0.4-0.1-0.7H6.9c0,0.4,0.1,0.8,0.2,1.2l-2.8,2.2l0.6,0.7
		L17.7,4.7L17.1,4z M13.5,6.9l-3.2,2.6c0-1.2,0-2.3,0-3.5c0-0.9,0.7-1.6,1.6-1.6h0c0.9,0,1.6,0.7,1.6,1.6V6.9z"/>
	<path fill="#3D97D3" d="M12.2,14.8c-0.5,0-1,0-1.4-0.1l-0.7,0.6c0.4,0.1,0.8,0.3,1.2,0.3l0.2,0v1.2H8.9v0.8h6.1v-0.8h-2.6l0-1.1
		l0.2-0.1c1.3-0.2,2.3-0.7,3.1-1.7c0.8-0.9,1.2-1.9,1.3-3h-0.8C16,13,14.3,14.6,12.2,14.8z"/>
</g>
</svg>
