<?xml version="1.0" encoding="utf-8"?>
<!-- Generator: Adobe Illustrator 18.1.1, SVG Export Plug-In . SVG Version: 6.00 Build 0)  -->
<svg version="1.1" id="Seected" xmlns="http://www.w3.org/2000/svg" xmlns:xlink="http://www.w3.org/1999/xlink" x="0px" y="0px"
	 viewBox="0 0 24 24" enable-background="new 0 0 24 24" xml:space="preserve">
<g>
	<path fill="#25A8DC" d="M19.8,1.9V0.6c0-0.4-0.3-0.7-0.7-0.7h-5.4v1.2h-2.2c-0.1,0-0.2,0.1-0.2,0.2v0.7c0,0.1,0.1,0.2,0.2,0.2h2.2
		v1h-2.2c-0.1,0-0.2,0.1-0.2,0.2v0.7c0,0.1,0.1,0.2,0.2,0.2h2.2v1h5.4c0.4,0,0.7-0.3,0.7-0.7V3.4h2v19.1H15v0H13v0H2.1V3.4h1.8v1.4
		c0,0.4,0.3,0.7,0.7,0.7H10V0H4.6C4.2,0,3.9,0.3,3.9,0.6v1.3H0.6V24h13v0h0.1v0h9.7V1.9H19.8z M18.4,4h-3.1V1.5h3.1V4z M5.4,1.5h3.1
		V4H5.4V1.5z"/>
	<g>
		<g>
			<g>
				<g>
					<g>
						<g>
							<g>
								<g>
									<g>
										<g>
											<g>
												<path fill="#25A8DC" d="M12.1,20.5c-3.5,0-6.3-2.8-6.3-6.3c0-3.5,2.8-6.3,6.3-6.3c3.5,0,6.3,2.8,6.3,6.3
													C18.4,17.7,15.6,20.5,12.1,20.5z M12.1,8.9c-3,0-5.4,2.4-5.4,5.4c0,3,2.4,5.4,5.4,5.4c3,0,5.4-2.4,5.4-5.4
													C17.5,11.3,15.1,8.9,12.1,8.9z"/>
											</g>
										</g>
									</g>
								</g>
							</g>
						</g>
					</g>
				</g>
			</g>
			<g>
				<g>
					<g>
						<g>
							<g>
								<g>
									<g>
										<g>
											<g>
												<path fill="#25A8DC" d="M11.8,13.4c-0.1,0.5-0.8,0.4-1,0.9c-0.1,0.4,0.1,0.9,0.4,1.1c0.8,0.5,1.5,0.1,1.5,1.4
													c0,0.7-0.6,2,0.3,2.3c0.7,0.3,1.8-0.8,2.2-1.2c0.3-0.4,0.3-0.6,0.7-0.9c0.4-0.4,0.6-0.4,0.1-0.7
													c-0.4-0.3-0.6-0.1-0.8-0.7c-0.1-0.3,0.2-0.7,0.1-0.9c-0.1-0.7-1-0.8-1.6-1.1c-0.7-0.3-1-0.3-1.7-0.3L11.8,13.4z"/>
											</g>
										</g>
									</g>
								</g>
							</g>
						</g>
					</g>
				</g>
			</g>
			<g>
				<g>
					<g>
						<g>
							<g>
								<g>
									<g>
										<g>
											<g>
												<path fill="#25A8DC" d="M16,10c-0.4,0.2-1,0.3-1.4,0.4c-0.9,0.4-0.4,0.3-0.5,1.1c0.3,0.1,0.5,0,0.6-0.3
													c0.3,0.7-0.7,0.6-1,0.6c-0.2,0-0.3-0.1-0.5,0c-0.3,0.1,0.1,0.7-0.3,0.3c-0.2-0.1,0-0.4-0.3-0.6c-0.1-0.1-0.7-0.1-0.8,0
													c-0.4,0.3,0.1,0.8,0.5,1c0.3,0.2,0.1,0.3,0.5,0.4c0.2,0,0.4-0.1,0.7-0.1c0.4,0.1,0.6,0.5,1.1,0.7
													c0.6,0.2,0.9,0.1,1.1,0.7c0.1,0.4,0.2,0.8,0.4,1.2c0.4,0.5,0.8,0.9,1.2,0.2c0.2-0.3,0.1-0.7,0.5-0.7c0-0.2,0-0.4,0-0.7
													C17.9,12.6,17.2,11.1,16,10z"/>
											</g>
										</g>
									</g>
								</g>
							</g>
						</g>
					</g>
				</g>
			</g>
			<g>
				<g>
					<g>
						<g>
							<g>
								<g>
									<g>
										<g>
											<g>
												<path fill="#25A8DC" d="M8.8,16.9c-0.1-0.1-0.2-0.6-0.3-0.7c0-0.1-0.2-0.1-0.3-0.2c-0.1-0.1,0-0.3-0.1-0.4
													c-0.2-0.1-0.4-0.1-0.7-0.1c-0.4-0.1-0.2,0-0.5-0.3c-0.2-0.2-0.4-0.6-0.6-0.9c0,1.9,1,3.6,2.4,4.6
													c0.2-0.2,0.4-0.4,0.6-0.6c0.3-0.3,0.9-0.3,0.6-0.9C9.8,16.9,9.1,17.2,8.8,16.9z"/>
											</g>
										</g>
									</g>
								</g>
							</g>
						</g>
					</g>
				</g>
			</g>
			<g>
				<g>
					<g>
						<g>
							<g>
								<g>
									<g>
										<g>
											<g>
												<path fill="#25A8DC" d="M8.9,11.1c-0.4-0.3-0.6-0.5-1-0.6c-0.7,0.8-1.2,1.9-1.4,3c0.3,0,0.2,0.6,0.7,0.4
													c0.1,0,0.4-0.6,0.5-0.7c0.2-0.2,1.6-0.7,1-1C8.6,12,8.7,12,8.9,11.9c0.1,0.2,0.2,0.4,0.4,0.4
													C9.4,11.7,9.4,11.4,8.9,11.1z"/>
											</g>
										</g>
									</g>
								</g>
							</g>
						</g>
					</g>
				</g>
			</g>
			<g>
				<g>
					<g>
						<g>
							<g>
								<g>
									<g>
										<g>
											<g>
												<path fill="#25A8DC" d="M8.6,10.4c0.1,0,0.6-0.5,0.6-0.5c0-0.2-0.1-0.3-0.2-0.4c-0.3,0.2-0.6,0.4-0.8,0.7
													C8.3,10.3,8.4,10.4,8.6,10.4z"/>
											</g>
										</g>
									</g>
								</g>
							</g>
						</g>
					</g>
				</g>
			</g>
			<g>
				<g>
					<g>
						<g>
							<g>
								<g>
									<g>
										<g>
											<g>
												<path fill="#25A8DC" d="M12,8.5c-0.8,0-1.5,0.2-2.1,0.5C9.9,9,10,9.1,10,9.1c-0.2,0.4-0.4,0.5-0.1,1
													c0.2,0.4,0.5,0.4,0.8,0.7c0.3-0.3,0.1-0.4,0.1-0.7c0.1-0.3,0.3-0.4,0.5-0.5c0.4-0.2,1.1,0,1-0.5
													C12.4,8.8,12.2,8.6,12,8.5z"/>
											</g>
										</g>
									</g>
								</g>
							</g>
						</g>
					</g>
				</g>
			</g>
			<g>
				<g>
					<g>
						<g>
							<g>
								<g>
									<g>
										<g>
											<g>
												<path fill="#25A8DC" d="M11.7,9.8C12,9.8,12,10.1,12.3,10C12.5,10.5,11.3,10.4,11.7,9.8L11.7,9.8z"/>
											</g>
										</g>
									</g>
								</g>
							</g>
						</g>
					</g>
				</g>
			</g>
		</g>
	</g>
</g>
</svg>
