<?xml version="1.0" encoding="utf-8"?>
<!-- Generator: Adobe Illustrator 18.1.1, SVG Export Plug-In . SVG Version: 6.00 Build 0)  -->
<svg version="1.0" id="Seected" xmlns="http://www.w3.org/2000/svg" xmlns:xlink="http://www.w3.org/1999/xlink" x="0px" y="0px"
	 viewBox="0 0 24 24" enable-background="new 0 0 24 24" xml:space="preserve">
<g>
	<g>
		<path fill="#6B6B6B" stroke="#6B6B6B" stroke-width="0.3" stroke-miterlimit="10" d="M11.1,19.4c-1.2,0-1.8-0.6-1.8-1.8
			c0-1.3,0.6-1.9,2-1.9c1.1,0,1.7,0.6,1.7,1.8C13.1,18.8,12.5,19.4,11.1,19.4z"/>
	</g>
	<path fill="#6B6B6B" stroke="#6B6B6B" stroke-width="0.3" stroke-miterlimit="10" d="M11.3,13.9c0,0-0.1,0-0.1,0
		c-1.3,0-1.7-0.6-1.1-1.8c0.3-0.6,0.8-1.1,1.3-1.5c0.6-0.5,1.2-0.9,1.8-1.3C13.6,9,13.9,8.6,13.8,8c-0.1-0.5-0.5-0.8-1-0.9
		c-1-0.3-1.9,0-2.6,0.8c-0.2,0.2-0.5,0.3-0.8,0.4c-0.3,0.1-0.6,0-0.9,0c-0.7,0-1-0.4-0.8-1.1C8,6.5,8.5,5.9,9.2,5.4
		c2.1-1.3,5.1-0.9,6.5,1c0.9,1.2,0.8,2.8-0.2,3.9c-0.4,0.4-0.9,0.7-1.3,1.1c-0.5,0.5-0.9,1-1.2,1.5C12.4,13.9,12.4,13.9,11.3,13.9z"
		/>
</g>
</svg>
