<?xml version="1.0" encoding="utf-8"?>
<!-- Generator: Adobe Illustrator 18.1.1, SVG Export Plug-In . SVG Version: 6.00 Build 0)  -->
<svg version="1.0" id="Seected" xmlns="http://www.w3.org/2000/svg" xmlns:xlink="http://www.w3.org/1999/xlink" x="0px" y="0px"
	 viewBox="0 0 24 24" enable-background="new 0 0 24 24" xml:space="preserve">
<g>
	<path fill="#6B6B6B" d="M6.5,7.7l5.5,0l5.4,0c0.4,0,0.4,0,0.4-0.4l0-0.7c0-0.3-0.1-0.4-0.4-0.4l-3.4,0l-7.3,0c-0.4,0-0.4,0-0.4,0.4
		v0.1c0,0.2,0,0.4,0,0.6C6.2,7.6,6.3,7.7,6.5,7.7z"/>
	<path fill="#6B6B6B" d="M17.4,11c0.4,0,0.4,0,0.4-0.4l0-0.7c0-0.3-0.1-0.4-0.4-0.4l-3.4,0l-7.3,0c-0.4,0-0.4,0-0.4,0.4v0.1
		c0,0.2,0,0.4,0,0.6C6.2,11,6.3,11,6.5,11l5.5,0v0L17.4,11z"/>
	<path fill="#6B6B6B" d="M17.4,14.4c0.4,0,0.4,0,0.4-0.4l0-0.7c0-0.3-0.1-0.4-0.4-0.4l-1.1,0l-9.6,0c-0.4,0-0.4,0-0.4,0.4v0.1
		c0,0.2,0,0.4,0,0.6c0,0.2,0.1,0.3,0.3,0.3l9.1,0L17.4,14.4z"/>
	<path fill="#6B6B6B" d="M6.5,17.8l5.5,0l5.4,0c0.4,0,0.4,0,0.4-0.4l0-0.7c0-0.3-0.1-0.4-0.4-0.4l-3.4,0l-7.3,0
		c-0.4,0-0.4,0-0.4,0.4v0.1c0,0.2,0,0.4,0,0.6C6.2,17.7,6.3,17.8,6.5,17.8z"/>
</g>
</svg>
