<?xml version="1.0" encoding="utf-8"?>
<!-- Generator: Adobe Illustrator 18.1.1, SVG Export Plug-In . SVG Version: 6.00 Build 0)  -->
<svg version="1.0" id="Seected" xmlns="http://www.w3.org/2000/svg" xmlns:xlink="http://www.w3.org/1999/xlink" x="0px" y="0px"
	 viewBox="0 0 24 24" enable-background="new 0 0 24 24" xml:space="preserve">
<g>
	<path fill="#6B6B6B" stroke="#6B6B6B" stroke-width="0.3" stroke-miterlimit="10" d="M6,11.1c-0.1,0.4-0.2,0.9-0.3,1.3
		c-0.4,1.6-0.8,3.1-1.2,4.7c0,0.1,0,0.2,0.1,0.3c0.9,0.5,1.7,1.1,2.6,1.6c0,0,0.1,0.1,0.2,0.1c0.1-0.7,0.2-1.4,0.3-2.2
		c0.1-0.9,0.3-1.8,0.4-2.7c0-0.2,0.2-0.3,0.3-0.3c0.2,0,0.3,0.2,0.2,0.4c-0.2,1.5-0.4,2.9-0.7,4.4c0,0.2-0.1,0.3-0.1,0.5
		c0.2-0.1,0.4-0.1,0.5-0.1c1-0.3,2-0.6,3-0.8c0.1,0,0.2-0.1,0.2-0.2c0-0.2,0-0.5,0-0.7c0-0.2,0.1-0.3,0.3-0.3c0.2,0,0.3,0.1,0.3,0.3
		c0,0.2,0,0.5,0,0.7c0,0.1,0.1,0.1,0.1,0.2c1.2,0.3,2.4,0.7,3.5,1c0,0,0.1,0,0.1,0c0-0.3-0.1-0.6-0.1-0.8c-0.2-1.4-0.4-2.7-0.7-4.1
		c0-0.2,0.1-0.3,0.2-0.3c0.1,0,0.3,0.1,0.3,0.2c0.1,0.5,0.1,0.9,0.2,1.4c0.2,1.2,0.4,2.3,0.5,3.5c0,0,0,0,0,0c0,0,0.1,0,0.1-0.1
		c0.9-0.6,1.8-1.1,2.7-1.7c0.1-0.1,0.1-0.1,0.1-0.3c-0.5-2-1-3.9-1.5-5.9c0-0.1,0-0.1,0-0.2c-0.2,0-0.4,0.1-0.5,0.1
		c-0.2,0-0.3-0.1-0.4-0.2c0-0.1,0.1-0.3,0.2-0.3c0.3-0.1,0.6-0.2,0.9-0.2c0.2,0,0.2,0,0.3,0.2c0.2,0.8,0.4,1.6,0.6,2.4
		c0.4,1.4,0.7,2.8,1.1,4.3c0.1,0.3,0.1,0.3-0.2,0.4c-1.1,0.7-2.2,1.3-3.3,2c-0.1,0.1-0.3,0.1-0.4,0.1c-1.3-0.4-2.7-0.7-4-1.1
		c-0.1,0-0.2,0-0.3,0c-1.4,0.4-2.7,0.7-4.1,1.1c-0.1,0-0.3,0-0.4-0.1c-1.1-0.7-2.2-1.4-3.4-2c-0.2-0.1-0.2-0.2-0.2-0.4
		c0.6-2.2,1.2-4.5,1.7-6.7c0.1-0.2,0.1-0.3,0.3-0.2c0.3,0.1,0.5,0.1,0.8,0.2c0.2,0,0.3,0.2,0.2,0.4c-0.1,0.2-0.2,0.2-0.4,0.2
		C6.4,11.2,6.3,11.2,6,11.1C6.1,11.2,6.1,11.2,6,11.1z"/>
	<path fill="#6B6B6B" stroke="#6B6B6B" stroke-width="0.3" stroke-miterlimit="10" d="M16,8c0,1.1-0.4,2-0.9,3
		c-0.8,1.4-1.8,2.5-3,3.6c-0.1,0.1-0.2,0.1-0.4,0c-1.4-1.3-2.6-2.7-3.4-4.4C8.1,9.4,7.9,8.7,8,7.9C8,6.4,8.7,5.3,10,4.6
		c1.9-1.1,4.3-0.5,5.5,1.3C15.8,6.6,16,7.3,16,8z M12,14c0.1,0,0.1-0.1,0.1-0.1c0.7-0.6,1.3-1.3,1.8-2c0.7-1,1.4-2.1,1.5-3.3
		c0.1-0.9,0-1.8-0.6-2.5c-0.8-1-1.8-1.5-3.1-1.4C10.6,4.7,9.7,5.2,9,6.2C8.4,7.1,8.4,8.1,8.6,9.1c0.2,0.8,0.5,1.5,1,2.1
		C10.3,12.3,11.1,13.2,12,14z"/>
	<path fill="#6B6B6B" stroke="#6B6B6B" stroke-width="0.3" stroke-miterlimit="10" d="M12,10.4c-1.2,0-2.2-1-2.2-2.2
		C9.8,7,10.8,6,12,6c1.2,0,2.2,1,2.2,2.2C14.2,9.4,13.2,10.4,12,10.4z M13.8,8.2c0-1-0.8-1.8-1.8-1.8c-1,0-1.8,0.8-1.8,1.8
		c0,1,0.8,1.8,1.8,1.8C13,10,13.8,9.2,13.8,8.2z"/>
</g>
</svg>
