<?xml version="1.0" encoding="utf-8"?>
<!-- Generator: Adobe Illustrator 18.1.1, SVG Export Plug-In . SVG Version: 6.00 Build 0)  -->
<svg version="1.0" id="Seected" xmlns="http://www.w3.org/2000/svg" xmlns:xlink="http://www.w3.org/1999/xlink" x="0px" y="0px"
	 viewBox="0 0 24 24" enable-background="new 0 0 24 24" xml:space="preserve">
<g>
	<g>
		<polygon fill="#6B6B6B" points="12,5.9 12,5.9 12,5.9 		"/>
		<path fill="#6B6B6B" d="M12,19.3c4,0,7.3-3.3,7.3-7.3c0-4-3.3-7.3-7.3-7.4l-0.1,0c-4,0-7.3,3.3-7.3,7.3c0,1.9,0.7,3.8,2.1,5.2
			C8.1,18.6,10,19.3,12,19.3l0,0.1h0V19.3z M7.6,16.4c-1.2-1.2-1.8-2.8-1.8-4.4c0-3.5,2.8-6.3,6.3-6.3h0c1.7,0,3.3,0.7,4.4,1.8
			c1.2,1.2,1.8,2.8,1.8,4.4c0,3.5-2.8,6.3-6.3,6.3h0C10.3,18.3,8.7,17.6,7.6,16.4z"/>
	</g>
	<path fill="#6B6B6B" d="M13.7,13c-0.3-0.3-0.7-0.7-1-1c-0.1-0.1-0.2-0.2-0.1-0.4c0-1,0-1.9,0-2.9c0-0.1,0-0.1,0-0.2
		c-0.1-0.2-0.3-0.3-0.5-0.3c-0.2,0-0.4,0.2-0.4,0.4c0,0.4,0,0.8,0,1.2l0,0.6h0v0.3c0,0.4,0,0.8,0,1.2c0,0.2,0.1,0.3,0.2,0.4
		c0.2,0.2,0.4,0.4,0.7,0.7l0.5,0.5c0.1,0.1,0.3,0.3,0.4,0.4c0.2,0.2,0.6,0.1,0.7-0.2c0.1-0.2,0-0.3-0.1-0.5L13.7,13z"/>
</g>
</svg>
