<?xml version="1.0" encoding="utf-8"?>
<!-- Generator: Adobe Illustrator 18.1.1, SVG Export Plug-In . SVG Version: 6.00 Build 0)  -->
<svg version="1.0" id="Seected" xmlns="http://www.w3.org/2000/svg" xmlns:xlink="http://www.w3.org/1999/xlink" x="0px" y="0px"
	 viewBox="0 0 24 24" enable-background="new 0 0 24 24" xml:space="preserve">
<g>
	<path fill="#6B6B6B" d="M15.8,16.1c-0.4,0-0.8,0-1.2,0c-0.2,0-0.3,0-0.5,0c-0.2,0-0.3-0.1-0.3-0.2c0-0.1,0.1-0.2,0.3-0.2
		c0.5,0,1,0,1.5,0c0.1,0,0.1,0,0.2,0c0,0,0-0.1,0-0.1c0-0.5,0-1,0-1.6c0-0.1,0-0.2,0.1-0.2c0.1,0,0.2,0,0.2,0
		c0.1,0.1,0.1,0.1,0.1,0.2c0,0.5,0,1,0,1.6c0,0,0,0.1,0,0.1c0,0,0.1,0,0.1,0c0.5,0,1,0,1.6,0c0.2,0,0.3,0.2,0.2,0.3
		c0,0.1-0.1,0.1-0.2,0.1c-0.5,0-1,0-1.5,0c0,0-0.1,0-0.1,0c0,0,0,0.1,0,0.1c0,0.5,0,1,0,1.6c0,0.2-0.1,0.3-0.3,0.3
		c-0.1,0-0.2-0.1-0.2-0.3C15.8,17.2,15.8,16.7,15.8,16.1C15.8,16.1,15.8,16.1,15.8,16.1z"/>
	<path fill="#6B6B6B" d="M20.4,14.8c-0.4-2-2.3-3.5-4.4-3.5c-0.4,0-0.8,0.1-1.1,0.1c-0.7,0.2-1.2,0.5-1.7,0.9
		c-0.3-0.1-0.6-0.1-0.8-0.1c-0.1-0.1-0.1-0.1-0.1-0.1c-0.1-0.3-0.1-0.6-0.1-0.9c0,0,0,0,0,0c0.4-0.4,0.7-1,0.8-1.6
		c0-0.1,0.1-0.3,0.1-0.4c0-0.2,0.1-0.4,0.1-0.5c0.1-0.4,0.1-0.7,0.1-1.1l0-0.1c0-0.1,0-0.3-0.1-0.4l0-0.2c0-0.2,0-0.3-0.1-0.5
		c-0.1-0.6-0.2-1-0.4-1.4c-0.3-0.6-0.8-1-1.3-1.1c-0.8-0.1-1.5-0.1-2.1,0c-1,0.2-1.7,0.7-2,1.6C7.1,5.7,7,6.2,7,6.7c0,0,0,0.1,0,0.1
		c0,0,0,0,0,0.1C6.8,7.1,6.8,7.3,6.8,7.4l0,0.1c0,0.4,0,0.8,0.2,1.2C7,8.8,7.1,8.9,7.1,9c0.1,0.8,0.4,1.4,0.8,1.9
		C8,11.1,8.1,11.2,8,11.4L8,11.6c0,0.2-0.1,0.3-0.1,0.5c0,0,0,0.1,0,0.1c-0.6,0-1.2,0.2-2,0.4C5.3,12.8,4.6,13,4,13.5
		c-0.4,0.3-0.6,0.7-0.6,1.1c0,0.1,0,0.2,0,0.3c0,0.3,0,0.5,0.1,0.8c0.1,0.3,0.3,0.5,0.6,0.5l0.1,0c0.1,0,0.2,0,0.3,0.1
		c0.9,0.2,1.8,0.2,2.6,0.3c0.7,0,1.4,0,2,0.1l0.9,0h0c0.5,0,1.1,0,1.6,0c0.1,0.9,0.5,1.6,1.1,2.3c0.9,1,2,1.5,3.3,1.5
		c0.2,0,0.4,0,0.7,0c0.8-0.1,1.6-0.4,2.2-1C20.3,18.1,20.8,16.6,20.4,14.8z M16.1,12.2c1,0,1.9,0.4,2.6,1.1s1,1.6,1,2.6
		c0,2-1.6,3.6-3.6,3.6c-1,0-1.9-0.4-2.5-1.1c-0.7-0.7-1.1-1.6-1-2.6C12.5,13.8,14.1,12.2,16.1,12.2z M9.2,15.7c-0.7,0-1.4,0-2.2-0.1
		c-0.8,0-1.6-0.1-2.3-0.2c-0.3-0.1-0.3-0.1-0.3-0.4c0-0.1,0-0.2,0-0.3c0-0.1,0-0.3,0-0.4c0-0.1,0-0.1,0.1-0.2l0.1-0.1
		C4.7,14,5,13.8,5.2,13.7c0.7-0.3,1.5-0.5,2.3-0.6c0.1,0,0.2,0,0.3,0c0.3,0,0.5-0.1,0.7-0.4c0.2-0.3,0.3-0.7,0.4-1.1
		c0-0.2,0-0.4,0.1-0.6c0-0.1-0.1-0.3-0.1-0.4C8.3,10.1,8,9.5,7.9,8.7c0-0.1,0-0.2-0.1-0.3C7.7,8.2,7.7,7.9,7.7,7.6l0-0.1
		C7.9,7.2,7.9,7,7.9,6.8c0-0.1,0-0.2,0-0.3C8,6.2,8,5.8,8.2,5.5C8.4,5,8.8,4.7,9.4,4.6c0.6-0.1,1.2-0.1,1.9,0c0.3,0,0.5,0.2,0.6,0.5
		c0.2,0.3,0.3,0.6,0.3,1c0,0.2,0,0.4,0.1,0.6c0,0.1,0,0.3,0,0.4c0,0.1,0,0.2,0.1,0.3c0,0,0,0,0,0.1c0,0.1,0,0.2,0,0.2
		c0,0.2,0,0.3-0.1,0.4c-0.1,0.2-0.1,0.5-0.2,0.7c0,0.1,0,0.3-0.1,0.4c-0.1,0.5-0.4,0.9-0.7,1.3c-0.1,0.1-0.2,0.3-0.2,0.5
		c0,0.5,0.1,1,0.3,1.4c0.1,0.1,0.2,0.5,0.7,0.6c0.1,0,0.1,0,0.2,0c-0.6,0.7-0.9,1.7-0.9,2.6c-0.5,0-1,0-1.5,0L9.2,15.7z"/>
</g>
</svg>
