<?xml version="1.0" encoding="utf-8"?>
<!-- Generator: Adobe Illustrator 18.1.1, SVG Export Plug-In . SVG Version: 6.00 Build 0)  -->
<svg version="1.0" id="Seected" xmlns="http://www.w3.org/2000/svg" xmlns:xlink="http://www.w3.org/1999/xlink" x="0px" y="0px"
	 viewBox="0 0 24 24" enable-background="new 0 0 24 24" xml:space="preserve">
<g>
	<g>
		<g>
			<g>
				<path fill="#6B6B6B" d="M2.7,9.6C2.7,9.3,2.8,9.1,3,8.9c0.8-1,1.8-1.7,3-2.1c0.5-0.2,0.9-0.1,1.3,0.2C7.4,7,7.4,7.1,7.5,7.2
					c0.4,1.1,0.7,2.2,1.1,3.3c0.1,0.3,0.1,0.6-0.1,0.9c-0.1,0.2-0.2,0.3-0.3,0.4c-0.3,0.2-0.6,0.4-1,0.6c-0.3,0.2-0.4,0.4-0.2,0.7
					c0.1,0.1,0.1,0.3,0.2,0.4c0.9,1.3,2,2.4,3.3,3.3c0.2,0.1,0.4,0.2,0.6,0.2c0.2,0,0.3,0,0.4-0.2c0.2-0.3,0.4-0.6,0.6-0.9
					c0.2-0.3,0.7-0.6,1.1-0.5c1.2,0.3,2.3,0.6,3.4,1.1c0.5,0.2,0.8,0.9,0.6,1.5c-0.5,1.3-1.3,2.4-2.4,3.3c0,0-0.1,0.1-0.2,0.1
					c-1.4,0-2.8-0.2-4.1-0.8c-3.7-1.6-6.2-4.3-7.4-8.1C3,11.9,3,11.5,2.9,11.1C2.8,10.6,2.8,10.1,2.7,9.6z M14.3,20.6
					c0.1,0,0.3,0,0.4-0.1c0.9-0.8,1.6-1.7,2-2.8c0.1-0.2,0-0.5-0.2-0.6c-1-0.5-2.1-0.8-3.3-1c-0.3-0.1-0.5,0-0.6,0.3
					c-0.2,0.3-0.4,0.5-0.5,0.8c-0.2,0.4-0.6,0.5-1,0.5c-0.3,0-0.6-0.1-0.9-0.3c-1.4-1-2.6-2.2-3.6-3.6c-0.1-0.2-0.2-0.3-0.3-0.5
					c-0.2-0.6,0-1,0.5-1.4c0.3-0.2,0.5-0.3,0.8-0.5C8,11.2,8.1,11,8,10.7c-0.3-1-0.7-2-1-3.1C6.9,7.3,6.6,7.1,6.2,7.3
					c-1.1,0.4-1.9,1.1-2.7,2C3.4,9.4,3.4,9.5,3.4,9.7c0,0.9,0.2,1.7,0.4,2.5c0.8,2.7,2.5,4.8,4.7,6.4C10.2,19.8,12.1,20.5,14.3,20.6
					z"/>
			</g>
		</g>
	</g>
	<g>
		<path fill="#6B6B6B" d="M16,2.7c-2.9,0-5.3,2.4-5.3,5.3c0,1.4,0.6,2.7,1.6,3.7c1,1,2.3,1.6,3.7,1.6h0c2.9,0,5.3-2.4,5.3-5.3
			C21.3,5.2,18.9,2.7,16,2.7z M12.8,4.8c0.8-0.8,2-1.3,3.2-1.3V3.5h0l0,0.1c2.5,0,4.5,2,4.5,4.5c0,2.5-2,4.5-4.5,4.5
			c-2.5,0-4.5-2-4.5-4.5C11.5,6.8,11.9,5.7,12.8,4.8z M16,13.3L16,13.3L16,13.3L16,13.3z"/>
		<path fill="#6B6B6B" d="M13.7,8.5c0.3,0,0.5,0,0.8,0l1.1,0l0,0.6c0,0.4,0,0.9,0,1.3c0,0.2,0.2,0.4,0.4,0.4c0,0,0,0,0.1,0
			c0.2,0,0.3-0.2,0.3-0.4c0-0.4,0-0.9,0-1.3l0-0.6l1.1,0c0.3,0,0.5,0,0.8,0c0.1,0,0.2,0,0.3-0.1c0.1-0.1,0.1-0.2,0.1-0.3
			c0-0.2-0.2-0.4-0.4-0.4c-0.1,0-0.2,0-0.3,0l-1.7,0l0-0.9c0-0.3,0-0.7,0-1c0-0.3-0.2-0.4-0.4-0.4c-0.2,0-0.4,0.2-0.4,0.4
			c0,0.5,0,0.9,0,1.4l0,0.6l-0.6,0l-1.3,0c-0.2,0-0.3,0.1-0.4,0.2c-0.1,0.1-0.1,0.3,0,0.4C13.4,8.4,13.5,8.5,13.7,8.5z"/>
	</g>
</g>
</svg>
