<?xml version="1.0" encoding="utf-8"?>
<!-- Generator: Adobe Illustrator 18.1.1, SVG Export Plug-In . SVG Version: 6.00 Build 0)  -->
<svg version="1.0" id="Seected" xmlns="http://www.w3.org/2000/svg" xmlns:xlink="http://www.w3.org/1999/xlink" x="0px" y="0px"
	 viewBox="0 0 24 24" enable-background="new 0 0 24 24" xml:space="preserve">
<g>
	<path fill="#6B6B6B" d="M12.3,18.2l6.3-5.3c0.2-0.1,0.6-0.4,0.6-0.9c0-0.5-0.4-0.8-0.6-0.9l-6.3-5.3c-0.1,0-0.1-0.1-0.2-0.1l-0.1,0
		v1.1l6,5.2l-6,5.2v1.1l0.1,0C12.2,18.3,12.2,18.3,12.3,18.2z"/>
	<path fill="#6B6B6B" d="M5.1,18.2l6.3-5.3c0.2-0.1,0.6-0.4,0.6-0.9c0-0.5-0.4-0.8-0.6-0.9L5.1,5.8C5,5.8,5,5.7,4.9,5.7l-0.1,0v1.1
		l6,5.2l-6,5.2v1.1l0.1,0C4.9,18.3,5,18.3,5.1,18.2z"/>
</g>
</svg>
