<?xml version="1.0" encoding="utf-8"?>
<!-- Generator: Adobe Illustrator 18.1.1, SVG Export Plug-In . SVG Version: 6.00 Build 0)  -->
<svg version="1.0" id="Seected" xmlns="http://www.w3.org/2000/svg" xmlns:xlink="http://www.w3.org/1999/xlink" x="0px" y="0px"
	 viewBox="0 0 24 24" enable-background="new 0 0 24 24" xml:space="preserve">
<g>
	<path fill="#6B6B6B" d="M13.8,12.3c-1.5,0-3.1,0-4.6,0c-0.1,0-0.2,0-0.3,0c-0.1-0.1-0.3-0.2-0.3-0.3c0-0.2,0.1-0.3,0.3-0.4
		c0.1,0,0.2,0,0.2,0c3.1,0,6.1,0,9.2,0c0.5,0,0.6,0.1,0.6,0.3c0,0.3-0.1,0.4-0.6,0.4C16.8,12.3,15.3,12.3,13.8,12.3L13.8,12.3z"/>
	<path fill="#6B6B6B" d="M13.8,7.7c-1.5,0-3,0-4.6,0c-0.1,0-0.3,0-0.3,0C8.8,7.6,8.7,7.5,8.6,7.4c0-0.1,0.1-0.2,0.3-0.3
		C9,7,9.1,7,9.2,7c3.1,0,6.2,0,9.3,0c0.1,0,0.3,0,0.4,0.1C18.9,7.2,19,7.4,19,7.5c0,0.1-0.2,0.2-0.3,0.2c-0.2,0-0.5,0-0.7,0
		C16.6,7.7,15.2,7.7,13.8,7.7z"/>
	<path fill="#6B6B6B" d="M13.8,17c-1.5,0-3.1,0-4.6,0c0,0-0.1,0-0.1,0c-0.2,0-0.4-0.1-0.4-0.4c0-0.3,0.2-0.3,0.4-0.3
		c0.5,0,1,0,1.5,0c2.6,0,5.2,0,7.8,0c0.1,0,0.3,0,0.4,0c0.1,0.1,0.3,0.2,0.3,0.3c0,0.1-0.1,0.2-0.3,0.3c-0.1,0-0.2,0-0.3,0
		C16.9,17,15.3,17,13.8,17z"/>
	<path fill="#6B6B6B" d="M6.4,9H5.8V6.4L5,6.6V6.2l1.3-0.5h0.1V9z"/>
	<path fill="#6B6B6B" d="M7.2,13.6H5.1v-0.4l1-1.1c0.1-0.1,0.2-0.2,0.2-0.3s0.1-0.1,0.1-0.2c0-0.1,0.1-0.1,0.1-0.2
		c0-0.1,0-0.1,0-0.2c0-0.1,0-0.1,0-0.2C6.5,11,6.5,11,6.4,11s-0.1-0.1-0.1-0.1c-0.1,0-0.1,0-0.2,0c-0.1,0-0.2,0-0.2,0
		c-0.1,0-0.1,0.1-0.2,0.1c0,0.1-0.1,0.1-0.1,0.2c0,0.1,0,0.2,0,0.2H5c0-0.1,0-0.3,0.1-0.4c0-0.1,0.1-0.2,0.2-0.3
		c0.1-0.1,0.2-0.2,0.3-0.2c0.1-0.1,0.3-0.1,0.5-0.1c0.2,0,0.3,0,0.4,0.1c0.1,0,0.2,0.1,0.3,0.2C6.9,10.7,7,10.8,7,10.9
		c0,0.1,0.1,0.2,0.1,0.4c0,0.1,0,0.2,0,0.3S7,11.7,6.9,11.8c-0.1,0.1-0.1,0.2-0.2,0.3c-0.1,0.1-0.2,0.2-0.3,0.3l-0.7,0.8h1.5V13.6z"
		/>
	<path fill="#6B6B6B" d="M5.7,16.4H6c0.1,0,0.2,0,0.2,0c0.1,0,0.1-0.1,0.2-0.1s0.1-0.1,0.1-0.2c0-0.1,0-0.1,0-0.2
		c0-0.2,0-0.3-0.1-0.4c-0.1-0.1-0.2-0.1-0.4-0.1c-0.1,0-0.1,0-0.2,0c-0.1,0-0.1,0.1-0.2,0.1c0,0-0.1,0.1-0.1,0.1c0,0.1,0,0.1,0,0.2
		H5c0-0.1,0-0.2,0.1-0.4s0.1-0.2,0.2-0.3C5.4,15.1,5.5,15,5.7,15c0.1,0,0.3-0.1,0.4-0.1c0.2,0,0.3,0,0.4,0.1c0.1,0,0.2,0.1,0.3,0.2
		c0.1,0.1,0.2,0.2,0.2,0.3s0.1,0.3,0.1,0.4c0,0.1,0,0.1,0,0.2S7.1,16.2,7,16.3c0,0.1-0.1,0.1-0.2,0.2c-0.1,0.1-0.1,0.1-0.2,0.1
		c0.1,0,0.2,0.1,0.3,0.1C7,16.8,7,16.8,7.1,16.9c0,0.1,0.1,0.1,0.1,0.2c0,0.1,0,0.2,0,0.2c0,0.2,0,0.3-0.1,0.4S7,18,6.9,18
		s-0.2,0.1-0.3,0.2s-0.3,0.1-0.4,0.1c-0.1,0-0.3,0-0.4-0.1c-0.1,0-0.2-0.1-0.3-0.2s-0.2-0.2-0.2-0.3S5,17.5,5,17.4h0.5
		c0,0.1,0,0.1,0,0.2c0,0.1,0.1,0.1,0.1,0.2s0.1,0.1,0.2,0.1c0.1,0,0.1,0,0.2,0c0.2,0,0.3,0,0.4-0.1c0.1-0.1,0.1-0.2,0.1-0.4
		c0-0.1,0-0.2,0-0.2c0-0.1-0.1-0.1-0.1-0.2s-0.1-0.1-0.2-0.1c-0.1,0-0.2,0-0.3,0H5.7V16.4z"/>
</g>
</svg>
