<?xml version="1.0" encoding="utf-8"?>
<!-- Generator: Adobe Illustrator 18.1.1, SVG Export Plug-In . SVG Version: 6.00 Build 0)  -->
<svg version="1.0" id="Seected" xmlns="http://www.w3.org/2000/svg" xmlns:xlink="http://www.w3.org/1999/xlink" x="0px" y="0px"
	 viewBox="0 0 120 120" enable-background="new 0 0 120 120" xml:space="preserve">
<path fill="#6B6B6B" d="M80.1,24.4c-4.6-3-10.1-4.6-16-4.6c-8.9,0-17.4,3.7-23,10c-10.4,11.7-9.3,30.8,2.3,41.8L29.8,90.7
	c-0.8,1.2-1.7,2.4-2.5,3.5c-1.3,1.8-1,4,0.7,5.2c0.6,0.5,1.4,0.7,2.1,0.7c1.2,0,2.4-0.6,3.1-1.7c5.1-7.2,10.2-14.3,15.4-21.5
	c0.3-0.4,0.5-0.7,0.7-1.1c0,0,0.1-0.1,0.1-0.1c8.7,4.3,17.7,4.6,26.6,0.9c6.6-2.8,11.5-7.4,14.6-13.8C97.1,49.4,92.5,32.5,80.1,24.4
	z M82.3,62.5c-3.6,5.1-8.9,8.5-14.6,9.5c-1.2,0.2-2.4,0.3-3.6,0.3h0c-11,0-21-8.4-22.9-19.1c-1-5.7,0.5-11.8,4.1-16.9
	c3.6-5,8.9-8.5,14.7-9.5c1.2-0.2,2.4-0.3,3.5-0.3c11,0,21,8.4,22.9,19C87.3,51.3,85.9,57.5,82.3,62.5z"/>
</svg>
