<?xml version="1.0" encoding="utf-8"?>
<!-- Generator: Adobe Illustrator 18.1.1, SVG Export Plug-In . SVG Version: 6.00 Build 0)  -->
<svg version="1.1" id="Seected" xmlns="http://www.w3.org/2000/svg" xmlns:xlink="http://www.w3.org/1999/xlink" x="0px" y="0px"
	 viewBox="0 0 24 24" enable-background="new 0 0 24 24" xml:space="preserve">
<g>
	<g>
		<g>
			<g>
				<g>
					<path fill="#6B6B6B" d="M0.9,20L0.9,20C0.4,20,0,19.6,0,19.2v-5.3C0,13.4,0.4,13,0.9,13l12.7,0l-0.2,0.6
						c-0.2,0.6-0.3,1.2-0.3,1.8c0,1.4,0.4,2.7,1.2,3.9l0.5,0.7L0.9,20z M12.4,13.9L0.9,14l0.1,5.2l12.2,0c-0.6-1.1-0.9-2.4-0.9-3.7
						C12.2,15,12.3,14.5,12.4,13.9z"/>
				</g>
				<g>
					<path fill="#6B6B6B" d="M0.9,11L0.9,11C0.4,11,0,10.6,0,10.1V4.9C0,4.4,0.4,4,0.9,4l20,0c0.5,0,0.9,0.4,0.9,0.9v3.8l-0.5-0.1
						c-0.4-0.1-0.8-0.1-1.1-0.1c-2,0-3.9,0.9-5.2,2.3L14.8,11L0.9,11z M20.8,4.8L0.9,4.9l0.1,5.2l13.4,0c1.5-1.6,3.6-2.5,5.8-2.5
						c0.2,0,0.5,0,0.7,0V4.8z"/>
				</g>
				<g>
					<path fill="#6B6B6B" d="M23.4,16h-2.8v2.8c0,0.3-0.2,0.6-0.6,0.6c-0.3,0-0.6-0.3-0.6-0.6V16h-2.8c-0.3,0-0.6-0.3-0.6-0.6
						c0-0.3,0.3-0.6,0.6-0.6h2.8v-2.8c0-0.3,0.2-0.6,0.6-0.6c0.3,0,0.6,0.2,0.6,0.6v2.8h2.8c0.3,0,0.6,0.2,0.6,0.6
						C24,15.8,23.8,16,23.4,16z"/>
				</g>
			</g>
		</g>
	</g>
</g>
</svg>
