<?xml version="1.0" encoding="utf-8"?>
<!-- Generator: Adobe Illustrator 18.1.1, SVG Export Plug-In . SVG Version: 6.00 Build 0)  -->
<svg version="1.0" id="Seected" xmlns="http://www.w3.org/2000/svg" xmlns:xlink="http://www.w3.org/1999/xlink" x="0px" y="0px"
	 viewBox="0 0 24 24" enable-background="new 0 0 24 24" xml:space="preserve">
<g>
	<path fill="#6B6B6B" d="M18.6,6.5c0,0.5,0,1.1,0,1.6l0,0.7l0,1.1c0,0.3,0.2,0.6,0.5,0.6c0.3,0,0.5-0.2,0.5-0.6V9c0-0.8,0-1.6,0-2.5
		c0-0.2,0-0.3,0-0.5c-0.2-0.8-0.7-1.3-1.4-1.3l-7,0c-2.3,0-4.7,0-7,0C3.4,4.8,3,5.1,2.7,5.7C2.7,5.9,2.6,6.2,2.6,6.5
		c0,2.7,0,5.4,0,8.1c0,0.4,0.1,0.8,0.3,1.1c0.3,0.4,0.6,0.6,1,0.6c1,0,2,0,2.9,0l2.9,0c0.3,0,0.5-0.2,0.5-0.5c0-0.3-0.2-0.5-0.6-0.5
		H4.1c-0.4,0-0.5-0.1-0.6-0.5c0-0.1,0-0.1,0-0.2V13c0-2.2,0-4.3,0-6.5c0,0,0,0,0-0.1l7.3,5.7c0.3,0.2,0.5,0.2,0.8,0L18.6,6.5
		C18.6,6.5,18.6,6.5,18.6,6.5z M17.8,5.8l-1.1,0.9c-1.8,1.5-3.6,2.9-5.4,4.4c0,0,0,0,0,0c0,0,0,0,0,0C9.3,9.7,7.5,8.2,5.6,6.8
		l-1.2-1H17.8z M9.8,15.5L9.8,15.5L9.8,15.5L9.8,15.5z"/>
	<path fill="#6B6B6B" d="M16.6,11.6c-2.6,0-4.8,2.2-4.8,4.8c0,1.3,0.5,2.5,1.4,3.4s2.1,1.4,3.4,1.4h0c2.6,0,4.8-2.2,4.8-4.8
		C21.5,13.8,19.3,11.6,16.6,11.6z M16.6,12.6l0-0.2l0,0L16.6,12.6c2.2,0,3.8,1.6,3.8,3.8c0,1-0.4,2-1.1,2.7
		c-0.7,0.7-1.7,1.1-2.7,1.1c-2.2,0-3.8-1.6-3.8-3.8C12.8,14.3,14.5,12.6,16.6,12.6z M16.6,21L16.6,21L16.6,21L16.6,21z"/>
	<path fill="#6B6B6B" d="M14.6,16.9h1.5l0,1.6c0,0.3,0.2,0.5,0.5,0.6h0c0.3,0,0.5-0.2,0.5-0.6c0-0.3,0-0.7,0-1v-0.6h1.6
		c0.2,0,0.3-0.1,0.4-0.2c0.1-0.1,0.1-0.2,0.1-0.3c0-0.3-0.2-0.5-0.6-0.5h-1.6l0-1.6c0-0.4-0.3-0.6-0.5-0.6c-0.2,0-0.5,0.2-0.5,0.6
		v1.6l-1.5,0c-0.2,0-0.4,0.1-0.4,0.2C14,16.1,14,16.3,14,16.4C14,16.7,14.2,16.9,14.6,16.9z M16.6,18.9L16.6,18.9L16.6,18.9
		L16.6,18.9z"/>
</g>
</svg>
