<?xml version="1.0" encoding="utf-8"?>
<!-- Generator: Adobe Illustrator 18.1.1, SVG Export Plug-In . SVG Version: 6.00 Build 0)  -->
<svg version="1.0" id="Seected" xmlns="http://www.w3.org/2000/svg" xmlns:xlink="http://www.w3.org/1999/xlink" x="0px" y="0px"
	 viewBox="0 0 120 120" enable-background="new 0 0 120 120" xml:space="preserve">
<g>
	<g>
		<g>
			<path fill="#6B6B6B" d="M19.7,100.3c-0.5,0-1-0.2-1.3-0.6c-0.4-0.4-0.6-0.9-0.6-1.5L19,79c0-0.5,0.2-0.9,0.6-1.2L77,20.3
				c0.4-0.4,0.8-0.6,1.3-0.6l0,0c0.5,0,1,0.2,1.3,0.6l18.1,18.1c0.4,0.4,0.6,0.8,0.6,1.3s-0.2,1-0.6,1.3L40.3,98.6
				c-0.3,0.3-0.8,0.5-1.2,0.6l-19.3,1.1C19.8,100.3,19.8,100.3,19.7,100.3L19.7,100.3z M22.7,79.9l-1,16.4l16.4-1l55.6-55.6
				L78.4,24.3L22.7,79.9L22.7,79.9z"/>
		</g>
		<g>
			<path fill="#6B6B6B" d="M86.3,50.1c-0.5,0-1-0.2-1.3-0.6L68.6,33.2c-0.7-0.7-0.7-1.9,0-2.7c0.7-0.7,1.9-0.7,2.7,0l16.3,16.3
				c0.7,0.7,0.7,1.9,0,2.7C87.2,49.9,86.8,50.1,86.3,50.1L86.3,50.1z"/>
		</g>
		<g>
			<path fill="#6B6B6B" d="M32.9,87.1c-0.5,0-1-0.2-1.3-0.6c-0.7-0.7-0.7-1.9,0-2.7L76.5,39c0.7-0.7,1.9-0.7,2.7,0
				c0.7,0.7,0.7,1.9,0,2.7L34.3,86.5C33.9,86.9,33.4,87.1,32.9,87.1L32.9,87.1z"/>
		</g>
		<path fill="#6B6B6B" d="M21.9,88.9c-0.3,0-0.5,0-0.8,0c-0.3,0-0.5,0.1-0.7,0.1l-0.6,9.4l9-0.5c0.1-0.3,0.2-0.7,0.2-1
			C29.4,92.4,26.3,88.9,21.9,88.9L21.9,88.9z"/>
	</g>
	<g>
		<path fill="#6B6B6B" d="M100.3,99.7H57.9c-1,0-1.9-0.8-1.9-1.9c0-1,0.8-1.9,1.9-1.9h42.4c1,0,1.9,0.8,1.9,1.9
			C102.2,98.8,101.3,99.7,100.3,99.7L100.3,99.7z"/>
	</g>
</g>
</svg>
