<?xml version="1.0" encoding="utf-8"?>
<!-- Generator: Adobe Illustrator 18.1.1, SVG Export Plug-In . SVG Version: 6.00 Build 0)  -->
<svg version="1.1" id="Seected" xmlns="http://www.w3.org/2000/svg" xmlns:xlink="http://www.w3.org/1999/xlink" x="0px" y="0px"
	 viewBox="0 0 24 24" enable-background="new 0 0 24 24" xml:space="preserve">
<g>
	<g>
		<path fill="#3497DB" d="M1,10.6c3.4,1.3,6.8,2.5,10.2,3.8c0.2,0.1,0.5,0.1,0.7,0.1c0.2,0,0.5,0,0.7-0.1c3.4-1.3,6.8-2.5,10.2-3.8
			c0.5-0.2,0.8-0.5,0.8-0.9c0-0.4-0.3-0.7-0.8-0.9C19.4,7.5,16,6.3,12.6,5c-0.5-0.2-1-0.2-1.5,0C9.7,5.6,8.3,6.1,6.8,6.6L1,8.8
			C0.4,9,0.3,9.4,0.3,9.7C0.3,9.9,0.4,10.3,1,10.6z M1.3,9.7l5.8-2.2C8.6,7,10,6.4,11.5,5.9c0.3-0.1,0.5-0.1,0.8,0
			c3.4,1.3,6.8,2.5,10.2,3.7c0,0,0,0,0.1,0c0,0,0,0-0.1,0c-3.4,1.2-6.8,2.5-10.2,3.8c-0.3,0.1-0.5,0.1-0.8,0
			C8.1,12.2,4.7,10.9,1.3,9.7C1.3,9.7,1.3,9.7,1.3,9.7C1.3,9.7,1.3,9.7,1.3,9.7z"/>
		<path fill="#3497DB" d="M0.3,12.4c1.2,0.4,3.2,1.2,5.1,2c1.9,0.8,3.9,1.6,5.1,2c0.5,0.2,1,0.3,1.4,0.3c0.5,0,0.9-0.1,1.4-0.3
			c1.1-0.4,3-1.2,5-2c2.1-0.8,4.2-1.7,5.4-2.1c0.2-0.1,0.4-0.4,0.3-0.6c-0.1-0.2-0.4-0.4-0.6-0.3c-1.2,0.5-3.4,1.3-5.4,2.2
			c-2,0.8-3.8,1.5-5,2c-0.7,0.3-1.4,0.3-2.2,0c-1.2-0.4-3.2-1.2-5.1-2c-1.9-0.8-3.9-1.6-5.1-2c-0.2-0.1-0.5,0-0.6,0.3
			C-0.1,12.1,0.1,12.4,0.3,12.4z"/>
		<path fill="#3497DB" d="M23.4,13.9C22.1,14.3,20,15.2,18,16c-2,0.8-3.8,1.6-5,2c-0.7,0.3-1.4,0.3-2.2,0c-1.2-0.4-3.2-1.2-5.1-2
			c-1.9-0.8-3.9-1.6-5.1-2c-0.2-0.1-0.5,0-0.6,0.3c-0.1,0.2,0,0.5,0.3,0.6c1.2,0.4,3.2,1.2,5.1,2c1.9,0.8,3.9,1.6,5.1,2
			c0.5,0.2,1,0.3,1.4,0.3c0.5,0,0.9-0.1,1.4-0.3c1.1-0.4,3-1.2,5-2c2-0.8,4.2-1.7,5.4-2.1c0.2-0.1,0.4-0.4,0.3-0.6
			C23.9,13.9,23.6,13.8,23.4,13.9z"/>
	</g>
</g>
</svg>
