<?xml version="1.0" encoding="utf-8"?>
<!-- Generator: Adobe Illustrator 18.1.1, SVG Export Plug-In . SVG Version: 6.00 Build 0)  -->
<svg version="1.1" id="Layer_1" xmlns="http://www.w3.org/2000/svg" xmlns:xlink="http://www.w3.org/1999/xlink" x="0px" y="0px"
	 viewBox="0 0 64 67" enable-background="new 0 0 64 67" xml:space="preserve">
<g>
	<g>
			<rect x="1" y="0" fill="#FFFFFF" width="62" height="64"/>
	</g>
	<text transform="matrix(1 0 0 1 9.7673 52.6736)" fill="#333333" font-family="'Helvetica'" font-size="8">INDIVIDUAL</text>
	<g>
		<g>
			<path fill="#69B2E2" d="M31.8,33.7c5,0,9.5-1.4,10.9-2.7c0-0.1,0-0.2,0-0.3c-0.2-1.5-0.4-2.9-0.8-4.3c-0.4-1.2-1.1-2-2.3-2.5
				c-1-0.4-2-0.7-3-1c0,0-0.1,0-0.1,0c-0.4,1.4-0.8,2.8-1.2,4.1c-0.4,1.4-0.9,2.7-1.5,4c-0.2-1.3-0.4-2.6-0.6-3.9
				c-0.1-0.8-0.3-1.5,0-2.2c0.1-0.3,0-0.5-0.2-0.7c-0.5-0.4-1-0.5-1.5,0c-0.3,0.2-0.4,0.4-0.3,0.7c0.1,0.4,0.2,0.7,0.2,1.1
				c-0.1,1.2-0.4,2.4-0.5,3.6c-0.1,0.5-0.2,0.9-0.2,1.4c-0.7-1.3-1.2-2.6-1.6-4c-0.4-1.4-0.8-2.8-1.2-4.2c-0.2,0.1-0.5,0.1-0.7,0.2
				c-0.9,0.3-1.8,0.6-2.7,0.9c-0.9,0.4-1.6,1.1-1.9,2.1c-0.1,0.4-0.2,0.7-0.3,1.1c-0.3,1.3-0.5,2.6-0.6,3.9
				C22.6,32.3,26.8,33.7,31.8,33.7z"/>
		</g>
		<path fill="#69B2E2" d="M37.1,14.7c0.2,0.1,0.5,0.2,0.6,0.4c0.2,0.4,0.2,0.9-0.1,1.3c-0.3,0.4-0.6,0.8-1.1,0.9
			c-0.1,0-0.2,0.2-0.2,0.3c-0.4,0.9-0.8,1.7-1.5,2.5c-0.2,0.2-0.4,0.4-0.6,0.6c-1.5,1.2-3.1,1.2-4.5-0.1c-0.9-0.8-1.5-1.9-2-3
			c-0.1-0.2-0.2-0.3-0.4-0.3c-0.8-0.2-1.3-1.3-1.1-2.1c0.1-0.4,0.4-0.3,0.6-0.3c-0.1-0.6-0.2-1.2-0.2-1.8c-0.1-1.4,0.2-2.6,1.4-3.4
			c0.7-0.5,1.3-1.1,2.1-1.4c1.8-0.6,3.4-0.4,4.9,0.7c0.5,0.3,0.9,0.7,1.3,1.1c0.6,0.5,0.9,1.3,1,2.1c0.1,0.9,0,1.7-0.2,2.5
			C37.1,14.7,37.1,14.7,37.1,14.7z"/>
	</g>
</g>
</svg>
