<?xml version="1.0" encoding="utf-8"?>
<!-- Generator: Adobe Illustrator 18.1.1, SVG Export Plug-In . SVG Version: 6.00 Build 0)  -->
<svg version="1.1" id="Layer_1" xmlns="http://www.w3.org/2000/svg" xmlns:xlink="http://www.w3.org/1999/xlink" x="0px" y="0px"
	 viewBox="0 0 67 40" enable-background="new 0 0 67 40" xml:space="preserve">
<g>
	<rect x="0" y="0" fill="#F1F1F2" width="67.4" height="40"/>
	<rect x="-0.7" y="39" fill="#4B5354" width="68.4" height="1"/>
	<g>
		<g>
			<path fill="#3497DB" d="M33,20.3l-13.1,0c-0.2,0-0.4,0.2-0.4,0.4v5.7c0,0.2,0.2,0.4,0.4,0.4l14.1,0c-0.9-1.3-1.3-2.8-1.3-4.5
				C32.7,21.6,32.8,20.9,33,20.3z M23.6,25.5h-2v-4h2V25.5z"/>
			<path fill="#3497DB" d="M19.9,17l14.8,0c1.5-1.7,3.6-2.7,6-2.7c0.4,0,0.9,0,1.3,0.1v-3.5c0-0.2-0.2-0.4-0.4-0.4l-21.7,0
				c-0.2,0-0.4,0.2-0.4,0.4v5.7C19.5,16.8,19.7,17,19.9,17z M21.6,11.7h2v4h-2V11.7z"/>
			<path fill="#3497DB" d="M40.8,15.2c-4,0-7.2,3.2-7.2,7.2c0,4,3.2,7.2,7.2,7.2s7.2-3.2,7.2-7.2C48,18.4,44.7,15.2,40.8,15.2z
				 M44.4,23h-3v3c0,0.3-0.3,0.6-0.6,0.6c-0.3,0-0.6-0.3-0.6-0.6v-3h-3c-0.3,0-0.6-0.3-0.6-0.6c0-0.3,0.3-0.6,0.6-0.6h3v-3
				c0-0.3,0.3-0.6,0.6-0.6c0.3,0,0.6,0.3,0.6,0.6v3h3c0.3,0,0.6,0.3,0.6,0.6C45,22.7,44.7,23,44.4,23z"/>
		</g>
	</g>
</g>
</svg>
