<?xml version="1.0" encoding="utf-8"?>
<!-- Generator: Adobe Illustrator 18.0.0, SVG Export Plug-In . SVG Version: 6.00 Build 0)  -->
<!DOCTYPE svg PUBLIC "-//W3C//DTD SVG 1.1//EN" "http://www.w3.org/Graphics/SVG/1.1/DTD/svg11.dtd">
<svg version="1.1" id="Layer_1" xmlns="http://www.w3.org/2000/svg" xmlns:xlink="http://www.w3.org/1999/xlink" x="0px" y="0px"
	 width="57.9px" height="26.9px" viewBox="0 0 57.9 26.9" style="enable-background:new 0 0 57.9 26.9;" xml:space="preserve">
<style type="text/css">
	.st0{fill:#A5A5A5;}
</style>
<g>
	<g>
		<path class="st0" d="M28.2,2.6v22.3l16.9,1.2v-25L28.2,2.6z M40.1,20.7c-2.3-0.2-4.6-0.3-7-0.4c0-4.6,0-9.2,0-13.8
			c0.9,0,1.7-0.1,2.6-0.1c0,3.8,0,7.7,0,11.5c1.4,0.1,2.9,0.1,4.3,0.2C40.1,18.9,40.1,19.8,40.1,20.7z"/>
		<g>
			<path class="st0" d="M46.3,9c0.4-0.2,0.7-0.3,1.1-0.5c-0.4-0.6-1-1.2-0.8-1.9c0.2-0.9,1.5-1.2,2.1-0.4c1.2,1.5,2.3,3,3.5,4.5
				c-1.3,0-2.6-0.1-3.9,0.1c-1,0.2-1.7,1.1-2,2C46.3,11.6,46.2,10.3,46.3,9z"/>
			<path class="st0" d="M53.1,15c-1.1,0.9-2.7,0.5-4,0.6c-1,0-2.1-0.8-2.1-1.9c-0.1-0.9,0.5-1.6,1.3-1.9c1.2-0.2,2.5-0.1,3.7-0.1
				C53.6,11.8,54.2,13.9,53.1,15z"/>
			<path class="st0" d="M46.2,18c0-1.3,0-2.5,0-3.8c0.7,1.8,2.2,3,3.3,4.5C48.4,18.8,47.2,18.6,46.2,18z"/>
			<path class="st0" d="M56.4,15.9c-0.6,1.3-1.8,2.2-3,2.7c0.3,0.5,0.9,1.1,0.8,1.7c-0.1,0.7-0.9,1.1-1.5,1
				c-0.5-0.2-0.8-0.7-1.1-1.1c-1-1.3-2-2.5-3-3.8c1.3-0.1,2.7,0.2,4-0.1c1.7-0.5,2.5-2.7,1.6-4.2c-0.9-1.3-2-2.5-3-3.8
				c1.6,0,3.2,0.5,4.3,1.6C57,11.4,57.4,14,56.4,15.9z"/>
		</g>
	</g>
	<path class="st0" d="M20.5,9.9V6.1c0-1.2-0.9-2.1-2.1-2.1H3.6c-1.2,0-2.1,1-2.1,2.1V21c0,1.2,0.9,2.1,2.1,2.1h14.8
		c1.2,0,2.1-1,2.1-2.1v-3.7l5.6-3.6l0.1-0.1L20.5,9.9z"/>
</g>
<g>
</g>
<g>
</g>
<g>
</g>
<g>
</g>
<g>
</g>
<g>
</g>
</svg>
