<?xml version="1.0" encoding="utf-8"?>
<!-- Generator: Adobe Illustrator 18.1.1, SVG Export Plug-In . SVG Version: 6.00 Build 0)  -->
<svg version="1.1" id="Layer_1" xmlns="http://www.w3.org/2000/svg" xmlns:xlink="http://www.w3.org/1999/xlink" x="0px" y="0px"
	 viewBox="0 0 64 67" enable-background="new 0 0 64 67" xml:space="preserve">
<g>
	<g>
		<g>
			<rect x="1" y="0" fill="#FFFFFF" width="62" height="64"/>
		</g>
		<rect x="1" y="64" fill="#FAFAFA" width="62" height="1"/>
		<g>
			<text transform="matrix(1 0 0 1 16.1901 52.6736)" fill="#333333" font-family="'Helvetica'" font-size="8">OTHERS</text>
		</g>
		<g>
			<g>
				<path fill="#6B6C6C" d="M32,32.8L32,32.8c-6.6,0-12-5.4-12-12c0-6.6,5.4-12,12-12c6.6,0,12,5.4,12,12C44,27.4,38.6,32.8,32,32.8
					z M32,10.4c-5.8,0-10.4,4.7-10.4,10.4c0,5.7,4.6,10.4,10.4,10.4l0,0.8v-0.8c5.7,0,10.4-4.7,10.4-10.4C42.4,15,37.8,10.4,32,10.4
					z"/>
			</g>
			<g>
				<g>
					<path fill="#4C5455" d="M31.1,22.7c0-0.3,0-0.6,0.1-0.8c0-0.2,0.1-0.4,0.2-0.6c0.1-0.2,0.2-0.4,0.3-0.5
						c0.1-0.2,0.3-0.3,0.5-0.5c0.1-0.1,0.3-0.3,0.4-0.4c0.1-0.1,0.2-0.2,0.3-0.4s0.2-0.3,0.2-0.4c0.1-0.1,0.1-0.3,0.1-0.5
						c0-0.4-0.1-0.7-0.3-0.9c-0.2-0.2-0.5-0.3-0.9-0.3c-0.1,0-0.3,0-0.4,0.1c-0.1,0-0.3,0.1-0.4,0.2S31,17.8,30.9,18
						s-0.1,0.3-0.1,0.5h-1.5c0-0.4,0.1-0.7,0.2-1c0.1-0.3,0.3-0.5,0.6-0.8c0.2-0.2,0.5-0.4,0.9-0.5c0.3-0.1,0.7-0.2,1.1-0.2
						c0.4,0,0.8,0.1,1.1,0.2s0.6,0.3,0.8,0.5c0.2,0.2,0.4,0.5,0.5,0.8c0.1,0.3,0.2,0.6,0.2,1c0,0.3,0,0.5-0.1,0.8
						c-0.1,0.2-0.2,0.5-0.3,0.7c-0.1,0.2-0.3,0.4-0.5,0.6s-0.4,0.4-0.6,0.6c-0.2,0.2-0.4,0.4-0.5,0.7s-0.1,0.5-0.1,0.8H31.1z
						 M31,24.6c0-0.1,0-0.2,0.1-0.3s0.1-0.2,0.2-0.3c0.1-0.1,0.2-0.1,0.3-0.2c0.1,0,0.2-0.1,0.4-0.1c0.1,0,0.3,0,0.4,0.1
						s0.2,0.1,0.3,0.2c0.1,0.1,0.1,0.2,0.2,0.3s0.1,0.2,0.1,0.3c0,0.2-0.1,0.4-0.2,0.6c-0.1,0.2-0.4,0.2-0.6,0.2
						c-0.3,0-0.5-0.1-0.6-0.2S31,24.8,31,24.6z"/>
				</g>
			</g>
		</g>
	</g>
</g>
</svg>
