<?xml version="1.0" encoding="utf-8"?>
<!-- Generator: Adobe Illustrator 18.0.0, SVG Export Plug-In . SVG Version: 6.00 Build 0)  -->
<!DOCTYPE svg PUBLIC "-//W3C//DTD SVG 1.1//EN" "http://www.w3.org/Graphics/SVG/1.1/DTD/svg11.dtd">
<svg version="1.1" id="Layer_1" xmlns="http://www.w3.org/2000/svg" xmlns:xlink="http://www.w3.org/1999/xlink" x="0px" y="0px"
	 width="55.3px" height="26.7px" viewBox="0 0 55.3 26.7" style="enable-background:new 0 0 55.3 26.7;" xml:space="preserve">
<style type="text/css">
	.st0{fill:#1CAA4A;}
	.st1{fill:#FFFFFF;}
</style>
<g>
	<g>
		<path class="st0" d="M54.5,9.8c0-0.5-0.4-0.9-0.8-0.9h-7.8v1.8h6.2l-4,3.3l-2.1-1.7v2.3l1.7,1.3c0.3,0.2,0.7,0.2,0.9,0l4.4-3.6
			v4.8h-7v1.8h7.8c0.4,0,0.8-0.4,0.8-0.9v-7.4c0,0,0,0,0-0.1c0,0,0,0,0-0.1V9.8z"/>
		<path class="st0" d="M35.9,17.1c1.1,0,1.9-1.5,1.9-3.7c0-1.9-0.5-3.7-1.9-3.7c-1.4,0-1.9,1.9-1.9,3.7
			C33.9,15.5,34.6,17.1,35.9,17.1z"/>
		<path class="st0" d="M27.4,24.6l16.9,1.2v-25L27.4,2.3V24.6z M35.9,6.9c2.9,0,4.8,2.6,4.8,6.3c0,4.5-2.4,6.6-5,6.6
			c-2.7,0-4.9-2.4-4.9-6.4C30.9,9.4,32.9,6.9,35.9,6.9z"/>
	</g>
	<g>
		<path class="st0" d="M19.7,9.6V5.9c0-1.2-0.9-2.1-2.1-2.1H2.8c-1.2,0-2.1,1-2.1,2.1v14.9c0,1.2,0.9,2.1,2.1,2.1h14.8
			c1.2,0,2.1-1,2.1-2.1V17l5.6-3.6l0.1-0.1L19.7,9.6z"/>
		<g>
			<g>
				<path class="st1" d="M9.5,17.2v1.2H2.9c0-0.3,0-0.6,0.1-0.9c0.2-0.5,0.4-0.9,0.8-1.3c0.4-0.4,0.9-0.9,1.6-1.5
					c1.1-0.9,1.8-1.6,2.2-2.1C8,12,8.2,11.5,8.2,11c0-0.5-0.2-0.9-0.5-1.2C7.4,9.5,6.9,9.3,6.3,9.3c-0.6,0-1.1,0.2-1.4,0.5
					c-0.4,0.4-0.5,0.9-0.5,1.5l-1.3-0.1c0.1-0.9,0.4-1.7,1-2.2s1.3-0.7,2.3-0.7c1,0,1.7,0.3,2.3,0.8c0.6,0.5,0.8,1.2,0.8,2
					c0,0.4-0.1,0.8-0.2,1.2c-0.2,0.4-0.4,0.8-0.8,1.2c-0.4,0.4-1,1-1.9,1.8c-0.7,0.6-1.2,1-1.4,1.3S4.7,17,4.6,17.2H9.5z"/>
				<path class="st1" d="M14.7,18.4V16h-4.3v-1.1L15,8.3h1v6.5h1.3V16H16v2.4H14.7z M14.7,14.8v-4.5l-3.1,4.5H14.7z"/>
			</g>
		</g>
	</g>
</g>
<g>
</g>
<g>
</g>
<g>
</g>
<g>
</g>
<g>
</g>
<g>
</g>
</svg>
