<?xml version="1.0" encoding="utf-8"?>
<!-- Generator: Adobe Illustrator 18.1.1, SVG Export Plug-In . SVG Version: 6.00 Build 0)  -->
<!DOCTYPE svg PUBLIC "-//W3C//DTD SVG 1.1//EN" "http://www.w3.org/Graphics/SVG/1.1/DTD/svg11.dtd" [
	<!ENTITY ns_extend "http://ns.adobe.com/Extensibility/1.0/">
	<!ENTITY ns_ai "http://ns.adobe.com/AdobeIllustrator/10.0/">
	<!ENTITY ns_graphs "http://ns.adobe.com/Graphs/1.0/">
	<!ENTITY ns_vars "http://ns.adobe.com/Variables/1.0/">
	<!ENTITY ns_imrep "http://ns.adobe.com/ImageReplacement/1.0/">
	<!ENTITY ns_sfw "http://ns.adobe.com/SaveForWeb/1.0/">
	<!ENTITY ns_custom "http://ns.adobe.com/GenericCustomNamespace/1.0/">
	<!ENTITY ns_adobe_xpath "http://ns.adobe.com/XPath/1.0/">
]>
<svg version="1.1" id="Layer_1" xmlns:x="&ns_extend;" xmlns:i="&ns_ai;" xmlns:graph="&ns_graphs;"
	 xmlns="http://www.w3.org/2000/svg" xmlns:xlink="http://www.w3.org/1999/xlink" x="0px" y="0px" viewBox="0 0 29 29"
	 enable-background="new 0 0 29 29" xml:space="preserve">
	<g i:extraneous="self">
		<g>
			<path fill-rule="evenodd" clip-rule="evenodd" fill="#6B6C6C" d="M18.8,16.1c-2,0-3.7,1.6-3.7,3.7c0,2,1.6,3.7,3.7,3.7
				c2,0,3.7-1.7,3.7-3.7C22.5,17.8,20.8,16.1,18.8,16.1z M20.8,20.3c-0.6,0.5-1.2,1-1.8,1.6c0,0-0.1,0-0.1,0.1
				c-0.1,0.1-0.2,0.1-0.3,0.1c-0.1-0.1-0.2-0.2-0.2-0.3c0-0.4,0-0.8,0-1.3c0-0.1,0-0.1,0-0.2c-0.6,0-1.2,0-1.8,0c0-0.3,0-0.6,0-0.9
				c0.6,0,1.2,0,1.8,0c0-0.2,0-0.5,0-0.7c0-0.2,0-0.5,0-0.7c0-0.1,0-0.2,0-0.2c0.1-0.1,0.2-0.2,0.3-0.1c0.1,0,0.1,0.1,0.2,0.1
				c0.6,0.5,1.2,1.1,1.9,1.6C21.1,19.6,21.1,20,20.8,20.3z"/>
			<path fill="#6B6C6C" d="M15.7,9.5c0.1,0.1,0.3,0.1,0.3,0.2c0.1,0.2,0.1,0.5-0.1,0.7c-0.2,0.2-0.3,0.5-0.7,0.5
				c0,0-0.1,0.1-0.1,0.2c-0.2,0.5-0.5,1-0.9,1.4c-0.1,0.1-0.2,0.3-0.4,0.4c-0.9,0.7-1.8,0.7-2.7-0.1c-0.5-0.5-0.9-1.1-1.1-1.7
				c0-0.1-0.1-0.2-0.2-0.2c-0.5-0.1-0.8-0.8-0.6-1.2c0.1-0.2,0.2-0.2,0.4-0.2c0-0.3-0.1-0.7-0.1-1c-0.1-0.8,0.1-1.5,0.8-2
				c0.4-0.3,0.8-0.6,1.2-0.8c1-0.4,2-0.3,2.9,0.4c0.3,0.2,0.5,0.4,0.8,0.6c0.4,0.3,0.5,0.7,0.6,1.2C15.9,8.5,15.9,8.9,15.7,9.5
				C15.7,9.5,15.7,9.5,15.7,9.5z"/>
			<g>
				<path fill="#6B6C6C" d="M15,16c0.6-0.6,1.2-1,1.9-1.2c-0.5-0.2-1.1-0.3-1.6-0.5c0,0,0,0,0,0c-0.2,0.7-0.4,1.4-0.6,2.1
					C14.8,16.2,14.9,16.1,15,16z"/>
				<path fill="#6B6C6C" d="M13.4,19.8c0-0.5,0.1-1,0.2-1.4c-0.1-0.6-0.2-1.1-0.3-1.7c-0.1-0.4-0.2-0.9,0-1.3c0.1-0.2,0-0.3-0.1-0.4
					c-0.3-0.3-0.6-0.3-0.9,0c-0.2,0.1-0.2,0.2-0.1,0.4c0.1,0.2,0.1,0.4,0.1,0.6c-0.1,0.7-0.2,1.4-0.3,2.1c0,0.3-0.1,0.5-0.1,0.8
					c-0.4-0.7-0.7-1.5-0.9-2.3c-0.2-0.8-0.5-1.6-0.7-2.4c-0.1,0-0.3,0.1-0.4,0.1c-0.5,0.2-1.1,0.3-1.6,0.5c-0.5,0.2-0.9,0.6-1.1,1.2
					c-0.1,0.2-0.1,0.4-0.2,0.6c-0.2,0.8-0.3,1.5-0.4,2.3c0.7,0.8,3.2,1.6,6.1,1.6c0.3,0,0.6,0,0.9,0C13.4,20.3,13.4,20.1,13.4,19.8z
					"/>
			</g>
		</g>
	</g>

</svg>
