<?xml version="1.0" encoding="utf-8"?>
<!-- Generator: Adobe Illustrator 18.1.1, SVG Export Plug-In . SVG Version: 6.00 Build 0)  -->
<svg version="1.1" id="Seected" xmlns="http://www.w3.org/2000/svg" xmlns:xlink="http://www.w3.org/1999/xlink" x="0px" y="0px"
	 viewBox="0 0 24 24" enable-background="new 0 0 24 24" xml:space="preserve">
<g>
	<g>
		<g>
			<path fill="#4B5354" stroke="#4B5354" stroke-width="0.4" stroke-miterlimit="10" d="M8,5c0-0.2,0-0.3,0-0.5C8,4.1,8.1,4,8.5,4
				c1.3,0,2.6,0,3.9,0c1,0,2,0,3,0C15.9,4,16,4.1,16,4.6c0,0.1,0,0.2,0,0.4c0.6,0,1.1,0,1.7,0c0.5,0,0.6,0.1,0.6,0.6
				c0,4.6,0,9.2,0,13.8c0,0.1,0,0.1,0,0.2c0,0.4-0.1,0.5-0.5,0.5c-2.2,0-4.4,0-6.7,0c-1.6,0-3.2,0-4.8,0c-0.4,0-0.5-0.1-0.5-0.5
				c0-4.7,0-9.3,0-14C5.8,5,5.8,5,6.3,5C6.8,5,7.4,5,8,5z M6.4,19.3c3.7,0,7.4,0,11.2,0c0-4.6,0-9.1,0-13.7c-0.5,0-1,0-1.6,0
				c0,0.2,0,0.4,0,0.6c0,0.2-0.1,0.4-0.4,0.4c-2.4,0-4.8,0-7.2,0C8.1,6.6,8,6.4,8,6.2C8,6,8,5.8,8,5.6c-0.6,0-1.1,0-1.6,0
				C6.4,10.2,6.4,14.8,6.4,19.3z M8.7,5.9c2.2,0,4.4,0,6.7,0c0-0.3,0-0.6,0-0.9c0-0.3-0.1-0.4-0.4-0.4c-2,0-4,0-6.1,0
				c-0.1,0-0.2,0-0.3,0C8.7,5.1,8.7,5.5,8.7,5.9z"/>
		</g>
	</g>
	<g>
		<path fill="#4B5354" stroke="#4B5354" stroke-width="0.4" stroke-miterlimit="10" d="M12.3,9.3c0.9,0,2.1,0,2.9,0
			c0.2,0,0.4,0,0.4,0.3c0,0.3-0.2,0.3-0.4,0.3c-1.7,0-2.1,0-3.8,0c-0.2,0-0.4-0.1-0.4-0.3c0-0.3,0.2-0.3,0.4-0.3
			C12.3,9.3,11.4,9.3,12.3,9.3L12.3,9.3z"/>
		<circle fill="#4B5354" stroke="#4B5354" stroke-width="0.5" stroke-miterlimit="10" cx="8.9" cy="9.6" r="0.3"/>
	</g>
	<g>
		<path fill="#4B5354" stroke="#4B5354" stroke-width="0.4" stroke-miterlimit="10" d="M12.3,12.5c0.9,0,2.1,0,3,0
			c0.3,0,0.5,0.2,0.4,0.4c-0.1,0.1-0.2,0.2-0.3,0.2c-1.8,0-2.2,0-4,0c-0.2,0-0.4-0.1-0.4-0.3c0-0.2,0.2-0.3,0.4-0.3
			C12.2,12.5,11.4,12.5,12.3,12.5L12.3,12.5z"/>
		<circle fill="#4B5354" stroke="#4B5354" stroke-width="0.5" stroke-miterlimit="10" cx="8.9" cy="12.9" r="0.3"/>
	</g>
	<g>
		<path fill="#4B5354" stroke="#4B5354" stroke-width="0.4" stroke-miterlimit="10" d="M12.3,15.8c0.9,0,2.1,0,2.9,0
			c0.3,0,0.5,0.2,0.4,0.4c-0.1,0.2-0.3,0.2-0.5,0.2c-1.6,0-1.8,0-3.3,0c-0.2,0-0.4,0-0.6,0c-0.2,0-0.3-0.1-0.3-0.3
			c0-0.2,0.1-0.3,0.4-0.3C12.2,15.8,11.4,15.8,12.3,15.8C12.3,15.8,12.3,15.8,12.3,15.8z"/>
		<circle fill="#4B5354" stroke="#4B5354" stroke-width="0.5" stroke-miterlimit="10" cx="8.9" cy="16.1" r="0.3"/>
	</g>
</g>
</svg>
