<?xml version="1.0" encoding="utf-8"?>
<!-- Generator: Adobe Illustrator 18.1.1, SVG Export Plug-In . SVG Version: 6.00 Build 0)  -->
<svg version="1.1" id="Seected" xmlns="http://www.w3.org/2000/svg" xmlns:xlink="http://www.w3.org/1999/xlink" x="0px" y="0px"
	 viewBox="0 0 24 24" enable-background="new 0 0 24 24" xml:space="preserve">
<g>
	<g>
		<path fill="#4B5354" stroke="#4B5354" stroke-width="0.4" stroke-miterlimit="10" d="M17.1,14.5c0.3,0,0.6,0,0.9,0
			c0,0,0,0.1,0,0.1c0,2.1,0,1.3,0,3.4c0,0.6-0.4,1-1,1c-3.7,0-7.4,0-11.1,0c-0.6,0-1-0.4-1-1c0-3.7,0-7.4,0-11.1c0-0.6,0.4-1,1-1
			c2.1,0,1.2,0,3.4,0c0,0,0.1,0,0.1,0c0,0.3,0,0.6,0,0.9c-0.1,0-0.1,0-0.1,0c-1.9,0-0.9,0-2.8,0C6.1,6.9,5.9,7,5.9,7.4
			c0,3.4,0,6.8,0,10.1c0,0.4,0.2,0.5,0.5,0.5c3.4,0,6.8,0,10.1,0c0.3,0,0.5-0.2,0.5-0.5c0-1.9,0-0.9,0-2.8
			C17.1,14.7,17.1,14.6,17.1,14.5z"/>
	</g>
	<path fill="#4B5354" stroke="#4B5354" stroke-width="0.4" stroke-miterlimit="10" d="M18,6.6c0,0-0.1,0.1-0.1,0.1
		c-2.5,2.5-4.9,4.9-7.4,7.4c-0.1,0.1-0.2,0.2-0.4,0.2c-0.2,0-0.3-0.1-0.4-0.3c-0.1-0.2-0.1-0.3,0.1-0.5c0,0,0.1-0.1,0.1-0.1
		c2.4-2.5,4.9-4.9,7.3-7.4c0,0,0.1-0.1,0.2-0.1c0,0,0,0,0-0.1c-0.1,0-0.1,0-0.2,0c-1.1,0-2.2,0-3.3,0c-0.2,0-0.3-0.1-0.4-0.3
		c-0.1-0.2-0.1-0.4,0.1-0.5C13.6,5.1,13.7,5,13.8,5c1.5,0,3.1,0,4.6,0C18.8,5,19,5.2,19,5.5c0,1.5,0,3.1,0,4.6
		c0,0.3-0.2,0.5-0.5,0.5c-0.3,0-0.5-0.2-0.5-0.5c0-1.1,0-2.2,0-3.3C18,6.8,18,6.7,18,6.6C18,6.6,18,6.6,18,6.6z"/>
</g>
</svg>
