<?xml version="1.0" encoding="utf-8"?>
<!-- Generator: Adobe Illustrator 18.1.1, SVG Export Plug-In . SVG Version: 6.00 Build 0)  -->
<svg version="1.0" id="Seected" xmlns="http://www.w3.org/2000/svg" xmlns:xlink="http://www.w3.org/1999/xlink" x="0px" y="0px"
	 viewBox="0 0 24 24" enable-background="new 0 0 24 24" xml:space="preserve">
<g>
	<g>
		<path fill="#6B6B6B" d="M15.4,11.4c0.3,0.1,0.6,0.1,0.9,0.3c0.4-0.4,0.9-0.9,1.3-1.3c0,0,0.1-0.1,0.1-0.1c0.1-0.1,0.1-0.3,0-0.4
			c-0.1-0.1-0.2-0.2-0.4-0.2c-0.1,0-0.3,0.1-0.3,0.2C16.5,10.3,15.9,10.8,15.4,11.4z"/>
		<path fill="#6B6B6B" d="M10.9,15.9c-0.2,0.2-0.3,0.3-0.5,0.5c-0.5,0.5-1.1,0.7-1.8,0.8c-0.1,0-0.2,0-0.4,0c-1-0.2-1.9-1.1-1.9-2.1
			c-0.1-0.8,0.2-1.4,0.7-2c2.2-2.2,4.5-4.5,6.7-6.7c0.1-0.1,0.1-0.1,0.2-0.2c0.7-0.6,1.8-0.4,2.3,0.4c0.3,0.6,0.3,1.3-0.3,1.8
			c-2.2,2.2-4.4,4.4-6.6,6.6c0,0-0.1,0.1-0.1,0.1c-0.3,0.2-0.7,0.1-0.9-0.2c-0.1-0.2-0.1-0.5,0.2-0.7c1.5-1.5,3.1-3.1,4.6-4.6
			c0.2-0.2,0.2-0.4,0-0.6c-0.2-0.2-0.4-0.2-0.6,0c-0.3,0.3-0.6,0.6-0.8,0.8c-1.3,1.3-2.5,2.5-3.8,3.8c-0.4,0.4-0.5,0.8-0.4,1.3
			c0.1,0.5,0.4,0.9,1,1c0.5,0.1,1,0,1.4-0.4c0.4-0.4,0.7-0.7,1.1-1.1c0.1-0.7,0.5-1.4,1.1-2c0.6-0.6,1.3-0.9,2-1.1
			c0.8-0.8,1.6-1.6,2.4-2.4C17,8.4,17.2,7.8,17.1,7C17,5.9,16,5,14.9,4.9c-0.7,0-1.3,0.2-1.8,0.7c-2.2,2.2-4.5,4.5-6.7,6.7
			c-0.1,0.1-0.1,0.1-0.2,0.2c-0.7,0.7-0.9,1.6-0.8,2.6C5.7,16.8,7,18,8.7,17.9c0.9,0,1.7-0.3,2.3-1c0.1-0.1,0.1-0.1,0.2-0.2
			C11,16.5,11,16.2,10.9,15.9z"/>
	</g>
	<path fill="#6B6B6B" d="M17.3,15.2c0-0.3-0.3-0.4-0.5-0.4c0,0,0,0-0.1,0c0,0,0,0-0.1,0l-0.2,0c0,0-0.1,0-0.1,0c0,0-0.1,0-0.1,0
		c0,0,0,0,0,0l0,0c-0.1,0-0.1,0-0.2,0c-0.2,0-0.3,0-0.5,0h-0.2c-0.1,0-0.1,0-0.1-0.1c0,0-0.1-0.1-0.1-0.1l0-0.6c0-0.2,0-0.3,0-0.4
		v-0.3c0,0,0,0,0,0l0,0c0,0,0,0,0,0c0,0,0,0,0,0c0,0,0,0,0,0l0,0c0-0.1-0.1-0.2-0.1-0.3c-0.1-0.1-0.2-0.1-0.3-0.1
		c-0.3,0-0.4,0.2-0.4,0.5l0,0c0,0,0,0,0,0l0,0.2c0,0.3,0,0.7,0,1c0,0.2,0,0.3-0.2,0.4l-0.5,0c-0.3,0-0.5,0-0.7,0l-0.2,0
		c-0.2,0-0.3,0.1-0.4,0.2c-0.1,0.1-0.1,0.2-0.1,0.3c0,0.3,0.2,0.4,0.5,0.4l0.1,0c0,0,0,0,0,0c0,0,0,0,0,0c0.3,0,0.5,0,0.8,0l0.6,0
		l0,0.6c0,0.3,0,0.5,0,0.8c0,0,0,0,0,0c0,0,0,0,0,0l0,0.1c0,0.3,0.2,0.5,0.4,0.5c0.3,0,0.4-0.2,0.4-0.5c0,0,0-0.1,0-0.1
		c0,0,0,0,0-0.1c0,0,0,0,0,0c0,0,0,0,0,0c0-0.3,0-0.7,0-1v-0.4l1.5,0c0,0,0,0,0.1,0c0,0,0,0,0,0l0,0c0,0,0,0,0,0c0,0,0,0,0,0
		c0.1,0,0.2-0.1,0.3-0.1C17.2,15.4,17.3,15.3,17.3,15.2z"/>
</g>
</svg>
