<?xml version="1.0" encoding="utf-8"?>
<!-- Generator: Adobe Illustrator 18.1.1, SVG Export Plug-In . SVG Version: 6.00 Build 0)  -->
<svg version="1.1" id="Icons" xmlns="http://www.w3.org/2000/svg" xmlns:xlink="http://www.w3.org/1999/xlink" x="0px" y="0px"
	 viewBox="0 0 20 20" enable-background="new 0 0 20 20" xml:space="preserve">
<g>
	<g>
		<g>
			<g>
				<path fill="#E64D3C" d="M10,18.5L10,18.5c-4.7,0-8.5-3.8-8.5-8.5c0-4.7,3.8-8.5,8.5-8.5c4.7,0,8.5,3.8,8.5,8.5
					C18.5,14.7,14.7,18.5,10,18.5z M10,2.5c-4.1,0-7.5,3.4-7.5,7.5c0,4.1,3.4,7.5,7.5,7.5l0,0.5v-0.5c4.1,0,7.5-3.4,7.5-7.5
					C17.5,5.9,14.1,2.5,10,2.5z"/>
			</g>
			<path fill="#E64D3C" d="M11.9,8.7c0-0.9,0-1.7,0-2.6c0-0.3-0.2-0.6-0.5-0.6c-0.3,0-0.5,0.2-0.5,0.6c0,0.2,0,0.4,0,0.6
				c0,0.8,0,1.6,0,2.4c0,0.1,0,0.2-0.1,0.2c-0.1,0-0.2,0-0.2-0.2c0-0.6,0-1.2,0-1.8c0-0.6,0-1.1,0-1.7c0-0.4-0.3-0.6-0.7-0.5
				C9.6,5.2,9.5,5.4,9.5,5.7c0,0.6,0,1.2,0,1.9c0,0.5,0,1.1,0,1.6c0,0.1,0,0.1-0.1,0.2c0,0-0.1,0-0.2,0c0,0-0.1-0.1-0.1-0.2
				c0-0.8,0-1.5,0-2.3c0-0.4,0-0.8,0-1.3c0-0.3-0.2-0.5-0.5-0.5c-0.3,0-0.6,0.2-0.6,0.5c0,0.8,0,1.5,0,2.3c0,0.6,0,1.2,0,1.8
				c0,0.1,0,0.2-0.1,0.2c-0.1,0-0.2,0-0.2-0.2c0-0.8,0-1.7,0-2.5c0-0.3-0.2-0.5-0.4-0.6C7,6.6,6.7,6.8,6.7,7.2c0,1.6,0,3.1,0,4.7
				c0,0.4,0.1,0.8,0.3,1.2c0.2,0.3,0.3,0.5,0.5,0.8c0.1,0.2,0.2,0.5,0.2,0.8c0,0.2,0.1,0.3,0.3,0.3c0.5,0,1,0,1.5,0
				c0.8,0,1.6,0,2.4,0c0.2,0,0.3-0.1,0.3-0.3c0,0,0-0.1,0-0.1c0-0.2,0.1-0.4,0.2-0.6c0.1-0.1,0.2-0.3,0.3-0.4
				c0.2-0.3,0.3-0.5,0.5-0.8c0.1-0.2,0.2-0.4,0.2-0.7c0-0.7,0-1.4,0-2.2c0-0.1,0-0.1,0-0.2c-0.1-0.3-0.3-0.4-0.6-0.4
				c-0.2,0-0.4,0.2-0.4,0.5c0,0.4,0,0.9,0,1.3c0,0.1,0,0.2-0.2,0.2c-0.1,0-0.1-0.1-0.1-0.2C11.9,10.4,11.9,9.5,11.9,8.7z"/>
		</g>
	</g>
</g>
</svg>
