<?xml version="1.0" encoding="utf-8"?>
<!-- Generator: Adobe Illustrator 18.1.1, SVG Export Plug-In . SVG Version: 6.00 Build 0)  -->
<svg version="1.0" id="Seected" xmlns="http://www.w3.org/2000/svg" xmlns:xlink="http://www.w3.org/1999/xlink" x="0px" y="0px"
	 viewBox="0 0 24 24" enable-background="new 0 0 24 24" xml:space="preserve">
<g>
	<g>
		<path fill="#6B6B6B" d="M10.7,16.5c0-1,0.3-2,0.8-2.8c0-0.6,0-1.2,0-1.8c0,0,0.1,0,0.1,0c0.2,0,0.4,0,0.6,0c0.2,0,0.3-0.1,0.3-0.2
			c0-0.4,0-0.7,0-1.1c0-0.2-0.1-0.2-0.2-0.2c-0.2,0-0.4,0-0.6,0c0,0-0.1,0-0.1,0c-0.1-0.1,0-0.3,0.1-0.3c1.1-0.4,1.7-1.2,1.9-2.4
			c0.2-1.7-1.4-3.2-3.1-2.9C9,4.8,8.1,5.9,7.9,7C7.8,8.2,8.4,9.3,9.5,9.8C9.8,10,9.8,10,9.8,10.3c0,0,0,0,0,0c-0.3,0-0.5,0-0.8,0
			c-0.2,0-0.2,0.1-0.2,0.2c0,0.4,0,0.8,0,1.2c0,0.1,0.1,0.2,0.2,0.2c0.1,0,0.1,0,0.2,0c0.2,0,0.5,0,0.7,0c0,1.3,0,2.6,0,3.9
			c-0.9-0.1-1.9-1.1-2-1.7c0.3-0.1,0.6-0.2,0.9-0.3c0.1,0,0.2-0.1,0.2-0.2c0-0.1,0-0.2-0.1-0.2C8,13,7.2,12.5,6.4,12.1
			C6.2,12,6.1,12,6,12.2c-0.1,0.3-0.3,0.5-0.4,0.8C5.3,13.5,5,14,4.7,14.6c-0.1,0.1-0.1,0.2,0,0.3c0.1,0,0.2,0,0.2,0
			c0.4-0.1,0.8-0.2,1.1-0.3c0.1,0.1,0.1,0.2,0.2,0.3c0.4,0.7,0.9,1.4,1.6,1.9c0.7,0.5,1.5,0.7,2.4,0.8c0.2,0,0.3,0,0.5,0
			C10.7,17.2,10.7,16.9,10.7,16.5z M9.3,7.3C9.3,6.6,9.9,6,10.7,6C11.4,6,12,6.6,12,7.4c0,0.7-0.6,1.3-1.3,1.3
			C9.9,8.7,9.3,8.1,9.3,7.3z"/>
		<path fill-rule="evenodd" clip-rule="evenodd" fill="#6B6B6B" d="M15.9,13.9c0-0.2,0.1-0.3,0.3-0.3l0.5,0c0.2,0,0.3,0.1,0.3,0.3
			l0,2.1l2.1,0c0.2,0,0.3,0.1,0.3,0.3l0,0.5c0,0.2-0.1,0.3-0.3,0.3l-2.1,0l0,2.1c0,0.2-0.1,0.3-0.3,0.3l-0.5,0
			c-0.2,0-0.3-0.1-0.3-0.3l0-2.1l-2.1,0c-0.2,0-0.3-0.1-0.3-0.3l0-0.5c0-0.2,0.1-0.3,0.3-0.3l2.1,0V13.9z"/>
	</g>
</g>
</svg>
