<?xml version="1.0" encoding="utf-8"?>
<!-- Generator: Adobe Illustrator 18.1.1, SVG Export Plug-In . SVG Version: 6.00 Build 0)  -->
<svg version="1.0" id="Layer_1" xmlns="http://www.w3.org/2000/svg" xmlns:xlink="http://www.w3.org/1999/xlink" x="0px" y="0px"
	 viewBox="0 0 40 40" enable-background="new 0 0 40 40" xml:space="preserve">
<g>
	<path fill="#3D97D3" d="M23.3,25.3c-1.4-1-3-1.8-4.2-2.3c-0.6-0.2-1.4-0.1-1.8,0.4l-0.3,0.3c-0.3,0.3-0.5,0.5-0.7,0.8
		c-0.1,0.1-0.2,0.2-0.4,0.1c-0.3-0.1-0.5-0.3-0.7-0.4c-1.3-1.4-2.4-3.1-3.4-5c-0.1-0.1-0.1-0.3-0.2-0.5c-0.1-0.3,0-0.5,0.3-0.6
		c0.1-0.1,0.3-0.1,0.4-0.2c0.3-0.1,0.7-0.3,1-0.4c0.2-0.1,0.5-0.3,0.6-0.5c0.3-0.4,0.4-0.8,0.3-1.3c-0.2-1.5-0.4-3.1-0.5-4.6
		c0-0.2-0.1-0.3-0.2-0.4c-0.5-0.6-1.1-0.8-1.8-0.7c-1.7,0.3-3.2,1-4.5,2c-0.3,0.3-0.7,0.6-0.7,1.1c0,0.2,0,0.4-0.1,0.6
		c0,0.4-0.1,0.9-0.1,1.3c0,0.7,0,1.2,0,1.7c0.6,5.2,3.1,9.5,7.5,12.6c1.4,1,3.2,1.7,5.2,2.2c0,0,0.1,0,0.1,0c0.1,0,0.2,0,0.3-0.1
		c1.7-0.9,3.1-2.1,4.1-3.7C24.3,26.9,24.1,25.9,23.3,25.3z M10.5,18.7c0,0.3,0.1,0.5,0.2,0.8c0.9,2,2.1,3.9,3.7,5.6
		c0.3,0.3,0.7,0.6,1.2,0.7c0.7,0.2,1.2,0,1.6-0.4c0.1-0.1,0.2-0.3,0.4-0.4c0.2-0.2,0.4-0.4,0.5-0.6c0.2-0.2,0.4-0.3,0.7-0.1
		c1.5,0.6,2.7,1.3,3.9,2.1c0.1,0.1,0.2,0.4,0.1,0.6c-0.8,1.3-1.9,2.3-3.3,3.1c0,0-0.2,0-0.3,0c0,0-0.1,0-0.1,0l0,0
		c-2.6-0.7-4.8-2-6.7-4.1c-2.6-2.7-4-5.9-4.4-9.4c-0.1-1-0.1-2.1,0.1-3.3c0-0.2,0.1-0.3,0.2-0.4c1.2-0.9,2.5-1.5,3.9-1.8
		c0.1,0,0.1,0,0.2,0c0.3,0,0.4,0.2,0.5,0.5c0.2,1.4,0.3,2.8,0.5,4.2c0,0.4,0,0.5-0.4,0.7l-1.1,0.4C10.8,17.2,10.4,17.8,10.5,18.7z"
		/>
	<path fill="#3D97D3" d="M16.4,8.6l0.2,0.3c0.2,0.3,0.4,0.6,0.5,1l0.1,0.1h14l-7,7c-0.5,0.5-0.9,0.5-1.4,0l-5.1-5.1l0.3,2.3l2,2
		l0.7,0.8l0.5,0.5c0.2,0.2,0.4,0.4,0.6,0.6c0.4,0.4,1.1,0.7,1.7,0.7c0.7,0,1.3-0.2,1.7-0.7c0.1-0.1,0.3-0.3,0.4-0.4l0.4-0.4l5,5.1
		h-7.1l0.7,0.4c0.3,0.2,0.7,0.4,1,0.7c0.1,0.1,0.1,0.1,0.2,0.2l0.2,0.1h7.5V8.6H16.4z M27,16.2l5-4.9v10L27,16.2z"/>
</g>
</svg>
