<?xml version="1.0" encoding="utf-8"?>
<!-- Generator: Adobe Illustrator 18.1.1, SVG Export Plug-In . SVG Version: 6.00 Build 0)  -->
<svg version="1.0" id="Layer_1" xmlns="http://www.w3.org/2000/svg" xmlns:xlink="http://www.w3.org/1999/xlink" x="0px" y="0px"
	 viewBox="0 0 40 40" enable-background="new 0 0 40 40" xml:space="preserve">
<g>
	<path fill="#6B6C6C" d="M7.5,8C13,8,18.5,8,24,8c0,3.3,0,6.5,0,9.8c2.8,0,5.6,0,8.5,0c0,0.2,0,0.3,0,0.5c0,3.5,0,7,0,10.4
		c0,1.9-1.4,3.3-3.3,3.3c-7.1,0-14.1,0-21.2,0c-0.1,0-0.3,0-0.5,0C7.5,24,7.5,16,7.5,8z M9,9.5v20.9h13.4V9.5H9z M24,30.5
		c0.2,0,0.3,0,0.4,0c1.6,0,3.2,0,4.8,0c1.1,0,1.7-0.6,1.7-1.7c0-3,0-6,0-9c0-0.1,0-0.3,0-0.4c-2.3,0-4.6,0-6.9,0
		C24,23,24,26.7,24,30.5z"/>
	<path fill="#6B6C6C" d="M18.8,27.4c-0.5,0-1,0-1.5,0c0-0.9,0-1.8,0-2.8c0.5,0,1,0,1.5,0C18.8,25.5,18.8,26.5,18.8,27.4z"/>
	<path fill="#6B6C6C" d="M18.8,16.2c-0.5,0-1,0-1.5,0c0-0.9,0-1.8,0-2.8c0.5,0,1,0,1.5,0C18.8,14.3,18.8,15.2,18.8,16.2z"/>
	<path fill="#6B6C6C" d="M14.1,13.4c0,0.9,0,1.8,0,2.8c-0.4,0-0.9,0-1.3,0c-0.1,0-0.2-0.2-0.2-0.2c0-0.8,0-1.5,0-2.3
		c0-0.1,0.1-0.2,0.2-0.2C13.3,13.4,13.7,13.4,14.1,13.4z"/>
	<path fill="#6B6C6C" d="M12.7,24.6c0.5,0,1,0,1.5,0c0,0.9,0,1.8,0,2.8c-0.5,0-1,0-1.5,0C12.7,26.5,12.7,25.6,12.7,24.6z"/>
	<path fill="#6B6C6C" d="M14.1,19c0,0.9,0,1.8,0,2.7c-0.5,0-1,0-1.5,0c0-0.9,0-1.8,0-2.7C13.2,19,13.6,19,14.1,19z"/>
	<path fill="#6B6C6C" d="M18.8,19c0,0.9,0,1.8,0,2.7c-0.5,0-1,0-1.5,0c0-0.9,0-1.8,0-2.7C17.8,19,18.3,19,18.8,19z"/>
	<path fill="#6B6C6C" d="M29,26c0,0.5,0,1,0,1.5c-1,0-1.9,0-2.9,0c0-0.5,0-1,0-1.5C27,26,28,26,29,26z"/>
	<path fill="#6B6C6C" d="M29,22.2c0,0.5,0,1,0,1.5c-1,0-1.9,0-2.9,0c0-0.5,0-1,0-1.5C27,22.2,28,22.2,29,22.2z"/>
</g>
</svg>
