<?xml version="1.0" encoding="utf-8"?>
<!-- Generator: Adobe Illustrator 18.1.1, SVG Export Plug-In . SVG Version: 6.00 Build 0)  -->
<svg version="1.0" id="Seected" xmlns="http://www.w3.org/2000/svg" xmlns:xlink="http://www.w3.org/1999/xlink" x="0px" y="0px"
	 viewBox="0 0 24 24" enable-background="new 0 0 24 24" xml:space="preserve">
<g>
	<path fill="#3497DB" d="M17.2,15.1c0-0.2,0-0.4,0-0.6c0-0.3,0.1-0.4,0.4-0.4c0.2,0,0.3,0.2,0.3,0.4c0,0.2,0,0.4,0,0.6
		c0,0,0,0,0,0.1c0.8,0.2,1.4,0.6,1.8,1.3c0.3,0.5,0.3,1,0.2,1.5c-0.2,1.1-1.3,2-2.5,2c-1.1,0-2.2-1-2.3-2.1
		C15,16.8,15.8,15.4,17.2,15.1z M17.6,19.3c1,0,1.7-0.7,1.7-1.7c0-1-0.7-1.7-1.7-1.7c-1,0-1.7,0.7-1.7,1.8
		C15.8,18.6,16.6,19.3,17.6,19.3z"/>
	<path fill="#3497DB" d="M6.1,8.8c-0.5-0.1-1-0.3-1.3-0.7C4,7.5,3.8,6.4,4.2,5.5c0.4-1,1.4-1.6,2.4-1.5c1.1,0.1,2.1,1,2.2,2.1
		C9,7.2,8.3,8.3,7.3,8.7C7.2,8.7,7.1,8.8,7,8.8c-0.2,0-0.3,0.1-0.2,0.3c0,0.2,0,0.3,0,0.5c0,0.2-0.2,0.4-0.4,0.4
		c-0.2,0-0.3-0.2-0.3-0.4C6.1,9.3,6.1,9.1,6.1,8.8z M4.7,6.4c0,1,0.7,1.7,1.7,1.7c1,0,1.7-0.7,1.7-1.7c0-1-0.7-1.7-1.7-1.7
		C5.4,4.7,4.7,5.4,4.7,6.4z"/>
	<path fill="#3497DB" d="M11.4,6.8c0.5,0.5,0.9,0.9,1.4,1.4c0,0,0.1,0.1,0.1,0.1c0.1,0.1,0.1,0.4,0,0.5c-0.1,0.1-0.3,0.1-0.5,0
		c-0.2-0.2-0.5-0.5-0.7-0.7c-0.5-0.5-0.9-0.9-1.4-1.4c-0.2-0.2-0.2-0.4,0-0.6c0.7-0.7,1.3-1.3,2-2C12.5,4.1,12.6,4,12.7,4
		C12.8,4,13,4.1,13,4.2c0,0.1,0,0.3-0.1,0.4c-0.4,0.4-0.8,0.8-1.2,1.2C11.6,5.9,11.5,6,11.5,6c0,0,0,0,0,0.1c0.3,0,0.7,0,1,0
		c0.3,0,0.4,0.1,0.4,0.3c0,0.2-0.2,0.3-0.4,0.4C12.2,6.8,11.8,6.8,11.4,6.8z"/>
	<path fill="#3497DB" d="M12.6,17.2c-0.5-0.5-0.9-0.9-1.3-1.3c-0.3-0.3-0.3-0.5-0.1-0.6c0.2-0.2,0.4-0.1,0.6,0.2
		c0.6,0.6,1.3,1.3,1.9,1.9c0.2,0.2,0.2,0.4,0,0.6c-0.7,0.7-1.3,1.3-2,2c-0.1,0.1-0.2,0.1-0.3,0.1c-0.1,0-0.2-0.1-0.3-0.2
		c0-0.1,0-0.3,0.1-0.4c0.4-0.4,0.7-0.7,1.1-1.1c0.1-0.1,0.2-0.2,0.4-0.4c-0.4,0-0.8,0-1.1,0c-0.3,0-0.4-0.1-0.4-0.3
		c0-0.2,0.2-0.3,0.4-0.4C11.8,17.2,12.2,17.2,12.6,17.2z"/>
	<path fill="#3497DB" d="M17.9,12.9c0,0.2,0,0.3,0,0.5c0,0.2-0.1,0.3-0.3,0.3c-0.2,0-0.3-0.1-0.4-0.3c0-0.4,0-0.7,0-1.1
		c0-0.2,0.2-0.3,0.4-0.3c0.2,0,0.3,0.2,0.3,0.4C17.9,12.5,17.9,12.7,17.9,12.9z"/>
	<path fill="#3497DB" d="M17.9,10.8c0,0.2,0,0.3,0,0.5c0,0.2-0.1,0.4-0.3,0.4c-0.2,0-0.3-0.1-0.4-0.3c0-0.4,0-0.7,0-1.1
		c0-0.2,0.2-0.3,0.3-0.3c0.2,0,0.3,0.1,0.3,0.4C17.9,10.4,17.9,10.6,17.9,10.8L17.9,10.8z"/>
	<path fill="#3497DB" d="M6.8,11.1c0,0.2,0,0.3,0,0.5c0,0.2-0.1,0.4-0.4,0.4c-0.2,0-0.3-0.2-0.3-0.4c0-0.3,0-0.6,0-1
		c0-0.2,0.1-0.4,0.3-0.4c0.2,0,0.3,0.1,0.4,0.4C6.8,10.8,6.8,11,6.8,11.1z"/>
	<path fill="#3497DB" d="M6.1,13.2c0-0.2,0-0.3,0-0.5c0-0.2,0.1-0.3,0.3-0.4c0.2,0,0.4,0.1,0.4,0.3c0,0.4,0,0.7,0,1.1
		c0,0.2-0.2,0.3-0.4,0.3c-0.2,0-0.3-0.2-0.3-0.4c0-0.1,0-0.2,0-0.3C6.1,13.4,6.1,13.3,6.1,13.2z"/>
	<path fill="#3497DB" d="M9.9,17.9c-0.2,0-0.4,0-0.6-0.1c-0.3,0-0.4-0.2-0.4-0.4c0-0.2,0.2-0.3,0.5-0.3c0.3,0,0.6,0,0.8,0
		c0.3,0,0.4,0.1,0.4,0.4c0,0.2-0.2,0.3-0.4,0.3C10.1,17.9,10,17.9,9.9,17.9C9.9,17.9,9.9,17.9,9.9,17.9z"/>
	<path fill="#3497DB" d="M14.1,6.1c0.2,0,0.4,0,0.7,0.1c0.2,0,0.3,0.2,0.3,0.4c0,0.2-0.2,0.3-0.4,0.3c-0.3,0-0.7,0-1,0
		c-0.2,0-0.4-0.2-0.4-0.3c0-0.2,0.1-0.3,0.4-0.3c0,0,0.1,0,0.1,0C13.9,6.1,14,6.1,14.1,6.1C14.1,6.1,14.1,6.1,14.1,6.1z"/>
	<path fill="#3497DB" d="M7.4,16.2c0.1,0.1,0.2,0.1,0.3,0.2c0.2,0.2,0.5,0.3,0.7,0.5c0.2,0.1,0.3,0.3,0.2,0.5
		c-0.1,0.2-0.3,0.2-0.5,0.1c-0.3-0.2-0.6-0.4-0.9-0.6c-0.1-0.1-0.2-0.3-0.1-0.4C7.2,16.4,7.3,16.3,7.4,16.2z"/>
	<path fill="#3497DB" d="M15.7,6.4c0,0,0.1,0,0.1,0c0.3,0.2,0.7,0.5,1,0.7c0.1,0.1,0.1,0.3,0,0.5c-0.1,0.1-0.3,0.1-0.5,0
		c-0.3-0.2-0.6-0.4-0.8-0.6c-0.1-0.1-0.2-0.2-0.1-0.4C15.4,6.6,15.6,6.5,15.7,6.4C15.7,6.4,15.7,6.4,15.7,6.4z"/>
	<path fill="#3497DB" d="M6.1,14.8c0-0.2,0.1-0.3,0.3-0.4c0.2,0,0.3,0.1,0.4,0.2c0.1,0.3,0.2,0.7,0.3,1c0.1,0.2,0,0.3-0.2,0.4
		c-0.2,0.1-0.3,0.1-0.4-0.1C6.4,15.6,6.2,15.2,6.1,14.8C6.1,14.8,6.1,14.8,6.1,14.8z"/>
	<path fill="#3497DB" d="M17.9,9.2c0,0.2-0.1,0.3-0.3,0.4c-0.2,0-0.3-0.1-0.4-0.2c-0.1-0.3-0.2-0.7-0.3-1c-0.1-0.2,0-0.3,0.2-0.4
		c0.2-0.1,0.3-0.1,0.4,0.1C17.6,8.4,17.7,8.8,17.9,9.2C17.9,9.2,17.9,9.2,17.9,9.2z"/>
</g>
</svg>
