<?xml version="1.0" encoding="utf-8"?>
<!-- Generator: Adobe Illustrator 18.1.1, SVG Export Plug-In . SVG Version: 6.00 Build 0)  -->
<svg version="1.1" id="Layer_1" xmlns="http://www.w3.org/2000/svg" xmlns:xlink="http://www.w3.org/1999/xlink" x="0px" y="0px"
	 viewBox="0 0 29 29" enable-background="new 0 0 29 29" xml:space="preserve">
<g>
	<g>
		<g>
			<path fill="#50BA6F" d="M14.5,23C9.8,23,6,19.2,6,14.5C6,9.8,9.8,6,14.5,6c4.7,0,8.5,3.8,8.5,8.5C23,19.2,19.2,23,14.5,23z
				 M14.5,7C10.4,7,7,10.4,7,14.5c0,4.1,3.4,7.5,7.5,7.5c4.1,0,7.5-3.4,7.5-7.5C22,10.4,18.6,7,14.5,7z"/>
		</g>
	</g>
	<path fill-rule="evenodd" clip-rule="evenodd" fill="#50BA6F" d="M17.8,13.7c-1,1.1-1.9,2.1-2.9,3.2c-0.5,0.5-1,1-1.5,1.5
		c-0.2,0.2-0.5,0.3-0.9,0.3c-0.4,0-0.6-0.2-0.9-0.6c-0.5-0.8-1-1.6-1.5-2.5c-0.1-0.3-0.3-0.6-0.4-1c0-0.1-0.1-0.3,0-0.3
		c0.1-0.1,0.2,0,0.3,0c0.3,0.1,0.6,0.3,0.9,0.5c0.5,0.4,1,0.8,1.5,1.3c0.1,0.1,0.1,0.1,0.2,0c0.7-0.6,1.5-1.2,2.2-1.8
		c1-0.8,2-1.5,3-2.2c0.3-0.2,0.7-0.5,1-0.6c0.1,0,0.2-0.1,0.2-0.1c0.1,0,0.2,0,0.1,0.1C19.1,12.3,17.8,13.7,17.8,13.7z"/>
</g>
</svg>
