<?xml version="1.0" encoding="utf-8"?>
<!-- Generator: Adobe Illustrator 18.1.1, SVG Export Plug-In . SVG Version: 6.00 Build 0)  -->
<svg version="1.0" id="Seected" xmlns="http://www.w3.org/2000/svg" xmlns:xlink="http://www.w3.org/1999/xlink" x="0px" y="0px"
	 viewBox="0 0 24 24" enable-background="new 0 0 24 24" xml:space="preserve">
<g>
	<g>
		<g>
			<path fill="#6B6B6B" stroke="#6B6B6B" stroke-width="0.3" stroke-miterlimit="10" d="M19.7,20.2H4.3C4.2,20.2,4,20,4,19.8V5.2
				c0-0.2,0.1-0.3,0.3-0.3h15.3c0.2,0,0.3,0.1,0.3,0.3v14.6C20,20,19.8,20.2,19.7,20.2L19.7,20.2z M4.7,19.5h14.7V5.6H4.7V19.5
				L4.7,19.5z"/>
		</g>
		<g>
			<path fill="#6B6B6B" stroke="#6B6B6B" stroke-width="0.3" stroke-miterlimit="10" d="M16.2,6.6c-0.2,0-0.3-0.1-0.3-0.3V4.2
				c0-0.2,0.1-0.3,0.3-0.3c0.2,0,0.3,0.1,0.3,0.3v2.2C16.5,6.5,16.4,6.6,16.2,6.6L16.2,6.6z"/>
		</g>
		<g>
			<path fill="#6B6B6B" stroke="#6B6B6B" stroke-width="0.3" stroke-miterlimit="10" d="M7.9,6.6c-0.2,0-0.3-0.1-0.3-0.3V4.2
				c0-0.2,0.1-0.3,0.3-0.3c0.2,0,0.3,0.1,0.3,0.3v2.2C8.2,6.5,8.1,6.6,7.9,6.6L7.9,6.6z"/>
		</g>
		<g>
			<path fill="#6B6B6B" stroke="#6B6B6B" stroke-width="0.3" stroke-miterlimit="10" d="M19.6,10.1H4.4c-0.2,0-0.3-0.1-0.3-0.3
				c0-0.2,0.1-0.3,0.3-0.3h15.2c0.2,0,0.3,0.1,0.3,0.3C20,9.9,19.8,10.1,19.6,10.1L19.6,10.1z"/>
		</g>
	</g>
	<g>
		<path fill="#6B6B6B" d="M10.8,12.4c-1,0-1.7,0.9-1.7,2.5c0,1.5,0.6,2.4,1.6,2.4c1.1,0,1.7-0.9,1.7-2.5
			C12.4,13.3,11.8,12.4,10.8,12.4z M10.8,13.1c0.7,0,0.8,1.1,0.8,1.8c0,0.7-0.1,1.8-0.8,1.8c-0.5,0-0.8-0.7-0.8-1.8
			C9.9,13.8,10.3,13.1,10.8,13.1z"/>
		<polygon fill="#6B6B6B" points="14.3,12.5 13.2,13.1 13.4,13.7 14.1,13.3 14.1,17.2 14.9,17.2 14.9,12.5 		"/>
	</g>
</g>
</svg>
