<?xml version="1.0" encoding="utf-8"?>
<!-- Generator: Adobe Illustrator 18.1.1, SVG Export Plug-In . SVG Version: 6.00 Build 0)  -->
<svg version="1.0" id="Seected" xmlns="http://www.w3.org/2000/svg" xmlns:xlink="http://www.w3.org/1999/xlink" x="0px" y="0px"
	 viewBox="0 0 24 24" enable-background="new 0 0 24 24" xml:space="preserve">
<g>
	<g>
		<path fill="#6B6B6B" stroke="#6B6B6B" stroke-width="0.3" stroke-miterlimit="10" d="M19.8,20.3H4.2c-0.2,0-0.3-0.1-0.3-0.3V5.1
			C3.9,5,4,4.8,4.2,4.8h15.5c0.2,0,0.3,0.1,0.3,0.3v14.8C20.1,20.1,20,20.3,19.8,20.3L19.8,20.3z M4.6,19.6h14.9V5.5H4.6V19.6
			L4.6,19.6z"/>
	</g>
	<g>
		<path fill="#6B6B6B" stroke="#6B6B6B" stroke-width="0.3" stroke-miterlimit="10" d="M16.2,6.6c-0.2,0-0.3-0.1-0.3-0.3V4.1
			c0-0.2,0.1-0.3,0.3-0.3c0.2,0,0.3,0.1,0.3,0.3v2.2C16.6,6.4,16.4,6.6,16.2,6.6L16.2,6.6z"/>
	</g>
	<g>
		<path fill="#6B6B6B" stroke="#6B6B6B" stroke-width="0.3" stroke-miterlimit="10" d="M7.8,6.6c-0.2,0-0.3-0.1-0.3-0.3V4.1
			c0-0.2,0.1-0.3,0.3-0.3c0.2,0,0.3,0.1,0.3,0.3v2.2C8.2,6.4,8,6.6,7.8,6.6L7.8,6.6z"/>
	</g>
	<g>
		<path fill="#6B6B6B" stroke="#6B6B6B" stroke-width="0.3" stroke-miterlimit="10" d="M19.7,10H4.3C4.1,10,4,9.9,4,9.7
			c0-0.2,0.1-0.3,0.3-0.3h15.4c0.2,0,0.3,0.1,0.3,0.3C20.1,9.9,19.9,10,19.7,10L19.7,10z"/>
	</g>
	<g>
		<g>
			<polygon fill="#6B6B6B" stroke="#6B6B6B" stroke-width="0.3" stroke-miterlimit="10" points="8.3,12.3 7,12.3 7,13.6 8.3,13.6 
				8.3,12.3 			"/>
		</g>
		<g>
			<polygon fill="#6B6B6B" stroke="#6B6B6B" stroke-width="0.3" stroke-miterlimit="10" points="8.3,16 7,16 7,17.3 8.3,17.3 
				8.3,16 			"/>
		</g>
	</g>
	<g>
		<g>
			<polygon fill="#6B6B6B" stroke="#6B6B6B" stroke-width="0.3" stroke-miterlimit="10" points="11.2,12.3 9.9,12.3 9.9,13.6 
				11.2,13.6 11.2,12.3 			"/>
		</g>
		<g>
			<polygon fill="#6B6B6B" stroke="#6B6B6B" stroke-width="0.3" stroke-miterlimit="10" points="11.2,16 9.9,16 9.9,17.3 11.2,17.3 
				11.2,16 			"/>
		</g>
	</g>
	<g>
		<g>
			<polygon fill="#6B6B6B" stroke="#6B6B6B" stroke-width="0.3" stroke-miterlimit="10" points="14,12.3 12.7,12.3 12.7,13.6 
				14,13.6 14,12.3 			"/>
		</g>
		<g>
			<polygon fill="#6B6B6B" stroke="#6B6B6B" stroke-width="0.3" stroke-miterlimit="10" points="14,16 12.7,16 12.7,17.3 14,17.3 
				14,16 			"/>
		</g>
	</g>
	<g>
		<g>
			<polygon fill="#6B6B6B" stroke="#6B6B6B" stroke-width="0.3" stroke-miterlimit="10" points="16.8,12.3 15.5,12.3 15.5,13.6 
				16.8,13.6 16.8,12.3 			"/>
		</g>
		<g>
			<polygon fill="#6B6B6B" stroke="#6B6B6B" stroke-width="0.3" stroke-miterlimit="10" points="16.8,16 15.5,16 15.5,17.3 
				16.8,17.3 16.8,16 			"/>
		</g>
	</g>
</g>
</svg>
