<?xml version="1.0" encoding="utf-8"?>
<!-- Generator: Adobe Illustrator 18.1.1, SVG Export Plug-In . SVG Version: 6.00 Build 0)  -->
<svg version="1.0" id="Seected" xmlns="http://www.w3.org/2000/svg" xmlns:xlink="http://www.w3.org/1999/xlink" x="0px" y="0px"
	 viewBox="0 0 24 24" enable-background="new 0 0 24 24" xml:space="preserve">
<g>
	<path fill="#2ECD71" d="M4.7,10.5C4.5,10.2,4.2,10,4,9.7c4.1-4.2,11.5-4.5,16,0c-0.2,0.2-0.5,0.5-0.7,0.7c-2-1.9-4.4-2.9-7.3-2.9
		C9.2,7.5,6.8,8.5,4.7,10.5z"/>
	<path fill="#2ECD71" d="M18.2,11.5c-0.2,0.2-0.5,0.5-0.7,0.7c-1.6-1.4-3.4-2.1-5.5-2.1c-2.1,0-3.9,0.8-5.4,2.2
		c-0.1-0.1-0.3-0.3-0.4-0.4c-0.1-0.1-0.2-0.3-0.4-0.4C9,8.2,14.7,7.9,18.2,11.5z"/>
	<path fill="#2ECD71" d="M8.6,14.3C8.3,14,8,13.8,7.8,13.5c2.3-2.3,6.2-2.3,8.4,0c-0.2,0.2-0.5,0.5-0.7,0.7
		C13.5,12.4,10.4,12.5,8.6,14.3z"/>
	<path fill="#2ECD71" d="M12,17.6c-0.8,0-1.4-0.6-1.4-1.4c0-0.8,0.6-1.4,1.4-1.4c0.8,0,1.4,0.6,1.4,1.4C13.4,16.9,12.8,17.6,12,17.6
		z"/>
</g>
</svg>
