<?xml version="1.0" encoding="utf-8"?>
<!-- Generator: Adobe Illustrator 18.1.1, SVG Export Plug-In . SVG Version: 6.00 Build 0)  -->
<svg version="1.0" id="Seected" xmlns="http://www.w3.org/2000/svg" xmlns:xlink="http://www.w3.org/1999/xlink" x="0px" y="0px"
	 viewBox="0 0 24 24" enable-background="new 0 0 24 24" xml:space="preserve">
<g>
	<path fill="#6B6B6B" d="M19.3,9.9c0,0.8,0,1.6,0,2.4c0,0.5-0.3,0.7-0.8,0.8l-0.1,0l-0.3,0c-0.3,0-0.5,0.2-0.5,0.5l0,0.9l0,0.5
		l-0.2,0.1l-0.1-0.1c-0.2-0.2-0.3-0.3-0.5-0.5c-0.4-0.4-0.7-0.7-1.1-1.1c-0.3-0.3-0.6-0.5-1-0.4c-0.2,0-0.3,0-0.5,0
		c-0.1,0-0.2,0-0.2,0h-0.1v-2.9c0-0.9-0.7-1.6-1.6-1.6c-0.3,0-0.6,0-0.9,0l-2,0l0-0.2c0,0,0-0.1,0-0.1c0-0.5,0-1,0-1.5
		C9.4,6.3,9.7,6,10.1,6L14,6c0-0.3,0.1-0.6,0.1-0.8l-4,0c-1,0-1.6,0.7-1.6,1.6v1.8l-2.9,0c-0.6,0-1.2,0-1.8,0
		c-0.9,0-1.6,0.7-1.6,1.6c0,1.9,0,3.8,0,5.7c0,0.7,0.5,1.4,1.3,1.5c0.1,0,0.1,0,0.2,0l0.2,0l0,0.7c0,0.5,0,1,0,1.5
		c0,0.3,0.1,0.4,0.3,0.5c0.2,0.1,0.3,0,0.6-0.2c0.4-0.4,0.9-0.9,1.3-1.3c0.4-0.4,0.8-0.8,1.2-1.2c0.1-0.1,0.2-0.2,0.4-0.2
		c1,0,2,0,3,0l1.7,0c0.8,0,1.4-0.5,1.6-1.3c0-0.2,0-0.3,0-0.5l0-0.2c0-0.3,0-0.6,0-0.9l0-0.5H14c0.1,0,0.1,0,0.2,0
		c0.1,0,0.1,0,0.2,0h0c0.1,0,0.1,0,0.2,0c0.3,0,0.6,0.1,0.7,0.3c0.6,0.6,1.1,1.1,1.7,1.7l0.7,0.7c0.2,0.2,0.3,0.2,0.5,0.1
		c0.2-0.1,0.3-0.3,0.3-0.4l0-1.3l0-1l0.1,0c1-0.1,1.6-0.7,1.6-1.7l0-2.7C19.9,9.7,19.6,9.8,19.3,9.9z M13.1,15.7
		c0,0.5-0.3,0.8-0.8,0.8l-2.4,0c-0.9,0-1.7,0-2.6,0c-0.2,0-0.3,0.1-0.5,0.2c-0.4,0.4-0.8,0.8-1.2,1.2l-0.4,0.4c0,0-0.1,0.1-0.1,0.1
		l-0.3,0.3l0-0.7c0-0.4,0-0.7,0-1c0-0.3-0.2-0.5-0.5-0.5l-0.4,0c-0.5,0-0.8-0.3-0.8-0.8v-5c0-0.2,0-0.4,0-0.6c0-0.4,0.3-0.7,0.7-0.7
		l4.6,0l3.8,0c0.5,0,0.8,0.3,0.8,0.8C13.1,12,13.1,13.9,13.1,15.7z"/>
	<g>
		<g>
			<g>
				<g>
					<path fill="#E67E22" d="M18,9.2L18,9.2c-1.7,0-3-1.3-3-3v0c0-1.7,1.3-3,3-3h0c1.7,0,3,1.3,3,3v0C21,7.8,19.7,9.2,18,9.2z"/>
				</g>
			</g>
		</g>
	</g>
</g>
</svg>
