<?xml version="1.0" encoding="utf-8"?>
<!-- Generator: Adobe Illustrator 18.1.1, SVG Export Plug-In . SVG Version: 6.00 Build 0)  -->
<svg version="1.0" id="Seected" xmlns="http://www.w3.org/2000/svg" xmlns:xlink="http://www.w3.org/1999/xlink" x="0px" y="0px"
	 viewBox="0 0 24 24" enable-background="new 0 0 24 24" xml:space="preserve">
<g>
	<path fill="#6B6B6B" d="M20,13l0-5.4c0-1-0.7-1.7-1.7-1.7L10,6C9,6,8.4,6.6,8.4,7.6v1.8l-2.9,0c-0.6,0-1.2,0-1.8,0
		c-0.9,0-1.6,0.7-1.6,1.6c0,1.9,0,3.8,0,5.7c0,0.7,0.5,1.4,1.3,1.5c0.1,0,0.1,0,0.2,0l0.2,0l0,0.7c0,0.5,0,1,0,1.5
		c0,0.3,0.1,0.4,0.3,0.5c0.2,0.1,0.3,0,0.6-0.2c0.4-0.4,0.9-0.9,1.3-1.3c0.4-0.4,0.8-0.8,1.2-1.2c0.1-0.1,0.2-0.2,0.4-0.2
		c1,0,2,0,3,0l1.7,0c0.8,0,1.4-0.5,1.6-1.3c0-0.2,0-0.3,0-0.5l0-0.2c0-0.3,0-0.6,0-0.9l0-0.5h0.1c0.1,0,0.1,0,0.2,0
		c0.1,0,0.1,0,0.2,0h0c0.1,0,0.1,0,0.2,0c0.3,0,0.6,0.1,0.7,0.3c0.6,0.6,1.1,1.1,1.7,1.7l0.7,0.7c0.2,0.2,0.3,0.2,0.5,0.1
		c0.2-0.1,0.3-0.3,0.3-0.4l0-1.3l0-1l0.1,0C19.5,14.7,20,14.1,20,13z M12.9,16.6c0,0.5-0.3,0.8-0.8,0.8l-2.4,0c-0.9,0-1.7,0-2.6,0
		c-0.2,0-0.3,0.1-0.5,0.2c-0.4,0.4-0.8,0.8-1.2,1.2l-0.4,0.4c0,0-0.1,0.1-0.1,0.1l-0.3,0.3l0-0.7c0-0.4,0-0.7,0-1
		c0-0.3-0.2-0.5-0.5-0.5l-0.4,0C3.3,17.3,3,17,3,16.5v-5c0-0.2,0-0.4,0-0.6c0-0.4,0.3-0.7,0.7-0.7l4.6,0l3.8,0
		c0.5,0,0.8,0.3,0.8,0.8C12.9,12.8,12.9,14.7,12.9,16.6z M19.2,13.2c0,0.5-0.3,0.7-0.8,0.8l-0.1,0l-0.3,0c-0.3,0-0.5,0.2-0.5,0.5
		l0,0.9l0,0.5l-0.2,0.1l-0.1-0.1c-0.2-0.2-0.3-0.3-0.5-0.5c-0.4-0.4-0.7-0.7-1.1-1.1c-0.3-0.3-0.6-0.5-1-0.4c-0.2,0-0.3,0-0.5,0
		c-0.1,0-0.2,0-0.2,0h-0.1V11c0-0.9-0.7-1.6-1.6-1.6c-0.3,0-0.6,0-0.9,0l-2,0l0-0.2c0,0,0-0.1,0-0.1c0-0.5,0-1,0-1.5
		c0-0.5,0.3-0.8,0.7-0.8l4.6,0l3.8,0c0.5,0,0.8,0.3,0.8,0.8C19.2,9.4,19.2,11.3,19.2,13.2z"/>
</g>
</svg>
