<?xml version="1.0" encoding="utf-8"?>
<!-- Generator: Adobe Illustrator 18.1.1, SVG Export Plug-In . SVG Version: 6.00 Build 0)  -->
<svg version="1.0" id="Layer_1" xmlns="http://www.w3.org/2000/svg" xmlns:xlink="http://www.w3.org/1999/xlink" x="0px" y="0px"
	 viewBox="0 0 24 24" enable-background="new 0 0 24 24" xml:space="preserve">
<g>
	<g>
		<path fill="#6B6C6C" d="M15.4,8.5H5.6C5.2,8.5,5,8.7,5,9.1c0,3.3,0,6.8,0,10c0,0.4,0.2,0.6,0.6,0.6h9.9c0.4,0,0.6-0.2,0.6-0.6
			c0-3.3,0-6.7,0-10C16.1,8.7,15.9,8.5,15.4,8.5z M15.1,9.5v9.2c0,0-0.1,0-0.1,0H6.1c0,0-0.1,0-0.1,0c0,0,0-0.1,0-0.1v-9
			c0,0,0-0.1,0-0.1c0,0,0.1,0,0.1,0H15.1z"/>
	</g>
	<path fill="#6B6C6C" d="M19.3,4.7l-8.5,0l-2.5,0C8,4.7,7.7,4.9,7.7,5.2l0,0.2c0,0.4,0,0.8,0,1.2C7.8,6.7,7.9,6.9,8,7
		c0.1,0.1,0.2,0.1,0.3,0.1c0.3,0,0.5-0.2,0.5-0.5c0-0.2,0-0.5,0-0.7l0-0.2h4.5c1.8,0,3.8,0,5.6,0c0,0,0.1,0,0.1,0c0,0,0,0,0,0.1
		c0,2.6,0,6.4,0,8.9v1.2h-0.5c-0.2,0-0.3,0-0.4,0c-0.4,0-0.6,0.2-0.6,0.5c0,0.2,0,0.3,0.1,0.4c0.1,0.1,0.2,0.1,0.4,0.2
		c0.2,0,0.4,0,0.6,0l0.7,0c0.4,0,0.6-0.2,0.6-0.6v-11C20,4.9,19.8,4.7,19.3,4.7z"/>
</g>
</svg>
