<?xml version="1.0" encoding="utf-8"?>
<!-- Generator: Adobe Illustrator 18.1.1, SVG Export Plug-In . SVG Version: 6.00 Build 0)  -->
<svg version="1.0" id="Layer_1" xmlns="http://www.w3.org/2000/svg" xmlns:xlink="http://www.w3.org/1999/xlink" x="0px" y="0px"
	 viewBox="0 0 40 40" enable-background="new 0 0 40 40" xml:space="preserve">
<g>
	<path fill="#27A8DB" d="M7.5,7.4v18.8h6.9v6.4l2-1.8c1.7-1.5,3.4-3,5.1-4.5c0.1-0.1,0.2-0.1,0.4-0.1c1.9,0,3.7,0,5.6,0h5V7.4H7.5z
		 M8.9,24.8v-16h22.2v16h-2.5c-2.4,0-4.7,0-7.1,0c-0.3,0-0.5,0.1-0.8,0.3c-1.3,1.2-2.6,2.3-3.9,3.4l-1.1,1v-4.7H8.9z"/>
	<g>
		<circle fill="#27A8DB" cx="15.4" cy="17.1" r="1.3"/>
		<circle fill="#27A8DB" cx="20" cy="17.1" r="1.3"/>
		<circle fill="#27A8DB" cx="24.6" cy="17.1" r="1.3"/>
	</g>
</g>
</svg>
