<?xml version="1.0" encoding="utf-8"?>
<!-- Generator: Adobe Illustrator 18.1.1, SVG Export Plug-In . SVG Version: 6.00 Build 0)  -->
<svg version="1.1" id="Seected" xmlns="http://www.w3.org/2000/svg" xmlns:xlink="http://www.w3.org/1999/xlink" x="0px" y="0px"
	 viewBox="0 0 24 24" enable-background="new 0 0 24 24" xml:space="preserve">
<g>
	<g>
		<g>
			<path fill="#6B6B6B" d="M13.8,11.9c0-0.1,0-0.3,0-0.4l-0.7,0.7c0.1,0,0.3,0,0.4,0C13.7,12.2,13.8,12.1,13.8,11.9z"/>
			<path fill="#6B6B6B" d="M10.9,10.1c0.3,0.1,0.3,0.1,0.2,0.4c0,0,0,0,0,0c-0.3,0-0.6,0-0.8,0c-0.2,0-0.2,0.1-0.2,0.2
				c0,0.4,0,0.8,0,1.2c0,0.1,0,0.1,0.1,0.2l4.6-4.6c0-1.6-1.5-2.9-3.1-2.6c-1.3,0.2-2.2,1.2-2.3,2.4C9.1,8.5,9.8,9.6,10.9,10.1z
				 M12,6.3c0.7,0,1.3,0.6,1.3,1.4C13.3,8.3,12.7,9,12,9c-0.7,0-1.4-0.6-1.4-1.4C10.6,6.9,11.3,6.3,12,6.3z"/>
			<path fill="#6B6B6B" d="M6.3,15.2c0.4-0.1,0.8-0.2,1.1-0.3l1.7-1.7c-0.5-0.3-1-0.5-1.4-0.8c-0.2-0.1-0.2-0.1-0.3,0.1
				c-0.1,0.3-0.3,0.5-0.4,0.8c-0.3,0.5-0.6,1.1-0.9,1.6C6,15,6,15.1,6.1,15.2C6.1,15.2,6.2,15.2,6.3,15.2z"/>
		</g>
		<path fill="#6B6B6B" d="M16.6,12.3c-0.1-0.2-0.2-0.2-0.3-0.1c-0.6,0.3-1.1,0.6-1.7,0.9c-0.2,0.1-0.5,0.3-0.7,0.4
			c-0.1,0-0.1,0.1-0.1,0.2c0,0.1,0.1,0.2,0.2,0.2c0.1,0,0.1,0,0.2,0.1c0.3,0.1,0.6,0.2,0.9,0.3c-0.4,1.1-1.5,1.9-2.2,1.9
			c0-1,0-2,0-3.1L18,7.8l-0.7-0.7L6.1,18.5l0.7,0.7L9,16.9c0.1,0.1,0.1,0.1,0.2,0.2c0.7,0.5,1.5,0.8,2.4,0.8c1,0.1,2-0.1,2.8-0.7
			c0.9-0.6,1.5-1.3,2-2.3c0-0.1,0.1-0.1,0.1-0.2c0,0,0.1,0,0.1,0c0.3,0.1,0.7,0.2,1,0.3c0.1,0,0.2,0,0.3-0.1c0.1-0.1,0-0.2,0-0.3
			C17.5,13.9,17,13.1,16.6,12.3z M10.2,15.7l0.9-0.9c0,0.4,0,0.9,0,1.3C10.8,16.1,10.5,15.9,10.2,15.7z"/>
	</g>
</g>
</svg>
