<?xml version="1.0" encoding="utf-8"?>
<!-- Generator: Adobe Illustrator 18.1.1, SVG Export Plug-In . SVG Version: 6.00 Build 0)  -->
<svg version="1.0" id="Seected" xmlns="http://www.w3.org/2000/svg" xmlns:xlink="http://www.w3.org/1999/xlink" x="0px" y="0px"
	 viewBox="0 0 24 24" enable-background="new 0 0 24 24" xml:space="preserve">
<g>
	<path fill="#6B6B6B" d="M5,17.9c0-0.1,0-0.1,0-0.2c0-1.2,0-2.3,0-3.5c0-0.1,0-0.1,0-0.2c-0.1-0.3-0.3-0.4-0.6-0.4
		c-0.3,0-0.5,0.3-0.5,0.6c0,1.4,0,2.8,0,4.2c0,0.4,0.2,0.6,0.6,0.6c5,0,9.9,0,14.9,0c0.4,0,0.6-0.2,0.6-0.6c0-1.3,0-2.5,0-3.8
		c0-0.2,0-0.3,0-0.5c0-0.3-0.2-0.5-0.5-0.5c-0.3,0-0.5,0.2-0.6,0.4c0,0.1,0,0.2,0,0.3c0,1.1,0,2.1,0,3.2c0,0.1,0,0.3,0,0.4
		C14.3,17.9,9.7,17.9,5,17.9z M11.5,13.8c-0.1-0.1-0.1-0.1-0.1-0.2c-0.7-0.8-1.4-1.6-2.1-2.5c-0.2-0.3-0.6-0.3-0.8-0.1
		c-0.2,0.2-0.3,0.5,0,0.8c1.1,1.2,2.1,2.5,3.2,3.7c0.3,0.3,0.6,0.3,0.9,0c1.1-1.2,2.1-2.5,3.2-3.7c0.1-0.1,0.2-0.3,0.1-0.5
		c-0.1-0.2-0.2-0.3-0.4-0.4c-0.2,0-0.4,0-0.6,0.2c-0.7,0.8-1.4,1.7-2.1,2.5c0,0-0.1,0.1-0.1,0.1c0-0.1,0-0.1,0-0.2
		c0-2.1,0-4.2,0-6.2c0-0.6,0-1.2,0-1.8c0-0.3-0.2-0.5-0.5-0.5c-0.3,0-0.5,0.2-0.6,0.4c0,0.1,0,0.2,0,0.3c0,2,0,3.9,0,5.9
		C11.5,12.3,11.5,13,11.5,13.8z"/>
</g>
</svg>
