<?xml version="1.0" encoding="utf-8"?>
<!-- Generator: Adobe Illustrator 18.1.1, SVG Export Plug-In . SVG Version: 6.00 Build 0)  -->
<svg version="1.0" id="Seected" xmlns="http://www.w3.org/2000/svg" xmlns:xlink="http://www.w3.org/1999/xlink" x="0px" y="0px"
	 viewBox="0 0 24 24" enable-background="new 0 0 24 24" xml:space="preserve">
<g>
	<path fill="#6B6B6B" stroke="#6B6B6B" stroke-width="0.3" stroke-miterlimit="10" d="M12,10.9c0.3,0,0.7,0,1,0
		c0.3,0,0.4-0.1,0.4-0.4c0-0.4,0-0.9,0-1.3c0-0.3-0.1-0.4-0.4-0.4c-0.7,0-1.3,0-2,0c-0.3,0-0.4,0.1-0.4,0.4c0,0.4,0,0.8,0,1.3
		c0,0.3,0.1,0.4,0.4,0.4C11.3,10.9,11.7,10.9,12,10.9z"/>
	<path fill="#6B6B6B" stroke="#6B6B6B" stroke-width="0.3" stroke-miterlimit="10" d="M12,13.1c-0.3,0-0.7,0-1,0
		c-0.3,0-0.4,0.1-0.4,0.4c0,0.4,0,0.8,0,1.3c0,0.3,0.1,0.4,0.4,0.4c0.6,0,1.3,0,1.9,0c0.3,0,0.4-0.1,0.4-0.4c0-0.4,0-0.8,0-1.3
		c0-0.3-0.1-0.4-0.4-0.4C12.7,13.1,12.3,13.1,12,13.1z"/>
	<path fill="#6B6B6B" stroke="#6B6B6B" stroke-width="0.3" stroke-miterlimit="10" d="M17.2,10.9c0.3,0,0.6,0,1,0
		c0.3,0,0.4-0.1,0.4-0.4c0-0.4,0-0.8,0-1.3c0-0.3-0.1-0.4-0.4-0.4c-0.7,0-1.3,0-2,0c-0.3,0-0.4,0.1-0.4,0.4c0,0.4,0,0.8,0,1.3
		c0,0.3,0.1,0.4,0.4,0.4C16.5,10.9,16.9,10.9,17.2,10.9z"/>
	<path fill="#6B6B6B" stroke="#6B6B6B" stroke-width="0.3" stroke-miterlimit="10" d="M12,17.4c-0.3,0-0.6,0-1,0
		c-0.3,0-0.4,0.1-0.4,0.4c0,0.4,0,0.8,0,1.3c0,0.3,0.1,0.4,0.4,0.4c0.6,0,1.3,0,1.9,0c0.3,0,0.4-0.1,0.4-0.4c0-0.4,0-0.8,0-1.3
		c0-0.3-0.1-0.4-0.4-0.4C12.6,17.4,12.3,17.4,12,17.4z"/>
	<path fill="#6B6B6B" stroke="#6B6B6B" stroke-width="0.3" stroke-miterlimit="10" d="M17.2,13.1c-0.3,0-0.6,0-1,0
		c-0.3,0-0.4,0.1-0.4,0.4c0,0.4,0,0.8,0,1.2c0,0.3,0.1,0.4,0.4,0.4c0.6,0,1.3,0,1.9,0c0.3,0,0.4-0.1,0.4-0.4c0-0.4,0-0.9,0-1.3
		c0-0.3-0.1-0.4-0.4-0.4C17.8,13.1,17.5,13.1,17.2,13.1z"/>
	<path fill="#6B6B6B" stroke="#6B6B6B" stroke-width="0.3" stroke-miterlimit="10" d="M17.2,6.6c0.3,0,0.6,0,1,0
		c0.3,0,0.4-0.1,0.4-0.4c0-0.4,0-0.9,0-1.3c0-0.2-0.1-0.4-0.4-0.4c-0.7,0-1.3,0-2,0c-0.3,0-0.4,0.1-0.4,0.4c0,0.4,0,0.8,0,1.3
		c0,0.3,0.1,0.4,0.4,0.4C16.5,6.6,16.9,6.6,17.2,6.6z"/>
	<path fill="#6B6B6B" stroke="#6B6B6B" stroke-width="0.3" stroke-miterlimit="10" d="M6.8,15.2c0.3,0,0.7,0,1,0
		c0.2,0,0.4-0.1,0.4-0.4c0-0.4,0-0.9,0-1.3c0-0.2-0.1-0.4-0.4-0.4c-0.7,0-1.3,0-2,0c-0.3,0-0.4,0.1-0.4,0.4c0,0.4,0,0.9,0,1.3
		c0,0.3,0.1,0.4,0.4,0.4C6.2,15.2,6.5,15.2,6.8,15.2z"/>
	<path fill="#6B6B6B" stroke="#6B6B6B" stroke-width="0.3" stroke-miterlimit="10" d="M12,6.6c0.3,0,0.7,0,1,0
		c0.3,0,0.4-0.1,0.4-0.4c0-0.4,0-0.9,0-1.3c0-0.3-0.1-0.4-0.4-0.4c-0.6,0-1.3,0-1.9,0c-0.3,0-0.4,0.1-0.4,0.4c0,0.4,0,0.8,0,1.3
		c0,0.3,0.1,0.4,0.4,0.4C11.4,6.6,11.7,6.6,12,6.6z"/>
	<path fill="#6B6B6B" stroke="#6B6B6B" stroke-width="0.3" stroke-miterlimit="10" d="M6.8,10.9c0.3,0,0.6,0,1,0
		c0.3,0,0.4-0.1,0.4-0.4c0-0.4,0-0.8,0-1.3c0-0.3-0.1-0.4-0.4-0.4c-0.7,0-1.3,0-2,0C5.6,8.9,5.5,9,5.5,9.2c0,0.4,0,0.8,0,1.3
		c0,0.3,0.1,0.4,0.4,0.4C6.2,10.9,6.5,10.9,6.8,10.9z"/>
	<path fill="#6B6B6B" stroke="#6B6B6B" stroke-width="0.3" stroke-miterlimit="10" d="M6.8,6.6c0.3,0,0.6,0,0.9,0
		c0.3,0,0.4-0.1,0.4-0.4c0-0.4,0-0.8,0-1.2c0-0.3-0.1-0.4-0.4-0.4c-0.6,0-1.3,0-1.9,0c-0.3,0-0.4,0.1-0.4,0.4c0,0.4,0,0.8,0,1.2
		c0,0.3,0.1,0.4,0.4,0.4C6.2,6.6,6.5,6.6,6.8,6.6z"/>
</g>
</svg>
