<?xml version="1.0" encoding="utf-8"?>
<!-- Generator: Adobe Illustrator 18.1.1, SVG Export Plug-In . SVG Version: 6.00 Build 0)  -->
<svg version="1.0" id="Seected" xmlns="http://www.w3.org/2000/svg" xmlns:xlink="http://www.w3.org/1999/xlink" x="0px" y="0px"
	 viewBox="0 0 24 24" enable-background="new 0 0 24 24" xml:space="preserve">
<g>
	<g>
		<g>
			<path fill="#6B6B6B" d="M19,18.6l0-2.3c0-2.9,0-5.8,0-8.6c0-0.2-0.1-0.4-0.2-0.5c-0.8-0.8-1.6-1.6-2.4-2.4
				c-0.1-0.1-0.3-0.2-0.5-0.2l-7.6,0C7.9,4.5,7.7,4.7,7.7,5v1.4H3.5C3.2,6.5,3,6.6,3,7v13.6C3,20.9,3.1,21,3.5,21l10.3,0
				c0.4,0,0.5-0.1,0.5-0.5v-1.5l4.3,0C18.8,19.1,19,18.9,19,18.6z M13.5,20.2H3.8V7.3l7.3,0l2.4,2.4v0.1c0,1.9,0,4.8,0,8.7V20.2z
				 M18.2,18.3h-3.9v-2.4H16c0.2,0,0.4-0.1,0.4-0.3c0-0.1,0-0.2-0.1-0.3c-0.1-0.1-0.2-0.2-0.4-0.2h-1.7v-2.8l1.8,0
				c0.2,0,0.3-0.2,0.3-0.4c0-0.2-0.2-0.4-0.4-0.4c0,0,0,0-0.1,0l-1.7,0c0-0.8,0-1.1,0-1.9c0-0.2-0.1-0.3-0.2-0.5
				c-0.8-0.8-1.7-1.7-2.5-2.5c-0.1-0.1-0.3-0.2-0.4-0.2l-2.6,0V5.3l7.3,0l1.1,1.1c0.4,0.4,0.8,0.8,1.2,1.2l0.1,0.1v0.1
				c0,2.9,0,5.8,0,8.6V18.3z"/>
			<path fill="#6B6B6B" d="M10.6,17.9c0.1,0,0.3,0,0.4-0.1c0.1-0.1,0.1-0.2,0.1-0.3c0-0.2-0.2-0.4-0.5-0.4H6.9c-0.2,0-0.3,0-0.4,0.1
				c-0.1,0.1-0.1,0.2-0.1,0.3c0,0.2,0.2,0.4,0.5,0.4L10.6,17.9z"/>
			<path fill="#6B6B6B" d="M11,14c0-0.1,0-0.2-0.1-0.3c-0.1-0.1-0.2-0.1-0.4-0.1l-3.2,0l-0.5,0c-0.2,0-0.4,0.2-0.4,0.4
				c0,0.2,0.2,0.4,0.4,0.4l3.8,0C10.9,14.4,11,14.2,11,14z"/>
		</g>
	</g>
</g>
</svg>
