<?xml version="1.0" encoding="utf-8"?>
<!-- Generator: Adobe Illustrator 18.1.1, SVG Export Plug-In . SVG Version: 6.00 Build 0)  -->
<svg version="1.0" id="Seected" xmlns="http://www.w3.org/2000/svg" xmlns:xlink="http://www.w3.org/1999/xlink" x="0px" y="0px"
	 viewBox="0 0 24 24" enable-background="new 0 0 24 24" xml:space="preserve">
<g>
	<g>
		<path fill="#6B6B6B" d="M11.9,18c0.3,0,0.6-0.2,0.6-0.6V8.8c0-0.3-0.2-0.6-0.6-0.6s-0.6,0.2-0.6,0.6v8.6
			C11.3,17.7,11.6,18,11.9,18z"/>
		<path fill="#6B6B6B" d="M9.1,18c0.3,0,0.6-0.3,0.6-0.7L9.2,8.7c0-0.3-0.2-0.6-0.6-0.6H8.6C8.2,8.2,8,8.5,8,8.8l0.4,8.6
			C8.6,17.8,8.9,18,9.1,18z"/>
		<path fill="#6B6B6B" d="M14.5,18c0.3,0,0.7-0.2,0.7-0.6l0.4-8.6c0-0.3-0.2-0.6-0.6-0.7H15c-0.3,0-0.6,0.2-0.6,0.6L14,17.4
			C14.1,17.7,14.3,18,14.5,18z"/>
	</g>
	<path fill="#6B6B6B" d="M19.4,5.5h-4.5c-0.4-1.1-1.7-2-3-2c-1.3,0-2.4,0.8-3,2H4.5c-0.3,0-0.6,0.2-0.6,0.6c0,0.3,0.2,0.6,0.6,0.6H5
		v0.1l0.8,12.5c0,0.7,0.7,1.2,1.3,1.2h9.8c0.7,0,1.2-0.6,1.3-1.2L19,6.7V6.6h0.6c0.3,0,0.6-0.2,0.6-0.6C20,5.8,19.8,5.5,19.4,5.5z
		 M11.9,4.7c0.7,0,1.2,0.3,1.6,0.8h-3.1C10.7,5.1,11.3,4.7,11.9,4.7z M16.9,19.4c0,0.1-0.1,0.2-0.1,0.2H7c-0.1,0-0.1-0.1-0.1-0.2
		L6.1,6.8c0,0,0,0,0-0.1h11.5L16.9,19.4z"/>
</g>
</svg>
