<?xml version="1.0" encoding="utf-8"?>
<!-- Generator: Adobe Illustrator 18.1.1, SVG Export Plug-In . SVG Version: 6.00 Build 0)  -->
<svg version="1.0" id="Seected" xmlns="http://www.w3.org/2000/svg" xmlns:xlink="http://www.w3.org/1999/xlink" x="0px" y="0px"
	 viewBox="0 0 24 24" enable-background="new 0 0 24 24" xml:space="preserve">
<g>
	<g>
		<g>
			<path fill="#6B6B6B" d="M11.6,17.1c0.1,0,0.3,0,0.4-0.1c0.1-0.1,0.1-0.2,0.1-0.3c0-0.2-0.2-0.4-0.5-0.4H7.9c-0.2,0-0.3,0-0.4,0.1
				c-0.1,0.1-0.1,0.2-0.1,0.3c0,0.2,0.2,0.4,0.5,0.4L11.6,17.1z"/>
			<path fill="#6B6B6B" d="M12,13.2c0-0.1,0-0.2-0.1-0.3c-0.1-0.1-0.2-0.1-0.4-0.1l-3.2,0l-0.5,0c-0.2,0-0.4,0.2-0.4,0.4
				c0,0.2,0.2,0.4,0.4,0.4l3.8,0C11.9,13.6,12,13.4,12,13.2z"/>
		</g>
		<path fill="#6B6B6B" d="M19.2,10c0,1.9,0,3.8,0,5.7v1.8h-3.9v-2.4H17c0.2,0,0.4-0.1,0.4-0.3c0-0.1,0-0.2-0.1-0.3
			c-0.1-0.1-0.2-0.2-0.4-0.2h-1.7v-2.8l1.8,0c0.2,0,0.3-0.2,0.3-0.4c0-0.2-0.2-0.4-0.4-0.4c0,0,0,0-0.1,0l-1.7,0c0-0.7,0-1,0-1.6
			c-0.5-0.4-0.8-1-1-1.6c-0.5-0.5-1.1-1.1-1.6-1.6c-0.1-0.1-0.3-0.2-0.4-0.2l-2.6,0V4.6l4.8,0c0.1-0.3,0.3-0.6,0.5-0.8l-5.6,0
			c-0.4,0-0.5,0.1-0.5,0.5v1.4H4.5C4.2,5.7,4,5.9,4,6.2v13.6c0,0.3,0.1,0.5,0.5,0.5l10.3,0c0.4,0,0.5-0.1,0.5-0.5v-1.5l4.3,0
			c0.3,0,0.4-0.2,0.5-0.4l0-2.3c0-2,0-3.9,0-5.9C19.7,9.8,19.5,9.9,19.2,10z M14.5,19.4H4.8V6.5l7.3,0l2.4,2.4V9c0,1.9,0,4.8,0,8.7
			V19.4z"/>
		<g>
			<g>
				<g>
					<g>
						<path fill="#E67E22" d="M18,9.2L18,9.2c-1.7,0-3-1.3-3-3v0c0-1.7,1.3-3,3-3h0c1.7,0,3,1.3,3,3v0C21,7.8,19.7,9.2,18,9.2z"/>
					</g>
				</g>
			</g>
		</g>
	</g>
</g>
</svg>
