<?xml version="1.0" encoding="utf-8"?>
<!-- Generator: Adobe Illustrator 18.1.1, SVG Export Plug-In . SVG Version: 6.00 Build 0)  -->
<svg version="1.0" id="Seected" xmlns="http://www.w3.org/2000/svg" xmlns:xlink="http://www.w3.org/1999/xlink" x="0px" y="0px"
	 viewBox="0 0 24 24" enable-background="new 0 0 24 24" xml:space="preserve">
<g>
	<g>
		<path fill="#6B6B6B" stroke="#6B6B6B" stroke-width="0.2" stroke-miterlimit="10" d="M17.9,5.5c0-0.8-0.5-1.2-1-1.4
			c-0.2,0-0.3-0.1-0.5-0.1c-0.8,0-1.6,0-2.4,0l0,0c-0.7,0-1.3,0-2,0s-1.3,0-2,0l0,0c-0.8,0-1.6,0-2.4,0C7.3,3.9,7.2,3.9,7,4
			C6.5,4.1,6,4.6,6,5.5c0,2.2,0,4.4,0,6.6c0,1.8,0,3.7,0,5.5h0.7c0-3,0-6.1,0-9.1c0-0.1,0-0.1,0-0.2c0,0,0-1.8,0-2.8
			C6.7,5,7,4.7,7.5,4.7c1.5,0,2.9,0,4.5,0s2.9,0,4.5,0c0.4,0,0.7,0.2,0.8,0.6c0,1,0,2.8,0,2.8c0,0.1,0,0.1,0,0.2c0,3.3,0,6.8,0,10.1
			c0,0.5-0.3,0.8-0.7,0.8l0,0c-1.5,0-2.9,0-4.5,0c-1.3,0-2.7,0-4.1,0v0.7c1.3,0,2.7,0,4.1,0c1.5,0,3,0,4.6,0c0.8,0,1.4-0.6,1.4-1.4
			c0-2.2,0-4.4,0-6.6C17.9,9.8,17.9,7.7,17.9,5.5z"/>
	</g>
	<g>
		<g>
			<path fill="#6B6B6B" stroke="#6B6B6B" stroke-width="0.2" stroke-miterlimit="10" d="M12,15.8c-0.7,0-1.4,0-2,0H9.9
				c-0.1,0-0.2-0.2-0.2-0.4c0-0.2,0.1-0.3,0.2-0.3H10c1.4,0,2.7,0,4.1,0c0.2,0,0.3,0.1,0.3,0.4c0,0.2-0.1,0.3-0.3,0.3
				C13.4,15.8,12.7,15.8,12,15.8z"/>
		</g>
		<g>
			<path fill="#6B6B6B" stroke="#6B6B6B" stroke-width="0.2" stroke-miterlimit="10" d="M12,12.4c-0.7,0-1.4,0-2,0H9.9
				c-0.1,0-0.2-0.2-0.2-0.4c0-0.2,0.1-0.3,0.2-0.3H10c1.4,0,2.7,0,4.1,0c0.2,0,0.3,0.1,0.3,0.4c0,0.2-0.1,0.3-0.3,0.3
				C13.4,12.4,12.7,12.4,12,12.4z"/>
		</g>
		<g>
			<path fill="#6B6B6B" stroke="#6B6B6B" stroke-width="0.2" stroke-miterlimit="10" d="M12,8.9c-0.7,0-1.4,0-2,0H9.9
				c-0.1,0-0.2-0.2-0.2-0.4c0-0.2,0.1-0.3,0.2-0.3H10c1.4,0,2.7,0,4.1,0c0.2,0,0.3,0.1,0.3,0.4c0,0.2-0.1,0.3-0.3,0.3
				C13.4,8.9,12.7,8.9,12,8.9z"/>
		</g>
	</g>
</g>
</svg>
