<?xml version="1.0" encoding="utf-8"?>
<!-- Generator: Adobe Illustrator 18.1.1, SVG Export Plug-In . SVG Version: 6.00 Build 0)  -->
<svg version="1.0" id="Seected" xmlns="http://www.w3.org/2000/svg" xmlns:xlink="http://www.w3.org/1999/xlink" x="0px" y="0px"
	 viewBox="0 0 24 24" enable-background="new 0 0 24 24" xml:space="preserve">
<g>
	<path fill="#6B6B6B" d="M19.4,9.9v7.3l-4.9-5l2.3-2.2c-0.3-0.1-0.6-0.2-0.9-0.4l-3.5,3.6c-0.3,0.3-0.5,0.4-0.8,0.4
		c-0.2,0-0.5-0.1-0.7-0.4L4.5,6.7H14c0-0.2,0-0.3,0-0.5v0c0-0.2,0-0.3,0-0.4H2.9v13h17.4V9.5C20,9.7,19.7,9.8,19.4,9.9z M3.8,7.3
		l4.9,4.9l-4.9,5V7.3z M4.5,17.9l4.9-5l0.4,0.4c0.2,0.2,0.4,0.4,0.6,0.6c0.3,0.3,0.9,0.6,1.4,0.5c0.5,0,1-0.2,1.4-0.5
		c0.2-0.2,0.3-0.3,0.5-0.5l0.4-0.4l4.8,5H4.5z"/>
	<g>
		<g>
			<g>
				<g>
					<path fill="#E67E22" d="M18,9.2L18,9.2c-1.7,0-3-1.3-3-3v0c0-1.7,1.3-3,3-3h0c1.7,0,3,1.3,3,3v0C21,7.9,19.6,9.2,18,9.2z"/>
				</g>
			</g>
		</g>
	</g>
</g>
</svg>
