<?xml version="1.0" encoding="utf-8"?>
<!-- Generator: Adobe Illustrator 18.1.1, SVG Export Plug-In . SVG Version: 6.00 Build 0)  -->
<svg version="1.0" id="Layer_1" xmlns="http://www.w3.org/2000/svg" xmlns:xlink="http://www.w3.org/1999/xlink" x="0px" y="0px"
	 viewBox="0 0 40 40" enable-background="new 0 0 40 40" xml:space="preserve">
<g>
	<path fill="#6B6C6C" d="M26.4,9c-0.3-0.1-0.5-0.1-0.8-0.1c-0.9,0-1.8,0.6-2.4,1.6c-0.8,1.3-1.7,2.6-2.5,3.9l-0.1,0.2
		c-0.6,0.8-1.1,1.7-1.7,2.5c-0.7,1-1.4,2.1-2.1,3.1c-0.2,0.2-0.4,0.6-0.4,0.9c0,2.6,0,5.4,0,9.1c0,0.7,0.4,1.1,1.1,1.1
		c0.2,0,0.4,0,0.6,0l3.9,0l2.8,0l4.7,0c1.7,0,2.6-0.8,2.6-2.6c0.1-2.9,0.2-6,0.3-9.2c0.1-1.7-0.7-2.6-2.4-2.7c-0.8,0-1.6,0-2.5,0
		c-0.4,0-0.7,0-1.1,0h-0.2l-0.1-0.5l0.6-0.8c0.8-1.1,1.2-2.1,1.4-3.1C28.4,10.8,27.6,9.4,26.4,9z M26,14.3c-0.6,0.8-1.2,1.5-1.8,2.3
		c-0.3,0.3-0.5,0.6-0.8,1c-0.1,0.1-0.1,0.2-0.2,0.2l2.6,0c1,0,1.9,0,2.9,0c0.4,0,0.8,0,1.1,0.1c1,0.1,1.2,0.4,1.2,1.4
		c0,1.2-0.1,2.4-0.1,3.6l-0.1,2c0,1.3-0.1,2.7-0.1,4c0,0.8-0.5,1-0.9,1.1c-0.2,0-0.4,0-0.5,0l-5.6,0l-5.6,0c-0.1,0-0.2,0-0.3,0
		l-0.4,0l0-0.4c0-0.1,0-0.3,0-0.4l0-1.5c0-2.1,0-4.2,0-6.3c0-0.4,0.2-0.9,0.4-1.2c0.9-1.3,1.9-2.7,2.8-4c0.7-1,1.5-2.1,2.2-3.1
		c0.3-0.5,0.6-1,0.9-1.5c0.1-0.2,0.2-0.4,0.3-0.5c0.5-0.8,1-0.9,1.3-0.9c0.1,0,0.2,0,0.3,0c0.6,0.2,1.1,0.7,1.1,1.5
		C27,12.5,26.7,13.4,26,14.3z"/>
	<path fill="#6B6C6C" d="M14.8,20.9c0-0.8-0.4-1.2-1.2-1.2l-2.7,0c-0.7,0-1.4,0-2.2,0c-0.7,0-1.1,0.4-1.1,1.1c0,0.3,0,0.6,0,0.9
		l0,1.9c0,2.1,0,4.2,0,6.3c0,0.8,0.4,1.3,1.1,1.3c1.4,0,2.9,0,4.3,0l0.9,0c0.4,0,0.7-0.2,0.8-0.5c0.1-0.3,0.2-0.6,0.2-0.9
		c0-1,0-2,0-3l0-1.3l0-1.3C14.8,23,14.8,22,14.8,20.9z M13.6,29.9H8.8v-9h4.8V29.9z"/>
</g>
</svg>
