<?xml version="1.0" encoding="utf-8"?>
<!-- Generator: Adobe Illustrator 18.1.1, SVG Export Plug-In . SVG Version: 6.00 Build 0)  -->
<svg version="1.1" id="Seected" xmlns="http://www.w3.org/2000/svg" xmlns:xlink="http://www.w3.org/1999/xlink" x="0px" y="0px"
	 viewBox="0 0 24 24" enable-background="new 0 0 24 24" xml:space="preserve">
<g>
	<path fill="#25A8DC" d="M2.5,7.3v13h17.4v-13H2.5z M18.4,8.2l-0.3,0.3c0,0-0.1,0.1-0.1,0.1L12,14.7c-0.3,0.3-0.5,0.4-0.8,0.4
		c-0.2,0-0.5-0.1-0.7-0.4L4,8.2H18.4z M3.4,8.8l4.9,4.9l-4.9,5V8.8z M4,19.4l4.9-5l0.4,0.4c0.2,0.2,0.4,0.4,0.6,0.6
		c0.3,0.3,0.9,0.6,1.4,0.5c0.5,0,1-0.2,1.4-0.5c0.2-0.2,0.3-0.3,0.5-0.5l0.4-0.4l4.8,5H4z M19,18.8l-4.9-5L19,9V18.8z"/>
</g>
</svg>
