<?xml version="1.0" encoding="utf-8"?>
<!-- Generator: Adobe Illustrator 18.1.1, SVG Export Plug-In . SVG Version: 6.00 Build 0)  -->
<svg version="1.0" id="Seected" xmlns="http://www.w3.org/2000/svg" xmlns:xlink="http://www.w3.org/1999/xlink" x="0px" y="0px"
	 viewBox="0 0 120 120" enable-background="new 0 0 120 120" xml:space="preserve">
<g>
	<path fill="#6B6B6B" d="M101.8,23.6c-1.3-1.3-2.6-2.6-3.8-3.8l-2.4-2.4c-2.1-2.1-4.9-3.3-7.7-3.3c-2.9,0-5.7,1.2-7.8,3.3
		c-3.7,3.7-7.3,7.3-11,11L58.3,39c-8.5,8.5-17,17-25.6,25.5c-1.1,1.1-1.8,2.2-2.2,3.6c-2,6.5-4,13.2-6,19.6l-1.4,4.4
		c-0.2,0.8-0.6,2.1,0.4,3.2c0.5,0.5,1,0.7,1.7,0.7c0.5,0,1-0.1,1.4-0.3l5-1.6c6.1-1.9,12.5-3.9,18.8-5.7c1.6-0.5,2.8-1.2,4-2.5
		c13.5-13.6,28-28.1,47-47.1c2.1-2.1,3.2-4.7,3.3-7.8C104.9,28.1,103.8,25.6,101.8,23.6z M46.6,84.5l-17.4,5.4l5.4-17.4L46.6,84.5z
		 M95.4,38.3c-0.5,0.5-0.9,0.9-1.4,1.4L79.4,25.1c0.4-0.4,0.8-0.9,1.3-1.3c1.2-1.2,2.4-2.5,3.7-3.7c2-1.9,4.9-1.8,7,0.1
		c2.4,2.3,4.9,4.7,7.4,7.4c1.8,1.9,2,4.5,0.5,6.4C98.1,35.6,96.7,37,95.4,38.3z M71.5,33.2l4.2-4.2l14.2,14.3l-4.2,4.2L71.5,33.2z
		 M81.9,51.4L51.6,81.8L37.3,67.5l30.4-30.4L81.9,51.4z"/>
	<path fill="#6B6B6B" d="M81.3,101.2c-9.8,0-19.7,0-29.5,0l-27.9,0c-2.1,0-4.3,0-6.4,0c-1.5,0-2.6,1-2.6,2.5c0,1.5,1,2.4,2.5,2.5
		c0.2,0,0.4,0,0.6,0l0.6,0l57.2,0c1.8,0,3.7,0,5.5,0c0.8,0,1.7-0.4,2.3-0.9c0.8-0.6,0.9-1.7,0.4-2.7
		C83.5,101.7,82.6,101.2,81.3,101.2z"/>
</g>
</svg>
