<?xml version="1.0" encoding="utf-8"?>
<!-- Generator: Adobe Illustrator 18.1.1, SVG Export Plug-In . SVG Version: 6.00 Build 0)  -->
<svg version="1.0" id="Layer_1" xmlns="http://www.w3.org/2000/svg" xmlns:xlink="http://www.w3.org/1999/xlink" x="0px" y="0px"
	 viewBox="0 0 40 40" enable-background="new 0 0 40 40" xml:space="preserve">
<g>
	<path fill="#27A8DB" d="M31.5,9.9c-0.4-0.3-0.7-0.7-1.1-1.1l-0.7-0.7c-0.6-0.6-1.3-0.9-2.1-0.9c-0.8,0-1.6,0.3-2.1,0.9
		c-1,1-2,2-3,3l-3.1,3.1c-2.3,2.3-4.6,4.6-6.9,6.9c-0.3,0.3-0.5,0.6-0.6,1c-0.5,1.8-1.1,3.6-1.6,5.4l-0.4,1.2
		C9.8,29,9.7,29.4,10,29.7c0.1,0.1,0.3,0.2,0.5,0.2c0.1,0,0.3,0,0.4-0.1l1.4-0.4c1.7-0.5,3.4-1.1,5.1-1.6c0.4-0.1,0.8-0.3,1.1-0.7
		c3.8-3.8,7.7-7.8,12.9-12.9c0.6-0.6,0.9-1.3,0.9-2.1C32.4,11.2,32.1,10.5,31.5,9.9z M16.3,26.7l-4.8,1.5l1.5-4.8L16.3,26.7z
		 M29.8,14c-0.1,0.1-0.3,0.3-0.4,0.4l-4-4c0.1-0.1,0.2-0.2,0.3-0.4c0.3-0.3,0.7-0.7,1-1c0.6-0.5,1.4-0.5,1.9,0c0.7,0.6,1.4,1.3,2,2
		c0.5,0.5,0.6,1.2,0.1,1.8C30.5,13.2,30.1,13.6,29.8,14z M23.2,12.6l1.2-1.2l3.9,3.9l-1.2,1.2L23.2,12.6z M26.1,17.6l-8.4,8.4
		L13.8,22l8.4-8.4L26.1,17.6z"/>
	<path fill="#27A8DB" d="M26.6,31.7c-0.1-0.3-0.4-0.4-0.7-0.4c-2.7,0-5.4,0-8.1,0l-7.6,0c-0.6,0-1.2,0-1.8,0c-0.4,0-0.7,0.3-0.7,0.7
		c0,0.4,0.3,0.7,0.7,0.7c0.1,0,0.1,0,0.2,0l0.2,0l4.2,0l4.2,0l7.3,0c0.5,0,1,0,1.5,0c0.2,0,0.5-0.1,0.6-0.2
		C26.7,32.3,26.8,32,26.6,31.7z"/>
</g>
</svg>
