<?xml version="1.0" encoding="utf-8"?>
<!-- Generator: Adobe Illustrator 18.1.1, SVG Export Plug-In . SVG Version: 6.00 Build 0)  -->
<svg version="1.0" id="Seected" xmlns="http://www.w3.org/2000/svg" xmlns:xlink="http://www.w3.org/1999/xlink" x="0px" y="0px"
	 viewBox="0 0 24 24" enable-background="new 0 0 24 24" xml:space="preserve">
<g>
	<g>
		<g>
			<path fill="#6B6B6B" d="M14.1,6.8c-0.1,0-0.1,0-0.2-0.1L12,5.4l-2,1.4C9.9,6.8,9.7,6.8,9.6,6.6C9.5,6.5,9.5,6.3,9.7,6.2l2.2-1.5
				c0.1-0.1,0.2-0.1,0.3,0l2.1,1.5c0.1,0.1,0.2,0.3,0.1,0.4C14.3,6.8,14.2,6.8,14.1,6.8L14.1,6.8z"/>
		</g>
		<g>
			<path fill="#6B6B6B" d="M17.4,19.3H6.6c-0.6,0-1.1-0.5-1.1-1.1v-7.9c0-0.1,0-0.2,0.1-0.2L6.9,9c0.1-0.1,0.3-0.1,0.4,0
				c0.1,0.1,0.1,0.3,0,0.4l-1.2,1v7.7c0,0.3,0.2,0.5,0.5,0.5h10.8c0.3,0,0.5-0.2,0.5-0.5v-7.7l-1.2-1.1c-0.1-0.1-0.1-0.3,0-0.4
				c0.1-0.1,0.3-0.1,0.4,0l1.3,1.2c0.1,0.1,0.1,0.1,0.1,0.2v7.9C18.5,18.8,18,19.3,17.4,19.3L17.4,19.3z"/>
		</g>
		<g>
			<path fill="#6B6B6B" d="M17.4,19.3H6.6c-0.5,0-0.9-0.3-1-0.7c0-0.1,0-0.2,0.1-0.3l6.2-5.5c0.1-0.1,0.3-0.1,0.4,0l6.2,5.5
				c0.1,0.1,0.1,0.2,0.1,0.3C18.3,19,17.9,19.3,17.4,19.3L17.4,19.3z M6.2,18.5c0.1,0.1,0.2,0.2,0.4,0.2h10.8c0.1,0,0.3-0.1,0.4-0.2
				L12,13.4L6.2,18.5L6.2,18.5z"/>
		</g>
		<g>
			<g>
				<path fill="#6B6B6B" d="M13.9,14.9c-0.1,0-0.2,0-0.2-0.1c-0.1-0.1-0.1-0.3,0-0.4l4.3-3.8c0.1-0.1,0.3-0.1,0.4,0
					c0.1,0.1,0.1,0.3,0,0.4l-4.3,3.8C14,14.9,14,14.9,13.9,14.9L13.9,14.9z"/>
			</g>
			<g>
				<path fill="#6B6B6B" d="M10.1,15c-0.1,0-0.1,0-0.2-0.1l-4.3-3.8c-0.1-0.1-0.1-0.3,0-0.4c0.1-0.1,0.3-0.1,0.4,0l4.3,3.8
					c0.1,0.1,0.1,0.3,0,0.4C10.3,14.9,10.2,15,10.1,15L10.1,15z"/>
			</g>
		</g>
		<g>
			<path fill="#6B6B6B" d="M16.8,12.3c-0.2,0-0.3-0.1-0.3-0.3V6.9h-9V12c0,0.2-0.1,0.3-0.3,0.3c-0.2,0-0.3-0.1-0.3-0.3V6.6
				c0-0.2,0.1-0.3,0.3-0.3h9.6c0.2,0,0.3,0.1,0.3,0.3V12C17.1,12.2,17,12.3,16.8,12.3L16.8,12.3z"/>
		</g>
		<g>
			<polygon fill="#6B6B6B" points="15,8.3 8.7,8.3 8.7,7.7 15,7.7 15,8.3 			"/>
		</g>
		<g>
			<polygon fill="#6B6B6B" points="15,10 8.7,10 8.7,9.4 15,9.4 15,10 			"/>
		</g>
		<g>
			<polygon fill="#6B6B6B" points="15,11.6 8.7,11.6 8.7,11 15,11 15,11.6 			"/>
		</g>
	</g>
</g>
</svg>
