<?xml version="1.0" encoding="utf-8"?>
<!-- Generator: Adobe Illustrator 18.1.1, SVG Export Plug-In . SVG Version: 6.00 Build 0)  -->
<svg version="1.1" id="Layer_1" xmlns="http://www.w3.org/2000/svg" xmlns:xlink="http://www.w3.org/1999/xlink" x="0px" y="0px"
	 viewBox="0 0 29 29" enable-background="new 0 0 29 29" xml:space="preserve">
<g>
	<g>
		<g>
			<path fill="#E64D3C" d="M14.5,23L14.5,23c-2.3,0-4.4-0.9-6-2.5c-1.6-1.6-2.5-3.7-2.5-6c0-2.3,0.9-4.4,2.5-6
				c1.6-1.6,3.7-2.5,6-2.5c2.3,0,4.4,0.9,6,2.5c1.6,1.6,2.5,3.7,2.5,6c0,2.3-0.9,4.4-2.5,6C18.9,22.1,16.8,23,14.5,23z M14.5,7
				c-2,0-3.9,0.8-5.3,2.2C7.8,10.6,7,12.5,7,14.5c0,2,0.8,3.9,2.2,5.3c1.4,1.4,3.3,2.2,5.3,2.2h0c2,0,3.9-0.8,5.3-2.2
				s2.2-3.3,2.2-5.3c0-2-0.8-3.9-2.2-5.3C18.4,7.8,16.5,7,14.5,7z"/>
		</g>
	</g>
	<path fill-rule="evenodd" clip-rule="evenodd" fill="#E64D3C" d="M17.5,12.6c-0.1,1.2-0.2,2.4-0.3,3.7c0,0.1,0,0.1,0,0.2
		c0,0.2-0.1,0.4-0.3,0.5c-0.2,0.1-0.4,0-0.5-0.2c-0.5-0.4-0.9-0.9-1.4-1.4c-0.1-0.1-0.1-0.1-0.2-0.2c-0.6,0.6-1.6,1.6-2.3,2.3
		c-0.3-0.3-0.6-0.6-1-1c0.6-0.6,1.6-1.6,2.3-2.3c-0.3-0.3-0.5-0.5-0.8-0.8c-0.2-0.2-0.5-0.5-0.7-0.7c-0.1-0.1-0.2-0.2-0.2-0.3
		c-0.1-0.2,0-0.4,0.2-0.5c0.1,0,0.2-0.1,0.4-0.1c1.2-0.1,2.5-0.2,3.7-0.3C17.1,11.5,17.5,11.9,17.5,12.6z"/>
</g>
</svg>
