<?xml version="1.0" encoding="utf-8"?>
<!-- Generator: Adobe Illustrator 18.1.1, SVG Export Plug-In . SVG Version: 6.00 Build 0)  -->
<svg version="1.0" id="Layer_1" xmlns="http://www.w3.org/2000/svg" xmlns:xlink="http://www.w3.org/1999/xlink" x="0px" y="0px"
	 viewBox="0 0 40 40" enable-background="new 0 0 40 40" xml:space="preserve">
<g>
	<path fill="#3D97D3" d="M26,19.2c0.6,0.5,1.1,1,1.6,1.6c0.7,0.9,1.1,1.9,1.1,3c0,1.6,0,3.3,0,4.9c-0.5,0-1,0-1.6,0
		c0-0.1,0-0.3,0-0.4c0-1.5,0-3,0-4.5c0-1.5-0.9-2.4-2-3.2c-0.1,0-0.2,0-0.3,0c-0.9,0.8-1.9,1.4-3.1,1.7c0.2,1.1,0.4,2.2,0.7,3.3
		c0.3,1.2,0.5,2.4,0.8,3.6c0,0.1,0,0.3-0.1,0.4c-1,0.8-2,1.6-2.9,2.4c-1-0.8-2-1.6-2.9-2.4c-0.1-0.1-0.1-0.3-0.1-0.4
		c0.4-2.2,0.9-4.3,1.3-6.5c0-0.1,0-0.3,0.1-0.4C17.1,22,16,21.4,15,20.5c-1.2,0.8-2.1,1.7-2.1,3.2c0,1.5,0,3,0,4.5
		c0,0.1,0,0.3,0,0.5c-0.5,0-1,0-1.6,0c0-0.1,0-0.3,0-0.4c0-1.4,0-2.8,0-4.1c-0.1-2,0.8-3.4,2.3-4.6c0.1-0.1,0.2-0.1,0.3-0.2
		c-1.2-1.9-1.5-3.9-0.9-6.1c0.5-1.6,1.4-2.9,2.8-3.9c2.7-1.9,6.4-1.7,8.8,0.5C27.1,11.9,28.1,15.8,26,19.2z M14.3,15.2
		c0,3.1,2.5,5.7,5.6,5.7c3.1,0,5.6-2.6,5.6-5.7c0-3.1-2.5-5.7-5.6-5.7C16.9,9.6,14.3,12.1,14.3,15.2z M20,30c0.4-0.3,0.8-0.6,1.2-1
		c0.1-0.1,0.1-0.3,0.1-0.4c-0.4-1.8-0.7-3.6-1.1-5.3c0-0.1-0.1-0.2-0.2-0.3c-0.1,0.1-0.2,0.2-0.2,0.3c-0.4,1.8-0.7,3.6-1.1,5.3
		c0,0.1,0,0.3,0.1,0.3C19.2,29.3,19.6,29.6,20,30z"/>
</g>
</svg>
