<?xml version="1.0" encoding="utf-8"?>
<!-- Generator: Adobe Illustrator 18.1.1, SVG Export Plug-In . SVG Version: 6.00 Build 0)  -->
<svg version="1.0" id="Seected" xmlns="http://www.w3.org/2000/svg" xmlns:xlink="http://www.w3.org/1999/xlink" x="0px" y="0px"
	 viewBox="0 0 24 24" enable-background="new 0 0 24 24" xml:space="preserve">
<rect x="0" fill-rule="evenodd" clip-rule="evenodd" fill="#FFFFFF" width="24" height="24"/>
<path fill-rule="evenodd" clip-rule="evenodd" fill="#6B6B6B" d="M6.4,10.2c0.2,0,0.3,0.1,0.4,0.2C7.5,11.2,8.3,12,9,12.7
	c0.2,0.2,0.4,0.4,0.7,0.7c0.3,0.3,0.5,0.3,0.8,0c2.3-2.3,4.5-4.5,6.8-6.7c0,0,0.1-0.1,0.1-0.1c0.2-0.2,0.5-0.2,0.7,0
	c0.4,0.4,0.9,0.9,1.3,1.3c0.2,0.2,0.2,0.5,0,0.7c-0.8,0.8-1.6,1.6-2.4,2.4c-2.1,2.1-4.2,4.2-6.3,6.3c-0.3,0.3-0.5,0.3-0.8,0
	c-1.6-1.7-3.3-3.4-4.9-5c0,0-0.1-0.1-0.1-0.1c-0.2-0.2-0.2-0.5,0-0.7c0.5-0.4,0.9-0.8,1.4-1.2C6.2,10.3,6.3,10.3,6.4,10.2z"/>
</svg>
