<?xml version="1.0" encoding="utf-8"?>
<!-- Generator: Adobe Illustrator 18.1.1, SVG Export Plug-In . SVG Version: 6.00 Build 0)  -->
<svg version="1.0" id="Seected" xmlns="http://www.w3.org/2000/svg" xmlns:xlink="http://www.w3.org/1999/xlink" x="0px" y="0px"
	 viewBox="0 0 24 24" enable-background="new 0 0 24 24" xml:space="preserve">
<g>
	<path fill="#F2C40F" d="M18,6.2c0,3,0,10.3,0,13.3c-3.6,0-8.4,0-12,0C6,15.9,6,8.1,6,4.5c0,0,0.1,0,0.1,0c1.3,0,2.5,0,3.8,0
		c0.1,0,0.2,0,0.2,0.1C10.4,5.1,10.7,5.6,11,6c0.1,0.1,0.1,0.1,0.2,0.1c1.8,0,4.8,0,6.6,0C17.9,6.2,17.9,6.2,18,6.2z"/>
	<path fill="#FFFFFF" d="M12.3,10.5c0.4,0,0.7,0,1.1,0c0-0.4,0-0.7,0-1c0,0-0.1-0.1-0.1-0.1c-0.2,0-0.4,0-0.6,0c-0.1,0-0.3,0-0.4,0
		C12.3,9.8,12.3,10.1,12.3,10.5c-0.4,0-0.7,0-1.1,0c0,0.4,0,0.7,0,1c0.4,0,0.7,0,1.1,0C12.3,11.2,12.3,10.8,12.3,10.5z M14.4,10.5
		c0.4,0,0.7,0,1.1,0c0-0.4,0-0.7,0-1.1c-0.4,0-0.7,0-1.1,0C14.4,9.8,14.4,10.1,14.4,10.5c-0.4,0-0.7,0-1.1,0c0,0.4,0,0.7,0,1
		c0.4,0,0.7,0,1.1,0C14.4,11.2,14.4,10.8,14.4,10.5z M10.1,10.5c0.4,0,0.7,0,1.1,0c0-0.4,0-0.7,0-1.1c-0.4,0-0.7,0-1,0
		C10.1,9.8,10.1,10.1,10.1,10.5c-0.4,0-0.7,0-1.1,0c0,0.3,0,0.7,0,1c0.4,0,0.7,0,1.1,0C10.1,11.2,10.1,10.8,10.1,10.5z M16,11
		c-0.4,0-0.7,0-1.1,0c0,0.5,0,1.1,0,1.6c0.4,0,0.7,0,1.1,0C16,12.1,16,11.5,16,11z M8,9.4c0,0.4,0,0.7,0,1.1c0.4,0,0.7,0,1.1,0
		c0-0.4,0-0.7,0-1.1C8.7,9.4,8.3,9.4,8,9.4z"/>
	<g>
		<path fill="#1A1A1A" d="M8.4,17.1l1.8-2.1H8.7c-0.1,0-0.2,0-0.2-0.1c-0.1,0-0.1-0.1-0.1-0.2c0-0.1,0-0.1,0.1-0.2
			c0.1,0,0.1-0.1,0.2-0.1h2c0.3,0,0.4,0.1,0.4,0.4c0,0.1,0,0.2-0.1,0.3c0,0.1-0.1,0.2-0.3,0.3l-1.7,2h1.8c0.1,0,0.2,0,0.2,0.1
			c0.1,0,0.1,0.1,0.1,0.2c0,0.1,0,0.1-0.1,0.2c-0.1,0-0.1,0.1-0.2,0.1H8.7c-0.2,0-0.3,0-0.3-0.1s-0.1-0.2-0.1-0.3c0,0,0-0.1,0-0.1
			c0,0,0-0.1,0.1-0.1c0,0,0.1-0.1,0.1-0.1C8.4,17.2,8.4,17.1,8.4,17.1z"/>
		<path fill="#1A1A1A" d="M11.7,17.5v-2.7c0-0.1,0-0.2,0.1-0.3c0.1-0.1,0.1-0.1,0.3-0.1c0.1,0,0.2,0,0.3,0.1s0.1,0.2,0.1,0.3v2.7
			c0,0.1,0,0.3-0.1,0.3C12.2,17.9,12.1,18,12,18c-0.1,0-0.2,0-0.2-0.1C11.7,17.8,11.7,17.7,11.7,17.5z"/>
		<path fill="#1A1A1A" d="M14.5,16.5h-0.6v1c0,0.1,0,0.2-0.1,0.3c-0.1,0.1-0.1,0.1-0.3,0.1c-0.1,0-0.2,0-0.3-0.1
			c-0.1-0.1-0.1-0.2-0.1-0.3v-2.7c0-0.2,0-0.3,0.1-0.3c0.1-0.1,0.2-0.1,0.3-0.1h0.9c0.3,0,0.5,0,0.6,0.1c0.1,0,0.3,0.1,0.4,0.2
			s0.2,0.2,0.2,0.3s0.1,0.3,0.1,0.4c0,0.4-0.1,0.6-0.3,0.8S14.9,16.5,14.5,16.5z M14.3,15h-0.5V16h0.5c0.2,0,0.3,0,0.4-0.1
			c0.1,0,0.2-0.1,0.3-0.2c0.1-0.1,0.1-0.2,0.1-0.3c0-0.2,0-0.3-0.1-0.4C14.9,15,14.7,15,14.3,15z"/>
	</g>
</g>
</svg>
