<?xml version="1.0" encoding="utf-8"?>
<!-- Generator: Adobe Illustrator 18.1.1, SVG Export Plug-In . SVG Version: 6.00 Build 0)  -->
<svg version="1.1" id="Seected" xmlns="http://www.w3.org/2000/svg" xmlns:xlink="http://www.w3.org/1999/xlink" x="0px" y="0px"
	 viewBox="0 0 24 24" enable-background="new 0 0 24 24" xml:space="preserve">
<g>
	<path fill="#3497DB" d="M12,5c1.7,0,3.3,0,5,0c0.5,0,0.9,0.3,0.9,0.8c0,0.1,0,0.3,0,0.4c-0.1,0.3-0.2,0.5-0.4,0.8
		c-1.2,2-2.5,3.9-3.7,5.9c0,0.1-0.1,0.2-0.1,0.3c0,1,0,2,0,3c0,0.5-0.2,0.9-0.6,1.2c-0.6,0.5-1.1,0.9-1.7,1.4
		c-0.2,0.2-0.4,0.3-0.7,0.2c-0.4-0.1-0.6-0.4-0.6-0.8c0-0.7,0-1.4,0-2.1c0-1,0-2,0-3c0-0.1,0-0.2-0.1-0.3c-1.2-2-2.5-4-3.7-5.9
		C6.3,6.7,6.2,6.5,6.1,6.2C5.9,5.6,6.3,5,7,5c1.1,0,2.2,0,3.3,0C10.9,5,11.4,5,12,5z M11.3,17.5c0,0,0.1-0.1,0.1-0.1
		c0.3-0.3,0.6-0.5,1-0.8c0.2-0.1,0.2-0.3,0.2-0.5c0-1,0-2.1,0-3.1c0-0.2,0.1-0.4,0.2-0.6c1.3-2,2.6-4.1,3.8-6.1c0,0,0-0.1,0.1-0.1
		c-3.2,0-6.3,0-9.5,0c0,0.1,0.1,0.1,0.1,0.2c0.7,1.1,1.3,2.1,2,3.2c0.6,0.9,1.2,1.9,1.8,2.8c0.1,0.2,0.2,0.4,0.2,0.7
		c0,1.4,0,2.9,0,4.3C11.3,17.4,11.3,17.4,11.3,17.5z"/>
</g>
</svg>
