<?xml version="1.0" encoding="utf-8"?>
<!-- Generator: Adobe Illustrator 18.1.1, SVG Export Plug-In . SVG Version: 6.00 Build 0)  -->
<svg version="1.1" id="Seected" xmlns="http://www.w3.org/2000/svg" xmlns:xlink="http://www.w3.org/1999/xlink" x="0px" y="0px"
	 viewBox="0 0 120 120" enable-background="new 0 0 120 120" xml:space="preserve">
<path fill="#6B6B6B" d="M95.2,41.2H61c-0.2,0-0.4-0.1-0.5-0.2l-4.1-5.1c-1.4-1.8-3.6-2.8-5.9-2.8H30.8c-4.2,0-7.5,3.4-7.5,7.5v43.7
	c0,4.1,3.4,7.5,7.5,7.5h64.4c4.2,0,7.5-3.4,7.5-7.5V48.8C102.7,44.6,99.3,41.2,95.2,41.2z M95.8,48.8v35.6c0,0.3-0.3,0.6-0.6,0.6
	H30.8c-0.3,0-0.6-0.3-0.6-0.6V40.6c0-0.3,0.3-0.6,0.6-0.6h19.8c0.2,0,0.4,0.1,0.5,0.2l4.1,5.1c1.4,1.8,3.6,2.8,5.9,2.8h34.2
	C95.5,48.2,95.8,48.4,95.8,48.8z"/>
</svg>
