<?xml version="1.0" encoding="utf-8"?>
<!-- Generator: Adobe Illustrator 18.1.1, SVG Export Plug-In . SVG Version: 6.00 Build 0)  -->
<svg version="1.0" id="Layer_1" xmlns="http://www.w3.org/2000/svg" xmlns:xlink="http://www.w3.org/1999/xlink" x="0px" y="0px"
	 viewBox="0 0 40 40" enable-background="new 0 0 40 40" xml:space="preserve">
<g>
	<path fill="#6B6C6C" d="M35.8,19.6c-0.5-0.4-1.1-0.7-1.6-0.9c-1.1-0.4-2-0.7-2.9-0.7c-0.1-0.1-0.1-0.1-0.1-0.2
		c-0.1-0.3-0.1-0.7-0.2-1c0,0,0,0,0,0c0.5-0.5,0.8-1.1,0.9-1.8c0-0.2,0.1-0.3,0.1-0.5c0-0.2,0.1-0.4,0.1-0.6
		c0.2-0.4,0.2-0.8,0.2-1.3l0-0.1c0-0.1,0-0.3-0.2-0.5l0-0.2c0-0.2,0-0.4-0.1-0.5c-0.1-0.7-0.2-1.2-0.5-1.6c-0.4-0.7-0.9-1.1-1.5-1.2
		c-0.9-0.1-1.6-0.2-2.4,0c-1.1,0.2-1.9,0.8-2.3,1.9c-0.2,0.4-0.3,1-0.3,1.5c0,0,0,0.1,0,0.1c0,0,0,0,0,0.1C25,12.2,25,12.4,25,12.6
		l0,0.1c0,0.4,0,0.9,0.2,1.3c0,0.1,0.1,0.2,0.1,0.4c0.1,0.9,0.4,1.6,0.9,2.2c0.2,0.2,0.2,0.3,0.2,0.5l-0.1,0.3
		c0,0.2-0.1,0.4-0.1,0.6c0,0,0,0.1-0.1,0.1c0,0,0,0-0.1,0c0,0.1,0,0.1,0,0.2c0.1,0.2,0.2,0.5,0.2,0.8c0.2,0,0.5-0.2,0.6-0.4
		c0.3-0.4,0.4-0.8,0.4-1.2c0-0.2,0.1-0.5,0.1-0.7c0-0.2-0.1-0.3-0.2-0.4c-0.6-0.6-0.9-1.3-0.9-2.2c0-0.1,0-0.2-0.1-0.3
		C26,13.4,26,13.1,26,12.8l0-0.1c0.2-0.2,0.2-0.5,0.2-0.7c0-0.1,0-0.2,0-0.3c0.1-0.4,0.1-0.8,0.3-1.1c0.3-0.6,0.7-0.9,1.4-1
		c0.7-0.1,1.4-0.1,2.2,0c0.3,0.1,0.5,0.2,0.7,0.6c0.2,0.3,0.3,0.7,0.4,1.2c0,0.2,0.1,0.4,0.1,0.7c0,0.1,0,0.3,0,0.4
		c0,0.1,0,0.2,0.1,0.4c0,0,0,0,0,0.1c0,0.1,0,0.2,0,0.3c0,0.2,0,0.4-0.1,0.5c-0.1,0.3-0.2,0.6-0.2,0.8c0,0.2-0.1,0.3-0.1,0.5
		c-0.1,0.6-0.4,1-0.8,1.5c-0.2,0.2-0.2,0.3-0.2,0.5c0,0.5,0.1,1.1,0.3,1.6c0.1,0.1,0.3,0.6,0.7,0.7c0.1,0,0.2,0,0.3,0
		c0,0,0.1,0,0.1,0c0.9,0.1,1.7,0.3,2.6,0.7c0.3,0.1,0.6,0.3,0.9,0.5l0.1,0.1c0.1,0,0.1,0.1,0.1,0.2c0,0.2,0,0.4,0,0.6l0,0.4
		c0,0.1,0,0.1-0.1,0.1l-0.2,0c-0.3,0-0.5,0.1-0.8,0.1C32.2,22,30.4,22,28.6,22l-1,0c-0.6,0-1.1,0-1.7,0c0,0,0,0.1,0,0.1
		c0,0.2-0.1,0.5-0.1,0.7c0,0.1,0,0.1,0,0.2c0.6,0,1.3,0,1.9,0.1l1,0h0c1.9,0,3.7-0.1,5.5-0.3c0.4,0,0.7-0.1,1-0.2l0.2-0.1
		c0.4-0.1,0.6-0.3,0.7-0.7c0-0.3,0.1-0.5,0.1-0.8l0-0.4C36.3,20.2,36.1,19.9,35.8,19.6z"/>
	<path fill="#6B6C6C" d="M11.2,23L11.2,23c1,0,2.1,0,3.1-0.1c-0.1-0.3-0.2-0.6-0.2-1c-1,0-1.9,0.1-2.9,0.1l-1,0
		c-0.8,0-1.6,0-2.4-0.1c-0.9,0-1.8-0.1-2.6-0.2c-0.4-0.1-0.4-0.1-0.4-0.4c0-0.1,0-0.2,0-0.4c0-0.1,0-0.3,0-0.4c0-0.1,0-0.1,0.1-0.2
		L5,20.2c0.3-0.2,0.5-0.3,0.8-0.5c0.8-0.4,1.7-0.6,2.6-0.7c0.1,0,0.3,0,0.4,0c0.3,0,0.6-0.1,0.8-0.4c0.3-0.4,0.4-0.8,0.4-1.2
		c0-0.2,0.1-0.5,0.1-0.7c0-0.2-0.1-0.3-0.2-0.4C9.3,15.7,8.9,15,8.9,14c0-0.1,0-0.2-0.1-0.3c-0.1-0.3-0.2-0.6-0.2-0.9l0-0.1
		c0.2-0.2,0.2-0.5,0.2-0.7c0-0.1,0-0.2,0-0.3c0.1-0.4,0.1-0.8,0.3-1.1c0.3-0.6,0.7-0.9,1.4-1c0.7-0.1,1.4-0.1,2.2,0
		c0.3,0.1,0.5,0.2,0.7,0.6c0.2,0.3,0.3,0.7,0.4,1.2c0,0.2,0.1,0.4,0.1,0.7c0,0.1,0,0.3,0,0.4c0,0.1,0,0.2,0.1,0.4c0,0,0,0,0,0.1
		c0,0.1,0,0.2,0,0.3c0,0.2,0,0.4-0.1,0.5c-0.1,0.3-0.2,0.6-0.2,0.8c0,0.2-0.1,0.3-0.1,0.5c-0.1,0.6-0.4,1-0.8,1.5
		c-0.2,0.2-0.2,0.3-0.2,0.5c0,0.5,0.1,1.1,0.3,1.6c0.1,0.1,0.3,0.6,0.7,0.7c0,0,0,0,0,0c0-0.3,0.1-0.5,0.2-0.8c0-0.1,0-0.2,0-0.2
		c0,0,0,0-0.1,0c-0.1-0.1-0.1-0.1-0.1-0.2c-0.1-0.3-0.1-0.7-0.2-1c0,0,0,0,0,0c0.5-0.5,0.8-1.1,0.9-1.8c0-0.2,0.1-0.3,0.1-0.5
		c0-0.2,0.1-0.4,0.1-0.6c0.2-0.4,0.2-0.8,0.2-1.3l0-0.1c0-0.1,0-0.3-0.2-0.5l0-0.2c0-0.2,0-0.4-0.1-0.5c-0.1-0.7-0.2-1.2-0.5-1.6
		c-0.4-0.7-0.9-1.1-1.5-1.2c-0.9-0.1-1.6-0.2-2.4,0c-1.1,0.2-1.9,0.8-2.3,1.9c-0.2,0.4-0.3,1-0.3,1.5c0,0,0,0.1,0,0.1c0,0,0,0,0,0.1
		c-0.2,0.2-0.2,0.4-0.2,0.6l0,0.1c0,0.4,0,0.9,0.2,1.3c0,0.1,0.1,0.2,0.1,0.4C8,15.3,8.3,16,8.8,16.6C9,16.8,9,16.9,9,17.1l-0.1,0.3
		c0,0.2-0.1,0.4-0.1,0.6c0,0,0,0.1-0.1,0.1c-0.7,0-1.4,0.2-2.3,0.5c-0.6,0.2-1.3,0.5-2,1c-0.5,0.3-0.7,0.8-0.6,1.3
		c0,0.1,0,0.2,0,0.3c0,0.3,0,0.6,0.1,0.9c0.1,0.3,0.3,0.5,0.6,0.6l0.1,0c0.1,0,0.2,0.1,0.3,0.1c1,0.2,2,0.2,2.9,0.3
		c0.8,0,1.5,0,2.3,0.1L11.2,23z"/>
	<path fill="#6B6C6C" d="M28.2,27.7c-0.6-0.5-1.3-0.8-1.8-1c-1.3-0.5-2.4-0.8-3.4-0.8c-0.1-0.1-0.1-0.2-0.1-0.2
		c-0.1-0.4-0.1-0.8-0.2-1.2c0,0,0,0,0,0c0.5-0.6,0.9-1.3,1.1-2.1c0-0.2,0.1-0.4,0.1-0.5c0-0.3,0.1-0.5,0.2-0.7
		c0.2-0.5,0.2-1,0.2-1.5l0-0.1c0-0.1,0-0.4-0.2-0.6l0-0.3c0-0.2,0-0.4-0.1-0.6c-0.1-0.8-0.3-1.4-0.6-1.9c-0.4-0.8-1-1.3-1.8-1.4
		c-1-0.2-1.9-0.2-2.8,0c-1.3,0.2-2.2,0.9-2.7,2.2c-0.2,0.5-0.3,1.1-0.4,1.8c0,0.1,0,0.1,0,0.2c0,0,0,0,0,0.1
		c-0.2,0.2-0.2,0.5-0.2,0.7l0,0.1c0,0.5,0,1,0.2,1.6c0,0.1,0.1,0.3,0.1,0.4c0.2,1.1,0.5,1.9,1,2.5c0.2,0.2,0.3,0.4,0.2,0.6l-0.1,0.3
		c0,0.2-0.1,0.5-0.2,0.7c0,0,0,0.1-0.1,0.1c-0.8,0-1.6,0.2-2.7,0.6c-0.7,0.2-1.6,0.6-2.4,1.1c-0.6,0.4-0.8,0.9-0.8,1.5
		c0,0.1,0,0.2,0,0.4c0,0.3,0,0.7,0.1,1c0.1,0.4,0.4,0.6,0.7,0.7l0.2,0c0.1,0,0.2,0.1,0.4,0.1c1.2,0.2,2.3,0.3,3.4,0.3
		c0.9,0,1.8,0.1,2.7,0.1l1.2,0h0c2.2,0,4.3-0.1,6.5-0.3c0.4,0,0.8-0.1,1.2-0.2l0.3-0.1c0.4-0.1,0.7-0.4,0.8-0.8
		c0-0.3,0.1-0.6,0.1-0.9l0.1-0.5C28.8,28.4,28.6,28,28.2,27.7z M19.9,30.5l-1.2,0c-0.9,0-1.9,0-2.9-0.1c-1,0-2.1-0.1-3.1-0.3
		c-0.4-0.1-0.4-0.1-0.4-0.5c0-0.1,0-0.3,0-0.4c0-0.2,0-0.3,0-0.5c0-0.1,0-0.2,0.1-0.2l0.1-0.1c0.3-0.2,0.6-0.4,0.9-0.5
		c0.9-0.4,1.9-0.7,3-0.9c0.1,0,0.3,0,0.4,0c0.4,0,0.7-0.2,0.9-0.5c0.3-0.4,0.4-0.9,0.5-1.4c0-0.3,0.1-0.5,0.1-0.8
		c0-0.2-0.1-0.4-0.2-0.5c-0.6-0.6-1-1.5-1.1-2.6c0-0.1,0-0.3-0.1-0.4c-0.2-0.3-0.2-0.7-0.2-1.1l0-0.2C17,19.3,17,19,17,18.7
		c0-0.1,0-0.2,0-0.4c0.1-0.5,0.2-0.9,0.3-1.3c0.3-0.7,0.8-1.1,1.6-1.2c0.8-0.1,1.6-0.1,2.5,0c0.4,0.1,0.6,0.3,0.9,0.6
		c0.2,0.4,0.4,0.8,0.4,1.4c0,0.3,0.1,0.5,0.1,0.8c0,0.2,0,0.3,0.1,0.5c0,0.1,0,0.3,0.1,0.4c0,0,0,0,0,0.1c0,0.1,0,0.2,0,0.3
		c0,0.2,0,0.4-0.1,0.6c-0.1,0.3-0.2,0.7-0.2,1c0,0.2-0.1,0.4-0.1,0.5c-0.2,0.7-0.5,1.2-0.9,1.7c-0.2,0.2-0.3,0.4-0.2,0.6
		c0,0.6,0.1,1.3,0.4,1.9c0.1,0.2,0.3,0.6,0.9,0.8c0.1,0,0.2,0,0.3,0c0.1,0,0.1,0,0.2,0c1,0.1,2,0.4,3,0.8c0.3,0.1,0.7,0.3,1,0.5
		l0.2,0.1c0.1,0,0.1,0.1,0.1,0.3c0,0.2,0,0.5-0.1,0.7l0,0.4c0,0.1,0,0.1-0.1,0.1l-0.3,0c-0.3,0.1-0.6,0.1-0.9,0.1
		C24.1,30.5,21.9,30.5,19.9,30.5z"/>
</g>
</svg>
