<?xml version="1.0" encoding="utf-8"?>
<!-- Generator: Adobe Illustrator 18.1.1, SVG Export Plug-In . SVG Version: 6.00 Build 0)  -->
<svg version="1.0" id="Layer_1" xmlns="http://www.w3.org/2000/svg" xmlns:xlink="http://www.w3.org/1999/xlink" x="0px" y="0px"
	 viewBox="0 0 40 40" enable-background="new 0 0 40 40" xml:space="preserve">
<path fill="#6B6C6C" d="M34.7,19.1c-0.5-0.4-1-0.7-1.5-0.9c-1.1-0.4-2-0.6-2.8-0.7c-0.1-0.1-0.1-0.1-0.1-0.2c-0.1-0.3-0.1-0.7-0.2-1
	c0,0,0,0,0,0c0.4-0.5,0.7-1.1,0.9-1.7c0-0.1,0.1-0.3,0.1-0.4c0-0.2,0.1-0.4,0.1-0.6c0.2-0.4,0.2-0.8,0.2-1.2l0-0.1
	c0-0.1,0-0.3-0.1-0.5l0-0.2c0-0.2,0-0.3-0.1-0.5c-0.1-0.6-0.2-1.1-0.5-1.6c-0.3-0.7-0.8-1.1-1.5-1.2c-0.8-0.1-1.6-0.2-2.3,0
	C25.9,8.4,25.1,9,24.7,10c-0.2,0.4-0.3,0.9-0.3,1.5c0,0,0,0.1,0,0.1c0,0,0,0,0,0.1c-0.2,0.2-0.2,0.4-0.2,0.6l0,0.1
	c0,0.4,0,0.9,0.2,1.3c0,0.1,0.1,0.2,0.1,0.4c0.1,0.9,0.4,1.6,0.9,2.1c0.2,0.2,0.2,0.3,0.2,0.5l-0.1,0.3c0,0.2-0.1,0.4-0.1,0.6
	c0,0,0,0.1,0,0.1c0,0,0,0-0.1,0c0,0.1,0,0.1,0,0.2c0.1,0.2,0.2,0.5,0.2,0.7c0.2,0,0.4-0.2,0.6-0.4c0.3-0.4,0.4-0.8,0.4-1.2
	c0-0.2,0.1-0.5,0.1-0.7c0-0.1-0.1-0.3-0.2-0.4c-0.5-0.5-0.8-1.2-0.9-2.1c0-0.1,0-0.2-0.1-0.3c-0.1-0.3-0.1-0.6-0.2-0.9l0-0.1
	c0.1-0.2,0.2-0.5,0.2-0.7c0-0.1,0-0.2,0-0.3c0.1-0.4,0.1-0.8,0.3-1.1c0.3-0.6,0.7-0.9,1.3-1c0.6-0.1,1.3-0.1,2.1,0
	c0.3,0.1,0.5,0.2,0.7,0.5c0.2,0.3,0.3,0.7,0.4,1.1c0,0.2,0.1,0.4,0.1,0.6c0,0.1,0,0.3,0,0.4c0,0.1,0,0.2,0.1,0.4c0,0,0,0,0,0.1
	c0,0.1,0,0.2,0,0.3c0,0.2,0,0.3-0.1,0.5c-0.1,0.3-0.1,0.5-0.2,0.8c0,0.1-0.1,0.3-0.1,0.4c-0.1,0.5-0.4,1-0.8,1.4
	c-0.1,0.2-0.2,0.3-0.2,0.5c0,0.5,0.1,1.1,0.3,1.5c0.1,0.1,0.3,0.5,0.7,0.6c0.1,0,0.2,0,0.3,0c0,0,0.1,0,0.1,0
	c0.8,0.1,1.7,0.3,2.5,0.7c0.3,0.1,0.6,0.3,0.8,0.5l0.1,0.1c0.1,0,0.1,0.1,0.1,0.2c0,0.2,0,0.4,0,0.6l0,0.4c0,0.1,0,0.1-0.1,0.1
	l-0.2,0c-0.3,0-0.5,0.1-0.8,0.1c-1.8,0.2-3.6,0.2-5.2,0.2l-1,0c-0.6,0-1.1,0-1.7,0c0,0,0,0.1,0,0.1c0,0.2-0.1,0.5-0.1,0.7
	c0,0.1,0,0.1,0,0.1c0.6,0,1.2,0,1.8,0.1l1,0h0c1.8,0,3.6-0.1,5.4-0.3c0.3,0,0.7-0.1,1-0.2l0.2-0.1c0.4-0.1,0.6-0.3,0.7-0.7
	c0-0.3,0.1-0.5,0.1-0.8l0-0.4C35.2,19.7,35,19.3,34.7,19.1z"/>
<path fill="#6B6C6C" d="M10.8,22.4L10.8,22.4c1,0,2,0,3-0.1c-0.1-0.3-0.2-0.6-0.2-1c-0.9,0-1.9,0.1-2.8,0.1l-1,0
	c-0.8,0-1.6,0-2.4-0.1c-0.8,0-1.7-0.1-2.6-0.2C4.6,21,4.6,21,4.6,20.7c0-0.1,0-0.2,0-0.4c0-0.1,0-0.3,0-0.4c0-0.1,0-0.1,0.1-0.2
	l0.1-0.1c0.3-0.2,0.5-0.3,0.8-0.4c0.8-0.3,1.6-0.6,2.5-0.7c0.1,0,0.2,0,0.4,0c0.3,0,0.6-0.1,0.8-0.4c0.3-0.4,0.4-0.8,0.4-1.2
	c0-0.2,0.1-0.5,0.1-0.7c0-0.1-0.1-0.3-0.2-0.4c-0.5-0.5-0.8-1.2-0.9-2.1c0-0.1,0-0.2-0.1-0.3c-0.1-0.3-0.1-0.6-0.2-0.9l0-0.1
	c0.1-0.2,0.2-0.5,0.2-0.7c0-0.1,0-0.2,0-0.3c0.1-0.4,0.1-0.8,0.3-1.1c0.3-0.6,0.7-0.9,1.3-1c0.6-0.1,1.3-0.1,2.1,0
	c0.3,0.1,0.5,0.2,0.7,0.5c0.2,0.3,0.3,0.7,0.4,1.1c0,0.2,0.1,0.4,0.1,0.6c0,0.1,0,0.3,0,0.4c0,0.1,0,0.2,0.1,0.4c0,0,0,0,0,0.1
	c0,0.1,0,0.2,0,0.3c0,0.2,0,0.3-0.1,0.5c-0.1,0.3-0.1,0.5-0.2,0.8c0,0.1-0.1,0.3-0.1,0.4c-0.1,0.5-0.4,1-0.8,1.4
	c-0.1,0.2-0.2,0.3-0.2,0.5c0,0.5,0.1,1.1,0.3,1.5c0.1,0.1,0.3,0.5,0.7,0.6c0,0,0,0,0,0c0-0.3,0.1-0.5,0.2-0.7c0-0.1,0-0.1,0-0.2
	c0,0,0,0-0.1,0c-0.1-0.1-0.1-0.1-0.1-0.2c-0.1-0.3-0.1-0.7-0.2-1c0,0,0,0,0,0c0.4-0.5,0.7-1.1,0.9-1.7c0-0.1,0.1-0.3,0.1-0.4
	c0-0.2,0.1-0.4,0.1-0.6c0.2-0.4,0.2-0.8,0.2-1.2l0-0.1c0-0.1,0-0.3-0.1-0.5l0-0.2c0-0.2,0-0.3-0.1-0.5c-0.1-0.6-0.2-1.1-0.5-1.6
	c-0.3-0.7-0.8-1.1-1.5-1.2c-0.8-0.1-1.6-0.2-2.3,0C9,8.4,8.2,9,7.8,10c-0.2,0.4-0.3,0.9-0.3,1.5c0,0,0,0.1,0,0.1c0,0,0,0,0,0.1
	c-0.2,0.2-0.2,0.4-0.2,0.6l0,0.1c0,0.4,0,0.9,0.2,1.3c0,0.1,0.1,0.2,0.1,0.4c0.1,0.9,0.4,1.6,0.9,2.1c0.2,0.2,0.2,0.3,0.2,0.5
	l-0.1,0.3c0,0.2-0.1,0.4-0.1,0.6c0,0,0,0.1,0,0.1c-0.7,0-1.4,0.2-2.2,0.5c-0.6,0.2-1.3,0.5-2,0.9c-0.5,0.3-0.7,0.7-0.6,1.3
	c0,0.1,0,0.2,0,0.3c0,0.3,0,0.6,0.1,0.9c0.1,0.3,0.3,0.5,0.6,0.6l0.1,0C4.6,22,4.7,22,4.8,22c1,0.2,1.9,0.2,2.9,0.3
	c0.7,0,1.5,0,2.2,0.1L10.8,22.4z"/>
<path fill="#6B6C6C" d="M22.8,29.8c0,0,0-0.1,0-0.1c-1.2,0.1-2.4,0.1-3.5,0.1l-1.1,0c-0.9,0-1.9,0-2.8-0.1c-1,0-2-0.1-3-0.3
	c-0.4-0.1-0.4-0.1-0.4-0.5c0-0.1,0-0.3,0-0.4c0-0.2,0-0.3,0-0.5c0-0.1,0-0.2,0.1-0.2l0.1-0.1c0.3-0.2,0.6-0.4,0.9-0.5
	c0.9-0.4,1.9-0.7,2.9-0.8c0.1,0,0.3,0,0.4,0c0.4,0,0.7-0.2,0.9-0.5c0.3-0.4,0.4-0.9,0.5-1.4c0-0.3,0.1-0.5,0.1-0.8
	c0-0.2-0.1-0.4-0.2-0.5c-0.6-0.6-1-1.5-1.1-2.5c0-0.1,0-0.3-0.1-0.4c-0.2-0.3-0.2-0.7-0.2-1.1l0-0.2c0.2-0.3,0.2-0.6,0.2-0.8
	c0-0.1,0-0.2,0-0.4c0.1-0.5,0.2-0.9,0.3-1.3c0.3-0.7,0.8-1.1,1.6-1.2c0.8-0.1,1.6-0.1,2.5,0c0.3,0.1,0.6,0.3,0.8,0.6
	c0.2,0.4,0.3,0.8,0.4,1.3c0,0.3,0.1,0.5,0.1,0.8c0,0.2,0,0.3,0,0.5c0,0.1,0,0.3,0.1,0.4c0,0,0,0,0,0.1c0,0.1,0,0.2,0,0.3
	c0,0.2,0,0.4-0.1,0.6c-0.1,0.3-0.2,0.6-0.2,1c0,0.2-0.1,0.3-0.1,0.5c-0.2,0.6-0.5,1.2-0.9,1.7c-0.2,0.2-0.2,0.4-0.2,0.6
	c0,0.6,0.1,1.2,0.4,1.8c0.1,0.2,0.3,0.6,0.9,0.7c0.1,0,0.2,0,0.3,0c0,0,0.1,0,0.1,0c0.4,0,0.8,0.1,1.1,0.2c0.2-0.3,0.4-0.7,0.7-1
	c-0.7-0.2-1.4-0.4-2.1-0.4c-0.1-0.1-0.1-0.2-0.1-0.2c-0.1-0.4-0.1-0.8-0.2-1.2c0,0,0,0,0,0c0.5-0.6,0.9-1.3,1.1-2.1
	c0-0.2,0.1-0.3,0.1-0.5c0-0.2,0.1-0.5,0.2-0.7c0.2-0.5,0.2-1,0.2-1.4l0-0.1c0-0.1,0-0.4-0.2-0.6l0-0.3c0-0.2,0-0.4-0.1-0.6
	c-0.1-0.7-0.3-1.3-0.5-1.8c-0.4-0.8-1-1.2-1.7-1.4c-1-0.2-1.9-0.2-2.7,0c-1.3,0.2-2.1,0.9-2.6,2.1c-0.2,0.5-0.3,1.1-0.4,1.8
	c0,0,0,0.1,0,0.2c0,0,0,0,0,0.1c-0.2,0.2-0.2,0.5-0.2,0.7l0,0.1c0,0.5,0,1,0.2,1.5c0,0.1,0.1,0.3,0.1,0.4c0.2,1.1,0.5,1.9,1,2.5
	c0.2,0.2,0.3,0.4,0.2,0.6l-0.1,0.3c0,0.2-0.1,0.4-0.2,0.7c0,0,0,0.1-0.1,0.1c-0.8,0-1.6,0.2-2.6,0.5c-0.7,0.2-1.5,0.5-2.3,1.1
	c-0.5,0.4-0.8,0.9-0.7,1.5c0,0.1,0,0.2,0,0.4c0,0.3,0,0.7,0.1,1c0.1,0.4,0.4,0.6,0.7,0.7l0.2,0c0.1,0,0.2,0.1,0.3,0.1
	c1.1,0.2,2.3,0.3,3.3,0.3c0.9,0,1.7,0.1,2.6,0.1l1.2,0h0c1.2,0,2.5,0,3.7-0.1C22.9,30.4,22.8,30.1,22.8,29.8z"/>
<path fill="#6B6C6C" d="M33.9,30.1c0-0.5-0.4-0.7-0.7-0.7c0,0-0.1,0-0.1,0c0,0-0.1,0-0.1,0l-0.3,0c0,0-0.1,0-0.1,0c0,0-0.1,0-0.1,0
	c0,0,0,0-0.1,0l-0.1,0c-0.1,0-0.2,0-0.3,0c-0.3,0-0.5,0-0.8,0H31c-0.1,0-0.2-0.1-0.2-0.1c0,0-0.1-0.1-0.1-0.2l0-0.9
	c0-0.2,0-0.5,0-0.7v-0.4c0,0,0,0,0-0.1l0,0c0,0,0,0,0-0.1c0,0,0,0,0-0.1c0,0,0,0,0,0l0,0c0-0.2-0.1-0.4-0.2-0.5
	c-0.1-0.1-0.3-0.2-0.5-0.1c-0.4,0-0.6,0.3-0.6,0.8l0,0c0,0,0,0,0,0.1l0,0.2c0,0.5,0,1,0,1.5c0,0.3,0,0.5-0.3,0.6l-0.7,0
	c-0.4,0-0.8,0-1.1,0l-0.3,0c-0.3,0-0.5,0.1-0.6,0.2c-0.1,0.1-0.2,0.3-0.2,0.5c0,0.4,0.3,0.6,0.8,0.6l0.1,0c0,0,0,0,0.1,0
	c0,0,0,0,0.1,0c0.4,0,0.8,0,1.2,0l1,0l0,1c0,0.4,0,0.8,0,1.2c0,0,0,0,0,0c0,0,0,0,0,0.1l0,0.2c0,0.5,0.3,0.7,0.7,0.8
	c0.4,0,0.6-0.3,0.7-0.7c0,0,0-0.1,0-0.1c0,0,0-0.1,0-0.1c0,0,0,0,0-0.1c0,0,0,0,0,0c0-0.5,0-1,0-1.5v-0.7l2.3,0c0,0,0.1,0,0.1,0
	c0,0,0,0,0.1,0l0.1,0c0,0,0,0,0,0c0,0,0,0,0,0c0.2,0,0.4-0.1,0.5-0.2C33.8,30.4,33.9,30.3,33.9,30.1z"/>
</svg>
