<?xml version="1.0" encoding="utf-8"?>
<!-- Generator: Adobe Illustrator 18.1.1, SVG Export Plug-In . SVG Version: 6.00 Build 0)  -->
<svg version="1.0" id="Layer_1" xmlns="http://www.w3.org/2000/svg" xmlns:xlink="http://www.w3.org/1999/xlink" x="0px" y="0px"
	 viewBox="0 0 40 40" enable-background="new 0 0 40 40" xml:space="preserve">
<g>
	<g>
		<path fill="#6B6C6C" d="M19,27.1h2.2V25H19V27.1z M19.1,23.1h1.9c0.1-1.3,0.5-1.7,1.3-2.3c1.4-1,2.2-1.8,2.2-3.3
			c0-3.5-3.5-3.8-4.6-3.8c-1.9,0-4.2,1-4.3,3.9h2.1c0.1-0.8,0.5-2.2,2.3-2.2c1,0,2.2,0.6,2.2,2.2c0,0.8-0.4,1.5-1.3,2.1
			C19.4,20.9,19.1,21.6,19.1,23.1z"/>
	</g>
</g>
</svg>
