<?xml version="1.0" encoding="utf-8"?>
<!-- Generator: Adobe Illustrator 18.1.1, SVG Export Plug-In . SVG Version: 6.00 Build 0)  -->
<svg version="1.0" id="Layer_1" xmlns="http://www.w3.org/2000/svg" xmlns:xlink="http://www.w3.org/1999/xlink" x="0px" y="0px"
	 viewBox="0 0 40 40" enable-background="new 0 0 40 40" xml:space="preserve">
<g>
	<path fill="#6B6C6C" stroke="#6B6C6C" stroke-width="0.75" stroke-miterlimit="10" d="M20,9c6,0,11,4.9,11,10.9
		C31,26,26.1,31,20,31c-6,0-10.9-4.9-11-11C9,13.9,13.9,9,20,9z M30.6,20c0.1-5.7-4.7-10.5-10.5-10.6C14.4,9.4,9.7,13.9,9.4,19.5
		c-0.3,6.2,4.7,11,10.4,11C25.7,30.6,30.5,25.9,30.6,20z"/>
	<path fill="#6B6C6C" stroke="#6B6C6C" stroke-width="0.75" stroke-miterlimit="10" d="M21.4,21.9c-2.2,0-4.2,0-6.4,0
		c0-0.1,0-0.2,0-0.4c2,0,3.9,0,5.9,0c0-0.2,0-0.4,0-0.5c0-2.4,0-4.8,0-7.2c0-0.1,0-0.3,0.1-0.4c0.3-0.1,0.4,0.1,0.4,0.3
		c0,1.2,0,2.5,0,3.7C21.4,18.8,21.4,20.3,21.4,21.9z"/>
</g>
</svg>
