<?xml version="1.0" encoding="utf-8"?>
<!-- Generator: Adobe Illustrator 18.1.1, SVG Export Plug-In . SVG Version: 6.00 Build 0)  -->
<svg version="1.1" id="Icons" xmlns="http://www.w3.org/2000/svg" xmlns:xlink="http://www.w3.org/1999/xlink" x="0px" y="0px"
	 viewBox="0 0 20 20" enable-background="new 0 0 20 20" xml:space="preserve">
<g>
	<path fill="#6B6C6C" d="M10,4.9c3.6,0,6.6,2.9,6.6,6.5c0,3.6-2.9,6.5-6.5,6.5c-3.6,0-6.6-2.9-6.6-6.5C3.5,7.9,6.4,4.9,10,4.9z
		 M15.4,11.5c0-3-2.4-5.4-5.4-5.4c-3,0-5.4,2.4-5.4,5.4c0,2.9,2.4,5.4,5.3,5.4C13,16.9,15.4,14.5,15.4,11.5z"/>
	<path fill="#6B6C6C" d="M10.6,3.9c0,0.1,0,0.3,0,0.4c-0.4,0-0.8,0-1.1,0c0-0.1,0-0.3,0-0.4c-0.1,0-0.1,0-0.2,0c-0.2,0-0.5,0-0.7,0
		C8.2,3.9,8,3.6,8,3.3c0-0.2,0-0.5,0-0.7C8,2.2,8.2,2,8.6,2c1,0,1.9,0,2.9,0C11.8,2,12,2.3,12,2.6c0,0.2,0,0.5,0,0.7
		c0,0.4-0.2,0.6-0.6,0.6C11.2,3.9,10.9,3.9,10.6,3.9C10.6,3.9,10.6,3.9,10.6,3.9z"/>
	<path fill="#6B6C6C" d="M15.5,6.9c-0.3-0.3-0.7-0.7-1-1c0.2-0.2,0.4-0.5,0.7-0.4c0.3,0.1,0.6,0.3,0.6,0.7C16,6.5,15.8,6.7,15.5,6.9
		z"/>
	<path fill="#6B6C6C" d="M5.5,5.9c-0.3,0.3-0.7,0.7-1,1C4.3,6.8,4,6.6,4.1,6.3c0.1-0.3,0.3-0.6,0.6-0.7C4.9,5.5,5.1,5.6,5.5,5.9z"/>
	<path fill="#6B6C6C" d="M9.2,11.5c0-0.5,0.4-0.9,0.8-0.9c0.1,0,0.2,0,0.2-0.1c0.5-0.9,1-1.8,1.5-2.8c0-0.1,0.1-0.2,0.2-0.2
		c0.2-0.1,0.4,0.2,0.3,0.4c0,0.1-0.1,0.2-0.1,0.3c-0.5,0.9-0.9,1.7-1.4,2.6c-0.1,0.1-0.1,0.2,0,0.3c0.2,0.3,0.2,0.7-0.1,1
		c-0.2,0.3-0.6,0.4-1,0.3C9.4,12.2,9.2,11.9,9.2,11.5z"/>
</g>
</svg>
