<?xml version="1.0" encoding="utf-8"?>
<!-- Generator: Adobe Illustrator 18.1.1, SVG Export Plug-In . SVG Version: 6.00 Build 0)  -->
<svg version="1.0" id="Layer_1" xmlns="http://www.w3.org/2000/svg" xmlns:xlink="http://www.w3.org/1999/xlink" x="0px" y="0px"
	 viewBox="0 0 40 40" enable-background="new 0 0 40 40" xml:space="preserve">
<g>
	<g>
	</g>
</g>
<g>
	<path fill="#6B6C6C" d="M20.4,17.5c-0.5,0-1,0.3-1,0.8V28c0,0.4,0.4,0.8,1,0.8s1-0.3,1-0.8v-9.8C21.4,17.8,21,17.5,20.4,17.5z"/>
	<path fill="#6B6C6C" d="M20.4,12.4c-0.6,0-1.2,0.5-1.2,1.2v0.2c0,0.6,0.5,1.2,1.2,1.2s1.2-0.5,1.2-1.2v-0.2
		C21.6,13,21.1,12.4,20.4,12.4z"/>
	<path fill="#6B6C6C" d="M20,6.5C12.6,6.5,6.5,12.6,6.5,20S12.6,33.5,20,33.5S33.5,27.4,33.5,20S27.4,6.5,20,6.5z M20,31.9
		c-6.6,0-11.9-5.4-11.9-11.9S13.4,8.1,20,8.1S31.9,13.4,31.9,20S26.6,31.9,20,31.9z"/>
</g>
</svg>
