<?xml version="1.0" encoding="utf-8"?>
<!-- Generator: Adobe Illustrator 18.1.1, SVG Export Plug-In . SVG Version: 6.00 Build 0)  -->
<svg version="1.0" id="Layer_1" xmlns="http://www.w3.org/2000/svg" xmlns:xlink="http://www.w3.org/1999/xlink" x="0px" y="0px"
	 viewBox="0 0 40 40" enable-background="new 0 0 40 40" xml:space="preserve">
<g>
	<rect x="3.3" y="3.3" fill="none" stroke="#6B6C6C" stroke-miterlimit="10" width="33.3" height="33.3"/>
	<path fill="#6B6C6C" d="M4.3,36.5L20,20.8l15.7,15.7c0.2,0.2,0.6,0.2,0.8,0c0.1-0.1,0.2-0.3,0.2-0.4c0-0.2-0.1-0.3-0.2-0.4L20.8,20
		L36.5,4.3c0.1-0.1,0.2-0.3,0.2-0.4c0-0.2-0.1-0.3-0.2-0.4c-0.2-0.2-0.6-0.2-0.8,0L20,19.2L4.3,3.5c-0.2-0.2-0.6-0.2-0.8,0
		C3.4,3.6,3.3,3.7,3.3,3.9c0,0.2,0.1,0.3,0.2,0.4L19.2,20L3.5,35.7c-0.1,0.1-0.2,0.3-0.2,0.4c0,0.2,0.1,0.3,0.2,0.4
		C3.7,36.7,4.1,36.7,4.3,36.5z"/>
</g>
</svg>
