<?xml version="1.0" encoding="utf-8"?>
<!-- Generator: Adobe Illustrator 18.1.1, SVG Export Plug-In . SVG Version: 6.00 Build 0)  -->
<svg version="1.0" id="Seected" xmlns="http://www.w3.org/2000/svg" xmlns:xlink="http://www.w3.org/1999/xlink" x="0px" y="0px"
	 viewBox="0 0 24 24" enable-background="new 0 0 24 24" xml:space="preserve">
<g>
	<path fill="#6B6B6B" stroke="#6B6B6B" stroke-width="0.3" stroke-miterlimit="10" d="M6.3,10.2c0-3,2.1-5.5,4.9-5.9
		c2.3-0.3,4.5,0.8,5.7,2.8c0.7,1.2,0.9,2.6,0.7,4c-0.2,1.3-0.6,2.4-1.2,3.5c-0.9,1.7-2,3.2-3.4,4.5c-0.2,0.2-0.5,0.4-0.7,0.5
		c-0.2,0.1-0.4,0.1-0.6,0c-0.4-0.3-0.8-0.6-1.1-0.9C9,17,7.7,15.1,6.9,12.9C6.5,12,6.3,11,6.3,10.2z M17,10.1c0-1.1-0.3-2.1-0.9-3
		c-1.3-1.8-3.6-2.6-5.8-1.9C8.4,5.8,7.1,7.6,7,9.6c-0.1,1,0.1,1.9,0.4,2.8c0.9,2.4,2.3,4.5,4.1,6.3c0.1,0.1,0.3,0.2,0.4,0.3
		c0.1,0.1,0.2,0.1,0.3,0c0.2-0.2,0.4-0.3,0.5-0.5c1.5-1.6,2.8-3.3,3.7-5.4C16.8,12.2,17,11.1,17,10.1z"/>
	<path fill="#6B6B6B" stroke="#6B6B6B" stroke-width="0.3" stroke-miterlimit="10" d="M12,12.7c-1.5,0-2.7-1.3-2.7-2.7
		c0-1.4,1.3-2.7,2.7-2.7c1.4,0,2.7,1.3,2.7,2.7C14.7,11.4,13.4,12.7,12,12.7z M14,10c0-1.2-0.9-2-2-2c-1.2,0-2,0.9-2,2
		c0,1.2,0.9,2,2,2C13.2,12,14,11.1,14,10z"/>
</g>
</svg>
