<?xml version="1.0" encoding="utf-8"?>
<!-- Generator: Adobe Illustrator 18.1.1, SVG Export Plug-In . SVG Version: 6.00 Build 0)  -->
<svg version="1.0" id="Seected" xmlns="http://www.w3.org/2000/svg" xmlns:xlink="http://www.w3.org/1999/xlink" x="0px" y="0px"
	 viewBox="0 0 24 24" enable-background="new 0 0 24 24" xml:space="preserve">
<g>
	<g>
		<path fill="#6B6B6B" d="M18,16.9c0-0.8,0-1.5,0-2.2c0-0.4,0.2-0.6,0.6-0.6c0.9,0,0.9,0,0.9,0.9c0,1.3,0,2.5,0,3.8
			c0,0.5-0.1,0.6-0.6,0.6c-1.4,0-2.8,0-4.1,0c-0.5,0-0.6-0.1-0.6-0.6c0-0.9,0-0.9,0.9-0.9c0.6,0,1.1,0,1.7,0c0,0,0,0,0.1,0
			c-0.1-0.1-0.1-0.1-0.2-0.2c-0.8-0.8-1.6-1.6-2.3-2.3c-0.3-0.3-0.3-0.5,0-0.8c0.6-0.6,0.7-0.6,1.3,0c0.7,0.7,1.4,1.4,2.1,2.1
			C17.8,16.7,17.9,16.8,18,16.9z"/>
		<path fill="#6B6B6B" d="M7.1,6.1c0.8,0.8,1.6,1.6,2.4,2.4C10,9,10,9.1,9.5,9.6c0,0,0,0-0.1,0.1C9.1,10,8.9,10,8.6,9.7
			C7.8,8.9,7.1,8.2,6.3,7.4C6.2,7.3,6.2,7.2,6.1,7.1c0,0-0.1,0.1-0.1,0.1c0,0.1,0,0.2,0,0.3c0,0.6,0,1.2,0,1.8
			c0,0.4-0.1,0.6-0.6,0.6c-0.9,0-0.9,0-0.9-0.9c0-1.3,0-2.6,0-3.9c0-0.4,0.2-0.6,0.6-0.6c1.4,0,2.8,0,4.2,0c0.4,0,0.6,0.2,0.6,0.6
			C9.8,6,9.8,6,8.9,6C8.3,6,7.7,6,7.1,6.1C7.2,6.1,7.1,6.1,7.1,6.1z"/>
		<path fill="#6B6B6B" d="M17.9,7.1c-0.8,0.8-1.6,1.6-2.4,2.4c-0.1,0.1-0.2,0.2-0.2,0.2c-0.2,0.1-0.4,0.2-0.6,0
			c-0.6-0.6-0.9-0.7-0.1-1.4c0.7-0.7,1.4-1.4,2.1-2.1c0.1-0.1,0.1-0.1,0.3-0.3c-0.2,0-0.4,0-0.5,0c-0.6,0-1.1,0-1.7,0
			c-0.4,0-0.5-0.2-0.5-0.5c0-0.8,0-1,0.9-1c1.3,0,2.5,0,3.8,0c0.5,0,0.6,0.1,0.6,0.6c0,1.4,0,2.7,0,4.1c0,0.5-0.1,0.6-0.6,0.6
			c-0.8,0-0.9,0-0.9-0.9C18,8.3,18,7.8,17.9,7.1C17.9,7.2,17.9,7.1,17.9,7.1z"/>
		<path fill="#6B6B6B" d="M6,16.9c0.1-0.1,0.2-0.2,0.3-0.3c0.8-0.8,1.5-1.5,2.3-2.3c0.3-0.3,0.5-0.3,0.9,0c0.6,0.6,0.6,0.7,0,1.3
			c-0.7,0.7-1.4,1.4-2.1,2.1c-0.1,0.1-0.1,0.1-0.3,0.3c0.7,0,1.2,0,1.8,0c1,0,0.9,0.2,0.9,1c0,0.3-0.2,0.5-0.5,0.5
			c-1.5,0-2.9,0-4.4,0c-0.3,0-0.5-0.2-0.5-0.5c0-1.5,0-2.9,0-4.4c0-0.3,0.2-0.4,0.5-0.5c0.1,0,0.3,0,0.4,0c0.4,0,0.6,0.1,0.6,0.6
			c0,0.6,0,1.2,0,1.8C6,16.7,6,16.8,6,16.9z"/>
	</g>
</g>
</svg>
