<?xml version="1.0" encoding="utf-8"?>
<!-- Generator: Adobe Illustrator 18.1.1, SVG Export Plug-In . SVG Version: 6.00 Build 0)  -->
<svg version="1.0" id="Seected" xmlns="http://www.w3.org/2000/svg" xmlns:xlink="http://www.w3.org/1999/xlink" x="0px" y="0px"
	 viewBox="0 0 24 24" enable-background="new 0 0 24 24" xml:space="preserve">
<g>
	<g>
		<path fill="#6B6B6B" stroke="#6B6B6B" stroke-width="0.2" stroke-miterlimit="10" d="M11.9,16.8c-1.8,0-3.6,0-5.2,0H6.5
			c-0.4,0-0.5-0.3-0.5-0.5c0-0.3,0.2-0.4,0.5-0.4h0.2c3.6,0,7.2,0,10.6,0c0.5,0,0.9,0.1,0.9,0.5c0,0.3-0.4,0.4-0.9,0.4
			C15.5,16.8,13.7,16.8,11.9,16.8z"/>
	</g>
	<g>
		<path fill="#6B6B6B" stroke="#6B6B6B" stroke-width="0.2" stroke-miterlimit="10" d="M11.9,12.4c-1.8,0-3.6,0-5.2,0H6.5
			c-0.4,0-0.5-0.3-0.5-0.5c0-0.3,0.2-0.4,0.5-0.4h0.2c3.6,0,7.2,0,10.6,0c0.5,0,0.9,0.1,0.9,0.5c0,0.3-0.4,0.4-0.9,0.4
			C15.5,12.4,13.7,12.4,11.9,12.4z"/>
	</g>
	<g>
		<path fill="#6B6B6B" stroke="#6B6B6B" stroke-width="0.2" stroke-miterlimit="10" d="M11.9,8.1c-1.8,0-3.6,0-5.2,0H6.5
			c-0.4,0-0.5-0.3-0.5-0.5c0-0.3,0.2-0.4,0.5-0.4h0.2c3.6,0,7.2,0,10.6,0c0.5,0,0.9,0.1,0.9,0.5c0,0.3-0.4,0.4-0.9,0.4
			C15.5,8.1,13.7,8.1,11.9,8.1z"/>
	</g>
</g>
</svg>
