<?xml version="1.0" encoding="utf-8"?>
<!-- Generator: Adobe Illustrator 18.1.1, SVG Export Plug-In . SVG Version: 6.00 Build 0)  -->
<svg version="1.0" id="Layer_1" xmlns="http://www.w3.org/2000/svg" xmlns:xlink="http://www.w3.org/1999/xlink" x="0px" y="0px"
	 viewBox="0 0 40 40" enable-background="new 0 0 40 40" xml:space="preserve">
<g>
	<g>
		<path fill="#27A8DB" d="M33,15c-0.3-0.6-0.8-0.9-1.6-0.9l-6.9,0l-0.1-0.2c-0.4-0.9-0.7-1.7-1.1-2.6L23.2,11
			c-0.3-0.7-0.6-1.3-0.9-2c-0.2-0.4-0.5-1.2-1.5-1.2c-0.9,0-1.3,0.8-1.4,1.1l-0.9,1.9c-0.5,1-0.9,2.1-1.4,3.2L17,14.1l-0.2,0
			c-0.5,0-0.9,0-1.4,0l-3.8,0l-1.5,0c-0.8,0-1.3,0.3-1.6,0.9c-0.4,0.9,0.2,1.5,0.5,1.8l1.8,1.8c1,1,2,2,3,2.9l0.1,0.1l0,0.2
			c-0.2,1.2-0.5,2.4-0.7,3.6c-0.2,1.1-0.4,2.2-0.7,3.3c-0.1,0.5-0.2,1.3,0.6,1.8c0.2,0.2,0.5,0.2,0.8,0.2c0.5,0,0.9-0.3,1.1-0.4
			l2.2-1.5c1.1-0.8,2.3-1.6,3.4-2.4l0.2-0.1l0.2,0.1c1.3,0.9,2.6,1.8,3.9,2.8l1.8,1.3c0.6,0.4,1.3,0.5,1.8,0.1
			c0.4-0.3,0.7-0.7,0.6-1.6c-0.5-2.3-0.9-4.7-1.4-7l0-0.2l0.1-0.1c1.3-1.3,2.6-2.6,4-4l0.8-0.8C32.9,16.5,33.4,15.9,33,15z
			 M18.3,14.6c0.5-1.1,1-2.2,1.5-3.3l1.1-2.5l0.3,0.7c0.3,0.8,0.7,1.6,1,2.4c0.4,1,0.8,1.9,1.2,2.9c0.3,0.6,0.8,0.7,1.2,0.7l7.5,0
			l-1.2,1.2c-1.4,1.4-2.8,2.8-4.2,4.2c-0.3,0.3-0.4,0.8-0.4,1.2c0.4,1.9,0.9,4.4,1.4,6.9l0.2,0.8L25.5,28c-1.3-0.9-2.6-1.8-3.9-2.8
			c-0.3-0.2-1-0.5-1.6,0c-1.3,0.9-2.5,1.8-3.8,2.7l-2.5,1.8l0.2-0.8c0.2-0.8,0.3-1.6,0.5-2.4l0.1-0.6c0.2-1.3,0.5-2.4,0.7-3.6
			c0.1-0.6,0-1-0.4-1.4c-1-1-2.1-2.1-3.1-3.1l-2.1-2.1l2.1,0l3.8,0"/>
	</g>
</g>
</svg>
