<?xml version="1.0" encoding="utf-8"?>
<!-- Generator: Adobe Illustrator 18.1.1, SVG Export Plug-In . SVG Version: 6.00 Build 0)  -->
<svg version="1.0" id="Layer_1" xmlns="http://www.w3.org/2000/svg" xmlns:xlink="http://www.w3.org/1999/xlink" x="0px" y="0px"
	 viewBox="0 0 40 40" enable-background="new 0 0 40 40" xml:space="preserve">
<g>
	<path fill="#27A8DB" d="M25.1,14.7c0,1.4,0.1,2.8,0,4.2c-0.3,2.6-2.8,4.5-5.4,4.3c-2.7-0.2-4.8-2.4-4.9-5c0-2.3,0-4.6,0-6.9
		c0.1-2.8,2.5-5.1,5.3-5c2.8,0.1,5,2.4,5,5.2C25.2,12.6,25.2,13.6,25.1,14.7C25.2,14.7,25.2,14.7,25.1,14.7z M23.8,14.8
		c0-0.1,0-0.3,0-0.4c0-1.2,0.1-2.3-0.1-3.5c-0.3-2-2-3.3-4.1-3.2c-1.9,0.2-3.4,1.8-3.4,3.8c0,2.2,0,4.4,0,6.6c0,2.1,1.7,3.7,3.7,3.7
		c2.1,0,3.8-1.6,3.8-3.7C23.8,17,23.8,15.9,23.8,14.8z"/>
	<path fill="#27A8DB" d="M20.7,26.9c0,1.8,0,3.6,0,5.4c0.9,0,1.8,0,2.7,0c0.2,0,0.5,0,0.7,0c0.4,0.1,0.6,0.3,0.6,0.7
		c0,0.4-0.3,0.6-0.7,0.7c-0.3,0-0.5,0-0.8,0c-2.3,0-4.6,0-6.9,0c-0.6,0-0.9-0.3-0.9-0.7c0-0.5,0.3-0.7,0.9-0.7c1,0,1.9,0,2.9,0
		c0-1.9,0-3.7,0-5.5c-0.6-0.1-1.1-0.2-1.6-0.4c-3.7-1-6.3-4.4-6.4-8.3c0-0.3,0.1-0.6,0.3-0.8c0.1-0.1,0.5-0.2,0.7-0.1
		c0.2,0.1,0.3,0.4,0.4,0.7c0.2,0.9,0.2,1.8,0.5,2.7c1.1,3.1,4.2,5.1,7.5,4.8c3.3-0.3,6-2.8,6.6-6.1c0.1-0.4,0.1-0.8,0.1-1.3
		c0-0.5,0.3-0.8,0.7-0.8c0.4,0,0.7,0.3,0.7,0.9c0.1,3.4-2.2,6.8-5.4,8C22.5,26.4,21.6,26.6,20.7,26.9z"/>
</g>
</svg>
