<?xml version="1.0" encoding="utf-8"?>
<!-- Generator: Adobe Illustrator 18.1.1, SVG Export Plug-In . SVG Version: 6.00 Build 0)  -->
<svg version="1.0" id="Layer_1" xmlns="http://www.w3.org/2000/svg" xmlns:xlink="http://www.w3.org/1999/xlink" x="0px" y="0px"
	 viewBox="0 0 24 24" enable-background="new 0 0 24 24" xml:space="preserve">
<g>
	<path fill="#6B6C6C" d="M18.6,7.7C18.6,7.7,18.5,7.7,18.6,7.7c-2.1,0-3.3,0-5.3,0c-0.1,0-0.1,0-0.2,0.1c-1.2,1.1-2.4,2.2-3.5,3.4
		c0,0-0.1,0.1-0.1,0.2c0,3.1,0,5.4,0,8.5c0,0.1,0,0.1,0,0.2c1.5,0,7.3,0,8.7,0c0,0,0,0,0,0c0.1,0,0.3,0,0.4,0
		C18.6,17.5,18.6,10.2,18.6,7.7z M12.8,9.2c0,0.6,0,1.1,0,1.6c-0.5,0-1,0-1.6,0C11.7,10.3,12.2,9.8,12.8,9.2z M10.4,11.8
		c1.1,0,2.2,0,3.3,0c0-1.1,0-2.1,0-3.2c1.6,0,2.4,0,4,0c0,1.9,0,7.7,0,10.4c-1.8,0-6.3,0-7.3,0C10.4,16.4,10.4,14.5,10.4,11.8z"/>
	<path fill="#6B6C6C" d="M8.3,16.3v-0.9c-1.1,0-1.6,0-2,0c0-2.7,0-4.6,0-7.3c1.1,0,2.2,0,3.3,0c0-1.1,0-2.1,0-3.2c1.6,0,2.4,0,4,0
		c0,0.5,0,0.8,0,1.6h0.9c0-1.2,0-1.9,0-2.6c0,0-0.1,0-0.1,0c-2,0-3.2,0-5.3,0C9.1,4,9.1,4,9,4.1C7.8,5.2,6.7,6.3,5.5,7.4
		c0,0-0.1,0.1-0.1,0.2c0,3.1,0,5.4,0,8.5c0,0.1,0,0.1,0,0.2C6,16.3,6.9,16.3,8.3,16.3z M8.7,5.5c0,0.6,0,1.1,0,1.6c-0.5,0-1,0-1.6,0
		C7.7,6.6,8.2,6.1,8.7,5.5z"/>
</g>
</svg>
