<?xml version="1.0" encoding="utf-8"?>
<!-- Generator: Adobe Illustrator 18.1.1, SVG Export Plug-In . SVG Version: 6.00 Build 0)  -->
<svg version="1.0" id="Seected" xmlns="http://www.w3.org/2000/svg" xmlns:xlink="http://www.w3.org/1999/xlink" x="0px" y="0px"
	 viewBox="0 0 24 24" enable-background="new 0 0 24 24" xml:space="preserve">
<g>
	<g>
		<path fill="#6B6B6B" d="M9,15l0.6,0.6c0.5,0.4,0.9,0.9,1.4,1.3c0,0,0.1,0.1,0.2,0.1c0.1,0,0.2-0.1,0.2-0.1
			c0.8-0.8,1.7-1.7,2.5-2.5l0.8-0.8c0,0,0.1-0.1,0.1-0.1l0.1-0.1l-0.6-0.6l-3.1,3.1l-1.6-1.5L9,15z"/>
		<g>
			<path fill="#6B6B6B" d="M14,6.5v0.4c0,0.2,0.1,0.4,0.2,0.5C14.1,7.1,14.1,6.8,14,6.5z"/>
			<path fill="#6B6B6B" d="M18,10.2c-0.7,0-1.3-0.2-1.9-0.5H5V6.3h2v0.6c0,0.4,0.3,0.7,0.7,0.7l0.9,0l0.7,0c0.4,0,0.7-0.3,0.7-0.7
				l0-0.6h4c0,0,0-0.1,0-0.1v0c0-0.8,0.2-1.5,0.6-2.1C14.3,4.1,14,4.3,14,4.7v0.8H10V4.7C10,4.3,9.7,4,9.3,4L8.5,4L7.7,4
				C7.3,4,7,4.3,7,4.7l0,0.8l-1.3,0l-1,0C4.3,5.5,4,5.8,4,6.2v2.9c0,3.4,0,6.9,0,10.3c0,0.2,0.1,0.4,0.3,0.5C4.4,19.9,4.6,20,4.7,20
				c3.6,0,7.2,0,10.8,0l3.8,0l0.1,0c0.3,0,0.6-0.3,0.6-0.6v-2c0-2.6,0-5.2,0-7.8C19.4,10,18.7,10.2,18,10.2z M7.8,4.8l1.4,0l0,0.2
				c0,0.5,0,1.1,0,1.6l0,0.2l-1.4,0V4.8z M19,19.2H5v-8.7H19V19.2z"/>
		</g>
		<g>
			<g>
				<g>
					<g>
						<path fill="#E67E22" d="M18,9.2L18,9.2c-1.7,0-3-1.3-3-3v0c0-1.7,1.3-3,3-3h0c1.7,0,3,1.3,3,3v0C21,7.8,19.7,9.2,18,9.2z"/>
					</g>
				</g>
			</g>
		</g>
	</g>
</g>
</svg>
