<?xml version="1.0" encoding="utf-8"?>
<!-- Generator: Adobe Illustrator 18.1.1, SVG Export Plug-In . SVG Version: 6.00 Build 0)  -->
<svg version="1.0" id="Layer_1" xmlns="http://www.w3.org/2000/svg" xmlns:xlink="http://www.w3.org/1999/xlink" x="0px" y="0px"
	 viewBox="0 0 24 24" enable-background="new 0 0 24 24" xml:space="preserve">
<g>
	<path fill="#6B6C6C" d="M15.4,8.5H5.6C5.1,8.5,5,8.7,5,9.1c0,3.3,0,6.6,0,10c0,0.4,0.2,0.6,0.6,0.6h9.9c0.5,0,0.6-0.2,0.6-0.6
		c0-3.3,0-6.6,0-9.9C16.1,8.7,15.9,8.5,15.4,8.5z M15,9.6v9.2c0,0-0.1,0-0.1,0H6.1c-0.1,0-0.1,0-0.1,0c0,0,0-0.1,0-0.1V9.7
		c0,0,0-0.1,0-0.1c0,0,0.1,0,0.1,0H15z"/>
	<path fill="#6B6C6C" d="M19.3,4.7l-2.4,0v1c0.7,0,1.3,0,2,0c0,0,0.1,0,0.1,0c0,0,0,0,0,0.1c0,0.6,0,1.3,0,1.9h1V5.4
		C20,4.9,19.8,4.7,19.3,4.7z"/>
	<g>
		<path fill="#6B6C6C" d="M10.8,5.7v-1l-2.5,0C8,4.7,7.7,4.9,7.7,5.3l0,0.2c0,0.4,0,0.8,0,1.2C7.8,6.8,7.9,7,8,7.1
			c0.1,0.1,0.2,0.1,0.3,0.1c0.3,0,0.5-0.2,0.5-0.5c0-0.2,0-0.5,0-0.7l0-0.2H10.8z"/>
		<path fill="#6B6C6C" d="M12.8,4.7v1h0.5c0.5,0,1,0,1.5,0v-1L12.8,4.7z"/>
	</g>
	<path fill="#6B6C6C" d="M18.9,13.9v2h-0.5c-0.2,0-0.3,0-0.5,0c-0.4,0-0.6,0.2-0.6,0.5c0,0.2,0,0.3,0.1,0.4c0.1,0.1,0.2,0.2,0.4,0.2
		c0.2,0,0.4,0,0.6,0l0.7,0c0.5,0,0.6-0.2,0.6-0.6v-2.4H18.9z"/>
	<g>
		<path fill="#6B6C6C" d="M20,11.8v-2h-1c0,0.7,0,1.3,0,2H20z"/>
	</g>
</g>
</svg>
