<?xml version="1.0" encoding="utf-8"?>
<!-- Generator: Adobe Illustrator 18.1.1, SVG Export Plug-In . SVG Version: 6.00 Build 0)  -->
<svg version="1.0" id="Seected" xmlns="http://www.w3.org/2000/svg" xmlns:xlink="http://www.w3.org/1999/xlink" x="0px" y="0px"
	 viewBox="0 0 24 24" enable-background="new 0 0 24 24" xml:space="preserve">
<g>
	<g>
		<g>
			<path fill="#25A8DC" d="M8.3,4.9l-0.8,0l-0.8,0C6.3,4.9,6,5.2,6,5.6l0,0.8l-1.3,0l-1,0C3.3,6.4,3,6.7,3,7.1V10
				c0,3.4,0,6.9,0,10.3c0,0.2,0.1,0.4,0.3,0.5c0.2,0.1,0.3,0.1,0.5,0.1c3.6,0,7.2,0,10.8,0l3.8,0l0.1,0c0.3,0,0.6-0.3,0.6-0.6v-2
				c0-3.8,0-7.5,0-11.3c0-0.2-0.1-0.3-0.2-0.4c-0.2-0.1-0.3-0.2-0.5-0.2c-0.1,0-0.3,0-0.5,0l-1.8,0l0-0.8c0-0.4-0.3-0.7-0.7-0.7
				l-0.8,0l-0.8,0c-0.4,0-0.7,0.3-0.7,0.7v0.8H9V5.6C9,5.2,8.7,4.9,8.3,4.9z M6.8,5.7l1.4,0l0,0.2c0,0.5,0,1.1,0,1.6l0,0.2l-1.4,0
				V5.7z M18,20.1H4v-8.7H18V20.1z M13.8,7.4c0-0.5,0-1,0-1.5l0-0.2l0.2,0c0.2,0,0.4,0,0.7,0h0.5v2h-1.4V7.4z M9,7.8l0-0.6H13v0.6
				c0,0.4,0.3,0.7,0.7,0.7c0.5,0,1.1,0,1.6,0c0.4,0,0.7-0.3,0.7-0.7l0-0.6h2v3.4H4V7.2h2v0.6c0,0.4,0.3,0.7,0.7,0.7l0.9,0l0.7,0
				C8.7,8.6,9,8.3,9,7.8z"/>
			<path fill="#25A8DC" d="M8,15.9l0.6,0.6c0.5,0.4,0.9,0.9,1.4,1.3c0,0,0.1,0.1,0.2,0.1c0.1,0,0.2-0.1,0.2-0.1
				c0.8-0.8,1.7-1.7,2.5-2.5l0.8-0.8c0,0,0.1-0.1,0.1-0.1l0.1-0.1l-0.6-0.6l-3.1,3.1l-1.6-1.5L8,15.9z"/>
		</g>
	</g>
</g>
</svg>
