<?xml version="1.0" encoding="utf-8"?>
<!-- Generator: Adobe Illustrator 18.1.1, SVG Export Plug-In . SVG Version: 6.00 Build 0)  -->
<svg version="1.0" id="Seected" xmlns="http://www.w3.org/2000/svg" xmlns:xlink="http://www.w3.org/1999/xlink" x="0px" y="0px"
	 viewBox="0 0 24 24" enable-background="new 0 0 24 24" xml:space="preserve">
<g>
	<path fill="#3497DB" d="M17.9,7c0-0.4-0.2-0.8-0.5-1.1c-0.3-0.2-0.6-0.4-1-0.4l-0.8,0V5.5c0-0.2,0-0.4,0-0.6c0-0.1,0-0.2,0-0.2
		c-0.1-0.2-0.2-0.3-0.5-0.3c-0.2,0-0.4,0.2-0.4,0.4c0,0.2,0,0.4,0,0.6v0.1H9.3V5.4c0-0.2,0-0.4,0-0.5c0-0.3-0.2-0.5-0.5-0.5
		c-0.3,0-0.4,0.2-0.4,0.5c0,0.2,0,0.4,0,0.6v0.1H7.6c-1,0-1.5,0.6-1.5,1.5l0,11c0,0.9,0.6,1.5,1.5,1.5h8.9c0.8,0,1.5-0.6,1.5-1.5
		l0-6C17.9,10.4,17.9,8.7,17.9,7z M17,18.1c0,0.1,0,0.1,0,0.2c0,0.3-0.2,0.5-0.5,0.5c-0.6,0-1.3,0-1.9,0l-7,0
		c-0.4,0-0.6-0.2-0.6-0.6l0-0.3L7,8C7,7.7,7,7.4,7,7c0-0.4,0.2-0.6,0.6-0.6c0.1,0,0.3,0,0.4,0h0.5c0,0.1,0,0.2,0,0.2
		c0,0.3,0.2,0.5,0.5,0.5c0.3,0,0.4-0.2,0.4-0.5c0-0.1,0-0.2,0-0.2h5.4c0,0.1,0,0.1,0,0.2c0,0.3,0.2,0.5,0.4,0.5
		c0.3,0,0.4-0.2,0.4-0.5c0-0.1,0-0.1,0-0.2c0.1,0,0.2,0,0.2,0c0.3,0,0.6,0,0.8,0c0.2,0,0.3,0.2,0.3,0.4c0,0.3,0,0.6,0,0.8l0,10.1
		l0,0.1L17,18.1z"/>
	<rect x="8.9" y="13.7" fill="#3497DB" width="6.1" height="0.9"/>
	<rect x="8.9" y="15.9" fill="#3497DB" width="6.2" height="1"/>
	<rect x="8.9" y="11.4" fill="#3497DB" width="6.1" height="0.9"/>
	<rect x="8.9" y="9.1" fill="#3497DB" width="6.1" height="0.9"/>
</g>
</svg>
