<?xml version="1.0" encoding="utf-8"?>
<!-- Generator: Adobe Illustrator 18.1.1, SVG Export Plug-In . SVG Version: 6.00 Build 0)  -->
<svg version="1.1" id="Seected" xmlns="http://www.w3.org/2000/svg" xmlns:xlink="http://www.w3.org/1999/xlink" x="0px" y="0px"
	 viewBox="0 0 24 24" enable-background="new 0 0 24 24" xml:space="preserve">
<g>
	<path fill="#6B6B6B" d="M8.8,8.6c1,1.3,1,3.3-1,4.6c0.3,0.9,0.9,1.6,1.7,2.2c1.3-1.6,3.5-1.8,5,0c0.8-0.5,1.3-1.3,1.7-2.2
		c-0.2-0.1-0.3-0.2-0.4-0.3c-1.1-0.9-1.5-2.5-0.8-3.7c0.7-1.3,2.2-1.9,3.6-1.3c1.3,0.5,2.1,1.9,1.9,3.3c-0.3,1.4-1.6,2.5-3,2.4
		c-0.3,0-0.4,0-0.5,0.3c-0.4,0.9-1,1.7-1.8,2.3c-0.2,0.2-0.3,0.3-0.2,0.5c0.2,1.3-0.2,2.3-1.3,3c-1,0.7-2.1,0.7-3.2,0
		c-1.1-0.7-1.5-1.7-1.3-3c0-0.1,0-0.4-0.1-0.4c-0.9-0.7-1.6-1.5-2-2.6c-1.5,0.1-2.7-0.5-3.2-1.9c-0.4-1.2-0.2-2.3,0.7-3.1
		c1.1-1,2.3-1.1,3.6-0.4c1.2-1.2,2.7-1.8,4.5-1.6c-0.4-0.5-0.7-0.9-1-1.4c-0.2-0.3-0.3-0.5,0-0.8c0.3-0.2,0.5,0,0.7,0.2
		c0.5,0.7,1,1.4,1.5,2.1C14,6.8,14,7,13.7,7.3c-0.7,0.6-1.3,1.3-2,2c-0.2,0.2-0.5,0.3-0.7,0.1c-0.2-0.2-0.2-0.5,0.1-0.7
		c0.5-0.4,0.9-0.9,1.4-1.4C11.4,6.9,9.6,7.6,8.8,8.6z M17.6,12.5c1.1,0,2-0.9,2-2.1c0-1.1-0.9-2.1-2.1-2c-1.1,0-2,0.9-2,2.1
		C15.5,11.6,16.4,12.5,17.6,12.5z M8.5,10.4c0-1.1-0.9-2-2-2.1c-1.1,0-2.1,0.9-2.1,2.1c0,1.1,0.9,2.1,2,2
		C7.6,12.5,8.5,11.6,8.5,10.4z M12,19c1.1,0,2-0.9,2-2c0-1.1-1-2.1-2.1-2.1c-1.1,0-2,0.9-2,2.1C9.9,18.1,10.9,19,12,19z"/>
</g>
</svg>
