<?xml version="1.0" encoding="utf-8"?>
<!-- Generator: Adobe Illustrator 18.1.1, SVG Export Plug-In . SVG Version: 6.00 Build 0)  -->
<svg version="1.0" id="Layer_1" xmlns="http://www.w3.org/2000/svg" xmlns:xlink="http://www.w3.org/1999/xlink" x="0px" y="0px"
	 viewBox="0 0 24 24" enable-background="new 0 0 24 24" xml:space="preserve">
<g>
	<path fill="#27A8DB" d="M12,4c-4.3,0-8,3.7-8,8c0,2.1,0.8,4.1,2.4,5.6C7.9,19.2,9.9,20,12,20h0c4.3,0,8-3.7,8-8C20,7.7,16.3,4,12,4
		z M7.2,7.2c1.3-1.3,3-2,4.8-2V5.1h0l0,0.1c3.8,0,6.8,3,6.8,6.8c0,3.8-3,6.8-6.8,6.8c-3.8,0-6.8-3-6.8-6.8C5.2,10.2,5.9,8.4,7.2,7.2
		z M12,19.9L12,19.9L12,19.9L12,19.9z"/>
	<path fill="#27A8DB" d="M8.5,12.6c0.4,0,0.8,0,1.2,0l1.7,0l0,0.9c0,0.7,0,1.3,0,2c0,0.4,0.2,0.6,0.6,0.6c0,0,0.1,0,0.1,0
		c0.3,0,0.5-0.3,0.5-0.6c0-0.7,0-1.3,0-2l0-0.9l1.7,0c0.4,0,0.8,0,1.2,0c0.2,0,0.4-0.1,0.5-0.2c0.1-0.1,0.2-0.3,0.2-0.4
		c0-0.3-0.3-0.6-0.7-0.6c-0.1,0-0.3,0-0.4,0l-2.5,0l0-1.4c0-0.5,0-1,0-1.5c0-0.4-0.3-0.6-0.6-0.6c-0.3,0-0.5,0.3-0.5,0.6
		c0,0.7,0,1.4,0,2.1l0,0.9l-0.9,0l-2,0c-0.3,0-0.5,0.1-0.6,0.3c-0.1,0.2-0.1,0.4,0,0.6C8,12.5,8.3,12.6,8.5,12.6z"/>
</g>
</svg>
