<?xml version="1.0" encoding="utf-8"?>
<!-- Generator: Adobe Illustrator 18.1.1, SVG Export Plug-In . SVG Version: 6.00 Build 0)  -->
<svg version="1.1" id="Seected" xmlns="http://www.w3.org/2000/svg" xmlns:xlink="http://www.w3.org/1999/xlink" x="0px" y="0px"
	 viewBox="0 0 24 24" enable-background="new 0 0 24 24" xml:space="preserve">
<g>
	<path fill="#6B6B6B" d="M20,9.7c0.1,0.5,0.2,1,0.3,1.5c0,0.2,0,0.3,0,0.5c-0.9,0-1.8,0-2.7,0c0-0.5-0.1-1-0.1-1.5
		c-0.3,0-0.5-0.1-0.7-0.2c0,0.2,0.1,0.4,0.1,0.6c0,0.4,0.1,0.8,0.1,1.2c-1.5,0-3,0-4.5,0c0-1.4,0-2.8,0-4.3c0,0,0.1,0,0.1,0
		c0.6,0,1.2,0.1,1.8,0.1c-0.1-0.2-0.1-0.5-0.2-0.7c-0.6,0-1.2-0.1-1.7-0.1c0-0.9,0-1.9,0-2.8c0.7,0.3,1.3,0.7,1.9,1.2
		c0.1-0.2,0.1-0.4,0.3-0.6C14.4,4.3,14.2,4.1,14,4c0,0,0,0,0,0c0.2,0,0.5,0.1,0.7,0.2c0.1-0.2,0.3-0.4,0.4-0.5c-1-0.4-2-0.6-3.1-0.6
		c-5,0-9,4-9,9c0,4.9,3.9,9.1,9.3,9c5-0.1,8.7-4.2,8.7-9c0-0.9-0.1-1.9-0.4-2.7C20.4,9.5,20.2,9.6,20,9.7z M10.3,3.9
		C10.1,4,9.9,4.2,9.7,4.3C8.8,5,8.2,5.9,7.6,6.9c0,0.1-0.1,0.1-0.2,0.2C6.7,7.2,5.9,7.4,5.1,7.5c0,0,0,0,0,0C5.9,6,7.9,4.3,10.3,3.9
		z M11.7,11.7c-1.5,0-3,0-4.5,0c0-0.3,0-0.6,0-0.9c0.1-1,0.3-2,0.7-2.9C8,7.8,8.1,7.7,8.2,7.7c1.1-0.1,2.3-0.2,3.4-0.2
		c0,0,0,0,0.1,0C11.7,8.8,11.7,10.3,11.7,11.7z M11.7,12.4c0,1.4,0,2.9,0,4.3c-0.3,0-0.5,0-0.8,0c-0.9-0.1-1.8-0.2-2.7-0.2
		c-0.1,0-0.2-0.1-0.2-0.1c-0.4-0.9-0.6-1.9-0.7-2.8c0-0.3-0.1-0.7-0.1-1.1C8.7,12.4,10.2,12.4,11.7,12.4z M3.8,10.5
		c0.1-0.7,0.3-1.4,0.6-2c0-0.1,0.1-0.1,0.1-0.1C5.4,8.2,6.3,8,7.1,7.8c0,0,0.1,0,0.2,0c-0.5,1.3-0.7,2.5-0.7,3.9c-1,0-1.9,0-2.9,0
		C3.7,11.3,3.8,10.9,3.8,10.5z M4.5,15.6c-0.4-0.9-0.7-1.9-0.8-3c0-0.1,0-0.2,0-0.3c0.9,0,1.9,0,2.8,0c0,1.3,0.2,2.6,0.7,3.9
		c-0.3-0.1-0.6-0.1-0.9-0.2c-0.5-0.1-1-0.2-1.5-0.3C4.7,15.8,4.6,15.7,4.5,15.6z M7.3,18.8c-0.9-0.6-1.6-1.3-2.2-2.2
		c0.4,0.1,0.8,0.2,1.2,0.2C6.7,16.9,7.1,17,7.5,17c0.1,0,0.1,0.1,0.2,0.1c0.6,1.2,1.4,2.1,2.4,2.9c0,0,0,0,0,0.1
		C9.1,19.9,8.1,19.4,7.3,18.8z M11.7,20.2c-1.4-0.7-2.5-1.7-3.3-3.1c1.1,0.1,2.2,0.2,3.3,0.2C11.7,18.3,11.7,19.3,11.7,20.2z
		 M11.7,6.7c-1.1,0.1-2.2,0.1-3.3,0.2c0.8-1.4,1.8-2.4,3.3-3C11.7,4.9,11.7,5.8,11.7,6.7z M12.4,12.4c1.5,0,3,0,4.5,0
		c0,0.1,0,0.2,0,0.3c-0.1,1.2-0.3,2.4-0.7,3.5c-0.1,0.1-0.1,0.2-0.3,0.2c-1.1,0.1-2.3,0.3-3.4,0.3c0,0,0,0-0.1,0
		C12.4,15.2,12.4,13.8,12.4,12.4z M12.4,17.4c1.1-0.1,2.2-0.2,3.3-0.2c-0.8,1.4-1.9,2.4-3.3,3.1C12.4,19.3,12.4,18.3,12.4,17.4z
		 M14.2,20c0.2-0.1,0.3-0.3,0.5-0.4c0.8-0.7,1.4-1.5,1.8-2.4c0.1-0.1,0.2-0.2,0.3-0.2c0.7-0.1,1.4-0.3,2.1-0.4c0,0,0,0,0.1,0
		C17.8,18.3,16.2,19.5,14.2,20z M19.5,15.6c-0.1,0.1-0.1,0.2-0.2,0.2c-0.8,0.2-1.5,0.3-2.2,0.5c0,0-0.1,0-0.1,0
		c0.5-1.3,0.7-2.5,0.7-3.9c0.9,0,1.8,0,2.7,0c0,0.3,0,0.6-0.1,0.9C20.1,14.1,19.9,14.8,19.5,15.6z"/>
	<g>
		<g>
			<g>
				<g>
					<path fill="#E67E22" d="M18.1,9.2L18.1,9.2c-1.7,0-3-1.3-3-3v0c0-1.7,1.3-3,3-3h0c1.7,0,3,1.3,3,3v0
						C21.1,7.9,19.8,9.2,18.1,9.2z"/>
				</g>
			</g>
		</g>
	</g>
</g>
</svg>
