<?xml version="1.0" encoding="utf-8"?>
<!-- Generator: Adobe Illustrator 18.1.1, SVG Export Plug-In . SVG Version: 6.00 Build 0)  -->
<svg version="1.1" id="Seected" xmlns="http://www.w3.org/2000/svg" xmlns:xlink="http://www.w3.org/1999/xlink" x="0px" y="0px"
	 viewBox="0 0 24 24" enable-background="new 0 0 24 24" xml:space="preserve">
<g>
	<path fill="#6B6B6B" stroke="#6B6B6B" stroke-width="0.2" stroke-miterlimit="10" d="M20.1,7.6c0,0.9-0.1,1.7-0.1,2.6
		c0,0.4-0.1,0.7-0.4,0.9c-2.9,2.9-5.8,5.8-8.7,8.7c-0.5,0.5-1.2,0.5-1.7,0c-1.7-1.7-3.3-3.3-5-5c-0.5-0.5-0.5-1.2,0-1.7
		c2.9-2.9,5.8-5.8,8.7-8.7C13.2,4.2,13.4,4,13.8,4c1.7-0.1,3.4-0.1,5.2-0.2c0.7,0,1.2,0.5,1.2,1.2C20.1,5.9,20.1,6.7,20.1,7.6
		L20.1,7.6z M19.5,5.1c0-0.4-0.2-0.5-0.5-0.5c-1.7,0.1-3.4,0.1-5.1,0.2c-0.2,0-0.3,0.1-0.5,0.2c-2.9,2.9-5.8,5.8-8.7,8.7
		c-0.3,0.3-0.3,0.5,0,0.8C6.4,16,8,17.6,9.7,19.3c0.3,0.3,0.5,0.3,0.8,0c2.9-2.9,5.8-5.8,8.6-8.6c0.1-0.1,0.2-0.3,0.2-0.5
		c0-0.9,0.1-1.7,0.1-2.6c0,0,0,0,0,0C19.4,6.8,19.4,5.9,19.5,5.1z"/>
	<path fill="#6B6B6B" stroke="#6B6B6B" stroke-width="0.2" stroke-miterlimit="10" d="M14.4,8.1c0-0.9,0.7-1.5,1.6-1.5
		c0.9,0,1.5,0.7,1.5,1.6c0,0.9-0.7,1.6-1.6,1.5C15.1,9.6,14.4,9,14.4,8.1z M16,7.2c-0.5,0-0.9,0.5-0.9,0.9C15,8.6,15.5,9,16,9
		c0.5,0,0.9-0.5,0.9-0.9C16.9,7.6,16.4,7.2,16,7.2z"/>
</g>
</svg>
