<?xml version="1.0" encoding="utf-8"?>
<!-- Generator: Adobe Illustrator 18.1.1, SVG Export Plug-In . SVG Version: 6.00 Build 0)  -->
<svg version="1.0" id="Seected" xmlns="http://www.w3.org/2000/svg" xmlns:xlink="http://www.w3.org/1999/xlink" x="0px" y="0px"
	 viewBox="0 0 24 24" enable-background="new 0 0 24 24" xml:space="preserve">
<g>
	<path fill="#6B6B6B" d="M19.4,5h-2.9V4.4c0-0.3-0.2-0.5-0.5-0.5s-0.5,0.2-0.5,0.5V5H8.5V4.4c0-0.3-0.2-0.5-0.5-0.5
		c-0.3,0-0.5,0.2-0.5,0.5V5h-3C4.3,5,4.1,5.2,4.1,5.4v14.2c0,0.3,0.2,0.5,0.5,0.5h14.9c0.3,0,0.5-0.2,0.5-0.5V5.4
		C19.9,5.2,19.7,5,19.4,5z M5.1,10.3h13.9v8.8H5.1V10.3z M8,7c0.3,0,0.5-0.2,0.5-0.5V5.9h7.1v0.6C15.6,6.8,15.8,7,16,7
		s0.5-0.2,0.5-0.5V5.9h2.4v3.4H5.1V5.9h2.5v0.6C7.5,6.8,7.8,7,8,7z"/>
	<path fill="#6B6B6B" d="M14.1,14.3h-1.6v-1.6c0-0.3-0.2-0.5-0.5-0.5c-0.3,0-0.5,0.2-0.5,0.5v1.6H9.9c-0.3,0-0.5,0.2-0.5,0.5
		c0,0.3,0.2,0.5,0.5,0.5h1.6v1.6c0,0.3,0.2,0.5,0.5,0.5c0.3,0,0.5-0.2,0.5-0.5v-1.6h1.6c0.3,0,0.5-0.2,0.5-0.5
		C14.5,14.5,14.3,14.3,14.1,14.3z"/>
</g>
</svg>
