<?xml version="1.0" encoding="utf-8"?>
<!-- Generator: Adobe Illustrator 18.1.1, SVG Export Plug-In . SVG Version: 6.00 Build 0)  -->
<svg version="1.0" id="Seected" xmlns="http://www.w3.org/2000/svg" xmlns:xlink="http://www.w3.org/1999/xlink" x="0px" y="0px"
	 viewBox="0 0 24 24" enable-background="new 0 0 24 24" xml:space="preserve">
<g>
	<path fill="#6B6B6B" stroke="#6B6B6B" stroke-width="0.3" stroke-miterlimit="10" d="M17.4,6c-0.3-0.2-0.6-0.3-0.9-0.3
		c-0.3,0-0.6,0-1,0c0-0.3,0-0.5,0-0.8c0-0.1,0-0.1,0-0.2c0-0.2-0.2-0.2-0.3-0.2c-0.2,0-0.3,0.1-0.3,0.3c0,0.3,0,0.6,0,0.9
		c-1.6,0-4.2,0-5.7,0c0-0.3,0-0.6,0-0.8c0-0.2-0.1-0.4-0.3-0.4c-0.2,0-0.3,0.1-0.3,0.4c0,0.3,0,0.5,0,0.8c-0.3,0-0.6,0-0.9,0
		c-0.9,0-1.4,0.5-1.4,1.4c0,3.7,0,7.3,0,11c0,0.9,0.5,1.4,1.4,1.4c2.6,0,6.3,0,8.9,0c0.8,0,1.3-0.6,1.3-1.3c0-1.4,0-2.9,0-4.3
		c0-2.3,0-4.6,0-6.8C17.8,6.6,17.6,6.3,17.4,6z M17.2,18L17.2,18c0,0.1,0,0.2,0,0.3c0,0.3-0.3,0.6-0.7,0.6c-1.1,0-2.1,0-3.2,0
		c-1.5,0-4.1,0-5.7,0c-0.5,0-0.8-0.3-0.8-0.8c0,0,0-0.1,0-0.1h0V8h0c0-0.3,0-0.6,0-0.9c0-0.5,0.3-0.7,0.7-0.7c0.3,0,0.7,0,1,0
		c0,0.1,0,0.3,0,0.4C8.6,6.9,8.7,7,8.9,7C9,7,9.1,6.9,9.1,6.7c0-0.1,0-0.2,0-0.4c1.6,0,4.2,0,5.7,0c0,0.1,0,0.2,0,0.4
		C14.9,6.9,15,7,15.2,7c0.2,0,0.3-0.1,0.3-0.3c0-0.1,0-0.2,0-0.4c0.4,0,0.8,0,1.2,0c0.3,0,0.4,0.3,0.5,0.6c0,0.4,0,0.7,0,1.1h0V18z"
		/>
</g>
<path fill="#6B6B6B" stroke="#6B6B6B" stroke-width="0.3" stroke-miterlimit="10" d="M9.1,14.5c1.9,0,3.9,0,5.8,0v-0.6
	c-1.9,0-3.9,0-5.8,0V14.5z"/>
<path fill="#6B6B6B" stroke="#6B6B6B" stroke-width="0.4" stroke-miterlimit="10" d="M9.1,16.7c1.9,0,3.9,0,5.8,0v-0.6
	c-1.9,0-3.9,0-5.8,0V16.7z"/>
<path fill="#6B6B6B" stroke="#6B6B6B" stroke-width="0.3" stroke-miterlimit="10" d="M9.1,12.2c1.9,0,3.9,0,5.8,0v-0.6
	c-1.9,0-3.9,0-5.8,0V12.2z"/>
<path fill="#6B6B6B" stroke="#6B6B6B" stroke-width="0.3" stroke-miterlimit="10" d="M9.1,9.9c1.9,0,3.9,0,5.8,0V9.2
	c-1.9,0-3.9,0-5.8,0V9.9z"/>
</svg>
