<?xml version="1.0" encoding="utf-8"?>
<!-- Generator: Adobe Illustrator 18.1.1, SVG Export Plug-In . SVG Version: 6.00 Build 0)  -->
<svg version="1.0" id="Seected" xmlns="http://www.w3.org/2000/svg" xmlns:xlink="http://www.w3.org/1999/xlink" x="0px" y="0px"
	 viewBox="0 0 120 120" enable-background="new 0 0 120 120" xml:space="preserve">
<g>
	<path fill="#6B6B6B" d="M32.7,76.1l3.5-3.5l-1-0.7c-4.6-2.9-9-6.5-13.1-10.7c6.5-7.5,13.3-13.1,20.8-17c6.4-3.3,12.3-4.8,18.4-4.6
		c2.1,0.1,4.2,0.4,6.3,0.9l0.5,0.1l3.9-3.9l-1.6-0.5c-2.9-0.8-5.8-1.3-8.6-1.5c-6.4-0.3-12.6,1-19.1,4.2
		c-9.2,4.4-17.4,11.1-25.2,20.3c-1.3,1.6-1.3,2.6,0.2,4.1c4.5,4.7,9.3,8.8,14.5,12.1L32.7,76.1z"/>
	<path fill="#6B6B6B" d="M60.1,48.2l0.5,0l4.2-4.2l-1.9-0.3c-1-0.2-2-0.3-2.9-0.3c-4.3,0-8.5,1.8-11.7,4.9
		c-3.2,3.2-4.9,7.3-4.9,11.7c0,0.9,0.1,1.9,0.3,2.9l0.3,1.9l4.2-4.2l0-0.4c0-0.1,0-0.1,0-0.2l0-0.1C48.3,53.2,53.3,48.2,60.1,48.2z"
		/>
	<path fill="#6B6B6B" d="M102.8,59.6c-5.6-6.8-11.6-12.2-18.3-16.5L97,30.6c0.5-0.5,0.7-1.1,0.7-1.8s-0.3-1.3-0.7-1.8
		c-0.9-0.9-2.6-0.9-3.5,0L27.1,93.5c-0.5,0.5-0.7,1.1-0.7,1.8s0.3,1.3,0.7,1.8c0.5,0.5,1.1,0.7,1.8,0.7s1.3-0.3,1.8-0.7l14.6-14.6
		c5,1.8,9.8,2.7,14.7,2.7l0.2,0c4.1,0,8.8-0.8,12.9-2.1c10.7-3.5,20.4-10,29.7-19.7C103.8,62.1,103.8,60.9,102.8,59.6z M56.4,71.2
		l14.9-14.9c0.4,1.2,0.5,2.4,0.5,3.7c0,6.7-5.1,11.7-11.9,11.7C58.7,71.8,57.5,71.6,56.4,71.2z M71.7,71.6c3.2-3.2,4.9-7.3,4.9-11.7
		c0-2.5-0.6-4.9-1.7-7.2l6.2-6.2c6,3.7,11.6,8.6,16.9,14.7c-7.7,7.7-15.6,13.1-24.2,16.4c-4.6,1.7-9.2,2.6-13.7,2.6
		c-0.7,0-1.4,0-2-0.1c-3-0.2-6-0.7-9-1.6l3.8-3.8c2.3,1.1,4.7,1.7,7.2,1.7C64.3,76.6,68.5,74.8,71.7,71.6z"/>
</g>
</svg>
