<?xml version="1.0" encoding="utf-8"?>
<!-- Generator: Adobe Illustrator 18.1.1, SVG Export Plug-In . SVG Version: 6.00 Build 0)  -->
<svg version="1.0" id="Layer_1" xmlns="http://www.w3.org/2000/svg" xmlns:xlink="http://www.w3.org/1999/xlink" x="0px" y="0px"
	 viewBox="0 0 24 24" enable-background="new 0 0 24 24" xml:space="preserve">
<path fill="#6B6C6C" d="M17.6,4.5c0,0-0.1,0-0.1,0c-2.5,0-3.9,0-6.4,0c-0.1,0-0.2,0-0.2,0.1C9.4,6,8,7.3,6.5,8.7
	C6.5,8.7,6.4,8.8,6.4,8.9c0,3.8,0,6.6,0,10.4c0,0.1,0,0.1,0,0.2c1.8,0,8.9,0,10.6,0c0,0,0,0,0,0c0.2,0,0.3,0,0.5,0
	C17.6,16.5,17.6,7.5,17.6,4.5z M10.5,6.4c0,0.7,0,1.3,0,2c-0.6,0-1.3,0-1.9,0C9.2,7.7,9.8,7,10.5,6.4z M7.6,9.5c1.3,0,2.7,0,4,0
	c0-1.3,0-2.6,0-3.9c2,0,2.9,0,4.8,0c0,2.3,0,9.3,0,12.7c-2.2,0-7.6,0-8.9,0C7.6,15.1,7.6,12.8,7.6,9.5z"/>
</svg>
