<?xml version="1.0" encoding="utf-8"?>
<!-- Generator: Adobe Illustrator 18.1.1, SVG Export Plug-In . SVG Version: 6.00 Build 0)  -->
<svg version="1.1" id="Layer_1" xmlns="http://www.w3.org/2000/svg" xmlns:xlink="http://www.w3.org/1999/xlink" x="0px" y="0px"
	 viewBox="0 0 29 29" enable-background="new 0 0 29 29" xml:space="preserve">
<g>
	<path fill="#5D5D5D" d="M13.1,17c0-0.2,0.1-0.4,0.3-0.6c0.6-0.6,1.2-1.2,1.8-1.8c0.1-0.1,0.1-0.1,0-0.2c-0.6-0.6-1.2-1.2-1.8-1.8
		c-0.5-0.5-0.4-1.2,0.2-1.5c0.4-0.2,0.8-0.1,1.1,0.2c0.8,0.8,1.6,1.6,2.4,2.4c0.2,0.2,0.5,0.5,0.7,0.7c0.1,0.1,0.1,0.1,0,0.2
		c-1.1,1-2.1,2.1-3.2,3.1c-0.3,0.3-0.7,0.4-1,0.2C13.3,17.8,13.1,17.4,13.1,17z"/>
	<circle fill="none" stroke="#5D5D5D" stroke-miterlimit="10" cx="14.5" cy="14.5" r="8"/>
</g>
</svg>
