<?xml version="1.0" encoding="utf-8"?>
<!-- Generator: Adobe Illustrator 18.1.1, SVG Export Plug-In . SVG Version: 6.00 Build 0)  -->
<svg version="1.0" id="Seected" xmlns="http://www.w3.org/2000/svg" xmlns:xlink="http://www.w3.org/1999/xlink" x="0px" y="0px"
	 viewBox="0 0 24 24" enable-background="new 0 0 24 24" xml:space="preserve">
<g>
	<g>
		<g>
			<g>
				<g>
					<g>
						<path fill="#E67E22" d="M18,9.2L18,9.2c-1.7,0-3-1.3-3-3v0c0-1.7,1.3-3,3-3h0c1.7,0,3,1.3,3,3v0C21,7.8,19.7,9.2,18,9.2z"/>
					</g>
				</g>
			</g>
		</g>
		<g>
			<path fill="#6B6B6B" d="M3.6,7.1C3.5,6.7,3.7,6.4,4,6.2c1-1.1,2.1-1.9,3.4-2.5c0.5-0.2,1-0.1,1.5,0.3C8.9,4,9,4.1,9,4.2
				c0.4,1.3,0.8,2.5,1.3,3.8c0.1,0.3,0.1,0.7-0.1,1C10.2,9.3,10,9.5,9.9,9.6C9.5,9.8,9.1,10,8.8,10.3c-0.3,0.2-0.4,0.4-0.3,0.8
				c0.1,0.2,0.2,0.3,0.3,0.4c1.1,1.4,2.3,2.7,3.8,3.8c0.2,0.1,0.5,0.2,0.7,0.3c0.2,0.1,0.4-0.1,0.5-0.2c0.2-0.4,0.5-0.7,0.7-1.1
				c0.3-0.4,0.8-0.7,1.3-0.5c1.3,0.3,2.7,0.7,3.9,1.2c0.6,0.3,1,1,0.7,1.7c-0.6,1.5-1.5,2.7-2.8,3.7c-0.1,0-0.1,0.1-0.2,0.1
				c-1.6,0-3.2-0.3-4.8-0.9c-4.2-1.8-7.1-4.9-8.5-9.3C4,9.7,3.9,9.2,3.8,8.7C3.7,8.2,3.7,7.6,3.6,7.1z M16.8,19.7
				c0.2,0,0.4,0,0.5-0.1c1-0.9,1.8-1.9,2.3-3.2c0.1-0.3,0-0.6-0.2-0.7c-1.2-0.5-2.5-0.9-3.7-1.2c-0.3-0.1-0.6,0-0.7,0.3
				c-0.2,0.3-0.4,0.6-0.6,1c-0.3,0.4-0.7,0.6-1.1,0.6c-0.4,0-0.7-0.1-1-0.3c-1.6-1.2-3-2.5-4.1-4.1c-0.1-0.2-0.2-0.4-0.3-0.6
				c-0.2-0.7,0-1.2,0.6-1.6C8.7,9.5,9,9.3,9.3,9.1c0.4-0.2,0.5-0.4,0.3-0.8C9.2,7.1,8.9,5.9,8.5,4.7C8.3,4.3,8,4.2,7.6,4.4
				C6.4,4.9,5.4,5.6,4.5,6.6C4.4,6.8,4.4,6.9,4.4,7.1c0,1,0.2,2,0.5,2.9c1,3.1,2.8,5.5,5.4,7.3C12.2,18.7,14.4,19.5,16.8,19.7z"/>
		</g>
	</g>
</g>
</svg>
