<?xml version="1.0" encoding="utf-8"?>
<!-- Generator: Adobe Illustrator 18.1.1, SVG Export Plug-In . SVG Version: 6.00 Build 0)  -->
<svg version="1.0" id="Layer_1" xmlns="http://www.w3.org/2000/svg" xmlns:xlink="http://www.w3.org/1999/xlink" x="0px" y="0px"
	 viewBox="0 0 40 40" enable-background="new 0 0 40 40" xml:space="preserve">
<g>
	<g>
		<g>
			<path fill="#6B6C6C" d="M16.5,12.3l0,6.1l4.6,1.2l0,0c-0.1,0.3-0.1,0.7-0.1,1c0,2.3,1.9,4.2,4.2,4.2c1.9,0,3.6-1.3,4.2-3.1l0,0
				l4.9,1.3l0.1-15.2L16.5,12.3z M28.2,21.5L28.2,21.5c-0.4,1.3-1.6,2.2-3,2.2c-1.7,0-3-1.4-3-3c0-0.3,0-0.5,0.1-0.7l0,0L28.2,21.5z
				 M32.9,9.4l-0.1,12l-15-4l0-4.3L32.9,9.4z"/>
		</g>
		<g>
			<path fill="#6B6C6C" d="M21.3,28c-0.1-0.6-0.3-1.1-0.8-1.5c-0.7-0.5-1.5-1-2.3-1.6c-0.3-0.2-0.7-0.4-1.1-0.4
				c-0.5,0-1,0.2-1.4,0.6c-0.1,0.1-0.3,0.3-0.4,0.4c-0.2,0.2-0.3,0.3-0.5,0.5l0,0l0,0c-0.5-0.3-0.9-0.7-1.4-1.2
				c-0.9-0.9-1.5-1.9-1.9-2.9l0,0l0,0c0.2-0.1,0.4-0.3,0.5-0.4l0.2-0.2c0.6-0.5,0.8-1.2,0.7-1.9c-0.2-0.9-0.4-1.8-0.6-2.7l-0.1-0.4
				c0-0.2-0.1-0.7-0.6-1c-0.5-0.4-1.4-0.5-1.8-0.5l-0.1,0c-0.6,0-1.1,0.1-1.5,0.4c-1.7,1.2-2.5,2.6-2.5,4.4c0,0.8,0.1,1.6,0.4,2.4
				c1.2,3.7,3.5,6.7,6.8,8.9c1.1,0.7,2.2,1.2,3.4,1.4c0.2,0,0.3,0.1,0.5,0.1l0.1,0c1.1,0,2-0.5,2.8-1C20.9,30.5,21.4,29.4,21.3,28z
				 M10.7,21c-0.4,0.3-0.5,0.7-0.3,1.2c0.5,1.2,1.2,2.3,2.2,3.3c0.6,0.7,1.2,1.1,1.8,1.4c0.2,0.1,0.3,0.1,0.5,0.1
				c0.1,0,0.3,0,0.6-0.3c0.2-0.2,0.4-0.4,0.6-0.5c0.2-0.1,0.3-0.3,0.5-0.4c0.2-0.2,0.4-0.3,0.6-0.3c0.2,0,0.3,0.1,0.5,0.2
				c0.7,0.5,1.5,1,2.3,1.6c0.2,0.2,0.3,0.4,0.4,0.6c0.1,1-0.3,1.8-1.1,2.2c-0.7,0.4-1.5,0.8-2.3,0.8l-0.1,0c-0.1,0-0.3,0-0.4-0.1
				c-1.1-0.2-2-0.6-3-1.2c-3.1-2.1-5.2-4.9-6.3-8.4c-0.2-0.7-0.3-1.4-0.3-2.1c0-1.4,0.7-2.6,2.1-3.5c0.2-0.1,0.5-0.2,0.8-0.2l0.1,0
				c0.4,0,0.9,0.1,1.1,0.3c0.1,0.1,0.2,0.3,0.2,0.4l0.1,0.5c0.2,0.9,0.4,1.7,0.5,2.6c0.1,0.4,0,0.7-0.3,0.9l-0.2,0.2
				C11,20.7,10.9,20.9,10.7,21z"/>
		</g>
	</g>
</g>
</svg>
