<?xml version="1.0" encoding="utf-8"?>
<!-- Generator: Adobe Illustrator 18.1.1, SVG Export Plug-In . SVG Version: 6.00 Build 0)  -->
<svg version="1.0" id="Seected" xmlns="http://www.w3.org/2000/svg" xmlns:xlink="http://www.w3.org/1999/xlink" x="0px" y="0px"
	 viewBox="0 0 24 24" enable-background="new 0 0 24 24" xml:space="preserve">
<g>
	<g>
		<g>
			<path fill="#6B6B6B" d="M2.8,7.8C2.7,7.4,2.9,7.2,3.2,6.9c1-1.1,2.1-1.9,3.4-2.5c0.5-0.2,1-0.1,1.5,0.3C8.1,4.8,8.2,4.9,8.2,5
				c0.4,1.3,0.8,2.5,1.3,3.8c0.1,0.3,0.1,0.7-0.1,1c-0.1,0.2-0.2,0.4-0.4,0.5C8.7,10.6,8.3,10.8,8,11c-0.3,0.2-0.4,0.4-0.3,0.8
				C7.8,12,7.9,12.1,8,12.2c1.1,1.4,2.3,2.7,3.8,3.8c0.2,0.1,0.5,0.2,0.7,0.3c0.2,0.1,0.4-0.1,0.5-0.2c0.2-0.4,0.5-0.7,0.7-1.1
				c0.3-0.4,0.8-0.7,1.3-0.5c1.3,0.3,2.7,0.7,3.9,1.2c0.6,0.3,1,1,0.7,1.7C19,18.8,18,20,16.8,21c-0.1,0-0.1,0.1-0.2,0.1
				c-1.6,0-3.2-0.3-4.8-0.9c-4.2-1.8-7.1-4.9-8.5-9.3c-0.2-0.5-0.3-1-0.3-1.4C2.9,8.9,2.9,8.3,2.8,7.8z M16,20.4
				c0.2,0,0.4,0,0.5-0.1c1-0.9,1.8-1.9,2.3-3.2c0.1-0.3,0-0.6-0.2-0.7c-1.2-0.5-2.5-0.9-3.7-1.2c-0.3-0.1-0.6,0-0.7,0.3
				c-0.2,0.3-0.4,0.6-0.6,1c-0.3,0.4-0.7,0.6-1.1,0.6c-0.4,0-0.7-0.1-1-0.3c-1.6-1.2-3-2.5-4.1-4.1C7.2,12.4,7.1,12.2,7,12
				c-0.2-0.7,0-1.2,0.6-1.6c0.3-0.2,0.6-0.4,0.9-0.6C8.9,9.6,8.9,9.4,8.8,9C8.4,7.8,8.1,6.6,7.7,5.5C7.6,5.1,7.2,4.9,6.8,5.1
				C5.6,5.6,4.6,6.3,3.7,7.3C3.6,7.5,3.6,7.6,3.6,7.8c0,1,0.2,2,0.5,2.9c1,3.1,2.8,5.5,5.4,7.3C11.4,19.5,13.6,20.3,16,20.4z"/>
		</g>
	</g>
</g>
</svg>
