<?xml version="1.0" encoding="utf-8"?>
<!-- Generator: Adobe Illustrator 18.1.1, SVG Export Plug-In . SVG Version: 6.00 Build 0)  -->
<svg version="1.0" id="Layer_1" xmlns="http://www.w3.org/2000/svg" xmlns:xlink="http://www.w3.org/1999/xlink" x="0px" y="0px"
	 viewBox="0 0 40 40" enable-background="new 0 0 40 40" xml:space="preserve">
<g>
	<path fill="#3D97D3" d="M30,8c0,8,0,16,0,24c-2.9,0-5.8,0-8.7,0c0-1.7,0-3.4,0-5.1c-0.9,0-1.7,0-2.6,0c0,1.7,0,3.4,0,5.1
		c-2.9,0-5.8,0-8.7,0c0-8,0-16,0-24C16.7,8,23.3,8,30,8z M28.3,9.2c-5.6,0-11.1,0-16.6,0c0,7.2,0,14.4,0,21.6c1.8,0,3.5,0,5.4,0
		c0-1.7,0-3.4,0-5.1c2,0,3.9,0,5.9,0c0,1.7,0,3.4,0,5.1c1.8,0,3.6,0,5.4,0C28.3,23.6,28.3,16.4,28.3,9.2z"/>
	<path fill="#3D97D3" d="M25.4,13.7c-1.1,0-2.1,0-3.1,0c0-0.4,0-0.8,0-1.2c1,0,2,0,3.1,0C25.4,12.9,25.4,13.3,25.4,13.7z"/>
	<path fill="#3D97D3" d="M14.6,13.8c0-0.4,0-0.8,0-1.1c1,0,2,0,3.1,0c0,0.4,0,0.7,0,1.1C16.7,13.8,15.7,13.8,14.6,13.8z"/>
	<path fill="#3D97D3" d="M22.3,20.4c1,0,2,0,3.1,0c0,0.4,0,0.8,0,1.2c-1,0-2,0-3.1,0C22.3,21.2,22.3,20.8,22.3,20.4z"/>
	<path fill="#3D97D3" d="M14.6,20.4c1.1,0,2.1,0,3.1,0c0,0.4,0,0.8,0,1.2c-1,0-2,0-3.1,0C14.6,21.2,14.6,20.8,14.6,20.4z"/>
	<path fill="#3D97D3" d="M25.4,16.5c0,0.4,0,0.8,0,1.2c-1,0-2,0-3.1,0c0-0.4,0-0.7,0-1.2C23.3,16.5,24.3,16.5,25.4,16.5z"/>
	<path fill="#3D97D3" d="M14.6,17.7c0-0.4,0-0.8,0-1.1c1,0,2,0,3.1,0c0,0.4,0,0.7,0,1.1C16.7,17.7,15.7,17.7,14.6,17.7z"/>
</g>
</svg>
