<?xml version="1.0" encoding="utf-8"?>
<!-- Generator: Adobe Illustrator 18.1.1, SVG Export Plug-In . SVG Version: 6.00 Build 0)  -->
<svg version="1.0" id="Seected" xmlns="http://www.w3.org/2000/svg" xmlns:xlink="http://www.w3.org/1999/xlink" x="0px" y="0px"
	 viewBox="0 0 24 24" enable-background="new 0 0 24 24" xml:space="preserve">
<g>
	<path fill="#4B5354" stroke="#4B5354" stroke-width="0.4" stroke-miterlimit="10" d="M9.6,16.7c-0.4,0.4-0.8,0.9-1.3,1.2
		c-0.2,0.2-0.4,0.3-0.6,0.4c-0.3,0.1-0.5,0-0.6-0.2c-0.1-0.2-0.2-0.5-0.2-0.7c0-1,0-2.1,0-3.1c0-0.2-0.1-0.3-0.2-0.4
		C6,13,5.3,12.3,4.5,11.5c-0.2-0.2-0.4-0.4-0.4-0.7c-0.1-0.6,0.2-1.2,0.8-1.3c0.8-0.2,1.5-0.4,2.3-0.6c4-1.1,8.1-2.2,12.1-3.3
		c0.1,0,0.2-0.1,0.3-0.1c0.3,0,0.5,0.3,0.3,0.6c-0.6,1-1.1,2-1.7,3c-1.6,2.9-3.2,5.8-4.8,8.7c-0.2,0.4-0.6,0.7-1,0.8
		c-0.5,0.1-1-0.1-1.3-0.4C10.6,17.6,10.1,17.1,9.6,16.7z M18.5,7C18.5,7,18.5,7,18.5,7c-3.6,2.3-7.1,4.6-10.6,6.8
		c0,0,0.1,0.1,0.1,0.1c1.2,1.2,2.4,2.4,3.6,3.6c0.5,0.5,0.9,0.5,1.2-0.2c1.9-3.4,3.8-6.8,5.7-10.2C18.5,7.1,18.5,7.1,18.5,7z
		 M7.3,13.3c3.3-2.2,6.7-4.3,10-6.5c0,0-0.1,0-0.1,0c-4,1.1-8,2.2-12,3.3c-0.1,0-0.2,0.1-0.3,0.1c-0.3,0.1-0.3,0.3-0.1,0.5
		C4.9,10.8,4.9,10.9,5,11c0.7,0.7,1.3,1.3,2,2C7.1,13.1,7.2,13.2,7.3,13.3z M9.1,16.2c-0.5-0.5-0.9-0.9-1.4-1.4c0,0.9,0,1.9,0,2.8
		C8.1,17.1,8.6,16.6,9.1,16.2z"/>
</g>
</svg>
