<?xml version="1.0" encoding="utf-8"?>
<!-- Generator: Adobe Illustrator 18.1.1, SVG Export Plug-In . SVG Version: 6.00 Build 0)  -->
<!DOCTYPE svg PUBLIC "-//W3C//DTD SVG 1.1//EN" "http://www.w3.org/Graphics/SVG/1.1/DTD/svg11.dtd" [
	<!ENTITY ns_extend "http://ns.adobe.com/Extensibility/1.0/">
	<!ENTITY ns_ai "http://ns.adobe.com/AdobeIllustrator/10.0/">
	<!ENTITY ns_graphs "http://ns.adobe.com/Graphs/1.0/">
	<!ENTITY ns_vars "http://ns.adobe.com/Variables/1.0/">
	<!ENTITY ns_imrep "http://ns.adobe.com/ImageReplacement/1.0/">
	<!ENTITY ns_sfw "http://ns.adobe.com/SaveForWeb/1.0/">
	<!ENTITY ns_custom "http://ns.adobe.com/GenericCustomNamespace/1.0/">
	<!ENTITY ns_adobe_xpath "http://ns.adobe.com/XPath/1.0/">
]>
<svg version="1.1" id="Layer_1" xmlns:x="&ns_extend;" xmlns:i="&ns_ai;" xmlns:graph="&ns_graphs;"
	 xmlns="http://www.w3.org/2000/svg" xmlns:xlink="http://www.w3.org/1999/xlink" x="0px" y="0px" viewBox="0 0 29 29"
	 enable-background="new 0 0 29 29" xml:space="preserve">

	<g i:extraneous="self">
		<g>
			<g>
				<path fill="#6B6C6C" d="M10.6,19.4c0.1-0.1,0.1-0.2,0.2-0.3l0.5-0.8c-1.5-0.3-2.8-1.4-3.2-3C7.5,13.2,8.8,11,11,10.5
					c1.7-0.4,3.3,0.3,4.2,1.6l0.6-0.9c0-0.1,0.1-0.1,0.1-0.2c0,0,0-0.1,0-0.1c0.2-0.3,0.3-0.5,0.5-0.8c0.1-0.2,0.1-0.3-0.1-0.4
					c-0.7-0.4-1.4-0.8-2.1-1.3c-0.2-0.1-0.3-0.1-0.4,0.1c-0.2,0.3-0.3,0.5-0.5,0.8c0,0.1-0.1,0.1-0.1,0.1c-0.3-0.1-0.6-0.1-0.8-0.1
					c-0.1,0-0.1,0-0.1-0.1c-0.1-0.3-0.1-0.6-0.2-0.9C12,8,11.9,7.9,11.7,8c-0.8,0.2-1.6,0.4-2.4,0.6C9.1,8.6,9,8.7,9.1,8.9
					c0.1,0.3,0.1,0.6,0.2,0.9c0,0.1,0,0.1-0.1,0.2c-0.2,0.1-0.4,0.3-0.7,0.5c-0.1,0.1-0.1,0.1-0.2,0c-0.3-0.2-0.5-0.3-0.8-0.5
					C7.4,9.8,7.3,9.9,7.2,10c-0.4,0.7-0.9,1.4-1.3,2.1c-0.1,0.2-0.1,0.3,0.1,0.4c0.3,0.2,0.5,0.3,0.8,0.5c0.1,0,0.1,0.1,0.1,0.1
					c-0.1,0.3-0.1,0.5-0.1,0.8c0,0.1,0,0.1-0.1,0.1c-0.3,0.1-0.6,0.1-0.9,0.2c-0.2,0-0.3,0.2-0.2,0.4c0.2,0.8,0.4,1.6,0.6,2.4
					c0,0.2,0.2,0.3,0.4,0.2C6.7,17.2,7,17.1,7.3,17c0.1,0,0.1,0,0.2,0.1c0.2,0.2,0.3,0.4,0.5,0.7c0,0.1,0.1,0.1,0,0.2
					c-0.2,0.3-0.3,0.5-0.5,0.8c-0.1,0.2-0.1,0.3,0.1,0.4c0.7,0.4,1.3,0.8,2,1.2c0.2,0.1,0.3,0.1,0.5-0.1
					C10.3,20,10.4,19.7,10.6,19.4C10.6,19.4,10.6,19.4,10.6,19.4z"/>
				<path fill="#6B6C6C" d="M23.4,20.3c-1.8-2.7-3.5-5.5-5.3-8.2c-0.2-0.3-0.6-0.3-0.8,0c-0.3,0.5-0.6,0.9-0.9,1.4
					c-1.4,2.3-2.8,4.5-4.2,6.8c0,0.1-0.1,0.2-0.1,0.2c0,0.3,0.2,0.5,0.5,0.5c1.7,0,3.5,0,5.2,0c0,0,0,0,0,0c1.7,0,3.5,0,5.2,0
					c0.2,0,0.3-0.1,0.4-0.2C23.5,20.7,23.5,20.5,23.4,20.3z M17.8,20.1L17.8,20.1c-0.3,0-0.6-0.3-0.6-0.6c0-0.3,0.3-0.6,0.6-0.6
					c0.3,0,0.6,0.3,0.6,0.6C18.4,19.8,18.1,20.1,17.8,20.1z M18.6,15.6l-0.1,0.8c-0.1,0.4-0.1,0.8-0.1,1.2c0,0.2-0.2,0.4-0.5,0.4
					l-0.1,0c-0.2,0-0.4-0.2-0.4-0.4c0-0.4-0.1-0.8-0.1-1.2L17,15.2c0-0.4,0.1-0.6,0.3-0.7c0.1-0.1,0.3-0.2,0.5-0.2
					c0.2,0,0.4,0.1,0.6,0.2c0.2,0.1,0.2,0.3,0.2,0.5C18.6,15.3,18.6,15.5,18.6,15.6z"/>
			</g>
		</g>
	</g>

</svg>
