<?xml version="1.0" encoding="utf-8"?>
<!-- Generator: Adobe Illustrator 18.1.1, SVG Export Plug-In . SVG Version: 6.00 Build 0)  -->
<svg version="1.0" id="Seected" xmlns="http://www.w3.org/2000/svg" xmlns:xlink="http://www.w3.org/1999/xlink" x="0px" y="0px"
	 viewBox="0 0 24 24" enable-background="new 0 0 24 24" xml:space="preserve">
<g>
	<path fill="#6B6B6B" d="M11.9,19.9c0.8,0,1.7-0.1,2.5-0.4c2.5-0.8,4.2-2.5,5.1-5.1l-1.8-0.5c-0.7,1.9-2,3.2-3.9,3.8
		C13.2,17.9,12.6,18,12,18c-1.5,0-3-0.6-3.9-1.5l-0.8-0.8l1.4,0.1c0.2,0,0.3,0,0.5,0c0.3,0,0.5-0.2,0.5-0.5c0-0.3-0.2-0.6-0.4-0.6
		L8,14.6c-0.9-0.1-1.8-0.2-2.6-0.3c-0.3,0-0.4,0.1-0.5,0.2c-0.1,0.1-0.2,0.3-0.1,0.5c0.2,1.4,0.4,2.9,0.7,4.3c0,0.3,0.3,0.5,0.7,0.4
		c0.3,0,0.5-0.3,0.4-0.6l-0.2-1.6L7,18.1C8.6,19.3,10.2,19.9,11.9,19.9z"/>
	<path fill="#6B6B6B" d="M18.6,4.7c-0.1-0.3-0.3-0.5-0.7-0.5c-0.3,0-0.5,0.3-0.4,0.7c0,0.1,0,0.3,0.1,0.4l0.2,1.2L17,5.9
		c-2.3-1.8-4.8-2.2-7.4-1.4c-2.5,0.8-4.2,2.5-5,5.1l1.8,0.5C7.2,7.7,9,6.3,11.5,6.1c1.6-0.2,3.9,0.7,4.4,1.6l0.4,0.7l-1-0.1
		c-0.1,0-0.3,0-0.4,0c-0.3,0-0.5,0.2-0.5,0.5c0,0.3,0.2,0.6,0.5,0.6l1,0.1c0.9,0.1,1.9,0.2,2.8,0.3c0.3,0,0.4-0.1,0.5-0.2
		c0.1-0.1,0.2-0.3,0.1-0.5l-0.2-1C19,6.9,18.8,5.8,18.6,4.7z"/>
</g>
</svg>
