<?xml version="1.0" encoding="utf-8"?>
<!-- Generator: Adobe Illustrator 18.1.1, SVG Export Plug-In . SVG Version: 6.00 Build 0)  -->
<svg version="1.0" id="Seected" xmlns="http://www.w3.org/2000/svg" xmlns:xlink="http://www.w3.org/1999/xlink" x="0px" y="0px"
	 viewBox="0 0 24 24" enable-background="new 0 0 24 24" xml:space="preserve">
<g>
	<path fill="#6B6B6B" d="M12,20c3.7,0,6.8-3.1,6.8-6.8c0-3.7-3-6.8-6.8-6.8c-3.8,0-6.8,3.1-6.8,6.8C5.2,16.9,8.2,20,12,20v0.1l0,0
		V20z M6.3,13.2c0-3.1,2.6-5.7,5.7-5.7h0c1.5,0,3,0.6,4.1,1.7c1.1,1.1,1.6,2.5,1.6,4c0,3.1-2.6,5.7-5.7,5.7
		C8.8,18.9,6.3,16.3,6.3,13.2z"/>
	<path fill="#6B6B6B" d="M10,5.1c0.3,0,0.6,0,0.9,0l1.8,0l0.6,0c0.3,0,0.6,0,0.9,0c0.1,0,0.3-0.1,0.4-0.2c0.1-0.1,0.1-0.2,0.1-0.4
		c0-0.3-0.2-0.5-0.5-0.5c-0.6,0-1.3,0-1.9,0c-0.8,0-1.5,0-2.3,0C9.7,4,9.5,4.2,9.4,4.4c-0.1,0.2,0,0.3,0.1,0.5C9.6,5,9.8,5.1,10,5.1
		z"/>
	<path fill="#6B6B6B" d="M11.5,10.6c0,1,0,1.3,0,1.9v0.9c0,0.2,0.1,0.3,0.2,0.4l0.3,0.3c0.4,0.4,0.5,0.5,1,1
		c0.1,0.1,0.3,0.2,0.4,0.1c0.2,0,0.4-0.1,0.5-0.4c0.1-0.2,0-0.4-0.1-0.6c-0.2-0.2-0.3-0.3-0.4-0.4c-0.1-0.1-0.2-0.2-0.6-0.6
		c-0.1-0.1-0.1-0.2-0.1-0.3c0-0.5,0-0.9,0-1.4l0-0.4c0-0.1,0-0.2,0-0.3h0l0-0.3c0-0.3-0.2-0.6-0.5-0.6C11.7,10,11.5,10.3,11.5,10.6z
		"/>
</g>
</svg>
