<?xml version="1.0" encoding="utf-8"?>
<!-- Generator: Adobe Illustrator 18.1.1, SVG Export Plug-In . SVG Version: 6.00 Build 0)  -->
<svg version="1.0" id="Seected" xmlns="http://www.w3.org/2000/svg" xmlns:xlink="http://www.w3.org/1999/xlink" x="0px" y="0px"
	 viewBox="0 0 24 24" enable-background="new 0 0 24 24" xml:space="preserve">
<g>
	<g>
		<g>
			<g>
				<path fill="#6B6B6B" d="M15.4,19.7c1.3,0,2.5,0,3.8,0c0.2,0,0.3,0,0.4-0.2c0.2-0.2,0.1-0.6-0.1-0.7c-0.6-0.4-1.3-0.8-1.9-1.2
					c-1.9-1.2-3.7-2.3-5.6-3.5c-0.1,0-0.1-0.1-0.2-0.1c-0.3-0.1-0.6,0.1-0.6,0.5c0,0.8,0,1.5,0,2.3c0,0.8,0,1.6,0,2.4
					c0,0.4,0.2,0.6,0.6,0.6C12.9,19.7,14.1,19.7,15.4,19.7z"/>
				<path fill="#6B6B6B" d="M10.1,14.4c0,1.6,0,3.2,0,4.7c0,0.4-0.2,0.6-0.6,0.6c-1.6,0-3.1,0-4.7,0c-0.1,0-0.1,0-0.2,0
					c-0.3-0.1-0.5-0.4-0.3-0.7c1.5-2.9,2.9-5.8,4.4-8.8c0.1-0.3,0.3-0.5,0.4-0.8c0.1-0.2,0.3-0.3,0.5-0.2c0.2,0,0.4,0.2,0.4,0.4
					c0,0.1,0,0.1,0,0.2C10.1,11.3,10.1,12.9,10.1,14.4L10.1,14.4z M9.1,18.7c0-2.3,0-4.7,0-7c0,0,0,0,0,0c-1.2,2.3-2.3,4.7-3.5,7
					C6.8,18.7,7.9,18.7,9.1,18.7z"/>
				<path fill="#6B6B6B" d="M12.7,7.2c0.4-0.4,0.8-0.8,1.2-1.2c0.3-0.3,0.6-0.6,0.8-0.8c0.2-0.2,0.2-0.5,0-0.7
					c-0.2-0.2-0.5-0.2-0.7,0c-0.9,0.9-1.9,1.9-2.8,2.8C11,7.5,11,7.8,11.2,8c0.9,0.9,1.9,1.9,2.8,2.8c0.2,0.2,0.5,0.2,0.7,0
					c0.2-0.2,0.2-0.5,0-0.7c-0.6-0.6-1.3-1.3-1.9-1.9c0,0-0.1-0.1-0.1-0.2c0.3,0,0.5,0,0.8,0c0.7,0.1,1.4,0.2,2.1,0.5
					c1.1,0.5,1.7,1.3,2,2.4c0.2,0.8,0.3,1.6,0.3,2.4c0,0.4,0.3,0.6,0.6,0.5c0.2-0.1,0.3-0.2,0.3-0.4c0-1.2-0.1-2.3-0.6-3.4
					c-0.6-1.3-1.6-2.1-2.9-2.5c-0.8-0.2-1.6-0.3-2.4-0.3C12.8,7.2,12.8,7.2,12.7,7.2C12.7,7.2,12.7,7.2,12.7,7.2z"/>
			</g>
		</g>
	</g>
</g>
</svg>
