<?xml version="1.0" encoding="utf-8"?>
<!-- Generator: Adobe Illustrator 18.1.1, SVG Export Plug-In . SVG Version: 6.00 Build 0)  -->
<svg version="1.0" id="Seected" xmlns="http://www.w3.org/2000/svg" xmlns:xlink="http://www.w3.org/1999/xlink" x="0px" y="0px"
	 viewBox="0 0 24 24" enable-background="new 0 0 24 24" xml:space="preserve">
<g>
	<g>
		<path fill="#6B6B6B" stroke="#6B6B6B" stroke-width="0.5" stroke-miterlimit="10" d="M12,19c-3.4,0-6.1-2.7-6.1-6.1
			c0-0.2,0.1-0.3,0.3-0.3s0.3,0.1,0.3,0.3c0,3,2.5,5.5,5.5,5.5c3,0,5.5-2.5,5.5-5.5c0-3-2.5-5.5-5.5-5.5c-0.2,0-0.3-0.1-0.3-0.3
			c0-0.2,0.1-0.3,0.3-0.3c3.4,0,6.1,2.7,6.1,6.1C18.1,16.3,15.4,19,12,19L12,19z"/>
	</g>
	<g>
		<path fill="#6B6B6B" stroke="#6B6B6B" stroke-width="0.5" stroke-miterlimit="10" d="M13,9.3c-0.1,0-0.2,0-0.2-0.1l-1.6-1.8
			c-0.1-0.1-0.1-0.3,0-0.4l1.6-1.8c0.1-0.1,0.3-0.1,0.4,0c0.1,0.1,0.1,0.3,0,0.4l-1.5,1.6l1.5,1.6c0.1,0.1,0.1,0.3,0,0.4
			C13.2,9.2,13.1,9.3,13,9.3L13,9.3z"/>
	</g>
</g>
</svg>
