<?xml version="1.0" encoding="utf-8"?>
<!-- Generator: Adobe Illustrator 18.1.1, SVG Export Plug-In . SVG Version: 6.00 Build 0)  -->
<svg version="1.0" id="Seected" xmlns="http://www.w3.org/2000/svg" xmlns:xlink="http://www.w3.org/1999/xlink" x="0px" y="0px"
	 viewBox="0 0 24 24" enable-background="new 0 0 24 24" xml:space="preserve">
<g>
	<g>
		<g>
			<g>
				<path fill="#6B6B6B" d="M8.6,19.7c-1.3,0-2.5,0-3.8,0c-0.2,0-0.3,0-0.4-0.2c-0.2-0.2-0.1-0.6,0.1-0.7c0.6-0.4,1.3-0.8,1.9-1.2
					c1.9-1.2,3.7-2.3,5.6-3.5c0.1,0,0.1-0.1,0.2-0.1c0.3-0.1,0.6,0.1,0.6,0.5c0,0.8,0,1.5,0,2.3c0,0.8,0,1.6,0,2.4
					c0,0.4-0.2,0.6-0.6,0.6C11.1,19.7,9.9,19.7,8.6,19.7z"/>
				<path fill="#6B6B6B" d="M13.9,14.4c0-1.5,0-3.1,0-4.6c0-0.1,0-0.2,0-0.2c0-0.2,0.2-0.4,0.4-0.4c0.2,0,0.4,0,0.5,0.2
					c0.1,0.3,0.3,0.5,0.4,0.8c1.5,2.9,2.9,5.8,4.4,8.8c0.2,0.3,0,0.7-0.3,0.7c-0.1,0-0.1,0-0.2,0c-1.6,0-3.1,0-4.7,0
					c-0.4,0-0.6-0.2-0.6-0.6C13.9,17.6,13.9,16,13.9,14.4L13.9,14.4z M18.4,18.7c-1.2-2.4-2.4-4.7-3.5-7c0,0,0,0,0,0
					c0,2.3,0,4.7,0,7C16.1,18.7,17.2,18.7,18.4,18.7z"/>
				<path fill="#6B6B6B" d="M11.3,7.2c-0.4-0.4-0.8-0.8-1.2-1.2C9.9,5.7,9.6,5.5,9.3,5.2c-0.2-0.2-0.2-0.5,0-0.7
					c0.2-0.2,0.5-0.2,0.7,0c0.9,0.9,1.9,1.9,2.8,2.8C13,7.5,13,7.8,12.8,8C11.9,9,10.9,9.9,10,10.8c-0.2,0.2-0.5,0.2-0.7,0
					c-0.2-0.2-0.2-0.5,0-0.7c0.6-0.6,1.3-1.3,1.9-1.9c0,0,0.1-0.1,0.1-0.2c-0.3,0-0.5,0-0.8,0C9.8,8.2,9.1,8.4,8.5,8.6
					C7.4,9.1,6.8,10,6.5,11c-0.2,0.8-0.3,1.6-0.3,2.4c0,0.4-0.3,0.6-0.6,0.5c-0.2-0.1-0.3-0.2-0.3-0.4c0-1.2,0.1-2.3,0.6-3.4
					c0.6-1.3,1.6-2.1,2.9-2.5c0.8-0.2,1.6-0.3,2.4-0.3C11.2,7.2,11.2,7.2,11.3,7.2C11.3,7.2,11.3,7.2,11.3,7.2z"/>
			</g>
		</g>
	</g>
</g>
</svg>
