<?xml version="1.0" encoding="utf-8"?>
<!-- Generator: Adobe Illustrator 18.1.1, SVG Export Plug-In . SVG Version: 6.00 Build 0)  -->
<svg version="1.0" id="Seected" xmlns="http://www.w3.org/2000/svg" xmlns:xlink="http://www.w3.org/1999/xlink" x="0px" y="0px"
	 viewBox="0 0 24 24" enable-background="new 0 0 24 24" xml:space="preserve">
<g>
	<g>
		<g>
			<path fill="#6B6B6B" d="M11,14.3c-2.3,0-4.6,0-6.9,0c0-2.3,0-4.7,0-7.1c0.5,0,0.9,0,1.4,0c0.1,0,0.3,0.3,0.3,0.4c0,1,0,2,0,3
				c0,0.2,0,0.4,0,0.7c1.7-1.8,3.4-3.5,5.1-5.2c0.5,0.5,0.9,0.9,1.3,1.3c-1.7,1.7-3.5,3.4-5.2,5c0,0.1,0.1,0.1,0.1,0.2
				c1.3,0,2.6,0,3.9,0C11,13.2,11,13.7,11,14.3z"/>
			<path fill="#6B6B6B" d="M18.2,12.8c-1.7,1.7-3.4,3.4-5.1,5.1c-0.4-0.4-0.8-0.8-1.2-1.3c1.7-1.6,3.4-3.3,5.1-5
				c0-0.1,0-0.1-0.1-0.2c-0.2,0-0.5,0-0.7,0c-0.9,0-1.9,0-2.8,0c-0.3,0-0.5-0.1-0.5-0.5c0-0.4,0-0.8,0-1.2c2.4,0,4.7,0,7,0
				c0,2.3,0,4.6,0,7c-0.5,0-1.1,0-1.6,0c0-1.3,0-2.6,0-4C18.3,12.8,18.3,12.8,18.2,12.8z"/>
		</g>
	</g>
</g>
</svg>
