<?xml version="1.0" encoding="utf-8"?>
<!-- Generator: Adobe Illustrator 18.1.1, SVG Export Plug-In . SVG Version: 6.00 Build 0)  -->
<svg version="1.0" id="Layer_1" xmlns="http://www.w3.org/2000/svg" xmlns:xlink="http://www.w3.org/1999/xlink" x="0px" y="0px"
	 viewBox="0 0 40 40" enable-background="new 0 0 40 40" xml:space="preserve">
<g>
	<path fill="#3D97D3" d="M20.5,26.2L20.5,26.2l-3.1,0c-1,0-1.9,0-2.9,0l-0.6,0c-0.3,0-0.5,0.1-0.7,0.3c-0.6,0.6-1.1,1.2-1.7,1.7
		l-0.5,0.5c0,0-0.1,0.1-0.1,0.1l-0.2,0.2l0-1.2c0-0.3,0-0.6,0-0.9c0-0.5-0.3-0.8-0.8-0.8l-0.6,0c-0.6,0-1-0.3-1-1l0-6.9
		c0-0.3,0-0.5,0-0.8c0-0.5,0.4-0.9,0.9-0.9l4.7,0l0-1.4l-4.8,0c-1.3,0-2.3,1-2.3,2.3c0,2.6,0,5.2,0,7.8c0,1.1,0.8,2,1.9,2.2
		c0.1,0,0.2,0,0.3,0l0.2,0l0,0.9c0,0.7,0,1.4,0,2.1c0,0.3,0,0.7,0.4,0.8c0.1,0,0.2,0.1,0.3,0.1c0.2,0,0.4-0.1,0.6-0.3
		c0.5-0.5,1-1,1.5-1.5l0.3-0.3c0.5-0.5,1.1-1.1,1.6-1.6c0.1-0.1,0.3-0.2,0.5-0.2c1.3,0,2.7,0,4,0l2.4,0c0.4,0,0.8-0.1,1.1-0.3
		l0.3-0.1L21.8,27C21.3,26.8,20.9,26.5,20.5,26.2z"/>
	<path fill="#3D97D3" d="M33.2,8.7l0-0.2l-16.9,4.4l-0.1,0l0,5.6l0,0.1l4.5,1.1l0,0.1c-0.1,0.3-0.1,0.7-0.1,1c0,2.2,1.8,4,4.1,4h0
		c1.8,0,3.5-1.2,3.9-3l0-0.1l4.7,1.2L33.2,8.7z M21.7,20.3L21.7,20.3l5.8,1.4l0,0.1c-0.3,1.3-1.5,2.2-2.9,2.2c-1.6,0-3-1.3-3-2.9
		C21.6,20.7,21.6,20.5,21.7,20.3z M32,21.6l-14.6-3.7l0-4.2L32,9.9L32,21.6z M24.6,24.7C24.6,24.7,24.6,24.7,24.6,24.7L24.6,24.7
		L24.6,24.7z"/>
</g>
</svg>
