<?xml version="1.0" encoding="utf-8"?>
<!-- Generator: Adobe Illustrator 18.1.1, SVG Export Plug-In . SVG Version: 6.00 Build 0)  -->
<svg version="1.1" id="Layer_1" xmlns="http://www.w3.org/2000/svg" xmlns:xlink="http://www.w3.org/1999/xlink" x="0px" y="0px"
	 viewBox="0 0 29 29" enable-background="new 0 0 29 29" xml:space="preserve">
<g>
	<path fill-rule="evenodd" clip-rule="evenodd" fill="#5D5D5D" d="M14.5,6.5c-4.4,0-8,3.6-8,8c0,4.4,3.6,8,8,8c4.4,0,8-3.6,8-8
		C22.5,10.1,18.9,6.5,14.5,6.5z M18.8,15.6c-1.3,1.1-2.7,2.3-4,3.4c-0.1,0.1-0.1,0.1-0.2,0.2c-0.2,0.2-0.5,0.3-0.8,0.2
		c-0.3-0.1-0.3-0.4-0.4-0.7c0-0.9,0-1.8,0-2.7c0-0.1,0-0.2,0-0.4c-1.3,0-2.6,0-3.9,0c0-0.7,0-1.3,0-2c1.3,0,2.6,0,3.9,0
		c0-0.5,0-1,0-1.5c0-0.5,0-1,0-1.5c0-0.2,0-0.3,0.1-0.5c0.1-0.3,0.4-0.4,0.7-0.3c0.2,0.1,0.3,0.2,0.5,0.3c1.3,1.1,2.7,2.3,4,3.4
		C19.5,14.1,19.6,14.9,18.8,15.6z"/>
</g>
</svg>
