<?xml version="1.0" encoding="utf-8"?>
<!-- Generator: Adobe Illustrator 18.1.1, SVG Export Plug-In . SVG Version: 6.00 Build 0)  -->
<svg version="1.1" id="Seected" xmlns="http://www.w3.org/2000/svg" xmlns:xlink="http://www.w3.org/1999/xlink" x="0px" y="0px"
	 viewBox="0 0 24 24" enable-background="new 0 0 24 24" xml:space="preserve">
<g>
	<g>
		<g>
			<g>
				<path fill="#3497DB" d="M15.1,16.3c0.5-0.8,1.3-1.3,2.2-1.6c1.9-0.5,3.9,0.8,4.3,2.7c0.4,1.9-0.8,3.9-2.8,4.2
					c-2.6,0.5-4.7-1.8-4.2-4.3c0-0.1,0-0.2-0.1-0.2c-1.9-1-3.9-2-5.8-3c-0.8,1.1-1.9,1.6-3.3,1.5c-0.9-0.1-1.7-0.5-2.3-1.2
					c-1.3-1.5-1.1-3.7,0.3-5C5,8.1,7.4,8.1,8.8,10c2-1,3.9-2,5.9-3c-0.3-1.2-0.2-2.3,0.5-3.3c0.5-0.7,1.2-1.1,2-1.4
					c1.7-0.4,3.4,0.5,4.1,2c0.7,1.6,0.1,3.4-1.3,4.4c-1.3,0.9-3.5,0.9-4.9-0.9c-2,1-3.9,2-5.9,3c0,0.2,0.1,0.5,0.1,0.7
					c0.1,0.5,0,1-0.1,1.5c0,0.1,0,0.2,0.1,0.3C11.3,14.3,13.2,15.3,15.1,16.3z M20.7,5.9c0-1.4-1.1-2.6-2.6-2.6
					c-1.4,0-2.6,1.2-2.6,2.6c0,1.4,1.1,2.6,2.6,2.6C19.6,8.5,20.7,7.3,20.7,5.9z M20.7,18.1c0-1.4-1.1-2.6-2.6-2.6
					c-1.4,0-2.6,1.2-2.6,2.6c0,1.4,1.2,2.6,2.6,2.6C19.6,20.7,20.7,19.6,20.7,18.1z M5.9,14.6c1.4,0,2.6-1.2,2.6-2.6
					c0-1.4-1.2-2.6-2.6-2.6c-1.4,0-2.6,1.2-2.6,2.6C3.3,13.5,4.5,14.6,5.9,14.6z"/>
			</g>
		</g>
	</g>
</g>
</svg>
