<?xml version="1.0" encoding="utf-8"?>
<!-- Generator: Adobe Illustrator 18.1.1, SVG Export Plug-In . SVG Version: 6.00 Build 0)  -->
<svg version="1.0" id="Layer_1" xmlns="http://www.w3.org/2000/svg" xmlns:xlink="http://www.w3.org/1999/xlink" x="0px" y="0px"
	 viewBox="0 0 24 24" enable-background="new 0 0 24 24" xml:space="preserve">
<g>
	<path fill="#6B6C6C" d="M20.4,16.1c0-0.7,0-1.4,0-2.1c0-0.1-0.1-0.2-0.2-0.3c-0.3-0.3-0.6-0.6-0.9-0.9L17.7,11
		c-1.3-1.4-2.6-2.8-4-4.2c-0.1-0.1-0.3-0.2-0.4-0.2c-1.9,0-3.8,0-5.6,0c-0.2,0-0.4,0.1-0.5,0.3C7.1,7,7.2,7.2,7.3,7.4l5.9,6.2H4.1
		c-0.4,0-0.5,0.1-0.5,0.5c0,0.6,0,1.2,0,1.8c0,0.2,0,0.3,0,0.4c0.2,0.7,0.7,1.1,1.4,1.1c4.6,0,9.2,0,13.9,0c0.1,0,0.1,0,0.1,0
		C19.8,17.4,20.4,16.8,20.4,16.1z M9.6,8.5L8.9,7.7c0,0,0,0-0.1-0.1L8.7,7.5l0.2,0c0,0,0.1,0,0.1,0l1.8,0c0.7,0,1.5,0,2.2,0
		c0.1,0,0.2,0,0.3,0.1c1.6,1.7,3.2,3.4,4.8,5.1l0.6,0.7c0,0,0,0,0,0.1l0.2,0.2l-2.1,0c-0.7,0-1.5,0-2.2,0c-0.1,0-0.2,0-0.3-0.1
		C12.7,11.8,11.2,10.2,9.6,8.5z M10.2,15.5c0,0.1,0,0.3,0,0.4c0,0.4-0.2,0.6-0.6,0.6c-1.5,0-3,0-4.4,0c-0.4,0-0.6-0.2-0.6-0.6
		c0-0.3,0-0.6,0-1l0-0.5h2c1.1,0,2.3,0,3.4,0c0.1,0,0.2,0,0.2,0.1c0.1,0.1,0.1,0.2,0.1,0.2C10.2,15,10.2,15.3,10.2,15.5z M19.5,16
		c0,0.4-0.2,0.6-0.6,0.6c-2.6,0-5.2,0-7.8,0H11v-2.1l0.2,0c0,0,0.1,0,0.1,0h7.9c0.3,0,0.3,0,0.3,0.3l0,0.4
		C19.5,15.4,19.5,15.7,19.5,16z"/>
	<path fill="#6B6C6C" d="M5.9,12.6c0.2,0,0.3-0.1,0.3-0.3c0-0.5,0-0.9,0-1.3c0-0.2-0.1-0.3-0.3-0.3c-0.2,0-0.3,0.1-0.3,0.3
		c0,0.1,0,0.3,0,0.4v0.4c0,0.1,0,0.3,0,0.4C5.6,12.4,5.7,12.6,5.9,12.6"/>
	<path fill="#6B6C6C" d="M8.4,12.3c0,0.2,0.2,0.3,0.3,0.3l0,0c0.2,0,0.3-0.1,0.3-0.3c0-0.2,0-0.3,0-0.5v-0.4c0-0.2,0-0.3,0-0.5
		c0-0.2-0.1-0.3-0.3-0.3c0,0,0,0,0,0c-0.1,0-0.3,0.1-0.3,0.2C8.4,11.3,8.4,11.8,8.4,12.3z"/>
	<path fill="#6B6C6C" d="M7.3,12.6c0.1,0,0.3-0.1,0.3-0.3c0-0.5,0-0.9,0-1.4c0-0.2-0.2-0.3-0.3-0.3c-0.2,0-0.3,0.1-0.3,0.3
		c0,0.2,0,0.3,0,0.5v0.4c0,0.2,0,0.3,0,0.5C7,12.4,7.1,12.5,7.3,12.6"/>
	<g>
		<path fill="#6B6C6C" d="M5.3,15.5c0-0.2,0.2-0.4,0.4-0.4c0.2,0,0.4,0.2,0.4,0.4c0,0.2-0.2,0.4-0.4,0.4C5.5,15.9,5.3,15.7,5.3,15.5
			z"/>
	</g>
	<g>
		<path fill="#6B6C6C" d="M6.6,15.5c0-0.2,0.2-0.4,0.4-0.4c0.2,0,0.4,0.2,0.4,0.4c0,0.2-0.2,0.4-0.4,0.4C6.8,15.9,6.6,15.7,6.6,15.5
			z"/>
	</g>
</g>
</svg>
