<?xml version="1.0" encoding="utf-8"?>
<!-- Generator: Adobe Illustrator 18.1.1, SVG Export Plug-In . SVG Version: 6.00 Build 0)  -->
<svg version="1.0" id="Seected" xmlns="http://www.w3.org/2000/svg" xmlns:xlink="http://www.w3.org/1999/xlink" x="0px" y="0px"
	 viewBox="0 0 120 120" enable-background="new 0 0 120 120" xml:space="preserve">
<g>
	<path fill="#6B6B6B" d="M59.7,25.6c-18.9,0.1-34.2,15.6-34.2,34.6C25.5,79,41,94.4,59.9,94.4H60c9.2,0,17.9-3.6,24.4-10.1
		s10.1-15.2,10.1-24.3C94.4,41,78.9,25.6,59.7,25.6z M31.4,60.1c0-7.6,3-14.7,8.4-20.1c5.4-5.4,12.6-8.4,20.2-8.4v-0.5l0,0l0,0.5
		c15.7,0,28.4,12.8,28.4,28.5c0,15.7-12.8,28.4-28.6,28.4C44.2,88.4,31.5,75.7,31.4,60.1z M59.9,93.9L59.9,93.9L59.9,93.9L59.9,93.9
		z"/>
	<path fill="#6B6B6B" d="M60.5,78.7c1.5-0.2,2.4-1.5,2.4-3.4c0-5.6,0-11.2,0-16.7l0-7.2c0.4,0.5,0.9,0.9,1.3,1.4
		c1.3,1.3,2.6,2.7,4,4.1c1.2,1.2,3.2,1.2,4.3,0.1c1.2-1.2,1.2-3-0.1-4.3c-3.8-3.8-7.1-7.2-10.3-10.3c-1.4-1.4-3-1.4-4.4,0
		c-3.2,3.2-6.6,6.5-10.3,10.3c-1.3,1.3-1.4,3-0.2,4.3c1.2,1.2,3.1,1.2,4.4-0.1c1-0.9,1.9-1.9,2.9-2.9c0.6-0.6,1.2-1.3,1.9-1.9
		c0.1-0.1,0.3-0.2,0.4-0.4c0,0.3,0,0.6,0,0.8c0,2.4,0,4.8,0,7.3l0,6.2c0,3.2,0,6.3,0,9.5c0,2,1.2,3.3,2.9,3.3
		C60.1,78.7,60.3,78.7,60.5,78.7z"/>
</g>
</svg>
