<?xml version="1.0" encoding="utf-8"?>
<!-- Generator: Adobe Illustrator 18.1.1, SVG Export Plug-In . SVG Version: 6.00 Build 0)  -->
<svg version="1.0" id="Layer_1" xmlns="http://www.w3.org/2000/svg" xmlns:xlink="http://www.w3.org/1999/xlink" x="0px" y="0px"
	 viewBox="0 0 40 40" enable-background="new 0 0 40 40" xml:space="preserve">
<g>
	<g>
		<g>
			<g>
				<path fill="#27A8DB" d="M16.5,20c0,2,1.6,3.5,3.6,3.5c2,0,3.5-1.6,3.5-3.6c0-1.9-1.6-3.5-3.6-3.5C18,16.5,16.5,18,16.5,20z"/>
			</g>
		</g>
		<g>
			<g>
				<g>
					<path fill="#27A8DB" d="M20,27.9c-1.1,0-2.3-0.2-3.5-0.7c-1.6-0.7-3.2-1.6-4.9-3c-1.4-1.2-2.8-2.4-4-3.8l-0.4-0.5l0.3-0.3
						C7.7,19.3,8,19,8.2,18.8c0.5-0.6,1.1-1.2,1.7-1.7c1.7-1.6,3.4-2.9,5.3-3.8c1.7-0.8,3.3-1.2,4.9-1.2l0.3,0
						c1.6,0,3.2,0.5,4.8,1.4c2,1,3.9,2.5,5.8,4.4c0.4,0.4,0.8,0.8,1.1,1.2l0.8,0.9l-0.2,0.3c-0.1,0.1-0.1,0.2-0.2,0.2
						c-2,2.2-4,3.9-6.1,5.3c-1.6,1-3.1,1.6-4.5,2C21.2,27.9,20.6,27.9,20,27.9z M8.5,19.9c1.2,1.3,2.4,2.5,3.7,3.5
						c1.7,1.3,3.1,2.2,4.7,2.8c1.7,0.7,3.2,0.8,4.7,0.5c1.4-0.3,2.7-0.9,4.2-1.8c2-1.3,3.9-2.9,5.7-4.9l-0.2-0.3
						c-0.4-0.4-0.7-0.8-1.1-1.2c-1.8-1.9-3.6-3.3-5.5-4.2c-1.5-0.8-3-1.2-4.4-1.3l-0.2,0c-1.4,0-2.9,0.4-4.4,1.1
						c-1.7,0.8-3.4,2-5,3.6c-0.6,0.5-1.1,1.1-1.6,1.7C8.8,19.6,8.7,19.8,8.5,19.9z"/>
				</g>
			</g>
			<g>
				<path fill="#FFFFFF" d="M17.5,20c0-1.4,1.1-2.5,2.5-2.5c1.4,0,2.5,1.1,2.5,2.4c0,1.4-1.1,2.5-2.5,2.5
					C18.6,22.5,17.5,21.4,17.5,20z"/>
			</g>
		</g>
	</g>
</g>
</svg>
