<?xml version="1.0" encoding="utf-8"?>
<!-- Generator: Adobe Illustrator 18.1.1, SVG Export Plug-In . SVG Version: 6.00 Build 0)  -->
<svg version="1.1" id="Layer_1" xmlns="http://www.w3.org/2000/svg" xmlns:xlink="http://www.w3.org/1999/xlink" x="0px" y="0px"
	 viewBox="0 0 29 29" enable-background="new 0 0 29 29" xml:space="preserve">
<g>
	<polygon fill-rule="evenodd" clip-rule="evenodd" fill="#69B2E2" points="18.7,21.4 14.5,22.6 13.3,22.5 10.2,21.1 7.1,18 
		6.7,14.5 14.5,14.5 22,17.3 	"/>
	<g>
		<g>
			<path fill="#69B2E2" d="M14.5,23C9.8,23,6,19.2,6,14.5C6,9.8,9.8,6,14.5,6c4.7,0,8.5,3.8,8.5,8.5C23,19.2,19.2,23,14.5,23z
				 M14.5,7C10.4,7,7,10.4,7,14.5c0,4.1,3.4,7.5,7.5,7.5c4.1,0,7.5-3.4,7.5-7.5C22,10.4,18.6,7,14.5,7z"/>
		</g>
	</g>
	<g>
		<path fill-rule="evenodd" clip-rule="evenodd" fill="#69B2E2" d="M14.5,11c-1.9,0-3.5,1.6-3.5,3.5c0,1.9,1.6,3.5,3.5,3.5
			c1.9,0,3.5-1.6,3.5-3.5C18,12.6,16.4,11,14.5,11z"/>
	</g>
	<g>
		<path fill-rule="evenodd" clip-rule="evenodd" fill="#69B2E2" d="M14.5,11.9c-1.5,0-2.7,1.2-2.7,2.7c0,1.5,1.2,2.6,2.7,2.6
			c1.5,0,2.7-1.2,2.7-2.6C17.2,13,16,11.9,14.5,11.9z"/>
	</g>
</g>
</svg>
