<?xml version="1.0" encoding="utf-8"?>
<!-- Generator: Adobe Illustrator 18.1.1, SVG Export Plug-In . SVG Version: 6.00 Build 0)  -->
<svg version="1.1" id="Layer_1" xmlns="http://www.w3.org/2000/svg" xmlns:xlink="http://www.w3.org/1999/xlink" x="0px" y="0px"
	 viewBox="0 0 29 29" enable-background="new 0 0 29 29" xml:space="preserve">
<g>
	<g>
		<path fill="#F1C418" d="M17,6.4c-0.6-0.2-1.2-0.3-1.8-0.3v1c0.5,0,1,0.1,1.5,0.3L17,6.4z"/>
		<path fill="#F1C418" d="M20,8c-0.5-0.4-1-0.7-1.6-1L18,7.8c0.4,0.2,0.9,0.5,1.2,0.8L20,8z"/>
		<path fill="#F1C418" d="M22.6,11.9l-0.9,0.4c0.1,0.5,0.2,1,0.3,1.5h1C22.9,13.1,22.8,12.5,22.6,11.9z"/>
		<path fill="#F1C418" d="M22,10.5C21.7,10,21.4,9.5,21,9l-0.7,0.7c0.3,0.4,0.6,0.8,0.8,1.2L22,10.5z"/>
		<path fill="#F1C418" d="M22,15.2C21.6,19,18.4,22,14.5,22C10.4,22,7,18.6,7,14.5C7,10.6,10,7.4,13.7,7V6C9.4,6.4,6,10.1,6,14.5
			c0,4.7,3.8,8.5,8.5,8.5c4.4,0,8.1-3.4,8.5-7.8H22z"/>
	</g>
	<polygon fill-rule="evenodd" clip-rule="evenodd" fill="#F1C418" points="15.2,14.8 14.9,11.3 14.3,11.3 13.8,15.9 13.8,15.9 
		13.8,15.9 18.9,17 19.1,16.4 	"/>
</g>
</svg>
