<?xml version="1.0" encoding="utf-8"?>
<!-- Generator: Adobe Illustrator 18.1.1, SVG Export Plug-In . SVG Version: 6.00 Build 0)  -->
<svg version="1.0" id="Seected" xmlns="http://www.w3.org/2000/svg" xmlns:xlink="http://www.w3.org/1999/xlink" x="0px" y="0px"
	 viewBox="0 0 24 24" enable-background="new 0 0 24 24" xml:space="preserve">
<g>
	<g>
		<path fill="#6B6B6B" stroke="#6B6B6B" stroke-width="0.5" stroke-miterlimit="10" d="M11.1,16.9c-3.3,0-6-2.7-6-6c0-3.3,2.7-6,6-6
			c3.3,0,6,2.7,6,6C17,14.3,14.4,16.9,11.1,16.9L11.1,16.9z M11.1,5.6C8.1,5.6,5.8,8,5.8,11c0,2.9,2.4,5.3,5.3,5.3
			c2.9,0,5.3-2.4,5.3-5.3C16.4,8,14,5.6,11.1,5.6L11.1,5.6z"/>
	</g>
	<g>
		<path fill="#6B6B6B" stroke="#6B6B6B" stroke-width="0.5" stroke-miterlimit="10" d="M18.6,19c-0.1,0-0.2,0-0.2-0.1l-3.5-3.5
			c-0.1-0.1-0.1-0.3,0-0.4c0.1-0.1,0.3-0.1,0.4,0l3.5,3.5c0.1,0.1,0.1,0.3,0,0.4C18.7,19,18.6,19,18.6,19L18.6,19z"/>
	</g>
	<g>
		<path fill="#6B6B6B" stroke="#6B6B6B" stroke-width="0.5" stroke-miterlimit="10" d="M13.6,11.2h-5c-0.2,0-0.3-0.1-0.3-0.3
			s0.1-0.3,0.3-0.3h5c0.2,0,0.3,0.1,0.3,0.3S13.7,11.2,13.6,11.2L13.6,11.2z"/>
	</g>
</g>
</svg>
