<?xml version="1.0" encoding="utf-8"?>
<!-- Generator: Adobe Illustrator 18.1.1, SVG Export Plug-In . SVG Version: 6.00 Build 0)  -->
<svg version="1.1" id="Layer_1" xmlns="http://www.w3.org/2000/svg" xmlns:xlink="http://www.w3.org/1999/xlink" x="0px" y="0px"
	 viewBox="0 0 64 67" enable-background="new 0 0 64 67" xml:space="preserve">
<g>
	<g>
		<rect x="1" y="0" fill="#FFFFFF" width="62" height="64"/>
	</g>
	<rect x="1" y="64" fill="#FAFAFA" width="62" height="1"/>
	<g>
		<text transform="matrix(1 0 0 1 11.2203 52.6736)" fill="#333333" font-family="'Helvetica'" font-size="8">PERSONAL</text>
	</g>
	<g>
		<path fill="#6B6C6C" d="M39.6,21.3c-0.8,0.6-1.6,1-2.6,1.2c-0.9,0.2-1.8,0.3-2.7,0.4C33.9,26,32.8,29,32.1,32c0,0.1,0,0.1-0.1,0.3
			c-0.1-0.2-0.1-0.3-0.1-0.4c-0.7-2.6-1.4-5.2-2.1-7.8c-0.1-0.4-0.1-0.9-0.1-1.4c-0.5,0-0.9,0-1.4-0.1c-0.9-0.1-1.8-0.2-2.7-0.6
			c-0.6-0.2-0.9-0.5-1.2-0.9c0.1-0.1,0.3-0.2,0.4-0.3c0.9-0.7,1.3-1.6,1.4-2.6c0.2-1,0.2-2,0.3-3c0.1-1.1,0.2-2.2,0.5-3.3
			c0.5-1.7,1.7-2.6,3.5-2.9c0.8-0.1,1.7-0.2,2.6,0c0.4,0.1,0.7,0.2,0.9,0.6c0,0.1,0.2,0.1,0.3,0.1c0.3,0,0.6,0,0.8,0.1
			c1.3,0.3,1.9,1.2,2.1,2.5c0.2,1.2,0.2,2.3,0.3,3.5c0.1,1.1,0.2,2.2,0.6,3.3C38.4,20,38.9,20.7,39.6,21.3z"/>
		<path fill="#6B6C6C" d="M25.3,27.4c1,0,1.9,0,2.8,0c0.1,0,0.3,0.1,0.4,0.2c1.1,1.6,2.3,3.1,3.4,4.7c0,0,0.1,0.1,0.1,0.2
			c-0.6,0-1.2,0-1.7-0.1c-2-0.2-3.9-0.5-5.7-1.2c-0.7-0.3-1.4-0.6-2.1-1c-0.4-0.2-0.6-0.6-0.6-1.1c0-0.5,0-1.1,0-1.6
			c0.1-0.8,0.5-1.4,1.2-1.8c0.6-0.3,1.1-0.5,1.7-0.7c1-0.3,2-0.7,3.1-1C27.1,25.1,26.2,26.2,25.3,27.4z"/>
		<path fill="#6B6C6C" d="M38.7,27.3c-0.9-1.1-1.7-2.2-2.6-3.3c0,0,0,0,0.1,0c1.1,0.4,2.3,0.8,3.4,1.2c0.5,0.2,1,0.4,1.4,0.6
			c0.8,0.4,1.2,1.2,1.2,2c0,0.5,0,1,0,1.4c0,0.3-0.1,0.6-0.4,0.8c-0.5,0.3-1,0.6-1.5,0.8c-1.7,0.7-3.6,1.1-5.5,1.4
			C34,32.3,33,32.4,32,32.5c0.1-0.2,0.1-0.2,0.2-0.3c1.1-1.5,2.2-3,3.3-4.6c0.1-0.2,0.2-0.2,0.5-0.2c0.8,0,1.5,0,2.3,0
			C38.4,27.4,38.5,27.4,38.7,27.3z"/>
	</g>
</g>
</svg>
