<?xml version="1.0" encoding="utf-8"?>
<!-- Generator: Adobe Illustrator 18.0.0, SVG Export Plug-In . SVG Version: 6.00 Build 0)  -->
<!DOCTYPE svg PUBLIC "-//W3C//DTD SVG 1.1//EN" "http://www.w3.org/Graphics/SVG/1.1/DTD/svg11.dtd">
<svg version="1.1" id="Layer_1" xmlns="http://www.w3.org/2000/svg" xmlns:xlink="http://www.w3.org/1999/xlink" x="0px" y="0px"
	 width="23.5px" height="24.8px" viewBox="0 0 23.5 24.8" style="enable-background:new 0 0 23.5 24.8;" xml:space="preserve">
<style type="text/css">
	.st0{fill:#488FCC;}
</style>
<path class="st0" d="M21.6,2.1H6.4C6.2,2.1,6,2.3,6,2.4v1.3H3.6c-0.1,0-0.2,0-0.3,0.1C3.3,4,3.2,4,3.3,4.1l0.1,1H1.1
	c-0.1,0-0.2,0-0.3,0.1C0.8,5.3,0.8,5.4,0.8,5.5l5.1,17.3c0,0.1,0.2,0.2,0.3,0.2c0,0,15.4,0,15.4,0c0.2,0,0.3-0.1,0.3-0.3V2.4
	C21.9,2.3,21.8,2.1,21.6,2.1z M6,4.4v15.4L4,4.4H6L6,4.4z M3.5,5.8L5.1,18L1.6,5.8H3.5z M21.3,22.4H6.7V2.8h14.5V22.4L21.3,22.4z
	 M12.5,5.4H7.2V3.9h5.3V5.4L12.5,5.4z M20.8,5.4h-5.3V3.9h5.3L20.8,5.4L20.8,5.4z M12.9,4.6c0-0.6,0.5-1.1,1.1-1.1
	c0.6,0,1.1,0.5,1.1,1.1c0,0.6-0.5,1.1-1.1,1.1C13.4,5.8,12.9,5.3,12.9,4.6z M20,12.8h-4.5V7.7H20V12.8L20,12.8z M13.3,8.4H7.8V7.9
	h5.5V8.4z M7.8,10h5.5v0.6H7.8V10z M7.8,12.2h5.5v0.6H7.8V12.2z M7.8,14.4H20v0.6H7.8V14.4z M7.8,16.6H20v0.6H7.8V16.6z M7.8,18.7
	H20v0.6H7.8V18.7z"/>
<g>
</g>
<g>
</g>
<g>
</g>
<g>
</g>
<g>
</g>
<g>
</g>
</svg>
