<?xml version="1.0" encoding="utf-8"?>
<!-- Generator: Adobe Illustrator 18.0.0, SVG Export Plug-In . SVG Version: 6.00 Build 0)  -->
<!DOCTYPE svg PUBLIC "-//W3C//DTD SVG 1.1//EN" "http://www.w3.org/Graphics/SVG/1.1/DTD/svg11.dtd">
<svg version="1.1" id="Layer_1" xmlns="http://www.w3.org/2000/svg" xmlns:xlink="http://www.w3.org/1999/xlink" x="0px" y="0px"
	width="23.2px" height="24.2px" viewBox="0 0 23.2 24.2" style="enable-background:new 0 0 23.2 24.2;" xml:space="preserve">
<style type="text/css">
	.st0{fill:#A5A5A5;}
</style>
<path class="st0" d="M1.4,22.8h10.5v-21H1.4V22.8z M7.9,4.4h2.6V7H7.9V4.4z M7.9,9.6h2.6v2.6H7.9V9.6z M7.9,14.9h2.6v2.6H7.9V14.9z
	 M2.7,4.4h2.6V7H2.7V4.4z M2.7,9.6h2.6v2.6H2.7V9.6z M2.7,14.9h2.6v2.6H2.7V14.9z M13.2,8.3h9.2v1.3h-9.2V8.3z M13.2,22.8h2.6v-5.3
	h3.9v5.3h2.6V10.9h-9.2V22.8z"/>
<g>
</g>
<g>
</g>
<g>
</g>
<g>
</g>
<g>
</g>
<g>
</g>
</svg>
