<?xml version="1.0" encoding="utf-8"?>
<!-- Generator: Adobe Illustrator 18.1.1, SVG Export Plug-In . SVG Version: 6.00 Build 0)  -->
<svg version="1.1" id="Layer_1" xmlns="http://www.w3.org/2000/svg" xmlns:xlink="http://www.w3.org/1999/xlink" x="0px" y="0px"
	 viewBox="0 0 64 67" enable-background="new 0 0 64 67" xml:space="preserve">
<g>
	<g>
		<rect x="1" y="0" fill="#FFFFFF" width="62" height="64"/>
	</g>
	<rect x="1" y="64" fill="#FAFAFA" width="62" height="1"/>
	<path fill="#6B6C6C" d="M43,29.5c-0.8,0-1.6,0-2.5,0c0-8.3,0-11.7,0-20c-5,0-12.1,0-17.1,0c0,8.3,0,11.7,0,20.1c-0.8,0-1.7,0-2.5,0
		c0,0.9,0,1.7,0,2.5c6.6,0,15.4,0,22,0V29.5z M26,14.6c0-0.8,0-1.6,0-2.4c3.3,0,8.7,0,12.1,0c0,0.8,0,1.6,0,2.4
		C34.7,14.6,29.3,14.6,26,14.6z M38,17.1c0,0.8,0,1.6,0,2.4c-3.3,0-8.7,0-12,0c0-0.8,0-1.6,0-2.4C29.3,17.1,34.7,17.1,38,17.1z
		 M26,22.1c3.3,0,8.7,0,12.1,0c0,0.8,0,1.6,0,2.4c-3.3,0-8.7,0-12.1,0C26,23.7,26,22.9,26,22.1z M34.7,32c-1.5,0-3.9,0-5.4,0
		c0-1.5,0-3.9,0-5.4c1.5,0,3.9,0,5.4,0C34.7,28.1,34.7,30.5,34.7,32z"/>
	<g>
		<text transform="matrix(1 0 0 1 11.2428 52.6736)" fill="#333333" font-family="'Helvetica'" font-size="8">PRINCIPAL</text>
	</g>
</g>
</svg>
