<?xml version="1.0" encoding="utf-8"?>
<!-- Generator: Adobe Illustrator 18.1.1, SVG Export Plug-In . SVG Version: 6.00 Build 0)  -->
<svg version="1.1" id="Layer_1" xmlns="http://www.w3.org/2000/svg" xmlns:xlink="http://www.w3.org/1999/xlink" x="0px" y="0px"
	 viewBox="0 0 67 40" enable-background="new 0 0 67 40" xml:space="preserve">
<g>
	<rect x="-0.5" y="39" fill="#6B6B6B" width="67.4" height="1"/>
	<rect x="-0.3" y="0" fill="#F1F1F2" width="66.9" height="40"/>
	<rect x="-0.3" y="39" fill="#F1F1F2" width="67.9" height="1"/>
	<g>
		<g>
			<path fill-rule="evenodd" clip-rule="evenodd" fill="#4B5354" d="M33.2,30c-1.4,0-2.8,0-4.3,0c-0.4,0-0.4,0-0.4-0.4
				c0-0.9,0.5-1.4,1.4-1.4c0.5,0,1,0,1.5,0c0.3,0,0.4,0,0.4-0.4c0,0,0,0,0,0c0-0.7-0.1-0.6,0.6-0.6c0.6,0,1.2,0,1.9,0
				c0.2,0,0.3,0.1,0.3,0.3c0,0,0,0,0,0c0,0.7-0.1,0.7,0.7,0.7c0.4,0,0.8,0,1.2,0c0.9,0,1.5,0.7,1.4,1.6c0,0.2-0.2,0.2-0.3,0.2
				c-0.9,0-1.9,0-2.8,0C34.2,30,33.7,30,33.2,30z"/>
			<path fill-rule="evenodd" clip-rule="evenodd" fill="#4B5354" d="M44.3,11.8c0-1.1-0.7-1.8-1.8-1.8c-6.3,0-12.5,0-18.8,0
				c-1.2,0-1.8,0.7-1.8,1.8c0,4.2,0,8.5,0,12.7c0,1.1,0.7,1.8,1.8,1.8c3.1,0,6.3,0,9.4,0c3.1,0,6.2,0,9.4,0c0.3,0,0.6,0,0.8-0.1
				c0.7-0.3,1-0.9,1-1.6C44.3,20.3,44.3,16.1,44.3,11.8z M43.5,23.4c0,0.7-0.3,1-1,1c-3.1,0-6.3,0-9.4,0l0,0c-3.1,0-6.3,0-9.4,0
				c-0.2,0-0.5,0-0.7-0.2c-0.3-0.2-0.3-0.5-0.3-0.8c0-2.5,0-4.9,0-7.4c0-1.4,0-2.8,0-4.2c0-0.7,0.3-1,1-1c6.3,0,12.6,0,18.9,0
				c0.7,0,1,0.3,1,1C43.5,15.6,43.5,19.5,43.5,23.4z"/>
			<g>
				<path fill-rule="evenodd" clip-rule="evenodd" fill="#4B5354" d="M38.4,17.8c0-1.2,0-2.5,0-3.7c0-0.6,0-0.6,0.6-0.6
					c0.2,0,0.4,0,0.6,0c0.4,0,0.4,0,0.4,0.4c0,1.8,0,3.7,0,5.5c0,0.8,0,1.6,0,2.3c0,0.4,0,0.4-0.4,0.4c-0.3,0-0.5,0-0.8,0
					c-0.4,0-0.4,0-0.4-0.4C38.4,20.4,38.4,19.1,38.4,17.8z"/>
				<path fill-rule="evenodd" clip-rule="evenodd" fill="#4B5354" d="M27.7,19c0,0.9,0,1.8,0,2.8c0,0.3,0,0.3-0.3,0.4
					c-0.3,0-0.6,0-0.9,0c-0.3,0-0.4,0-0.4-0.4c0-1.5,0-2.9,0-4.4c0-0.4,0-0.8,0-1.2c0-0.2,0.1-0.3,0.3-0.3c0.3,0,0.6,0,0.9,0
					c0.3,0,0.4,0,0.4,0.4C27.7,17.1,27.7,18.1,27.7,19z"/>
				<path fill-rule="evenodd" clip-rule="evenodd" fill="#4B5354" d="M35.1,19.7c0,0.7,0,1.4,0,2c0,0.3,0,0.4-0.3,0.4
					c-0.3,0-0.7,0-1,0c-0.2,0-0.3-0.1-0.3-0.3c0-1.4,0-2.9,0-4.3c0-0.2,0.1-0.3,0.3-0.3c0.3,0,0.7,0,1,0c0.2,0,0.3,0.1,0.3,0.3
					C35.1,18.3,35.1,19,35.1,19.7z"/>
				<path fill-rule="evenodd" clip-rule="evenodd" fill="#4B5354" d="M35.9,20.2c0-0.5,0-1.1,0-1.6c0-0.2,0.1-0.3,0.3-0.3
					c0.3,0,0.7,0,1,0c0.2,0,0.3,0.1,0.3,0.3c0,1.1,0,2.2,0,3.3c0,0.2-0.1,0.3-0.3,0.3c-0.4,0-0.7,0-1.1,0c-0.2,0-0.3-0.1-0.3-0.3
					C35.9,21.3,35.9,20.7,35.9,20.2z"/>
				<path fill-rule="evenodd" clip-rule="evenodd" fill="#4B5354" d="M30.9,17.8c0-1.2,0-2.5,0-3.7c0-0.6,0-0.6,0.6-0.6
					c0.2,0,0.4,0,0.6,0c0.4,0,0.4,0,0.4,0.4c0,1.8,0,3.7,0,5.5c0,0.8,0,1.6,0,2.3c0,0.4,0,0.4-0.4,0.4c-0.3,0-0.5,0-0.8,0
					c-0.4,0-0.4,0-0.4-0.4C30.9,20.4,30.9,19.1,30.9,17.8z"/>
				<path fill-rule="evenodd" clip-rule="evenodd" fill="#4B5354" d="M28.5,20.2c0-0.5,0-1.1,0-1.6c0-0.2,0.1-0.3,0.3-0.3
					c0.3,0,0.7,0,1,0c0.2,0,0.3,0.1,0.3,0.3c0,1.1,0,2.2,0,3.3c0,0.2-0.1,0.3-0.3,0.3c-0.4,0-0.7,0-1.1,0c-0.2,0-0.3-0.1-0.3-0.3
					C28.5,21.3,28.5,20.7,28.5,20.2z"/>
			</g>
		</g>
	</g>
</g>
</svg>
