<?xml version="1.0" encoding="utf-8"?>
<!-- Generator: Adobe Illustrator 18.1.1, SVG Export Plug-In . SVG Version: 6.00 Build 0)  -->
<svg version="1.1" id="Layer_1" xmlns="http://www.w3.org/2000/svg" xmlns:xlink="http://www.w3.org/1999/xlink" x="0px" y="0px"
	 viewBox="0 0 67 40" enable-background="new 0 0 67 40" xml:space="preserve">
<g>
	<rect x="0.2" y="0" fill="#F1F1F2" width="66.8" height="40"/>
	<rect x="0" y="39" fill="#4B5354" width="66.9" height="1"/>
	<g>
		<g>
			<path fill="#3497DB" d="M46.8,11.8L46.8,11.8L46.8,11.8l-12.8,0l0,0l-6.8,0c-0.2,0-0.4,0.2-0.4,0.4v2.6c0,0.2,0.2,0.4,0.4,0.4h0
				h0.1l14.7,0l0,0l4.8,0c0.2,0,0.4-0.2,0.4-0.4v-2.1v-0.5v0C47.3,12,47.1,11.8,46.8,11.8z"/>
			<path fill="#3497DB" d="M46.8,18.7L46.8,18.7L46.8,18.7l-12.8,0l0,0l-6.8,0c-0.2,0-0.4,0.2-0.4,0.4v2.6c0,0.2,0.2,0.4,0.4,0.4h0
				h0.1l14.7,0l0,0l4.8,0c0.2,0,0.4-0.2,0.4-0.4v-2.1v-0.5v0C47.3,18.9,47.1,18.7,46.8,18.7z"/>
			<path fill="#3497DB" d="M46.8,24.7L46.8,24.7L46.8,24.7l-12.8,0l0,0l-6.8,0c-0.2,0-0.4,0.2-0.4,0.4v2.6c0,0.2,0.2,0.4,0.4,0.4h0
				h0.1l14.7,0l0,0l4.8,0c0.2,0,0.4-0.2,0.4-0.4v-2.1v-0.5v0C47.3,24.9,47.1,24.7,46.8,24.7z"/>
		</g>
		<g>
			<path fill="#3497DB" d="M22.3,11.8L22.3,11.8L22.3,11.8l-1.8,0v0l-0.8,0c-0.2,0-0.4,0.2-0.4,0.4v2.6c0,0.2,0.2,0.4,0.4,0.4h0h0.1
				l-0.1,0l0,0l2.7,0c0.2,0,0.4-0.2,0.4-0.4v-2.1v-0.5v0C22.8,12,22.6,11.8,22.3,11.8z"/>
			<path fill="#3497DB" d="M22.3,18.7L22.3,18.7L22.3,18.7l-1.8,0v0l-0.8,0c-0.2,0-0.4,0.2-0.4,0.4v2.6c0,0.2,0.2,0.4,0.4,0.4h0h0.1
				l-0.1,0l0,0l2.7,0c0.2,0,0.4-0.2,0.4-0.4v-2.1v-0.5v0C22.8,18.9,22.6,18.7,22.3,18.7z"/>
			<path fill="#3497DB" d="M22.3,24.7L22.3,24.7L22.3,24.7l-1.8,0v0l-0.8,0c-0.2,0-0.4,0.2-0.4,0.4v2.6c0,0.2,0.2,0.4,0.4,0.4h0h0.1
				l-0.1,0l0,0l2.7,0c0.2,0,0.4-0.2,0.4-0.4v-2.1v-0.5v0C22.8,24.9,22.6,24.7,22.3,24.7z"/>
		</g>
	</g>
</g>
</svg>
