<?xml version="1.0" encoding="utf-8"?>
<!-- Generator: Adobe Illustrator 18.0.0, SVG Export Plug-In . SVG Version: 6.00 Build 0)  -->
<!DOCTYPE svg PUBLIC "-//W3C//DTD SVG 1.1//EN" "http://www.w3.org/Graphics/SVG/1.1/DTD/svg11.dtd">
<svg version="1.1" id="Layer_1" xmlns="http://www.w3.org/2000/svg" xmlns:xlink="http://www.w3.org/1999/xlink" x="0px" y="0px"
	width="66.5" height="44" viewBox="0 0 66.5 44" enable-background="new 0 0 66.5 44" xml:space="preserve">
<rect fill="#A5A5A5" width="66.5" height="44"/>
<g>
	<g>
		<g>
			<g>
				<path fill="#404040" d="M34.9,32h-2.1c-0.3,0-0.4,0-1.5-2.7l-0.8-0.3C28,30,27.8,30,27.7,30h-0.2l-0.2-0.1l-1.5-1.5
					c-0.2-0.2-0.3-0.3,0.9-3l-0.3-0.8c-2.8-1-2.8-1.1-2.8-1.4V21c0-0.3,0-0.4,2.8-1.5l0.3-0.8c-1.3-2.6-1.2-2.7-0.9-3l1.6-1.6l0.2,0
					c0.2,0,1.2,0.3,2.7,1l0.8-0.3c1-2.7,1.1-2.7,1.5-2.7h2.1c0.3,0,0.4,0,1.5,2.7l0.9,0.3c2.3-1,2.6-1,2.7-1H40l0.2,0.1l1.5,1.5
					c0.2,0.2,0.3,0.3-0.9,3l0.3,0.8c2.8,1,2.8,1.1,2.8,1.4V23c0,0.3,0,0.4-2.8,1.5l-0.3,0.8c1.3,2.6,1.2,2.7,0.9,3l-1.6,1.6l-0.2,0
					c-0.2,0-1.2-0.3-2.7-1l-0.9,0.3C35.3,32,35.2,32,34.9,32z M33,31.1h1.7c0.2-0.4,0.6-1.4,1-2.3l0.1-0.2l1.5-0.6l0.2,0.1
					c0.9,0.4,2,0.8,2.4,1l1.2-1.2c-0.2-0.4-0.6-1.4-1-2.3l-0.1-0.2l0.6-1.5l0.2-0.1c0.9-0.4,2-0.8,2.4-1v-1.6
					c-0.4-0.2-1.5-0.6-2.4-0.9l-0.2-0.1l-0.6-1.5l0.1-0.2c0.4-0.9,0.8-1.9,1-2.4l-1.2-1.2c-0.4,0.1-1.5,0.6-2.4,1L37.2,16l-1.5-0.6
					l-0.1-0.2c-0.4-0.9-0.8-2-1-2.4h-1.7c-0.2,0.4-0.6,1.4-0.9,2.3l-0.1,0.2L30.3,16L30.2,16c-0.9-0.4-2-0.8-2.4-1l-1.2,1.2
					c0.1,0.4,0.6,1.4,1,2.3l0.1,0.2L27,20.2l-0.2,0.1c-0.9,0.4-2,0.8-2.4,1v1.6c0.4,0.2,1.5,0.6,2.4,0.9l0.2,0.1l0.6,1.5l-0.1,0.2
					c-0.4,0.9-0.8,1.9-1,2.4l1.2,1.2c0.4-0.1,1.5-0.6,2.4-1l0.2-0.1l1.5,0.6l0.1,0.2C32.3,29.7,32.7,30.7,33,31.1z M33.8,25.5
					c-2,0-3.6-1.6-3.6-3.5c0-1.9,1.6-3.5,3.6-3.5c2,0,3.6,1.6,3.6,3.5C37.3,23.9,35.7,25.5,33.8,25.5z M33.8,19.4
					c-1.5,0-2.7,1.2-2.7,2.6c0,1.5,1.2,2.6,2.7,2.6c1.5,0,2.7-1.2,2.7-2.6C36.5,20.6,35.2,19.4,33.8,19.4z"/>
			</g>
		</g>
	</g>
</g>
</svg>
