<?xml version="1.0" encoding="utf-8"?>
<!-- Generator: Adobe Illustrator 18.0.0, SVG Export Plug-In . SVG Version: 6.00 Build 0)  -->
<!DOCTYPE svg PUBLIC "-//W3C//DTD SVG 1.1//EN" "http://www.w3.org/Graphics/SVG/1.1/DTD/svg11.dtd">
<svg version="1.1" id="Layer_1" xmlns="http://www.w3.org/2000/svg" xmlns:xlink="http://www.w3.org/1999/xlink" x="0px" y="0px"
	width="26.4px" height="27px"  viewBox="0 0 26.4 27" style="enable-background:new 0 0 26.4 27;" xml:space="preserve">
<style type="text/css">
	.st0{fill:#D8D9D8;}
</style>
<g>
	<g>
		<g>
			<g>
				<path class="st0" d="M14.4,23.4h-2.1c-0.3,0-0.4,0-1.5-2.7l-0.8-0.3c-2.3,1.1-2.6,1.1-2.7,1.1H7l-0.2-0.1l-1.5-1.5
					c-0.2-0.2-0.3-0.3,0.9-3l-0.3-0.8c-2.8-1-2.8-1.1-2.8-1.4v-2.1c0-0.3,0-0.4,2.8-1.5L6.2,10C4.9,7.4,5,7.3,5.3,7l1.6-1.6l0.2,0
					c0.2,0,1.2,0.3,2.7,1l0.8-0.3c1-2.7,1.1-2.7,1.5-2.7h2.1c0.3,0,0.4,0,1.5,2.7l0.9,0.3c2.3-1,2.6-1,2.7-1h0.2l0.2,0.1L21.2,7
					c0.2,0.2,0.3,0.3-0.9,3l0.3,0.8c2.8,1,2.8,1.1,2.8,1.4v2.1c0,0.3,0,0.4-2.8,1.5l-0.3,0.8c1.3,2.6,1.2,2.7,0.9,3l-1.6,1.6l-0.2,0
					c-0.2,0-1.2-0.3-2.7-1l-0.9,0.3C14.8,23.4,14.7,23.4,14.4,23.4z M12.4,22.5h1.7c0.2-0.4,0.6-1.4,1-2.3l0.1-0.2l1.5-0.6l0.2,0.1
					c0.9,0.4,2,0.8,2.4,1l1.2-1.2c-0.2-0.4-0.6-1.4-1-2.3l-0.1-0.2l0.6-1.5l0.2-0.1c0.9-0.4,2-0.8,2.4-1v-1.6
					c-0.4-0.2-1.5-0.6-2.4-0.9L20,11.5L19.4,10l0.1-0.2c0.4-0.9,0.8-1.9,1-2.4l-1.2-1.2c-0.4,0.1-1.5,0.6-2.4,1l-0.2,0.1l-1.5-0.6
					l-0.1-0.2c-0.4-0.9-0.8-2-1-2.4h-1.7c-0.2,0.4-0.6,1.4-0.9,2.3l-0.1,0.2L9.8,7.4L9.6,7.3c-0.9-0.4-2-0.8-2.4-1L6,7.5
					c0.1,0.4,0.6,1.4,1,2.3L7.1,10l-0.6,1.5l-0.2,0.1c-0.9,0.4-2,0.8-2.4,1v1.6c0.4,0.2,1.5,0.6,2.4,0.9l0.2,0.1l0.6,1.5l-0.1,0.2
					c-0.4,0.9-0.8,1.9-1,2.4l1.2,1.2c0.4-0.1,1.5-0.6,2.4-1l0.2-0.1l1.5,0.6l0.1,0.2C11.8,21,12.2,22.1,12.4,22.5z M13.3,16.9
					c-2,0-3.6-1.6-3.6-3.5c0-1.9,1.6-3.5,3.6-3.5c2,0,3.6,1.6,3.6,3.5C16.8,15.3,15.2,16.9,13.3,16.9z M13.3,10.7
					c-1.5,0-2.7,1.2-2.7,2.6c0,1.5,1.2,2.6,2.7,2.6c1.5,0,2.7-1.2,2.7-2.6C16,11.9,14.7,10.7,13.3,10.7z"/>
			</g>
		</g>
	</g>
</g>
<g>
</g>
<g>
</g>
<g>
</g>
<g>
</g>
<g>
</g>
<g>
</g>
</svg>
