<?xml version="1.0" encoding="utf-8"?>
<!-- Generator: Adobe Illustrator 18.1.1, SVG Export Plug-In . SVG Version: 6.00 Build 0)  -->
<svg version="1.1" id="Icons" xmlns="http://www.w3.org/2000/svg" xmlns:xlink="http://www.w3.org/1999/xlink" x="0px" y="0px"
	 viewBox="0 0 26 26" enable-background="new 0 0 26 26" xml:space="preserve">
<g>
	<path fill-rule="evenodd" clip-rule="evenodd" fill="#E57E25" d="M17.9,23.1c2.3,0,4.1-1.9,4.1-4.1c0-2.3-1.9-4.2-4.1-4.2
		c-2.3,0-4.1,1.9-4.1,4.2C13.7,21.3,15.6,23.1,17.9,23.1z M15.6,18.4c0.7-0.6,1.4-1.2,2.1-1.8c0,0,0.1-0.1,0.1-0.1
		c0.1-0.1,0.2-0.2,0.4-0.1c0.2,0.1,0.2,0.2,0.2,0.4c0,0.5,0,0.9,0,1.4c0,0.1,0,0.1,0,0.2c0.7,0,1.3,0,2,0c0,0.4,0,0.7,0,1
		c-0.7,0-1.3,0-2,0c0,0.3,0,0.5,0,0.8c0,0.3,0,0.5,0,0.8c0,0.1,0,0.2,0,0.3c-0.1,0.2-0.2,0.2-0.4,0.2c-0.1,0-0.2-0.1-0.2-0.1
		c-0.7-0.6-1.4-1.2-2.1-1.8C15.2,19.2,15.2,18.8,15.6,18.4z"/>
	<path fill="#E57E25" d="M14.4,7.4c0.2,0.1,0.3,0.1,0.4,0.2c0.1,0.3,0.1,0.6-0.1,0.8C14.5,8.7,14.3,9,14,9c-0.1,0-0.1,0.1-0.1,0.2
		c-0.3,0.6-0.6,1.1-1,1.6c-0.1,0.1-0.3,0.3-0.4,0.4c-1,0.8-2.1,0.8-3-0.1c-0.6-0.5-1-1.2-1.3-1.9C8.1,9.1,8.1,9.1,7.9,9
		C7.4,8.9,7.1,8.2,7.2,7.6c0.1-0.2,0.3-0.2,0.4-0.2C7.6,7,7.5,6.7,7.5,6.3C7.4,5.4,7.6,4.6,8.4,4c0.4-0.3,0.8-0.7,1.4-0.9
		C10.9,2.7,12,2.8,13,3.5c0.3,0.2,0.6,0.5,0.9,0.7c0.4,0.4,0.6,0.8,0.7,1.4C14.6,6.2,14.5,6.7,14.4,7.4C14.4,7.3,14.4,7.4,14.4,7.4z
		"/>
	<g>
		<path fill="#E57E25" d="M13.5,14.7c0.6-0.6,1.4-1.1,2.2-1.4c-0.6-0.2-1.2-0.4-1.8-0.6c0,0,0,0-0.1,0c-0.2,0.8-0.4,1.5-0.7,2.3
			C13.3,14.9,13.4,14.8,13.5,14.7z"/>
		<path fill="#E57E25" d="M11.8,19c0-0.5,0.1-1.1,0.2-1.6c-0.1-0.6-0.2-1.3-0.3-1.9c-0.1-0.5-0.2-1,0-1.5c0.1-0.2,0-0.3-0.2-0.4
			c-0.3-0.3-0.6-0.3-1,0c-0.2,0.1-0.2,0.2-0.2,0.5c0.1,0.2,0.1,0.5,0.1,0.7c-0.1,0.8-0.2,1.6-0.4,2.3c0,0.3-0.1,0.6-0.1,0.9
			c-0.5-0.8-0.8-1.7-1-2.6c-0.3-0.9-0.5-1.8-0.8-2.7c-0.2,0.1-0.3,0.1-0.5,0.1c-0.6,0.2-1.2,0.4-1.8,0.6c-0.6,0.2-1,0.7-1.2,1.4
			c-0.1,0.2-0.2,0.5-0.2,0.7c-0.2,0.8-0.3,1.7-0.4,2.6c0.8,0.9,3.6,1.8,6.9,1.8c0.3,0,0.6,0,1,0C11.8,19.6,11.8,19.3,11.8,19z"/>
	</g>
</g>
</svg>
