<?xml version="1.0" encoding="utf-8"?>
<!-- Generator: Adobe Illustrator 18.1.1, SVG Export Plug-In . SVG Version: 6.00 Build 0)  -->
<svg version="1.1" id="Icons" xmlns="http://www.w3.org/2000/svg" xmlns:xlink="http://www.w3.org/1999/xlink" x="0px" y="0px"
	 viewBox="0 0 20 20" enable-background="new 0 0 20 20" xml:space="preserve">
<g>
	<g>
		<path fill="#5D5D5D" d="M9.5,10.5c-0.1-0.1-0.1-0.1-0.2-0.2c0,0-0.1,0.1-0.1,0.1c-0.2,0.2-0.4,0.4-0.7,0.6
			c-0.2,0.2-0.4,0.4-0.6,0.5c-0.2,0.2-0.4,0.3-0.5,0.5c-0.3,0.3-0.6,0.6-0.8,0.8C6.5,12.9,6.4,13,6.3,13c0,0.1-0.1,0.1-0.1,0.1l0,0
			c0,0,0.5-0.4,1.2-0.9c0.4-0.3,0.8-0.6,1.2-0.9c0.2-0.2,0.4-0.4,0.7-0.5c0.1-0.1,0.1-0.1,0.2-0.2L9.5,10.5z"/>
		<path fill="#5D5D5D" d="M13.8,12.9c-0.1-0.1-0.1-0.1-0.2-0.2c-0.2-0.2-0.5-0.4-0.8-0.7c-0.2-0.2-0.3-0.3-0.5-0.5
			c-0.2-0.2-0.4-0.3-0.6-0.5c-0.2-0.2-0.4-0.4-0.7-0.5c0,0-0.1-0.1-0.1-0.1c-0.1,0.1-0.1,0.1-0.2,0.2l-0.1,0.1
			c0.1,0.1,0.1,0.1,0.2,0.2c0.2,0.2,0.5,0.3,0.7,0.5c0.4,0.3,0.9,0.6,1.2,0.9c0.7,0.5,1.2,0.9,1.2,0.9L13.8,12.9
			C13.9,13,13.9,13,13.8,12.9z"/>
	</g>
	<path fill="#5D5D5D" d="M14.7,5.6c0.9,0,1.6,0.7,1.6,1.6v5.7c0,0.9-0.7,1.6-1.6,1.6H5.3c-0.9,0-1.6-0.7-1.6-1.6V7.2
		c0-0.9,0.7-1.6,1.6-1.6H14.7 M14.7,4.9H5.3C4,4.9,3,5.9,3,7.2v5.7c0,1.3,1,2.3,2.3,2.3h9.4c1.3,0,2.3-1,2.3-2.3V7.2
		C17,5.9,16,4.9,14.7,4.9L14.7,4.9z"/>
	<path fill="#5D5D5D" d="M15.6,6.5c0,0,0,0-0.1,0.1c-0.1,0.1-0.2,0.2-0.3,0.3c-0.3,0.3-0.6,0.7-1.1,1.1c-0.5,0.5-1,1-1.7,1.5
		c-0.3,0.3-0.6,0.6-1,0.8c-0.2,0.1-0.3,0.3-0.5,0.4L10.7,11l-0.1,0.1l0,0l0,0l-0.1,0.1l0,0l0,0l0,0l0,0c0,0-0.1,0-0.1,0
		c-0.1,0-0.1,0-0.2,0c-0.1,0-0.2,0-0.3-0.1c0,0-0.1-0.1-0.1-0.1l0,0L9.5,11l-0.3-0.2c-0.2-0.1-0.3-0.3-0.5-0.4
		c-0.3-0.3-0.7-0.5-1-0.8C7.4,9.4,7.1,9.1,6.8,8.9C6.5,8.6,6.2,8.4,6,8.2C5.5,7.7,5.1,7.3,4.8,7.1C4.7,6.9,4.6,6.8,4.5,6.7
		C4.4,6.7,4.4,6.6,4.4,6.6l0,0c0,0,0.7,0.5,1.8,1.3C6.7,8.3,7.3,8.7,8,9.2C8.3,9.5,8.7,9.7,9,10c0.2,0.1,0.3,0.3,0.5,0.4l0.3,0.2
		c0.1,0.1,0.2,0.2,0.2,0.1c0.1,0,0.2-0.1,0.2-0.1l0.3-0.2c0.2-0.1,0.3-0.3,0.5-0.4c0.3-0.3,0.7-0.5,1-0.8c0.6-0.5,1.3-1,1.8-1.4
		C14.9,7,15.6,6.4,15.6,6.5L15.6,6.5z"/>
</g>
</svg>
