<?xml version="1.0" encoding="utf-8"?>
<!-- Generator: Adobe Illustrator 18.1.1, SVG Export Plug-In . SVG Version: 6.00 Build 0)  -->
<svg version="1.1" id="Icons" xmlns="http://www.w3.org/2000/svg" xmlns:xlink="http://www.w3.org/1999/xlink" x="0px" y="0px"
	 viewBox="0 0 20 20" enable-background="new 0 0 20 20" xml:space="preserve">
<g>
	<path fill="#5D5D5D" d="M14.6,6.2c0.5,0.7,0.8,1.5,1,2.3c0.5,2.9-1.2,5.9-4.3,6.6c-1.2,0.3-2.4,0.2-3.5-0.3c-0.1,0-0.2,0-0.3,0
		c-0.9,0.4-1.9,0.8-2.8,1.2c-0.1,0-0.1,0-0.2,0.1c0-0.4,0.2-0.7,0.2-1c0.2-0.7,0.4-1.4,0.5-2c0-0.1,0-0.2,0-0.2
		c-0.7-1-1-2.2-0.9-3.4c0.1-2.7,2.1-5,4.8-5.3C11.3,3.7,13.1,4.4,14.6,6.2C14.5,6.2,14.5,6.2,14.6,6.2z M5.8,14.6
		c0.6-0.2,1.1-0.4,1.6-0.6c0.2-0.1,0.3-0.1,0.4,0c1.1,0.5,2.2,0.7,3.3,0.4c2.6-0.7,4.1-3.2,3.5-5.8C14.1,5.8,11.3,4.1,8.6,5
		c-3.2,1-4.5,5-2.4,7.7c0.1,0.1,0.1,0.2,0.1,0.3C6.1,13.5,6,14,5.8,14.6z"/>
	<path fill="#5D5D5D" d="M11.4,12c-0.4,0-0.7-0.1-1-0.2C9.3,11.2,8.5,10.5,8,9.4C7.9,9.2,7.8,9,7.8,8.8C7.7,8.3,7.9,7.9,8.3,7.6
		c0.1-0.1,0.5-0.1,0.6-0.1c0,0,0.1,0.1,0.1,0.1C9.1,8,9.2,8.3,9.3,8.6c0,0.1,0,0.2,0,0.3C9.2,8.9,9.2,9,9.1,9.1C8.9,9.2,9,9.4,9,9.5
		c0.2,0.4,0.5,0.7,0.9,0.9c0.2,0.1,0.4,0.3,0.7,0.4c0.1,0,0.2,0,0.3-0.1c0.1-0.1,0.2-0.2,0.3-0.3c0.1-0.1,0.2-0.1,0.3-0.1
		c0.3,0.1,0.5,0.3,0.8,0.4c0.1,0,0.1,0.1,0.1,0.2c0.1,0.3,0,0.5-0.2,0.7C11.9,11.8,11.7,12,11.4,12z"/>
</g>
</svg>
