<?xml version="1.0" encoding="utf-8"?>
<!-- Generator: Adobe Illustrator 18.1.1, SVG Export Plug-In . SVG Version: 6.00 Build 0)  -->
<svg version="1.1" id="Icons" xmlns="http://www.w3.org/2000/svg" xmlns:xlink="http://www.w3.org/1999/xlink" x="0px" y="0px"
	 viewBox="0 0 20 20" enable-background="new 0 0 20 20" xml:space="preserve">
<g>
	<g>
		<path fill-rule="evenodd" clip-rule="evenodd" fill="#5D5D5D" d="M2.4,6.8c0.1-0.2,0.1-0.4,0.2-0.6c0.3-0.8,0.9-1.3,1.8-1.4
			c0.2,0,0.4,0,0.5,0c3,0,6.1,0,9.1,0c0.3,0,0.6,0,0.9,0.1c0.9,0.3,1.4,0.9,1.5,1.8c0,0.2,0,0.3,0,0.5c0,1.8,0,3.6,0,5.5
			c0,0.4-0.1,0.7-0.2,1.1c-0.3,0.9-1.1,1.4-2.2,1.4c-1.8,0-3.5,0-5.3,0c-0.2,0-0.3,0.1-0.5,0.2c-0.5,0.5-0.9,0.9-1.5,1.4
			c-0.3-0.3-0.7-0.7-1-1C5.5,15.2,5.2,15,4.6,15c-1.2,0-1.9-0.7-2.1-1.9c0-0.1,0-0.1,0-0.2C2.4,10.9,2.4,8.9,2.4,6.8z M7,15.5
			c0.4-0.4,0.8-0.8,1.3-1.2c0.1-0.1,0.2-0.2,0.4-0.2c1.8,0,3.6,0,5.5,0c0.9,0,1.5-0.5,1.5-1.5c0-1.8,0-3.7,0-5.5
			c0-0.9-0.6-1.4-1.5-1.4c-3.1,0-6.2,0-9.2,0c-0.9,0-1.5,0.5-1.5,1.5c0,0.5,0,1.1,0,1.6c0,1.3,0,2.6,0,3.9c0,0.8,0.4,1.3,1.1,1.4
			c0.2,0,0.5,0,0.7,0c0.2,0,0.3,0.1,0.5,0.2C6.1,14.7,6.5,15.1,7,15.5z"/>
	</g>
</g>
</svg>
