<?xml version="1.0" encoding="utf-8"?>
<!-- Generator: Adobe Illustrator 18.1.1, SVG Export Plug-In . SVG Version: 6.00 Build 0)  -->
<svg version="1.1" id="Icons" xmlns="http://www.w3.org/2000/svg" xmlns:xlink="http://www.w3.org/1999/xlink" x="0px" y="0px"
	 viewBox="0 0 20 20" enable-background="new 0 0 20 20" xml:space="preserve">
<g>
	<path fill-rule="evenodd" clip-rule="evenodd" fill="#E64D3C" d="M17.9,12.1c-0.5-1-1-2.1-1.5-3.1c-0.2-0.3-0.2-0.6,0-1
		c0.5-1,1-2,1.5-3c0-0.1,0.1-0.1,0.1-0.2c0.1-0.1,0-0.3-0.2-0.3c-0.1,0-0.1,0-0.2,0c-1.4,0-2.8,0-4.2,0C13.2,4.5,13,4.4,13,4
		c0-0.3,0-0.7,0-1c0-0.3-0.1-0.5-0.5-0.5c-2,0-4,0-6,0C6.1,2.5,6,2.7,6,3c0,2.3,0,4.7,0,7c0,0.3,0.1,0.5,0.5,0.5c1,0,2,0,3,0
		c0.3,0,0.5,0.2,0.5,0.5c0,0.4,0,0.7,0,1.1c0,0.3,0.2,0.5,0.5,0.5c1.2,0,2.4,0,3.6,0c0,0,0,0,0,0c0.6,0,1.3,0,1.9,0
		c0.6,0,1.2,0,1.8,0c0.2,0,0.3-0.1,0.3-0.2C18,12.2,18,12.1,17.9,12.1z M11.5,9.2c-0.1,0-0.1,0-0.2,0c-1.1,0-2.1,0-3.2,0
		C7.8,9.2,7.6,9,7.6,8.6c0-1.3,0-2.7,0-4c0-0.5,0.2-0.7,0.7-0.7c1,0,2,0,3,0c0.1,0,0.1,0,0.2,0C11.5,5.7,11.5,7.4,11.5,9.2z
		 M15.4,11.2c-0.9,0-1.9,0-2.8,0c0,0-0.1,0-0.1,0c0-1.6,0-3.2,0-4.9c0.3,0,0.5,0,0.8,0c0.7,0,1.4,0,2.1,0c0.4,0,0.5,0.2,0.3,0.5
		c-0.2,0.5-0.5,0.9-0.7,1.4c-0.2,0.3-0.2,0.7,0,1c0.2,0.5,0.5,1,0.7,1.4C15.9,11,15.8,11.2,15.4,11.2z"/>
	<path fill-rule="evenodd" clip-rule="evenodd" fill="#E64D3C" d="M3,2.6c0,3.8,0,7.7,0,11.5c0,0.5,0,0.9,0,1.4c-0.1,0-0.1,0-0.2,0
		C2.3,15.6,2,16.1,2,16.6c0,0.5,0.5,0.9,1,0.9c0.7,0,0.8,0,1.5,0c0.7,0,1.1-0.7,0.9-1.3c-0.2-0.4-0.5-0.7-0.9-0.7c0,0,0-0.1,0-0.1
		c0-3.3,0-6.7,0-10c0-1,0-2,0-2.9C4.4,2.5,2.9,2.6,3,2.6z"/>
</g>
</svg>
