<?xml version="1.0" encoding="utf-8"?>
<!-- Generator: Adobe Illustrator 18.1.1, SVG Export Plug-In . SVG Version: 6.00 Build 0)  -->
<svg version="1.1" id="Icons" xmlns="http://www.w3.org/2000/svg" xmlns:xlink="http://www.w3.org/1999/xlink" x="0px" y="0px"
	 viewBox="0 0 20 20" enable-background="new 0 0 20 20" xml:space="preserve">
<g>
	<g>
		<path fill="#6B6C6C" d="M10,18.5L10,18.5c-4.7,0-8.5-3.8-8.5-8.5c0-4.7,3.8-8.5,8.5-8.5c2.3,0,4.4,0.9,6,2.5
			c1.6,1.6,2.5,3.7,2.5,6C18.5,14.7,14.7,18.5,10,18.5z M10,2.5c-4.1,0-7.5,3.4-7.5,7.5c0,4.1,3.4,7.5,7.5,7.5l0,0.5v-0.5
			c4.1,0,7.5-3.4,7.5-7.5c0-2-0.8-3.9-2.2-5.3C13.9,3.3,12,2.5,10,2.5z"/>
	</g>
	<path fill="#6B6C6C" d="M15.8,10c0-0.8-0.6-1.4-1.4-1.5c-0.8,0-1.5,0.6-1.5,1.5c0,0.8,0.7,1.5,1.5,1.5C15.2,11.4,15.8,10.8,15.8,10
		z"/>
	<path fill="#6B6C6C" d="M10,11.5c0.8,0,1.4-0.7,1.4-1.5c0-0.8-0.7-1.5-1.5-1.4c-0.8,0-1.5,0.7-1.4,1.5C8.6,10.8,9.2,11.5,10,11.5z"
		/>
	<path fill="#6B6C6C" d="M4.2,10c0,0.8,0.6,1.4,1.4,1.5c0.8,0,1.5-0.6,1.5-1.4c0-0.8-0.6-1.5-1.4-1.5C4.8,8.5,4.2,9.2,4.2,10z"/>
</g>
</svg>
