<?xml version="1.0" encoding="utf-8"?>
<!-- Generator: Adobe Illustrator 18.1.1, SVG Export Plug-In . SVG Version: 6.00 Build 0)  -->
<svg version="1.1" id="Icons" xmlns="http://www.w3.org/2000/svg" xmlns:xlink="http://www.w3.org/1999/xlink" x="0px" y="0px"
	 viewBox="0 0 20 20" enable-background="new 0 0 20 20" xml:space="preserve">
<g>
	<g>
		<path fill="#5D5D5D" d="M9.5,10.4c-0.1-0.1-0.1-0.1-0.2-0.2c0,0-0.1,0.1-0.1,0.1c-0.2,0.2-0.4,0.4-0.7,0.6
			c-0.2,0.2-0.4,0.4-0.6,0.5c-0.2,0.2-0.4,0.3-0.5,0.5c-0.3,0.3-0.6,0.6-0.8,0.8c-0.1,0.1-0.2,0.2-0.2,0.2C6.3,13,6.3,13,6.3,13l0,0
			c0,0,0.5-0.4,1.2-0.9c0.4-0.3,0.8-0.6,1.2-0.9c0.2-0.2,0.4-0.4,0.7-0.5c0.1-0.1,0.1-0.1,0.2-0.2L9.5,10.4z"/>
		<path fill="#5D5D5D" d="M13.8,12.9c-0.1-0.1-0.1-0.1-0.2-0.2c-0.2-0.2-0.5-0.4-0.8-0.7c-0.2-0.2-0.3-0.3-0.5-0.5
			c-0.2-0.2-0.4-0.3-0.6-0.5c-0.2-0.2-0.4-0.4-0.7-0.5c0,0-0.1-0.1-0.1-0.1c-0.1,0.1-0.1,0.1-0.2,0.2l-0.1,0.1
			c0.1,0.1,0.1,0.1,0.2,0.2c0.2,0.2,0.5,0.3,0.7,0.5c0.4,0.3,0.9,0.6,1.2,0.9c0.7,0.5,1.2,0.9,1.2,0.9L13.8,12.9
			C13.9,12.9,13.9,12.9,13.8,12.9z"/>
	</g>
	<path fill="#5D5D5D" d="M14.7,5.5c0.9,0,1.6,0.7,1.6,1.6v5.7c0,0.9-0.7,1.6-1.6,1.6H5.3c-0.9,0-1.6-0.7-1.6-1.6V7.1
		c0-0.9,0.7-1.6,1.6-1.6H14.7 M14.7,4.8H5.3C4,4.8,3,5.9,3,7.1v5.7c0,1.3,1,2.3,2.3,2.3h9.4c1.3,0,2.3-1,2.3-2.3V7.1
		C17,5.9,16,4.8,14.7,4.8L14.7,4.8z"/>
	<path fill="#5D5D5D" d="M15.6,6.4c0,0,0,0-0.1,0.1c-0.1,0.1-0.2,0.2-0.3,0.3C14.9,7.2,14.5,7.6,14,8c-0.5,0.5-1,1-1.7,1.5
		c-0.3,0.3-0.6,0.6-1,0.8c-0.2,0.1-0.3,0.3-0.5,0.4L10.6,11l-0.1,0.1l0,0l0,0l-0.1,0.1l0,0l0,0l0,0l0,0c0,0-0.1,0-0.1,0
		c-0.1,0-0.1,0-0.2,0c-0.1,0-0.2,0-0.3-0.1c0,0-0.1-0.1-0.1-0.1l0,0L9.5,11l-0.3-0.2c-0.2-0.1-0.3-0.3-0.5-0.4
		c-0.3-0.3-0.7-0.5-1-0.8C7.4,9.3,7.1,9.1,6.8,8.8C6.5,8.6,6.2,8.3,6,8.1C5.5,7.7,5.1,7.3,4.8,7C4.7,6.9,4.6,6.8,4.5,6.7
		C4.4,6.6,4.4,6.6,4.4,6.6l0,0c0,0,0.7,0.5,1.8,1.3C6.7,8.2,7.3,8.7,8,9.2c0.3,0.2,0.7,0.5,1,0.8c0.2,0.1,0.3,0.3,0.5,0.4l0.3,0.2
		c0.1,0.1,0.2,0.2,0.2,0.1c0.1,0,0.2-0.1,0.2-0.1l0.3-0.2c0.2-0.1,0.3-0.3,0.5-0.4c0.3-0.3,0.7-0.5,1-0.8c0.6-0.5,1.3-1,1.8-1.4
		C14.9,6.9,15.6,6.4,15.6,6.4L15.6,6.4z"/>
	<circle fill="#F47821" cx="15.7" cy="5.8" r="3.2"/>
	<g>
		<path fill="#FFFFFF" d="M15.7,2.8c1.6,0,2.9,1.3,2.9,2.9c0,1.6-1.3,2.9-2.9,2.9c-1.6,0-2.9-1.3-2.9-2.9
			C12.8,4.1,14.1,2.8,15.7,2.8 M15.7,2.4c-1.9,0-3.4,1.5-3.4,3.4c0,1.9,1.5,3.4,3.4,3.4c1.9,0,3.4-1.5,3.4-3.4
			C19.1,3.9,17.6,2.4,15.7,2.4L15.7,2.4z"/>
	</g>
</g>
</svg>
