<?xml version="1.0" encoding="utf-8"?>
<!-- Generator: Adobe Illustrator 18.1.1, SVG Export Plug-In . SVG Version: 6.00 Build 0)  -->
<svg version="1.1" id="Icons" xmlns="http://www.w3.org/2000/svg" xmlns:xlink="http://www.w3.org/1999/xlink" x="0px" y="0px"
	 viewBox="0 0 20 20" enable-background="new 0 0 20 20" xml:space="preserve">
<g>
	<path fill-rule="evenodd" clip-rule="evenodd" fill="#5D5D5D" d="M7.8,16.4c0-3.4-0.1-6.9-0.1-10.3c0-0.1,0-0.3,0-0.4
		c0.1-1,1.5-1.7,2.5-1.2c0.7,0.3,1,0.8,1,1.5c0,3.4,0.1,6.8,0.1,10.1c0,0.1,0,0.1,0,0.2c0,0.3-0.3,0.4-0.6,0.4
		c-0.3,0-0.5-0.2-0.6-0.4c0-0.1,0-0.2,0-0.2c0-2.4-0.1-4.8-0.1-7.1c0-0.4-0.3-0.6-0.6-0.6c-0.4,0-0.6,0.3-0.6,0.6
		c0,2.4,0.1,4.8,0.1,7.3c0,0.9,0.7,1.5,1.6,1.6c1.2,0.1,2.1-0.6,2.1-1.7c0-3.4-0.1-6.8-0.1-10.2c0-0.6-0.2-1.2-0.6-1.7
		c-0.6-0.7-1.5-1.1-2.5-1C7.7,3.2,6.4,4.4,6.5,5.9c0,3.5,0.1,7,0.1,10.5L7.8,16.4z"/>
	<g>
		<circle fill="#F47821" cx="13.5" cy="6.1" r="3.2"/>
		<g>
			<path fill="#FFFFFF" d="M13.5,3.2c1.6,0,2.9,1.3,2.9,2.9c0,1.6-1.3,2.9-2.9,2.9c-1.6,0-2.9-1.3-2.9-2.9
				C10.5,4.5,11.9,3.2,13.5,3.2 M13.5,2.7c-1.9,0-3.4,1.5-3.4,3.4c0,1.9,1.5,3.4,3.4,3.4c1.9,0,3.4-1.5,3.4-3.4
				C16.8,4.3,15.3,2.7,13.5,2.7L13.5,2.7z"/>
		</g>
	</g>
</g>
</svg>
