<?xml version="1.0" encoding="utf-8"?>
<!-- Generator: Adobe Illustrator 18.1.1, SVG Export Plug-In . SVG Version: 6.00 Build 0)  -->
<svg version="1.1" id="Icons" xmlns="http://www.w3.org/2000/svg" xmlns:xlink="http://www.w3.org/1999/xlink" x="0px" y="0px"
	 viewBox="0 0 22 22" enable-background="new 0 0 22 22" xml:space="preserve">
<g>
	<path fill="#5D5D5D" d="M11,5.9c3.6,0,6.6,2.9,6.6,6.5c0,3.6-2.9,6.5-6.5,6.5c-3.6,0-6.6-2.9-6.6-6.5C4.5,8.9,7.4,5.9,11,5.9z
		 M16.4,12.5c0-3-2.4-5.4-5.4-5.4c-3,0-5.4,2.4-5.4,5.4c0,2.9,2.4,5.4,5.3,5.4C14,17.9,16.4,15.5,16.4,12.5z"/>
	<path fill="#5D5D5D" d="M11.6,4.9c0,0.1,0,0.3,0,0.4c-0.4,0-0.8,0-1.1,0c0-0.1,0-0.3,0-0.4c-0.1,0-0.1,0-0.2,0c-0.2,0-0.5,0-0.7,0
		C9.2,4.9,9,4.6,9,4.3c0-0.2,0-0.5,0-0.7C9,3.2,9.2,3,9.6,3c1,0,1.9,0,2.9,0C12.8,3,13,3.3,13,3.6c0,0.2,0,0.5,0,0.7
		c0,0.4-0.2,0.6-0.6,0.6C12.2,4.9,11.9,4.9,11.6,4.9C11.6,4.9,11.6,4.9,11.6,4.9z"/>
	<path fill="#5D5D5D" d="M16.5,7.9c-0.3-0.3-0.7-0.7-1-1c0.2-0.2,0.4-0.5,0.7-0.4c0.3,0.1,0.6,0.3,0.6,0.7C17,7.5,16.8,7.7,16.5,7.9
		z"/>
	<path fill="#5D5D5D" d="M6.5,6.9c-0.3,0.3-0.7,0.7-1,1C5.3,7.8,5,7.6,5.1,7.3c0.1-0.3,0.3-0.6,0.6-0.7C5.9,6.5,6.1,6.6,6.5,6.9z"/>
	<path fill="#5D5D5D" d="M10.2,12.5c0-0.5,0.4-0.9,0.8-0.9c0.1,0,0.2,0,0.2-0.1c0.5-0.9,1-1.8,1.5-2.8c0-0.1,0.1-0.2,0.2-0.2
		c0.2-0.1,0.4,0.2,0.3,0.4c0,0.1-0.1,0.2-0.1,0.3c-0.5,0.9-0.9,1.7-1.4,2.6c-0.1,0.1-0.1,0.2,0,0.3c0.2,0.3,0.2,0.7-0.1,1
		c-0.2,0.3-0.6,0.4-1,0.3C10.4,13.2,10.2,12.9,10.2,12.5z"/>
</g>
</svg>
