<?xml version="1.0" encoding="utf-8"?>
<!-- Generator: Adobe Illustrator 18.0.0, SVG Export Plug-In . SVG Version: 6.00 Build 0)  -->
<!DOCTYPE svg PUBLIC "-//W3C//DTD SVG 1.1//EN" "http://www.w3.org/Graphics/SVG/1.1/DTD/svg11.dtd">
<svg version="1.1" id="Layer_1" xmlns="http://www.w3.org/2000/svg" xmlns:xlink="http://www.w3.org/1999/xlink" x="0px" y="0px"
	width="27px" height="32px" viewBox="0 0 27 32" enable-background="new 0 0 27 32" xml:space="preserve">
<g>
	<path fill="#A5A5A5" d="M20.4,11.1h-1.4v-0.4c0-0.7-0.6-1.3-1.3-1.3H17C17,8.1,15.9,7,14.6,7s-2.4,1-2.4,2.3h-0.6
		c-0.7,0-1.3,0.6-1.3,1.3v0.4H8.8c-0.5,0-0.9,0.4-0.9,0.9v14.2c0,0.5,0.4,0.9,0.9,0.9h11.6c0.5,0,0.9-0.4,0.9-0.9V11.9
		C21.3,11.4,20.9,11.1,20.4,11.1z M14.6,8.3c0.6,0,1.1,0.5,1.1,1.1h-2.3C13.5,8.7,14,8.3,14.6,8.3z M20.2,25.9H9V12.1h1.2v1h8.7v-1
		h1.2V25.9z"/>
	<path fill="#A5A5A5" d="M18.6,14.9h-2.8c-0.4,0-0.8,0.3-0.8,0.8c0,0.4,0.4,0.8,0.8,0.8h2.8c0.4,0,0.8-0.3,0.8-0.8
		C19.4,15.3,19.1,14.9,18.6,14.9z"/>
	<path fill="#A5A5A5" d="M11.8,15.7l-0.6-0.5c-0.1-0.1-0.4-0.1-0.5,0l-0.3,0.4c-0.1,0.1-0.1,0.2-0.1,0.3c0,0.1,0.1,0.2,0.1,0.3
		l1.1,0.8c0.3,0.2,0.6,0.2,0.8,0l1.8-1.8c0.1-0.1,0.1-0.2,0.1-0.3c0-0.1,0-0.2-0.1-0.3l-0.2-0.2c-0.2-0.2-0.5-0.2-0.7,0L11.8,15.7z"
		/>
	<path fill="#A5A5A5" d="M18.6,18.5h-2.8c-0.4,0-0.8,0.3-0.8,0.8c0,0.4,0.4,0.8,0.8,0.8h2.8c0.4,0,0.8-0.3,0.8-0.8
		C19.4,18.8,19.1,18.5,18.6,18.5z"/>
	<path fill="#A5A5A5" d="M11.8,19.2l-0.6-0.5c-0.1-0.1-0.4-0.1-0.5,0l-0.3,0.4c-0.1,0.1-0.1,0.2-0.1,0.3c0,0.1,0.1,0.2,0.1,0.3
		l1.1,0.8c0.3,0.2,0.6,0.2,0.8,0l1.8-1.8c0.1-0.1,0.1-0.2,0.1-0.3c0-0.1-0.1-0.2-0.1-0.3l-0.2-0.2c-0.2-0.2-0.5-0.2-0.7,0L11.8,19.2
		z"/>
	<path fill="#A5A5A5" d="M18.6,22h-2.8c-0.4,0-0.8,0.3-0.8,0.8c0,0.4,0.4,0.8,0.8,0.8h2.8c0.4,0,0.8-0.3,0.8-0.8
		C19.4,22.3,19.1,22,18.6,22z"/>
	<path fill="#A5A5A5" d="M11.8,22.7l-0.6-0.5c-0.1-0.1-0.4-0.1-0.5,0l-0.3,0.4c-0.1,0.1-0.1,0.2-0.1,0.3c0,0.1,0.1,0.2,0.1,0.3
		l1.1,0.8c0.3,0.2,0.6,0.2,0.8,0l1.8-1.8c0.2-0.2,0.2-0.5,0-0.7l-0.2-0.2c-0.1-0.1-0.2-0.1-0.3-0.1c-0.1,0-0.2,0-0.3,0.1L11.8,22.7z
		"/>
</g>
</svg>
