<?xml version="1.0" encoding="utf-8"?>
<!-- Generator: Adobe Illustrator 18.0.0, SVG Export Plug-In . SVG Version: 6.00 Build 0)  -->
<!DOCTYPE svg PUBLIC "-//W3C//DTD SVG 1.1//EN" "http://www.w3.org/Graphics/SVG/1.1/DTD/svg11.dtd">
<svg version="1.1" id="Layer_1" xmlns="http://www.w3.org/2000/svg" xmlns:xlink="http://www.w3.org/1999/xlink" x="0px" y="0px"
	 width="24px" height="24px" viewBox="0 0 24 24" style="enable-background:new 0 0 24 24;" xml:space="preserve">
<style type="text/css">
	.st0{fill:#D8D9D8;}
</style>
<path class="st0" d="M7.9,12H5.1V9.3h2.8V12z M13.4,9.3h-2.8V12h2.8V9.3z M18.9,9.3h-2.8V12h2.8V9.3z M7.9,13.4H5.1v2.8h2.8V13.4z
	 M13.4,13.4h-2.8v2.8h2.8V13.4z M18.9,13.4h-2.8v2.8h2.8V13.4z M7.9,17.5H5.1v2.8h2.8V17.5z M13.4,17.5h-2.8v2.8h2.8V17.5z M6.5,5.1
	c0.8,0,1.4-0.6,1.4-1.4V2.4C7.9,1.6,7.3,1,6.5,1C5.7,1,5.1,1.6,5.1,2.4v1.4C5.1,4.5,5.7,5.1,6.5,5.1z M23,3.8V23H1V3.8h3.4
	c0,1.1,0.9,2.1,2.1,2.1c1.1,0,2.1-0.9,2.1-2.1h6.9c0,1.1,0.9,2.1,2.1,2.1c1.1,0,2.1-0.9,2.1-2.1H23z M21.6,7.9H2.4v13.8h19.3V7.9z
	 M17.5,5.1c0.8,0,1.4-0.6,1.4-1.4V2.4c0-0.8-0.6-1.4-1.4-1.4c-0.8,0-1.4,0.6-1.4,1.4v1.4C16.1,4.5,16.7,5.1,17.5,5.1z"/>
<g>
</g>
<g>
</g>
<g>
</g>
<g>
</g>
<g>
</g>
<g>
</g>
</svg>
