<?xml version="1.0" encoding="utf-8"?>
<!-- Generator: Adobe Illustrator 18.0.0, SVG Export Plug-In . SVG Version: 6.00 Build 0)  -->
<!DOCTYPE svg PUBLIC "-//W3C//DTD SVG 1.1//EN" "http://www.w3.org/Graphics/SVG/1.1/DTD/svg11.dtd">
<svg version="1.1" id="Layer_1" xmlns="http://www.w3.org/2000/svg" xmlns:xlink="http://www.w3.org/1999/xlink" x="0px" y="0px"
	width="20px" height="20px" viewBox="0 0 20 20" style="enable-background:new 0 0 20 20;" xml:space="preserve">
<style type="text/css">
	.st0{fill:#A5A5A5;}
</style>
<path class="st0" d="M10.5,10l4.2,4.5l-0.8,0.8l-5.1-4.5l-0.1-0.7l0.4-6.8h1.1L10.5,10z M20,10c0,5.5-4.5,10-10,10S0,15.5,0,10
	C0,4.5,4.5,0,10,0S20,4.5,20,10z M18.3,10c0-4.6-3.7-8.3-8.3-8.3S1.7,5.4,1.7,10c0,4.6,3.7,8.3,8.3,8.3S18.3,14.6,18.3,10z"/>
<g>
</g>
<g>
</g>
<g>
</g>
<g>
</g>
<g>
</g>
<g>
</g>
</svg>
