<?xml version="1.0" encoding="utf-8"?>
<!-- Generator: Adobe Illustrator 18.0.0, SVG Export Plug-In . SVG Version: 6.00 Build 0)  -->
<!DOCTYPE svg PUBLIC "-//W3C//DTD SVG 1.1//EN" "http://www.w3.org/Graphics/SVG/1.1/DTD/svg11.dtd">
<svg version="1.1" id="Layer_1" xmlns="http://www.w3.org/2000/svg" xmlns:xlink="http://www.w3.org/1999/xlink" x="0px" y="0px"
	width="24.5px" height="25px" viewBox="0 0 24.5 25" style="enable-background:new 0 0 24.5 25;" xml:space="preserve">
<style type="text/css">
	.st0{fill:#3E3E3E;}
</style>
<path class="st0" d="M3.1,8v4.1h14.8l1.3-1.3c0.4-0.4,1.1-0.4,1.5,0l1.3,1.3h1.4v1.8h-1.4l-1.3,1.3c-0.4,0.4-1.1,0.4-1.5,0l-1.3-1.3
	H3.1V18h1.3l1.3-1.3c0.4-0.4,1.1-0.4,1.5,0L8.4,18h14.9v1.8H8.4l-1.3,1.3c-0.4,0.4-1.1,0.4-1.5,0l-1.3-1.3H3.1V24H1.3H1.2V2h0.1h1.8
	v4.2h6.4l1.3-1.3c0.4-0.4,1.1-0.4,1.5,0l1.3,1.3h9.8V8h-9.8l-1.3,1.3c-0.4,0.4-1.1,0.4-1.5,0L9.5,8H3.1z"/>
<g>
</g>
<g>
</g>
<g>
</g>
<g>
</g>
<g>
</g>
<g>
</g>
</svg>
