<?xml version="1.0" encoding="utf-8"?>
<!-- Generator: Adobe Illustrator 18.1.1, SVG Export Plug-In . SVG Version: 6.00 Build 0)  -->
<svg version="1.1" id="Layer_1" xmlns="http://www.w3.org/2000/svg" xmlns:xlink="http://www.w3.org/1999/xlink" x="0px" y="0px"
	 viewBox="0 0 20 20" enable-background="new 0 0 20 20" xml:space="preserve">
<g>
	<g>
		<path fill="#6B6C6C" d="M12.7,6.4v4.8c0,0.8-0.2,1.4-0.7,1.8c-0.5,0.4-1.1,0.6-1.9,0.6c-0.8,0-1.4-0.2-1.9-0.6
			c-0.5-0.4-0.7-1-0.7-1.8V6.4h1.1v4.8c0,0.5,0.1,0.9,0.4,1.1c0.3,0.3,0.6,0.4,1.1,0.4c0.5,0,0.8-0.1,1.1-0.4
			c0.3-0.3,0.4-0.6,0.4-1.1V6.4H12.7z"/>
	</g>
</g>
<g>
	<path fill="#AEAEAE" d="M10,0.5c5.2,0,9.5,4.3,9.5,9.5s-4.3,9.5-9.5,9.5S0.5,15.2,0.5,10S4.8,0.5,10,0.5 M10,0C4.5,0,0,4.5,0,10
		c0,5.5,4.5,10,10,10c5.5,0,10-4.5,10-10C20,4.5,15.5,0,10,0L10,0z"/>
</g>
</svg>
