<?xml version="1.0" encoding="utf-8"?>
<!-- Generator: Adobe Illustrator 18.0.0, SVG Export Plug-In . SVG Version: 6.00 Build 0)  -->
<!DOCTYPE svg PUBLIC "-//W3C//DTD SVG 1.1//EN" "http://www.w3.org/Graphics/SVG/1.1/DTD/svg11.dtd">
<svg version="1.1" id="Layer_1" xmlns="http://www.w3.org/2000/svg" xmlns:xlink="http://www.w3.org/1999/xlink" x="0px" y="0px"
	width="51px" height="26px"  viewBox="0 0 51 26" style="enable-background:new 0 0 51 26;" xml:space="preserve">
<style type="text/css">
	.st0{fill:#A5A5A5;}
</style>
<g>
	<g>
		<path class="st0" d="M40.5,7.6C40.5,7.6,40.6,7.6,40.5,7.6c0.2-0.7-0.1-1.4-0.8-1.6c-0.6-0.2-1.3,0.1-1.5,0.7c0,0,0,0,0,0.1
			c0,0,0,0,0,0h0c-0.4,1.1-3.9,10.3-3.9,10.3h-0.1L30.2,6.7l0,0l-0.1-0.1c-0.3-0.6-1-0.9-1.6-0.7c-0.6,0.2-1,0.9-0.8,1.6
			C28.2,8.8,33,20.3,33,20.3L32.7,21c-0.5,1.4-1.1,2.4-2.7,2.4c-0.2,0-0.7,0-0.7,0c-0.5,0-1,0.3-1.1,0.8c-0.2,0.6,0.2,1.2,0.8,1.3
			c0.4,0.1,0.8,0.1,1.2,0.1c2.9,0,3.9-1.7,4.8-4.1c0,0,5.3-13.1,5.5-13.7C40.5,7.7,40.5,7.7,40.5,7.6L40.5,7.6z"/>
		<path class="st0" d="M47.2,13.7L47.2,13.7c-0.1,0-0.2,0-0.3,0l-0.2-0.1c-0.4-0.2-4.6-3.1-4.7-3.8c0-0.1,0-0.2,0.1-0.2
			c0.1-0.1,0.2-0.1,0.3-0.1c1,0,3.8,1.3,5.4,2.2c0.5,0.4,0.6,1.1,0.3,1.6C48,13.5,47.6,13.7,47.2,13.7"/>
		<path class="st0" d="M42.6,4.9L42.6,4.9c-0.2,0-0.3,0-0.3-0.1c-0.1-0.1-0.1-0.1-0.1-0.2c0-0.8,4.3-3.6,4.7-3.8l0.1-0.1
			c0.1,0,0.2-0.1,0.4-0.1c0.4,0,0.8,0.2,1,0.5c0.3,0.5,0.2,1.2-0.3,1.5C46.3,3.6,43.6,4.9,42.6,4.9"/>
		<path class="st0" d="M49.6,8.3L49.6,8.3c-0.1,0-5.6,0-6.1-0.9c0-0.1,0-0.2,0-0.3C44,6.4,49.1,6,49.5,6l0.1,0
			c0.5,0.1,0.9,0.6,0.9,1.1C50.7,7.6,50.2,8.2,49.6,8.3L49.6,8.3z"/>
	</g>
	<path class="st0" d="M19.9,9.4V5.7c0-1.2-0.9-2.1-2.1-2.1H3c-1.2,0-2.1,1-2.1,2.1v14.9c0,1.2,0.9,2.1,2.1,2.1h14.8
		c1.2,0,2.1-1,2.1-2.1v-3.7l5.6-3.6l0.1-0.1L19.9,9.4z"/>
</g>
<g>
</g>
<g>
</g>
<g>
</g>
<g>
</g>
<g>
</g>
<g>
</g>
</svg>
